<svg xmlns="http://www.w3.org/2000/svg" xmlns:xlink="http://www.w3.org/1999/xlink" width="79.155" height="79.154" viewBox="0 0 79.155 79.154">
  <defs>
    <radialGradient id="radial-gradient" cx="0.077" cy="0.019" r="1.465" gradientTransform="matrix(1, 0, 0, -1, 0, 9.666)" gradientUnits="objectBoundingBox">
      <stop offset="0" stop-color="#f4f4f5"/>
      <stop offset="0.477" stop-color="#f7f8fa"/>
      <stop offset="0.715" stop-color="#fff"/>
    </radialGradient>
  </defs>
  <g id="icon6" transform="translate(0)">
    <g id="Group_18531" data-name="Group 18531">
      <g id="Group_18423" data-name="Group 18423">
        <g id="Group_18421" data-name="Group 18421">
          <g id="Group_18420" data-name="Group 18420">
            <g id="Group_18419" data-name="Group 18419">
              <path id="Path_40936" data-name="Path 40936" d="M201.954,554.407a39.577,39.577,0,1,1-39.578-39.575h0A39.576,39.576,0,0,1,201.954,554.407Z" transform="translate(-122.8 -514.832)" fill="#fff"/>
            </g>
          </g>
        </g>
        <path id="Path_40937" data-name="Path 40937" d="M201.953,554.407a39.42,39.42,0,1,0,0,.312Z" transform="translate(-122.799 -514.832)" fill="url(#radial-gradient)"/>
        <path id="Path_40938" data-name="Path 40938" d="M190.028,551.858a30.209,30.209,0,1,0-30.209,30.209h0a30.1,30.1,0,0,0,30.209-29.984Z" transform="translate(-120.122 -512.151)" fill="none" stroke="#1d272b" stroke-miterlimit="10" stroke-width="2"/>
        <g id="Group_18422" data-name="Group 18422" transform="translate(7.012 22.22)">
          <path id="Path_40939" data-name="Path 40939" d="M195.973,530.78a39.581,39.581,0,0,1-68.14,39.411,39.456,39.456,0,0,0,68.14-39.411Z" transform="translate(-127.833 -530.78)" fill="#e7e9eb"/>
        </g>
      </g>
    </g>
    <g id="rzXOoQ" transform="translate(-2630.519 -30.023)">
      <g id="Grupo_129740" data-name="Grupo 129740" transform="translate(2656.324 50.94)">
        <path id="Trazado_166853" data-name="Trazado 166853" d="M2681.618,53.648c.094-.081.167-.142.237-.2a2.465,2.465,0,0,1,2.6-.572q5.354,1.81,10.706,3.629a2.457,2.457,0,0,1,1.534,1.446q2.888,6.99,5.772,13.981c.91,2.2,1.831,4.4,2.733,6.608a2.474,2.474,0,0,1-1.393,3.421q-7.832,3.254-15.675,6.481a2.454,2.454,0,0,1-3.292-1.346c-2.033-4.894-4.042-9.8-6.064-14.695-.786-1.9-1.568-3.81-2.385-5.7a2.981,2.981,0,0,1,.091-2.732c.92-1.772,1.775-3.578,2.677-5.36.167-.33.137-.489-.2-.675a13.266,13.266,0,0,1-3.406-2.6,4.065,4.065,0,0,1-1.079-1.912,2.057,2.057,0,0,1,1.836-2.468,4.234,4.234,0,0,1,2.606.743c.791.492,1.527,1.072,2.285,1.617C2681.339,53.412,2681.47,53.529,2681.618,53.648Zm1.018.924c.646.751,1.291,1.469,1.9,2.221a.856.856,0,0,0,.844.372,2.774,2.774,0,0,1,2.96,2.292,2.813,2.813,0,1,1-4.959-1.275c.106-.135.254-.4.2-.471-.484-.631-1.007-1.231-1.549-1.877a3.447,3.447,0,0,0-.221.323q-2.126,4.287-4.25,8.575a1.509,1.509,0,0,0-.015,1.344c.958,2.283,1.9,4.575,2.843,6.863q2.8,6.765,5.6,13.529a1.2,1.2,0,0,0,1.757.72Q2695.47,84,2703.2,80.8a1.222,1.222,0,0,0,.767-1.848q-1.721-4.176-3.447-8.35-2.482-6-4.96-12.011a1.492,1.492,0,0,0-.979-.917c-1.376-.454-2.745-.933-4.117-1.4q-3.157-1.072-6.316-2.138A1.154,1.154,0,0,0,2682.636,54.572Zm-2.7,2.43c.34-.688.664-1.315.952-1.957a.443.443,0,0,0-.139-.393c-.945-.693-1.886-1.4-2.871-2.029a3.143,3.143,0,0,0-1.234-.379.753.753,0,0,0-.858,1.036,3.221,3.221,0,0,0,.572.994A12.327,12.327,0,0,0,2679.937,57Zm4.528,1.968a1.484,1.484,0,0,0-.107,1.9,1.519,1.519,0,0,0,2.711-1.136,1.356,1.356,0,0,0-1.264-1.2c.152.4.109.758-.3.945C2685.007,59.712,2684.744,59.342,2684.465,58.97Z" transform="translate(-2672.674 -50.94)" fill="#1d272b"/>
        <path id="Trazado_166854" data-name="Trazado 166854" d="M2661.124,158.357c-1.7.1-2.733-.747-2.869-2.148-.365-3.75-.709-7.5-1.064-11.255-.274-2.9-.531-5.8-.839-8.7a3.069,3.069,0,0,1,.9-2.719c1.077-1.063,2.093-2.188,3.132-3.289.285-.3.6-.453.979-.189.354.246.34.681-.035,1.08-1.071,1.138-2.139,2.278-3.229,3.4a1.515,1.515,0,0,0-.465,1.3q.836,8.727,1.644,17.456c.08.85.154,1.7.233,2.55.092.988.474,1.305,1.45,1.216,1.572-.144,3.143-.29,4.715-.425.581-.05.856.136.893.559s-.212.657-.78.715C2664.139,158.075,2662.487,158.227,2661.124,158.357Z" transform="translate(-2656.324 -122.283)" fill="#1d272b"/>
        <path id="Trazado_166855" data-name="Trazado 166855" d="M2778.183,214.405c-.962-.092-1.926-.17-2.885-.283a.878.878,0,0,0-.91.366c-.569.74-1.191,1.44-1.786,2.161a1.432,1.432,0,0,1-2.592-.622c-.209-.96-.415-1.921-.665-2.871a.911.911,0,0,0-.454-.529c-.9-.4-1.816-.748-2.73-1.109a1.42,1.42,0,0,1-.215-2.625c.862-.495,1.718-1,2.555-1.537a.859.859,0,0,0,.362-.554c.094-.994.145-1.992.2-2.989a1.4,1.4,0,0,1,.833-1.309,1.361,1.361,0,0,1,1.568.258c.679.595,1.394,1.154,2.021,1.8a1.241,1.241,0,0,0,1.4.277c.82-.224,1.643-.435,2.465-.655a1.418,1.418,0,0,1,1.687,1.972c-.39.9-.765,1.805-1.169,2.7a.774.774,0,0,0,.059.845c.536.8,1.034,1.633,1.555,2.447a1.425,1.425,0,0,1-1.292,2.261Zm-7.764-10.826c-.036.28-.061.418-.071.558-.062.916-.125,1.833-.18,2.75a1.584,1.584,0,0,1-.7,1.4c-.868.522-1.739,1.038-2.607,1.56-.141.085-.271.186-.482.332.244.109.385.177.53.236.866.349,1.729.71,2.6,1.038a1.619,1.619,0,0,1,1.1,1.292c.193.947.418,1.886.636,2.828a3.994,3.994,0,0,0,.16.435c.156-.168.258-.267.348-.374.62-.741,1.244-1.48,1.855-2.229a1.538,1.538,0,0,1,1.442-.608q.745.081,1.491.147c.616.055,1.232.1,1.975.163-.16-.28-.247-.444-.345-.6-.495-.792-.987-1.586-1.492-2.372a1.458,1.458,0,0,1-.159-1.425c.272-.652.563-1.3.841-1.947.178-.417.347-.838.579-1.4-1.023.256-1.909.418-2.751.7a2.186,2.186,0,0,1-2.544-.531C2771.987,204.863,2771.228,204.286,2770.419,203.579Z" transform="translate(-2754.633 -187.712)" fill="#1d272b"/>
      </g>
    </g>
  </g>
</svg>
