<svg id="icon7" xmlns="http://www.w3.org/2000/svg" xmlns:xlink="http://www.w3.org/1999/xlink" width="114.636" height="114.636" viewBox="0 0 114.636 114.636">
  <defs>
    <radialGradient id="radial-gradient" cx="0.076" cy="0.019" r="1.465" gradientTransform="translate(0.001)" gradientUnits="objectBoundingBox">
      <stop offset="0" stop-color="#f6f6f7"/>
      <stop offset="0.477" stop-color="#f9f9fa"/>
      <stop offset="0.715" stop-color="#fff"/>
    </radialGradient>
  </defs>
  <g id="Grupo_18423" data-name="Grupo 18423" transform="translate(0 0)">
    <g id="Grupo_18421" data-name="Grupo 18421">
      <g id="Grupo_18420" data-name="Grupo 18420">
        <g id="Grupo_18419" data-name="Grupo 18419">
          <path id="Trazado_40936" data-name="Trazado 40936" d="M309.259,2203.037a57.318,57.318,0,1,1-57.317-57.316A57.317,57.317,0,0,1,309.259,2203.037Z" transform="translate(-194.623 -2145.721)" fill="#fff"/>
        </g>
      </g>
    </g>
    <path id="Trazado_40937" data-name="Trazado 40937" d="M308.648,2202.372a57.316,57.316,0,1,0-57.317,57.319A57.091,57.091,0,0,0,308.648,2202.372Z" transform="translate(-194.013 -2145.056)" fill="url(#radial-gradient)"/>
    <path id="Trazado_40938" data-name="Trazado 40938" d="M289.672,2196.986a43.75,43.75,0,1,0-43.75,43.75A43.587,43.587,0,0,0,289.672,2196.986Z" transform="translate(-188.43 -2139.479)" fill="none" stroke="#1d272d" stroke-miterlimit="10" stroke-width="4"/>
    <g id="Grupo_18422" data-name="Grupo 18422" transform="translate(10.154 32.18)">
      <path id="Trazado_40939" data-name="Trazado 40939" d="M299.231,2164.488a57.325,57.325,0,0,1-98.686,57.081,57.143,57.143,0,0,0,98.686-57.081Z" transform="translate(-200.545 -2164.488)" fill="#eceef0"/>
    </g>
  </g>
  <g id="_0h2GYs" data-name="0h2GYs" transform="translate(2335.623 214.293)">
    <g id="Grupo_91875" data-name="Grupo 91875" transform="translate(-2305.767 -183.461)">
      <path id="Trazado_150953" data-name="Trazado 150953" d="M-2144.826-183.461c.014.219.037.414.037.608,0,1.1,0,2.2,0,3.294,0,.856,0,.86-.871.916-1.879.122-3.759.245-5.638.357-3.669.22-7.339.424-11.006.653-1.563.1-3.124.241-4.694.492.238.019.475.055.713.055q8.453,0,16.9-.009c1.847,0,3.7.05,5.542-.009a3.248,3.248,0,0,1,3.205,3.315q-.016,18.528,0,37.056a26.29,26.29,0,0,1-.053,2.793,3.122,3.122,0,0,1-3.39,3q-7.3,0-14.6,0-6.888,0-13.776,0a3.215,3.215,0,0,1-3.24-1.8,4.276,4.276,0,0,1-.346-1.7c-.039-2.177-.016-4.354-.013-6.532a1.415,1.415,0,0,1,.075-.294c.743.279,1.438.6,2.168.794.524.139.632.408.627.886-.02,1.7.012,3.4-.022,5.1-.011.546.18.693.7.692q13.556-.018,27.112-.012c.439,0,.879-.01,1.317.007s.569-.165.568-.591c-.01-3.733,0-7.466,0-11.2q0-13.917,0-27.833c0-.909-.008-.911-.909-.911l-25.574-.011c-.86,0-1.72.019-2.579-.007-.422-.013-.61.141-.61.557,0,1.39-.024,2.78,0,4.17.006.438-.059.683-.555.812a10.71,10.71,0,0,0-1.714.717c-.46.212-.6.139-.594-.349q.01-2.717.012-5.434a3.2,3.2,0,0,1,2.761-3.237c1.431-.277,2.842-.655,4.265-.981,1.1-.252,2.209-.488,3.313-.738,1.67-.379,3.338-.769,5.008-1.147.978-.222,1.961-.427,2.939-.647,2.137-.481,4.271-.972,6.408-1.451q3.1-.7,6.2-1.376A2.219,2.219,0,0,1-2144.826-183.461Z" transform="translate(2190.303 183.461)" fill="#1d272b"/>
      <path id="Trazado_150954" data-name="Trazado 150954" d="M-2232.088-26.214a12.99,12.99,0,0,1,12.729-13.152,13.06,13.06,0,0,1,13.31,12.788,13.064,13.064,0,0,1-12.935,13.285A13,13,0,0,1-2232.088-26.214Zm13.03-10a9.858,9.858,0,0,0-9.915,10.145,9.816,9.816,0,0,0,9.91,9.648,9.858,9.858,0,0,0,9.887-10.229A9.886,9.886,0,0,0-2219.059-36.218Z" transform="translate(2240.179 55.186)" fill="#1d272b"/>
      <path id="Trazado_150955" data-name="Trazado 150955" d="M-2303.607,171.347a2.152,2.152,0,0,1-1.867-1.131,2.089,2.089,0,0,1,.26-2.5c.908-.974,1.857-1.911,2.8-2.857q2.413-2.428,4.837-4.847.425-.426.852-.85c.209-.208.354-.269.614.017.759.835,1.55,1.643,2.376,2.412.358.333.385.486.018.848-2.663,2.63-5.3,5.289-7.941,7.938A2.4,2.4,0,0,1-2303.607,171.347Z" transform="translate(2305.767 -121.393)" fill="#1d272b"/>
      <path id="Trazado_150956" data-name="Trazado 150956" d="M-2028.906,173.336c.815-.471,1.167-1.514,2.408-1.49,3.181.062,6.364.024,9.546,0a.953.953,0,0,1,1.012.665.958.958,0,0,1-.3.8,1.417,1.417,0,0,1-.869.25c-3.306.014-6.613.006-9.919,0h-1.787Z" transform="translate(2059.299 -132.84)" fill="#1d272b"/>
      <path id="Trazado_150957" data-name="Trazado 150957" d="M-2009.076-7.768c.766,0,1.362,0,1.957,0q3.7-.008,7.4-.016c.236,0,.473.029.71.042a.709.709,0,0,1,.743.776c-.031.286-.369.559-.614.79-.095.089-.315.06-.477.06q-4.056,0-8.113-.011a.729.729,0,0,1-.5-.134C-2008.337-6.7-2008.656-7.185-2009.076-7.768Z" transform="translate(2041.646 27.069)" fill="#1d272b"/>
      <path id="Trazado_150958" data-name="Trazado 150958" d="M-1993.055,128.579a6.338,6.338,0,0,0,.517-1.072c.134-.518.459-.552.9-.55,2.045.013,4.091-.006,6.136,0a1.828,1.828,0,0,1,.909.106,1.267,1.267,0,0,1,.582.808.706.706,0,0,1-.73.728q-1.013.035-2.029.038-2.906.01-5.812.005A4.27,4.27,0,0,1-1993.055,128.579Z" transform="translate(2027.384 -92.873)" fill="#1d272b"/>
      <path id="Trazado_150959" data-name="Trazado 150959" d="M-1979.391,37.174c1.1,0,2.194-.007,3.292,0a.9.9,0,0,1,.936.735.791.791,0,0,1-.766.846,9.816,9.816,0,0,1-1.308.041c-1.718,0-3.436-.017-5.154,0a.5.5,0,0,1-.591-.484c-.014-.09-.025-.182-.047-.27-.224-.9-.225-.9.728-.9h2.909Z" transform="translate(2018.567 -12.933)" fill="#1d272b"/>
      <path id="Trazado_150960" data-name="Trazado 150960" d="M-1975.39,83.566c-1,0-2.008-.013-3.011.007-.357.007-.479-.1-.473-.465.019-1.258.008-1.252,1.266-1.252,1.624,0,3.249-.011,4.873-.014a3.96,3.96,0,0,1,.547.028.921.921,0,0,1,.843.852.954.954,0,0,1-.922.841C-1973.309,83.575-1974.35,83.566-1975.39,83.566Z" transform="translate(2014.76 -52.717)" fill="#1d272b"/>
      <path id="Trazado_150961" data-name="Trazado 150961" d="M-2124.66,18.583c0,1.39-.006,2.78,0,4.17,0,.32-.107.478-.441.475-.731-.007-1.464-.013-2.195,0-.371.009-.469-.158-.467-.5.013-2.561.011-5.123.02-7.684,0-1.1.012-1.1,1.095-1.1.494,0,.989.022,1.481-.011.415-.028.506.185.5.528Q-2124.662,16.525-2124.66,18.583Z" transform="translate(2147.301 7.732)" fill="#1d272b"/>
      <path id="Trazado_150962" data-name="Trazado 150962" d="M-2127.845,113.688a7.2,7.2,0,0,1,.018-1.095.559.559,0,0,1,.373-.381c.73-.036,1.463-.009,2.2-.013.372,0,.528.171.522.538-.01.694-.007,1.388-.006,2.082,0,.32-.1.524-.474.517q-1.07-.021-2.141-.006c-.389.005-.514-.18-.494-.544s0-.731,0-1.1Z" transform="translate(2147.387 -79.737)" fill="#1d272b"/>
    </g>
  </g>
</svg>
