<svg id="icon8" xmlns="http://www.w3.org/2000/svg" xmlns:xlink="http://www.w3.org/1999/xlink" width="114.636" height="114.636" viewBox="0 0 114.636 114.636">
  <defs>
    <radialGradient id="radial-gradient" cx="0.076" cy="0.019" r="1.465" gradientTransform="translate(0.001)" gradientUnits="objectBoundingBox">
      <stop offset="0" stop-color="#f6f6f7"/>
      <stop offset="0.477" stop-color="#f9f9fa"/>
      <stop offset="0.715" stop-color="#fff"/>
    </radialGradient>
  </defs>
  <g id="Grupo_18423" data-name="Grupo 18423" transform="translate(0 0)">
    <g id="Grupo_18421" data-name="Grupo 18421">
      <g id="Grupo_18420" data-name="Grupo 18420">
        <g id="Grupo_18419" data-name="Grupo 18419">
          <path id="Trazado_40936" data-name="Trazado 40936" d="M309.259,2203.037a57.318,57.318,0,1,1-57.317-57.316A57.317,57.317,0,0,1,309.259,2203.037Z" transform="translate(-194.623 -2145.721)" fill="#fff"/>
        </g>
      </g>
    </g>
    <path id="Trazado_40937" data-name="Trazado 40937" d="M308.648,2202.372a57.316,57.316,0,1,0-57.317,57.319A57.091,57.091,0,0,0,308.648,2202.372Z" transform="translate(-194.013 -2145.056)" fill="url(#radial-gradient)"/>
    <path id="Trazado_40938" data-name="Trazado 40938" d="M289.672,2196.986a43.75,43.75,0,1,0-43.75,43.75A43.587,43.587,0,0,0,289.672,2196.986Z" transform="translate(-188.43 -2139.479)" fill="none" stroke="#1d272b" stroke-miterlimit="10" stroke-width="4"/>
    <g id="Grupo_18422" data-name="Grupo 18422" transform="translate(10.154 32.18)">
      <path id="Trazado_40939" data-name="Trazado 40939" d="M299.231,2164.488a57.325,57.325,0,0,1-98.686,57.081,57.143,57.143,0,0,0,98.686-57.081Z" transform="translate(-200.545 -2164.488)" fill="#eceef0"/>
    </g>
  </g>
  <g id="TKvKcl.tif" transform="translate(-951.719 26.558)">
    <g id="Grupo_121018" data-name="Grupo 121018" transform="translate(988.634 5.153)">
      <path id="Trazado_158642" data-name="Trazado 158642" d="M1008.637,60.695a23.933,23.933,0,0,1-2.891-1.007,7.408,7.408,0,0,1-1.884-1.438q-6.431-6.381-12.818-12.806a7.765,7.765,0,0,1-.071-11.179,7.7,7.7,0,0,1,5.784-2.773,2.787,2.787,0,0,0,2.212-.98,14,14,0,0,1,5.057-3.177c.116-.043.228-.1.416-.177-3.992-2.43-6.213-5.88-6.165-10.562a11.248,11.248,0,0,1,4.167-8.721,11.666,11.666,0,0,1,16.6,1.654,11.35,11.35,0,0,1,2.231,10.006,11.514,11.514,0,0,1-6.433,7.9l5.06,3a1.9,1.9,0,0,1,.279-.42q5.305-5.32,10.623-10.628c.978-.977,1.845-.784,2.322.519,1.693,4.628,3.375,9.26,5.086,13.881a1.555,1.555,0,0,1-.417,1.847q-11.255,11.224-22.482,22.477a8.107,8.107,0,0,1-4.8,2.512.454.454,0,0,0-.138.074Zm22.747-38.732c-.206.256-.317.424-.457.564q-10.163,10.168-20.332,20.331c-.84.84-1.355.838-2.2-.009-2.405-2.4-4.8-4.812-7.219-7.2a6.786,6.786,0,0,0-1.345-1.084,5.358,5.358,0,0,0-6.558.716c-2.852,2.448-3.1,6-.567,8.552q6.385,6.428,12.824,12.8a6.15,6.15,0,0,0,2.158,1.39,5.345,5.345,0,0,0,5.93-1.5q10.95-10.954,21.91-21.9a.711.711,0,0,0,.2-.884c-1.374-3.707-2.727-7.421-4.087-11.132C1031.583,22.444,1031.513,22.282,1031.384,21.963Zm-30.623-3.39c.047.235.077.429.125.618a9.345,9.345,0,0,0,17.526,1.574c.158-.333.036-.484-.169-.686-1.832-1.8-3.666-3.593-5.479-5.408a.639.639,0,0,0-.8-.152c-2.812,1.029-5.63,2.041-8.447,3.058Zm-.174-2.416c.267-.09.452-.148.635-.214,3.583-1.291,7.171-2.569,10.744-3.887a1.554,1.554,0,0,1,1.851.4c1.629,1.644,3.289,3.257,4.938,4.881.133.131.277.251.5.454a9.182,9.182,0,0,0-4.031-8.66,8.888,8.888,0,0,0-9.744-.518A9.159,9.159,0,0,0,1000.587,16.157Zm-.04,16.052c2.96,2.01,5.082,4.87,7.756,7.212V29.274C1005.512,28.847,1003.261,29.794,1000.547,32.209Zm17.447-.159c-2.219-1.47-4.375-3.074-7.289-2.828V39.33Z" transform="translate(-988.634 -5.153)" fill="#1d272b"/>
      <path id="Trazado_158643" data-name="Trazado 158643" d="M1052.629,312.568c0,1.076-.9,1.637-1.65,1.243a2.022,2.022,0,0,1-.468-.363q-2.188-2.18-4.362-4.373a1.752,1.752,0,0,1-.443-.665,1.048,1.048,0,0,1,.381-1.209,1.078,1.078,0,0,1,1.308-.067,2.321,2.321,0,0,1,.417.342c1.432,1.429,2.869,2.853,4.282,4.3A4.318,4.318,0,0,1,1052.629,312.568Z" transform="translate(-1039.451 -274.14)" fill="#1d272b"/>
    </g>
  </g>
</svg>
