<svg xmlns="http://www.w3.org/2000/svg" xmlns:xlink="http://www.w3.org/1999/xlink" width="79.155" height="79.154" viewBox="0 0 79.155 79.154">
  <defs>
    <radialGradient id="radial-gradient" cx="0.077" cy="0.019" r="1.465" gradientTransform="matrix(1, 0, 0, -1, 0, 9.666)" gradientUnits="objectBoundingBox">
      <stop offset="0" stop-color="#f4f4f5"/>
      <stop offset="0.477" stop-color="#f7f8fa"/>
      <stop offset="0.715" stop-color="#fff"/>
    </radialGradient>
  </defs>
  <g id="icon3" transform="translate(0)">
    <g id="Group_18531" data-name="Group 18531">
      <g id="Group_18423" data-name="Group 18423">
        <g id="Group_18421" data-name="Group 18421">
          <g id="Group_18420" data-name="Group 18420">
            <g id="Group_18419" data-name="Group 18419">
              <path id="Path_40936" data-name="Path 40936" d="M201.954,554.407a39.577,39.577,0,1,1-39.578-39.575h0A39.576,39.576,0,0,1,201.954,554.407Z" transform="translate(-122.8 -514.832)" fill="#fff"/>
            </g>
          </g>
        </g>
        <path id="Path_40937" data-name="Path 40937" d="M201.953,554.407a39.42,39.42,0,1,0,0,.312Z" transform="translate(-122.799 -514.832)" fill="url(#radial-gradient)"/>
        <path id="Path_40938" data-name="Path 40938" d="M190.028,551.858a30.209,30.209,0,1,0-30.209,30.209h0a30.1,30.1,0,0,0,30.209-29.984Z" transform="translate(-120.122 -512.151)" fill="none" stroke="#1d272b" stroke-miterlimit="10" stroke-width="2"/>
        <g id="Group_18422" data-name="Group 18422" transform="translate(7.012 22.22)">
          <path id="Path_40939" data-name="Path 40939" d="M195.973,530.78a39.581,39.581,0,0,1-68.14,39.411,39.456,39.456,0,0,0,68.14-39.411Z" transform="translate(-127.833 -530.78)" fill="#e7e9eb"/>
        </g>
      </g>
    </g>
    <g id="WaOj74.tif" transform="translate(-865.387 -109.216)">
      <g id="Grupo_129737" data-name="Grupo 129737" transform="translate(891.193 127.133)">
        <path id="Trazado_166831" data-name="Trazado 166831" d="M907.738,127.133c2.276,1.031,4.578,2.009,6.807,3.136.478.242.686,1.021,1.018,1.553a5.928,5.928,0,0,1-1.735-.561c-4.513-3.285-9.336-3.855-14.248-1.254a12.287,12.287,0,0,0-6.906,12.357,16.528,16.528,0,0,0,1.967,6.337c1.679,3.2,3.868,6.13,4.27,9.9a1.72,1.72,0,0,0,1.3,1.016c3.615.084,7.235.1,10.849-.01.507-.015,1.211-.712,1.45-1.258,1.119-2.555,1.753-5.393,3.213-7.716,3.431-5.455,4.344-10.818.776-16.512a2.9,2.9,0,0,1-.205-.938l.408-.371a7.31,7.31,0,0,1,1.289,1.32c2.92,5.1,2.752,10.192-.082,15.272-1.146,2.055-2.593,4.019-3.311,6.219-1.111,3.405-2.514,6.762-2.137,10.575.282,2.86-2.392,5.227-5.253,5.233-.632,0-1.263,0-1.9,0-4.6,0-6.555-1.893-6.465-6.5.086-4.42-1.471-8.4-3.409-12.161-1.63-3.165-3.671-6.1-4.245-9.716v-3.115c.118-.369.266-.731.35-1.108a14.313,14.313,0,0,1,8.826-10.648c1.041-.437,2.153-.7,3.232-1.049Zm-7.358,33.858-.335.549c.363.2.731.4,1.088.615s.7.44,1.045.661c-.334.222-.663.451-1,.663s-.665.391-1,.585c.341.2.68.561,1.024.566q4.47.068,8.94,0c.347-.005.689-.365,1.034-.56-.335-.2-.665-.548-1.007-.559-1.717-.058-3.44.017-5.156-.058a4.183,4.183,0,0,1-1.37-.615c.454-.229.9-.636,1.363-.657,1.773-.08,3.553-.01,5.328-.063.288-.009.567-.359.85-.551-.284-.192-.565-.548-.85-.551C907.014,160.977,903.7,160.991,900.379,160.991Zm-.1,4.954-.251.409c.3.33.6.94.9.947,3.193.069,6.388.057,9.581,0,.226,0,.517-.48.625-.79.036-.1-.4-.541-.63-.544C907.1,165.934,903.69,165.945,900.28,165.945Zm9.567,2.852h-8.21l-.09.528c1.664,1.487,3.846.559,5.774.759C908.282,170.184,909.418,170.312,909.847,168.8Z" transform="translate(-891.193 -127.133)" fill="#1d272b"/>
        <path id="Trazado_166832" data-name="Trazado 166832" d="M922.816,151.067a7.623,7.623,0,0,1-.354.783c-.676,1.19-.252,1.784.934,2.33a2.992,2.992,0,0,1,1.376,1.779,1.533,1.533,0,0,1-1.3,2.037c-1.3.287-1.462,1.048-1.053,2.285a3.127,3.127,0,0,1-.286,2.252,1.553,1.553,0,0,1-2.356.561c-1.12-.658-1.786-.244-2.356.946a2.535,2.535,0,0,1-1.881,1.236,2.586,2.586,0,0,1-1.88-1.234,1.715,1.715,0,0,0-2.431-1,2.565,2.565,0,0,1-2.185-.466,2.612,2.612,0,0,1-.462-2.2,1.736,1.736,0,0,0-1.117-2.482,2.59,2.59,0,0,1-1.139-1.956A2.341,2.341,0,0,1,907.5,154.2c1.217-.563,1.558-1.141,1.083-2.469a2.539,2.539,0,0,1,.45-2.2,2.438,2.438,0,0,1,2.167-.465c1.305.515,1.9.292,2.464-1.011a2.046,2.046,0,0,1,3.747.017c.543,1.3,1.11,1.708,2.39.968A2.147,2.147,0,0,1,922.816,151.067Zm-10.641,10.1c.8.643,1.735,1.371,2.643,2.127a6.611,6.611,0,0,1,.694.785c.239-.248.567-.455.7-.751a3.111,3.111,0,0,1,3.927-1.659,3.464,3.464,0,0,0,1.019.079,3.029,3.029,0,0,0-.021-1.038,3.034,3.034,0,0,1,1.516-3.944,4.187,4.187,0,0,0,.831-.655,3.935,3.935,0,0,0-.889-.777,2.974,2.974,0,0,1-1.462-3.949,2.892,2.892,0,0,0,.022-1.034,3.2,3.2,0,0,0-1.012.092,2.86,2.86,0,0,1-3.95-1.711c-.114-.29-.468-.486-.71-.725-.211.217-.509.4-.619.656a2.852,2.852,0,0,1-4.065,1.679.988.988,0,0,0-.847.031,1.014,1.014,0,0,0-.135.865c.628,1.98.151,3.188-1.641,4.139-.25.133-.56.446-.56.676s.31.541.559.676a3.179,3.179,0,0,1,1.7,4.041,1.421,1.421,0,0,0,.133,1.01c.061.111.566.025.848-.049A11.882,11.882,0,0,0,912.175,161.17Z" transform="translate(-901.046 -139.965)" fill="#1d272b"/>
        <path id="Trazado_166833" data-name="Trazado 166833" d="M923.922,169.192a4.693,4.693,0,1,1,4.746-4.669A4.727,4.727,0,0,1,923.922,169.192Zm.041-1.314a3.382,3.382,0,1,0-3.44-3.366A3.381,3.381,0,0,0,923.963,167.878Z" transform="translate(-909.457 -148.41)" fill="#1d272b"/>
      </g>
    </g>
  </g>
</svg>
