<svg xmlns="http://www.w3.org/2000/svg" xmlns:xlink="http://www.w3.org/1999/xlink" width="79.155" height="79.154" viewBox="0 0 79.155 79.154">
  <defs>
    <radialGradient id="radial-gradient" cx="0.077" cy="0.019" r="1.465" gradientTransform="matrix(1, 0, 0, -1, 0, 9.666)" gradientUnits="objectBoundingBox">
      <stop offset="0" stop-color="#f4f4f5"/>
      <stop offset="0.477" stop-color="#f7f8fa"/>
      <stop offset="0.715" stop-color="#fff"/>
    </radialGradient>
  </defs>
  <g id="icon5" transform="translate(0)">
    <g id="Group_18531" data-name="Group 18531">
      <g id="Group_18423" data-name="Group 18423">
        <g id="Group_18421" data-name="Group 18421">
          <g id="Group_18420" data-name="Group 18420">
            <g id="Group_18419" data-name="Group 18419">
              <path id="Path_40936" data-name="Path 40936" d="M201.954,554.407a39.577,39.577,0,1,1-39.578-39.575h0A39.576,39.576,0,0,1,201.954,554.407Z" transform="translate(-122.8 -514.832)" fill="#fff"/>
            </g>
          </g>
        </g>
        <path id="Path_40937" data-name="Path 40937" d="M201.953,554.407a39.42,39.42,0,1,0,0,.312Z" transform="translate(-122.799 -514.832)" fill="url(#radial-gradient)"/>
        <path id="Path_40938" data-name="Path 40938" d="M190.028,551.858a30.209,30.209,0,1,0-30.209,30.209h0a30.1,30.1,0,0,0,30.209-29.984Z" transform="translate(-120.122 -512.151)" fill="none" stroke="#1d272b" stroke-miterlimit="10" stroke-width="2"/>
        <g id="Group_18422" data-name="Group 18422" transform="translate(7.012 22.22)">
          <path id="Path_40939" data-name="Path 40939" d="M195.973,530.78a39.581,39.581,0,0,1-68.14,39.411,39.456,39.456,0,0,0,68.14-39.411Z" transform="translate(-127.833 -530.78)" fill="#e7e9eb"/>
        </g>
      </g>
    </g>
    <g id="WB5rnX" transform="translate(-908.018 798.543)">
      <g id="Grupo_129739" data-name="Grupo 129739" transform="translate(929.797 -778.502)">
        <path id="Trazado_166844" data-name="Trazado 166844" d="M959.836-752.388c-.148-.307-.292-.61-.443-.91a.127.127,0,0,0-.107-.055,8.947,8.947,0,0,1-2.107.205v.156q0,4.742,0,9.484a2,2,0,0,1-1.595,1.9,3.432,3.432,0,0,1-.553.042q-3.778,0-7.556,0l-7.233,0q-4.088,0-8.177,0a2.347,2.347,0,0,1-1.213-.241,1.92,1.92,0,0,1-1.049-1.737c-.01-2.437,0-4.874,0-7.31q0-3.571,0-7.142,0-4.024,0-8.048v-7.867q0-1.139,0-2.277a2.31,2.31,0,0,1,2-2.293,2.613,2.613,0,0,1,.349-.018h9.432l7.569,0q2.84,0,5.68,0a2.3,2.3,0,0,1,2.308,1.857,2.144,2.144,0,0,1,.042.449q0,2.458,0,4.917v.162a9,9,0,0,1,5.9,2.061,8.735,8.735,0,0,1,2.8,4.065,8.814,8.814,0,0,1,.045,5.552,8.912,8.912,0,0,1-3.205,4.523l.492,1.006c.063-.028.118-.051.171-.076a.578.578,0,0,1,.822.29l.744,1.52q1.311,2.674,2.623,5.346a2.817,2.817,0,0,1,.329,1.261,2.545,2.545,0,0,1-1.757,2.429,2.544,2.544,0,0,1-3.109-1.321c-.741-1.531-1.5-3.054-2.244-4.581q-.6-1.229-1.2-2.459A.6.6,0,0,1,959.836-752.388Zm-3.815-18.643v-.154q0-2.148,0-4.3a7.562,7.562,0,0,0-.008-.774,1.408,1.408,0,0,0-.157-.537,1.086,1.086,0,0,0-1-.553q-3.305-.008-6.611,0h-3.673q-6.2,0-12.406,0a1.188,1.188,0,0,0-1.211,1.2c.015.888,0,1.776,0,2.664q0,3.836,0,7.672,0,3.214,0,6.429,0,4.722,0,9.445,0,3.176,0,6.351a.845.845,0,0,0,.872.862l1.475,0,11.774,0h10.066a.845.845,0,0,0,.875-.87c0-.771,0-1.542,0-2.314q0-3.248,0-6.5,0-.419,0-.838c-.265-.055-.519-.1-.769-.16a8.78,8.78,0,0,1-2.48-1,8.722,8.722,0,0,1-3.654-4.146.2.2,0,0,0-.215-.143q-3.125.006-6.249,0c-.03,0-.06,0-.091,0a.588.588,0,0,1-.545-.584.573.573,0,0,1,.57-.567h.233q1.895.005,3.79.01c.612,0,1.224-.006,1.836-.01h.2a8.893,8.893,0,0,1,1.19-7.223A8.887,8.887,0,0,1,956.02-771.032Zm9.167,8.914a7.828,7.828,0,0,0-8.283-7.833,7.8,7.8,0,0,0-7.381,7.706,7.8,7.8,0,0,0,7.844,7.94A7.805,7.805,0,0,0,965.187-762.117Zm-4.34,10.554c.011.028.016.049.025.067l1.217,2.482q.671,1.368,1.341,2.737c.225.459.444.921.68,1.375a1.337,1.337,0,0,0,1.419.728,1.4,1.4,0,0,0,1.074-1.977c-.318-.683-.66-1.354-.991-2.031l-1.967-4.013c-.085-.173-.167-.346-.255-.527Zm.891-2.705-1.248.574.406.836,1.253-.571Z" transform="translate(-929.797 778.502)" fill="#1d272b"/>
        <path id="Trazado_166845" data-name="Trazado 166845" d="M1053.713-129.746q0-1.553,0-3.105a.57.57,0,0,1,.625-.628c.949,0,1.9,0,2.846,0q1.669,0,3.338,0a.576.576,0,0,1,.543.233.79.79,0,0,1,.113.386c.011,1.168.011,2.337.013,3.505q0,1.352,0,2.7a.6.6,0,0,1-.657.657h-6.171a.584.584,0,0,1-.651-.645Q1053.713-128.194,1053.713-129.746Zm1.161,2.581h5.156v-5.154h-5.156Z" transform="translate(-1050.506 150.175)" fill="#1d272b"/>
        <path id="Trazado_166846" data-name="Trazado 166846" d="M1053.711-530.106q0-1.565,0-3.131a.564.564,0,0,1,.611-.6H1060c.194,0,.388,0,.582,0a.578.578,0,0,1,.6.59c0,.733-.005,1.466-.005,2.2,0,.539.006,1.078.006,1.617q0,1.223,0,2.445a.58.58,0,0,1-.632.623l-6.223,0a.562.562,0,0,1-.583-.363.719.719,0,0,1-.04-.252q0-1.565,0-3.131Zm1.158-2.571v5.152h5.154v-5.152Z" transform="translate(-1050.502 540.169)" fill="#1d272b"/>
        <path id="Trazado_166847" data-name="Trazado 166847" d="M1406.412-458.158q1.694,0,3.388,0a.568.568,0,0,1,.586.669.558.558,0,0,1-.555.48c-.319,0-.638,0-.957,0h-1.266q-2.3,0-4.6,0a.571.571,0,0,1-.521-.866.533.533,0,0,1,.489-.284h3.439Z" transform="translate(-1390.17 466.448)" fill="#1d272b"/>
        <path id="Trazado_166848" data-name="Trazado 166848" d="M1405.133-364.04h-2.056a.572.572,0,0,1-.618-.582.575.575,0,0,1,.619-.569q2.056,0,4.112,0a.568.568,0,0,1,.552.312.555.555,0,0,1-.048.61.554.554,0,0,1-.479.231C1406.521-364.041,1405.827-364.04,1405.133-364.04Z" transform="translate(-1390.226 375.889)" fill="#1d272b"/>
        <path id="Trazado_166849" data-name="Trazado 166849" d="M1405.018,36.25c-.659,0-1.319,0-1.978,0a.582.582,0,0,1-.575-.449.574.574,0,0,1,.322-.653.672.672,0,0,1,.262-.055q1.959,0,3.917,0a.579.579,0,1,1,0,1.158Z" transform="translate(-1390.219 -14.035)" fill="#1d272b"/>
        <path id="Trazado_166850" data-name="Trazado 166850" d="M1744.972-388.73a6.608,6.608,0,0,1-6.64-6.639,6.6,6.6,0,0,1,6.707-6.617,6.607,6.607,0,0,1,6.551,6.7A6.612,6.612,0,0,1,1744.972-388.73Zm-.016-1.15a5.481,5.481,0,0,0,5.478-5.506,5.465,5.465,0,0,0-5.482-5.445,5.449,5.449,0,0,0-5.464,5.4A5.471,5.471,0,0,0,1744.956-389.88Z" transform="translate(-1717.406 411.73)" fill="#1d272b"/>
        <path id="Trazado_166851" data-name="Trazado 166851" d="M1143.8-42.483c-.153-.149-.289-.28-.424-.413a.578.578,0,0,1-.026-.833.575.575,0,0,1,.833,0c.141.138.275.284.426.44.149-.155.281-.3.418-.433a.569.569,0,0,1,.831-.014.58.58,0,0,1-.006.824c-.135.139-.276.272-.427.421l.42.423a.575.575,0,0,1,.179.428.562.562,0,0,1-.347.529.568.568,0,0,1-.633-.12c-.143-.142-.282-.289-.441-.453-.145.152-.274.3-.412.432a.58.58,0,0,1-.833.021.577.577,0,0,1,.019-.842C1143.509-42.2,1143.645-42.335,1143.8-42.483Z" transform="translate(-1137.66 62.918)" fill="#1d272b"/>
        <path id="Trazado_166852" data-name="Trazado 166852" d="M1126.953-444.888l.884-.888c.161-.162.322-.324.485-.484a.587.587,0,0,1,.835-.022.581.581,0,0,1-.014.844q-.879.885-1.764,1.763a.583.583,0,0,1-.863-.01l-.748-.75a.6.6,0,0,1-.03-.854.592.592,0,0,1,.845.028C1126.7-445.144,1126.821-445.022,1126.953-444.888Z" transform="translate(-1120.506 455.039)" fill="#1d272b"/>
      </g>
    </g>
  </g>
</svg>
