<svg xmlns="http://www.w3.org/2000/svg" xmlns:xlink="http://www.w3.org/1999/xlink" width="79.155" height="79.154" viewBox="0 0 79.155 79.154">
  <defs>
    <radialGradient id="radial-gradient" cx="0.077" cy="0.019" r="1.465" gradientTransform="matrix(1, 0, 0, -1, 0, 9.666)" gradientUnits="objectBoundingBox">
      <stop offset="0" stop-color="#f4f4f5"/>
      <stop offset="0.477" stop-color="#f7f8fa"/>
      <stop offset="0.715" stop-color="#fff"/>
    </radialGradient>
  </defs>
  <g id="icon4" transform="translate(0)">
    <g id="Group_18531" data-name="Group 18531">
      <g id="Group_18423" data-name="Group 18423">
        <g id="Group_18421" data-name="Group 18421">
          <g id="Group_18420" data-name="Group 18420">
            <g id="Group_18419" data-name="Group 18419">
              <path id="Path_40936" data-name="Path 40936" d="M201.954,554.407a39.577,39.577,0,1,1-39.578-39.575h0A39.576,39.576,0,0,1,201.954,554.407Z" transform="translate(-122.8 -514.832)" fill="#fff"/>
            </g>
          </g>
        </g>
        <path id="Path_40937" data-name="Path 40937" d="M201.953,554.407a39.42,39.42,0,1,0,0,.312Z" transform="translate(-122.799 -514.832)" fill="url(#radial-gradient)"/>
        <path id="Path_40938" data-name="Path 40938" d="M190.028,551.858a30.209,30.209,0,1,0-30.209,30.209h0a30.1,30.1,0,0,0,30.209-29.984Z" transform="translate(-120.122 -512.151)" fill="none" stroke="#1d272b" stroke-miterlimit="10" stroke-width="2"/>
        <g id="Group_18422" data-name="Group 18422" transform="translate(7.012 22.22)">
          <path id="Path_40939" data-name="Path 40939" d="M195.973,530.78a39.581,39.581,0,0,1-68.14,39.411,39.456,39.456,0,0,0,68.14-39.411Z" transform="translate(-127.833 -530.78)" fill="#e7e9eb"/>
        </g>
      </g>
    </g>
    <g id="SY4IJ8" transform="translate(-739.741 192.835)">
      <g id="Grupo_129738" data-name="Grupo 129738" transform="translate(764.675 -173.503)">
        <path id="Trazado_166834" data-name="Trazado 166834" d="M766.275-77.639q0,7.255,0,14.51a.752.752,0,0,0,.861.864l20.313,0h2.21c.636,0,.9-.251.9-.88q0-4.819,0-9.637c0-.107,0-.213,0-.319a.813.813,0,0,1,.8-.824.808.808,0,0,1,.8.828c.007,1.109,0,2.219,0,3.328q0,3.341,0,6.682a2.286,2.286,0,0,1-2.426,2.42q-10.343,0-20.686,0c-.666,0-1.332.009-2,0a2.342,2.342,0,0,1-2.37-2.419q-.006-6.922,0-13.844,0-7.614,0-15.228a2.356,2.356,0,0,1,2.467-2.486c.692-.007,1.384,0,2.077,0a.813.813,0,0,1,.833.791.814.814,0,0,1-.82.807c-.683.007-1.367,0-2.05,0-.649,0-.909.254-.909.895Q766.275-84.893,766.275-77.639Z" transform="translate(-764.675 98.847)" fill="#1d272b"/>
        <path id="Trazado_166835" data-name="Trazado 166835" d="M1074.316,6.465c.528-.352,1.028-.684,1.525-1.022a.6.6,0,0,0,.132-.165l9.935-14.555.6-.883c-.08-.06-.152-.119-.229-.172-.5-.34-1-.676-1.5-1.018a.825.825,0,0,1-.249-1.224c.313-.484.627-.968.952-1.445a.776.776,0,0,1,1.174-.233q1.207.828,2.4,1.673a.775.775,0,0,1,.356.829.737.737,0,0,1-.64.629,1.03,1.03,0,0,1-.621-.138c-.552-.338-1.078-.718-1.618-1.075a.657.657,0,0,0-.224-.049c.039.065.062.153.119.192.5.349,1.012.689,1.519,1.033a.846.846,0,0,1,.245,1.322Q1082.652-1.73,1077.1,6.376a.833.833,0,0,1-.2.211q-1.663,1.175-3.332,2.342a.8.8,0,0,1-1.28-.458,1.035,1.035,0,0,1,.021-.444q.466-2.009.95-4.013a.89.89,0,0,1,.136-.283q4.508-6.608,9.019-13.214c.255-.374.508-.749.766-1.121a.784.784,0,0,1,1.15-.261.8.8,0,0,1,.169,1.188q-4.831,7.048-9.659,14.1a1.449,1.449,0,0,0-.2.456c-.121.482-.223.968-.332,1.453A.822.822,0,0,0,1074.316,6.465Z" transform="translate(-1055.898 22.898)" fill="#1d272b"/>
        <path id="Trazado_166836" data-name="Trazado 166836" d="M903.394-164.45h-5.109a1.494,1.494,0,0,1-1.611-1.609q0-1.823,0-3.646a1.5,1.5,0,0,1,1.656-1.67c.647,0,1.3-.009,1.943,0a.345.345,0,0,0,.385-.257,2.845,2.845,0,0,1,2.455-1.861,2.836,2.836,0,0,1,2.75,1.335,2.281,2.281,0,0,1,.276.572.263.263,0,0,0,.307.208c.674-.008,1.348-.005,2.022,0a1.475,1.475,0,0,1,1.573,1.537q.016,2.009,0,4.018a1.364,1.364,0,0,1-1.457,1.368C906.853-164.447,905.124-164.45,903.394-164.45Zm-5.052-1.623h10.135v-3.7h-.282l-2.449,0a.848.848,0,0,1-.983-.893,1.305,1.305,0,0,0-1.346-1.236,1.308,1.308,0,0,0-1.305,1.253.832.832,0,0,1-.943.876q-1.265,0-2.53,0h-.3Z" transform="translate(-889.642 173.503)" fill="#1d272b"/>
        <path id="Trazado_166837" data-name="Trazado 166837" d="M866.417,57.109h-5.339V51.753h5.339Zm-1.6-1.6V53.358h-2.147V55.5Z" transform="translate(-855.944 -39.757)" fill="#1d272b"/>
        <path id="Trazado_166838" data-name="Trazado 166838" d="M860.845,206.184V200.85H866.2v5.334ZM864.6,204.6v-2.148h-2.145V204.6Z" transform="translate(-855.723 -180.913)" fill="#1d272b"/>
        <path id="Trazado_166839" data-name="Trazado 166839" d="M866.454,355.113H861.12v-5.355h5.334Zm-3.734-3.76v2.17c.67,0,1.316,0,1.962,0,.152,0,.2-.059.2-.2-.006-.327,0-.655,0-.983s0-.648,0-.985Z" transform="translate(-855.984 -321.891)" fill="#1d272b"/>
        <path id="Trazado_166840" data-name="Trazado 166840" d="M1009.493,59c-1.321,0-2.642,0-3.963,0a.809.809,0,0,1-.791-.557.745.745,0,0,1,.271-.852.965.965,0,0,1,.511-.18q3.976-.016,7.953,0a.808.808,0,0,1,.813.783.779.779,0,0,1-.8.811c-1.33.009-2.66,0-3.99,0Z" transform="translate(-991.915 -45.105)" fill="#1d272b"/>
        <path id="Trazado_166841" data-name="Trazado 166841" d="M1181.742-94.977a12.469,12.469,0,0,1,1.457.074,2.309,2.309,0,0,1,1.922,2.284c.007.691,0,1.383,0,2.074a.784.784,0,0,1-.8.861.825.825,0,0,1-.8-.884c0-.656,0-1.312,0-1.968a.734.734,0,0,0-.823-.82c-.691,0-1.383,0-2.074,0a.822.822,0,0,1-.879-.8.815.815,0,0,1,.878-.8c.372,0,.745,0,1.117,0Z" transform="translate(-1157.641 99.159)" fill="#1d272b"/>
        <path id="Trazado_166842" data-name="Trazado 166842" d="M1009.44,115.386h2.847a.806.806,0,1,1,0,1.6q-2.82,0-5.64,0a1.475,1.475,0,0,1-.343-.027.8.8,0,0,1,.214-1.573C1007.489,115.382,1008.465,115.386,1009.44,115.386Z" transform="translate(-992.849 -99.999)" fill="#1d272b"/>
        <path id="Trazado_166843" data-name="Trazado 166843" d="M1008.18,236.995c-.541,0-1.082,0-1.623,0a.8.8,0,1,1,.006-1.6q1.636,0,3.272,0a.8.8,0,1,1-.006,1.6c-.55,0-1.1,0-1.649,0Z" transform="translate(-992.844 -213.615)" fill="#1d272b"/>
      </g>
    </g>
  </g>
</svg>
