<svg xmlns="http://www.w3.org/2000/svg" width="101.378" height="98.289" viewBox="0 0 101.378 98.289">
  <g id="img13" transform="translate(-929.797 778.502)">
    <g id="Grupo_129739" data-name="Grupo 129739" transform="translate(929.797 -778.502)">
      <path id="Trazado_166844" data-name="Trazado 166844" d="M1009.731-709.012c-.394-.817-.777-1.624-1.178-2.422a.339.339,0,0,0-.284-.145,23.817,23.817,0,0,1-5.608.546v.415q0,12.619,0,25.239a5.33,5.33,0,0,1-4.245,5.046,9.138,9.138,0,0,1-1.471.111q-10.054.007-20.108,0-9.624,0-19.247.006-10.88,0-21.76,0a6.245,6.245,0,0,1-3.228-.642,5.11,5.11,0,0,1-2.792-4.623c-.027-6.484,0-12.969,0-19.453q0-9.5-.007-19.006,0-10.708,0-21.416v-20.934q0-3.03,0-6.059a6.147,6.147,0,0,1,5.317-6.1,6.936,6.936,0,0,1,.927-.049q12.551,0,25.1,0,10.072,0,20.142-.006,7.558,0,15.115,0a6.116,6.116,0,0,1,6.142,4.943,5.7,5.7,0,0,1,.113,1.194q.011,6.542,0,13.084v.43a23.959,23.959,0,0,1,15.693,5.485,23.246,23.246,0,0,1,7.445,10.818,23.454,23.454,0,0,1,.12,14.773,23.716,23.716,0,0,1-8.529,12.036l1.308,2.678c.168-.075.313-.137.456-.2a1.538,1.538,0,0,1,2.186.771q.991,2.021,1.98,4.044,3.488,7.114,6.981,14.226a7.492,7.492,0,0,1,.875,3.357,6.774,6.774,0,0,1-4.677,6.464,6.769,6.769,0,0,1-8.273-3.514c-1.971-4.073-3.98-8.128-5.971-12.191q-1.6-3.271-3.2-6.544A1.6,1.6,0,0,1,1009.731-709.012Zm-10.152-49.611v-.41q0-5.715,0-11.431a20.125,20.125,0,0,0-.022-2.061,3.747,3.747,0,0,0-.418-1.429,2.889,2.889,0,0,0-2.668-1.471q-8.8-.02-17.592-.006H969.1q-16.507,0-33.013-.006a3.161,3.161,0,0,0-3.222,3.2c.04,2.362.011,4.726.01,7.089q0,10.208-.006,20.417,0,8.554.006,17.108,0,12.567,0,25.134,0,8.451.005,16.9a2.248,2.248,0,0,0,2.32,2.293q1.963,0,3.925.006l31.332-.005h26.786a2.247,2.247,0,0,0,2.33-2.316c0-2.052,0-4.1,0-6.156q0-8.642.007-17.284,0-1.115,0-2.229c-.705-.146-1.38-.267-2.046-.425a23.369,23.369,0,0,1-6.6-2.671,23.208,23.208,0,0,1-9.722-11.033.519.519,0,0,0-.571-.382q-8.315.017-16.63.008c-.08,0-.161,0-.241,0a1.566,1.566,0,0,1-1.451-1.555,1.524,1.524,0,0,1,1.517-1.509c.207,0,.413,0,.62,0q5.042.014,10.084.025c1.629,0,3.257-.017,4.886-.026h.536a23.664,23.664,0,0,1,3.167-19.221A23.649,23.649,0,0,1,999.579-758.623Zm24.393,23.722a20.831,20.831,0,0,0-22.043-20.845,20.743,20.743,0,0,0-19.642,20.507,20.744,20.744,0,0,0,20.874,21.13A20.771,20.771,0,0,0,1023.972-734.9Zm-11.549,28.085c.028.076.043.13.068.179l3.238,6.606q1.785,3.642,3.569,7.284c.6,1.222,1.182,2.452,1.808,3.66a3.559,3.559,0,0,0,3.776,1.937,3.713,3.713,0,0,0,2.859-5.262c-.847-1.817-1.756-3.6-2.638-5.4q-2.617-5.34-5.235-10.679c-.225-.459-.446-.922-.677-1.4Zm2.371-7.2-3.321,1.528,1.082,2.225,3.335-1.519Z" transform="translate(-929.798 778.502)" fill="#1d272b"/>
      <path id="Trazado_166845" data-name="Trazado 166845" d="M1053.714-123.541q0-4.131,0-8.263a1.517,1.517,0,0,1,1.663-1.671c2.525-.009,5.05,0,7.574,0q4.441,0,8.882,0a1.532,1.532,0,0,1,1.446.62,2.1,2.1,0,0,1,.3,1.028c.03,3.109.03,6.218.035,9.327q.005,3.6,0,7.2a1.585,1.585,0,0,1-1.748,1.749q-8.211,0-16.422,0a1.554,1.554,0,0,1-1.731-1.716Q1053.713-119.409,1053.714-123.541Zm3.089,6.868h13.722v-13.716H1056.8Z" transform="translate(-1045.179 177.904)" fill="#1d272b"/>
      <path id="Trazado_166846" data-name="Trazado 166846" d="M1053.715-523.908q0-4.166,0-8.332a1.5,1.5,0,0,1,1.626-1.6h15.114c.516,0,1.033,0,1.549,0a1.537,1.537,0,0,1,1.6,1.571c.006,1.951-.013,3.9-.014,5.852,0,1.434.015,2.868.017,4.3q0,3.253,0,6.507a1.544,1.544,0,0,1-1.681,1.657q-8.279,0-16.559.006a1.5,1.5,0,0,1-1.55-.965,1.913,1.913,0,0,1-.107-.671q-.01-4.166,0-8.331Zm3.082-6.841v13.709h13.715v-13.709Z" transform="translate(-1045.176 550.687)" fill="#1d272b"/>
      <path id="Trazado_166847" data-name="Trazado 166847" d="M1413.075-458.157q4.507,0,9.015,0a1.51,1.51,0,0,1,1.558,1.781,1.486,1.486,0,0,1-1.476,1.277c-.849.012-1.7,0-2.547,0l-3.37,0q-6.123,0-12.247,0a1.519,1.519,0,0,1-1.388-2.305,1.417,1.417,0,0,1,1.3-.755q3.493,0,6.985,0h2.167Z" transform="translate(-1369.854 480.22)" fill="#1d272b"/>
      <path id="Trazado_166848" data-name="Trazado 166848" d="M1409.575-362.126H1404.1a1.522,1.522,0,0,1-1.645-1.548,1.53,1.53,0,0,1,1.648-1.515q5.472,0,10.943,0a1.512,1.512,0,0,1,1.47.83,1.476,1.476,0,0,1-.129,1.624,1.476,1.476,0,0,1-1.276.616C1413.269-362.13,1411.422-362.126,1409.575-362.126Z" transform="translate(-1369.907 393.656)" fill="#1d272b"/>
      <path id="Trazado_166849" data-name="Trazado 166849" d="M1409.282,38.175c-1.755,0-3.509,0-5.264,0a1.55,1.55,0,0,1-1.53-1.194,1.527,1.527,0,0,1,.857-1.738,1.789,1.789,0,0,1,.7-.145q5.212-.013,10.424,0a1.542,1.542,0,1,1,.01,3.081Q1411.879,38.178,1409.282,38.175Z" transform="translate(-1369.9 20.94)" fill="#1d272b"/>
      <path id="Trazado_166850" data-name="Trazado 166850" d="M1756-366.711a17.584,17.584,0,0,1-17.67-17.666,17.555,17.555,0,0,1,17.849-17.608,17.582,17.582,0,0,1,17.432,17.833A17.6,17.6,0,0,1,1756-366.711Zm-.042-3.06a14.586,14.586,0,0,0,14.577-14.653,14.543,14.543,0,0,0-14.587-14.488,14.5,14.5,0,0,0-14.539,14.357A14.56,14.56,0,0,0,1755.96-369.77Z" transform="translate(-1682.649 427.916)" fill="#1d272b"/>
      <path id="Trazado_166851" data-name="Trazado 166851" d="M1144.819-40.118c-.407-.4-.77-.746-1.127-1.1a1.537,1.537,0,0,1-.07-2.216,1.529,1.529,0,0,1,2.216.006c.376.367.732.755,1.133,1.171.4-.411.748-.788,1.112-1.151a1.515,1.515,0,0,1,2.211-.037,1.545,1.545,0,0,1-.016,2.193c-.359.371-.734.725-1.135,1.119l1.117,1.125a1.53,1.53,0,0,1,.476,1.139,1.5,1.5,0,0,1-.923,1.407,1.512,1.512,0,0,1-1.684-.32c-.381-.379-.751-.77-1.173-1.2-.385.406-.73.788-1.1,1.151a1.545,1.545,0,0,1-2.217.057,1.537,1.537,0,0,1,.05-2.24C1144.05-39.375,1144.414-39.723,1144.819-40.118Z" transform="translate(-1128.487 94.498)" fill="#1d272b"/>
      <path id="Trazado_166852" data-name="Trazado 166852" d="M1129.247-442.3c.8-.806,1.577-1.585,2.352-2.362.429-.43.857-.862,1.291-1.287a1.561,1.561,0,0,1,2.223-.059,1.546,1.546,0,0,1-.038,2.246q-2.338,2.355-4.693,4.692a1.551,1.551,0,0,1-2.3-.026q-1-1-1.991-2a1.584,1.584,0,0,1-.079-2.273,1.575,1.575,0,0,1,2.249.075C1128.584-442.981,1128.893-442.658,1129.247-442.3Z" transform="translate(-1112.09 469.314)" fill="#1d272b"/>
    </g>
  </g>
</svg>
