<svg xmlns="http://www.w3.org/2000/svg" width="99.025" height="112.165" viewBox="0 0 99.025 112.165">
  <g id="img11" transform="translate(-4006.453 -112.958)">
    <g id="Grupo_129745" data-name="Grupo 129745" transform="translate(4006.453 112.958)">
      <path id="Trazado_166857" data-name="Trazado 166857" d="M4054.33,225.061c-10.278,0-20.56-.128-30.835.06-4.444.081-7.149-2.055-7.1-7.148.17-16.9.066-33.8.062-50.693a12.014,12.014,0,0,0-.821-4.8c-2.313-5.606-4.306-11.343-6.42-17.031-.786-2.115-1.591-4.222-2.348-6.347a5.513,5.513,0,0,1,3.445-7.445c1.707-.658,3.41-1.332,5.149-1.892a1.29,1.29,0,0,0,1.021-1.524c-.055-1.555-.039-3.115-.006-4.671a5.259,5.259,0,0,1,5.141-5.3c2.8-.1,5.605-.028,8.408-.029,8.021,0,16.042,0,24.062-.024a5.4,5.4,0,0,0,1.792-.361c4.056-1.481,8.093-3.016,12.151-4.491a5.444,5.444,0,0,1,7.346,3.4,1.866,1.866,0,0,0,2.149,1.5c2.877-.113,5.761-.044,8.643-.027,3.85.022,6,2.185,6,6.021q0,21.784,0,43.568a9.148,9.148,0,0,0,.589,3.36c4.142,10.911,8.192,21.856,12.239,32.8,1.3,3.525-.087,6.4-3.64,7.73-2.733,1.019-5.458,2.063-8.21,3.029a1.214,1.214,0,0,0-.993,1.422c.069,1.007.022,2.023.014,3.036-.029,3.6-2.251,5.833-5.833,5.837q-12.907.014-25.814,0h-6.191Zm-35.076-53.371h.006q0,23.48,0,46.959c0,2.775.833,3.607,3.621,3.608q31.423,0,62.846.006c2.791,0,3.654-.841,3.654-3.594q0-21.784-.008-43.567,0-25.29,0-50.58c0-2.563-.9-3.483-3.4-3.483q-31.657,0-63.313,0c-2.572,0-3.405.853-3.405,3.454Q4019.253,148.094,4019.254,171.69Zm73.544,40.2c2.654-.979,5.13-1.879,7.595-2.806,2.12-.8,2.72-2.1,1.937-4.209q-4.395-11.857-8.812-23.706c-.165-.445-.373-.875-.561-1.311l-.159.053Zm-77.382-57.857.211-.045V132.674c-1.747.669-3.4,1.213-4.973,1.934a2.51,2.51,0,0,0-1.267,3.171c.37,1.146.811,2.268,1.231,3.4Q4013.013,147.607,4015.416,154.036Zm49.4-36.519.085.23h7.756a2.493,2.493,0,0,0-2.834-1.935C4068.121,116.268,4066.479,116.937,4064.813,117.516Z" transform="translate(-4006.453 -112.958)" fill="#1d272b"/>
      <path id="Trazado_166858" data-name="Trazado 166858" d="M4102.434,190.321a11.076,11.076,0,0,1,8.381,5.31,10.185,10.185,0,0,1,1.537,5.316q.02,4.2.006,8.407c0,1.293-.455,1.763-1.758,1.765q-12.086.019-24.17.005c-1.236,0-1.775-.483-1.781-1.648-.015-2.918-.113-5.845.066-8.753.33-5.352,3.7-9.1,8.956-10.23l.974-.208a8.016,8.016,0,0,1-3.936-7.213,7.553,7.553,0,0,1,2.633-5.536,7.849,7.849,0,0,1,11.1.765C4107.559,181.906,4106.819,186.652,4102.434,190.321Zm-15.067,17.911h22.2c0-2.349.007-4.6,0-6.852a8.132,8.132,0,0,0-8.185-8.253q-2.917-.039-5.834,0a7.731,7.731,0,0,0-7.752,6.18A69.952,69.952,0,0,0,4087.367,208.232Zm16.148-24.8a4.966,4.966,0,0,0-5.038-5.013,5.038,5.038,0,0,0-4.984,4.983,5.093,5.093,0,0,0,4.949,5.04A5.032,5.032,0,0,0,4103.515,183.432Z" transform="translate(-4066.347 -160.958)" fill="#1d272b"/>
      <path id="Trazado_166859" data-name="Trazado 166859" d="M4127.629,413.3q-11.788,0-23.577,0c-.349,0-.815.117-1.024-.06-.457-.386-1.09-.936-1.076-1.4s.7-.95,1.18-1.3c.232-.168.679-.044,1.029-.044l46.92.008c1.745,0,2.343.355,2.348,1.381,0,1.011-.661,1.412-2.34,1.412h-23.459Z" transform="translate(-4079.638 -340.939)" fill="#1d272b"/>
      <path id="Trazado_166860" data-name="Trazado 166860" d="M4127.49,457.506q-11.732,0-23.463,0c-.349,0-.8.115-1.027-.057-.449-.341-1.1-.867-1.068-1.277.033-.5.635-1,1.082-1.4.178-.158.6-.048.911-.048l47.508-.007c.156,0,.312-.007.467,0,.912.028,1.5.447,1.507,1.4,0,.972-.633,1.384-1.521,1.391-2.723.02-5.447.007-8.171.007H4127.49Z" transform="translate(-4079.622 -374.84)" fill="#1d272b"/>
      <path id="Trazado_166861" data-name="Trazado 166861" d="M4127.294,501.664h-23.342c-.35,0-.8.123-1.029-.045-.482-.352-1.09-.806-1.208-1.318-.171-.757.411-1.287,1.207-1.424a4.83,4.83,0,0,1,.815-.019l47.5.008c.272,0,.646-.1.8.036.445.4,1.1.906,1.1,1.37s-.643,1-1.128,1.326c-.3.2-.832.059-1.26.059q-11.73,0-23.459,0Z" transform="translate(-4079.434 -408.669)" fill="#1d272b"/>
      <path id="Trazado_166862" data-name="Trazado 166862" d="M4127.311,366.383h22.965c.389,0,.778.008,1.167.007.939,0,1.611.345,1.675,1.374.055.883-.587,1.406-1.732,1.436-.855.022-1.712.009-2.568.009l-45.295.005c-1.266,0-2-.539-1.979-1.469.018-.874.684-1.352,1.947-1.353q11.911-.007,23.821,0Z" transform="translate(-4079.324 -307.17)" fill="#1d272b"/>
      <path id="Trazado_166863" data-name="Trazado 166863" d="M4246.25,285.944q4.787,0,9.576,0c1.333,0,2.011.492,1.993,1.413-.017.882-.675,1.366-1.927,1.368q-9.693.014-19.385.011c-1.228,0-1.89-.521-1.872-1.423s.688-1.373,1.923-1.375q4.846-.006,9.693,0Z" transform="translate(-4181.319 -245.52)" fill="#1d272b"/>
      <path id="Trazado_166864" data-name="Trazado 166864" d="M4246.188,253.8c-3.269,0-6.536.013-9.8-.006-1.273-.007-1.974-.8-1.656-1.787.279-.865.959-1.019,1.758-1.018,4.085.009,8.17,0,12.255,0,2.413,0,4.824-.006,7.236,0,1.215,0,1.9.532,1.823,1.449-.088,1.1-.842,1.361-1.81,1.357-3.267-.013-6.536,0-9.8,0Z" transform="translate(-4181.333 -218.735)" fill="#1d272b"/>
      <path id="Trazado_166865" data-name="Trazado 166865" d="M4246.254,218.862c-3.229,0-6.458.007-9.686,0-1.253,0-1.905-.5-1.909-1.38s.674-1.418,1.888-1.419q9.685-.009,19.37,0c1.225,0,1.891.506,1.9,1.4s-.632,1.407-1.879,1.412c-3.229.011-6.457,0-9.685,0Z" transform="translate(-4181.338 -191.966)" fill="#1d272b"/>
    </g>
  </g>
</svg>
