<svg xmlns="http://www.w3.org/2000/svg" xmlns:xlink="http://www.w3.org/1999/xlink" width="418.308" height="335.701" viewBox="0 0 418.308 335.701">
  <defs>
    <linearGradient id="linear-gradient" x1="0.5" y1="-0.011" x2="0.5" y2="1.963" gradientUnits="objectBoundingBox">
      <stop offset="0" stop-color="#f5f5f5"/>
      <stop offset="0.25" stop-color="#f5f5f5"/>
      <stop offset="1" stop-color="#eeeef2"/>
    </linearGradient>
    <linearGradient id="linear-gradient-2" x1="0.5" y1="-0.011" x2="0.5" y2="1.963" gradientUnits="objectBoundingBox">
      <stop offset="0" stop-color="#fff"/>
      <stop offset="0.359" stop-color="#efeefe"/>
      <stop offset="0.743" stop-color="#bbb4f8"/>
    </linearGradient>
    <linearGradient id="linear-gradient-3" x1="0.5" y1="-0.011" x2="0.5" y2="1.963" xlink:href="#linear-gradient-2"/>
    <linearGradient id="linear-gradient-4" x1="0.5" y1="-0.011" x2="0.5" y2="1.963" xlink:href="#linear-gradient-2"/>
    <linearGradient id="linear-gradient-7" x1="0.5" y1="-0.011" x2="0.5" y2="1.963" xlink:href="#linear-gradient-2"/>
    <linearGradient id="linear-gradient-9" x1="0.5" y1="-0.011" x2="0.5" y2="1.962" xlink:href="#linear-gradient-2"/>
    <linearGradient id="linear-gradient-10" x1="-1.665" y1="-0.017" x2="-1.665" y2="1.265" gradientUnits="objectBoundingBox">
      <stop offset="0" stop-color="#f5f5f5"/>
      <stop offset="0.25" stop-color="#f5f5f5"/>
      <stop offset="1" stop-color="#a7b3cf"/>
    </linearGradient>
    <linearGradient id="linear-gradient-11" x1="-0.073" y1="-0.238" x2="-0.073" y2="2.501" xlink:href="#linear-gradient-10"/>
    <linearGradient id="linear-gradient-12" x1="-7.291" y1="-0.148" x2="-7.291" y2="1.248" xlink:href="#linear-gradient-10"/>
    <radialGradient id="radial-gradient" cx="0.076" cy="0.019" r="1.465" gradientTransform="translate(0.001)" gradientUnits="objectBoundingBox">
      <stop offset="0" stop-color="#f6f6f7"/>
      <stop offset="0.477" stop-color="#f9f9fa"/>
      <stop offset="0.715" stop-color="#fff"/>
    </radialGradient>
  </defs>
  <g id="img8" transform="translate(-953.312 -3986.514)">
    <g id="Grupo_129391" data-name="Grupo 129391" transform="translate(953.312 3990.988)">
      <path id="Trazado_151846" data-name="Trazado 151846" d="M441.093,418.08c15.7-20.825,20.168-47.851,11.854-71.717-5.256-15.089-15.344-29.106-16.633-44.84-2.58-31.458,29.936-56.891,36.681-87.873,2.965-13.616-.27-29.48-12.979-37.751-12.553-8.169-30.469-6.5-44.68-.78S389.1,190,375.457,196.694,345.013,207.528,330.6,202.2c-14.595-5.4-22.874-19-27.511-32.264s-6.913-27.384-14.828-39.4c-13.043-19.8-40.854-30.6-66.771-27.8s-49.072,18.1-61.493,38.2-14.591,44.42-8.408,66.626c3.136,11.262,8.3,22.047,11.12,33.374s3.075,23.724-3.214,33.926c-13.153,21.334-47.851,24.309-66.021,42.6-15,15.1-15.467,38.144-6.957,56.713s24.505,33.636,40.453,47.971c74.383,2.188,150.1,2.333,224.481,4.522C380.364,427.524,412.218,419.568,441.093,418.08Z" transform="translate(-80.961 -97.51)" fill="#a4a4b4" opacity="0.354" style="mix-blend-mode: multiply;isolation: isolate"/>
      <path id="Trazado_151847" data-name="Trazado 151847" d="M359.21,176.561c-.18,16.872,18.144,31.555,14.955,48.195-1.705,8.9-9.456,17.928-4.951,26.049,3.985,7.185,15.4,8.431,24.127,6.1,20.428-5.47,32.845-23.746,38.784-41.708,5.586-16.895,6.972-35.766-1.973-51.515-7.208-12.689-23.839-23.891-40.726-22.855C373.956,141.771,359.345,163.853,359.21,176.561Z" transform="translate(-18.281 -95.582)" fill="#a4a4b4" opacity="0.31" style="mix-blend-mode: multiply;isolation: isolate"/>
      <path id="Trazado_151848" data-name="Trazado 151848" d="M117.206,144.334a60.906,60.906,0,0,0-1.556,66.419c4,6.429,9.41,12.421,16.711,16s16.719,4.372,23.985.745c11.02-5.5,13.458-18.479,12.58-29.557s-3.745-22.692,1.129-32.943c3.178-6.683,9.279-11.893,14.691-17.365s10.464-11.86,10.744-19.095c.725-18.753-22.022-17.352-35.731-13.457C142.259,120.049,126.7,130.477,117.206,144.334Z" transform="translate(-75.846 -96.991)" fill="#a4a4b4" opacity="0.31" style="mix-blend-mode: multiply;isolation: isolate"/>
      <g id="Grupo_107069" data-name="Grupo 107069" transform="translate(8.333)" style="mix-blend-mode: multiply;isolation: isolate">
        <path id="Trazado_151849" data-name="Trazado 151849" d="M435.992,422.518l-1.6-1.278c4.4-4.21,11.426-13.861,9.048-31.212-1.058-7.724-3.682-15.354-6.22-22.733-1.133-3.3-2.3-6.705-3.328-10.09-10.914-36.116-6.14-75.956,13.1-109.3,1.709-2.959,3.558-5.929,5.346-8.8,5.3-8.513,10.784-17.316,13.142-26.825,4.135-16.687-4.039-29.194-13.382-33.753-8.964-4.376-21.617-3.707-34.714,1.836-4.791,2.027-9.448,4.506-13.951,6.9a136.018,136.018,0,0,1-18.712,8.766c-25.994,9.128-58.494,1.37-75.6-18.042-8.219-9.329-12.86-20.6-17.347-31.507-1.739-4.225-3.537-8.594-5.514-12.775-6.15-13-17.407-29.313-36.107-33.215-16.431-3.431-33.072,4.109-44.137,11.038-21.17,13.257-36.092,31.211-42.021,50.554-4,13.044-4.157,27.241-4.313,40.971-.232,20.446-.471,41.589-13.664,58.616-6,7.746-14.256,13.926-22.238,19.9-7.476,5.6-15.207,11.386-20.97,18.4-13.058,15.9-16.259,38.4-8.782,61.75,6.719,20.976,20.415,39.587,33.66,57.587l-1.82,1.025c-13.331-18.116-27.118-36.85-33.924-58.1-7.656-23.9-4.336-47,9.108-63.367,5.915-7.2,13.747-13.065,21.319-18.736,7.875-5.9,16.017-11.993,21.854-19.526,12.826-16.555,13.052-36.478,13.291-57.571.157-13.848.319-28.167,4.389-41.444,6.057-19.765,21.276-38.091,42.851-51.6,11.431-7.158,28.673-14.936,45.9-11.34,19.589,4.088,31.262,20.927,37.6,34.334,2,4.222,3.8,8.612,5.552,12.858,4.431,10.765,9.012,21.9,17.025,30.991,16.531,18.765,47.948,26.263,73.076,17.44a134.491,134.491,0,0,0,18.392-8.625c4.546-2.422,9.247-4.925,14.132-6.992,13.739-5.814,27.12-6.467,36.711-1.785,10.019,4.889,18.812,18.181,14.444,35.81-2.424,9.776-7.981,18.7-13.358,27.331-1.781,2.859-3.622,5.814-5.314,8.747-19,32.94-23.717,72.292-12.937,107.966,1.013,3.354,2.18,6.747,3.308,10.029,2.564,7.456,5.216,15.165,6.3,23.053C448.072,407.9,440.641,418.071,435.992,422.518Z" transform="translate(-87.906 -97.739)" fill="#a4a4b4"/>
      </g>
    </g>
    <g id="Grupo_129390" data-name="Grupo 129390" transform="translate(1060.125 3985.514)">
      <path id="Trazado_167072" data-name="Trazado 167072" d="M13.016-4.1H5.824L4.457,0H.1l7.41-19.906h3.8L18.758,0H14.4ZM6.932-7.424h4.977l-2.5-7.451Zm27.029-9.16h-6.1V0h-4.1V-16.584H17.746v-3.322H33.961ZM48.275-8.627H40.4v5.332h9.242V0H36.3V-19.906H49.615v3.322H40.4v4.744h7.875ZM68.236,0h-4.1L56.15-13.1V0h-4.1V-19.906h4.1l8,13.125V-19.906h4.088ZM87.445-6.631a7.044,7.044,0,0,1-2.372,5.059A8.331,8.331,0,0,1,79.434.273,7.491,7.491,0,0,1,73.411-2.3a10.567,10.567,0,0,1-2.194-7.075V-10.6a11.933,11.933,0,0,1,1.012-5.059,7.582,7.582,0,0,1,2.892-3.356,8.1,8.1,0,0,1,4.368-1.169,8.115,8.115,0,0,1,5.551,1.846,7.57,7.57,0,0,1,2.434,5.182h-4.1a4.157,4.157,0,0,0-1.073-2.8,3.974,3.974,0,0,0-2.81-.868,3.485,3.485,0,0,0-3.069,1.47,8.237,8.237,0,0,0-1.046,4.56v1.5a8.816,8.816,0,0,0,.978,4.717,3.42,3.42,0,0,0,3.083,1.49,4.049,4.049,0,0,0,2.837-.868,3.921,3.921,0,0,0,1.073-2.687ZM94.5,0H90.4V-19.906h4.1Zm20.152-9.5a12.017,12.017,0,0,1-1.039,5.154A7.825,7.825,0,0,1,110.64-.93,8.226,8.226,0,0,1,106.2.273a8.282,8.282,0,0,1-4.416-1.189,7.9,7.9,0,0,1-3.008-3.4A11.673,11.673,0,0,1,97.7-9.393v-.984a11.954,11.954,0,0,1,1.06-5.175,7.889,7.889,0,0,1,2.994-3.432,8.236,8.236,0,0,1,4.423-1.2,8.236,8.236,0,0,1,4.423,1.2,7.889,7.889,0,0,1,2.994,3.432,11.92,11.92,0,0,1,1.06,5.161Zm-4.156-.9a8.377,8.377,0,0,0-1.121-4.758,3.653,3.653,0,0,0-3.2-1.627,3.655,3.655,0,0,0-3.186,1.606,8.281,8.281,0,0,0-1.135,4.71V-9.5a8.482,8.482,0,0,0,1.121,4.73A3.644,3.644,0,0,0,106.2-3.09a3.611,3.611,0,0,0,3.172-1.62A8.433,8.433,0,0,0,110.5-9.434Zm-3.527-14.834h4.307L107.488-21h-3.213ZM133.82,0h-4.1l-7.984-13.1V0h-4.1V-19.906h4.1l8,13.125V-19.906h4.088Z" transform="translate(10.747 33.793)" fill="#008f85"/>
      <path id="Trazado_167073" data-name="Trazado 167073" d="M10.775-10.661H6.855V0H4.219V-10.661H.352V-12.8H10.775ZM15.082,0H12.445V-12.8h2.637Zm5.08-4.509V0H17.525V-12.8h4.992a5.776,5.776,0,0,1,2.536.527,3.886,3.886,0,0,1,1.683,1.5,4.178,4.178,0,0,1,.589,2.21,3.674,3.674,0,0,1-1.288,2.966,5.363,5.363,0,0,1-3.564,1.085Zm0-2.136h2.355a2.316,2.316,0,0,0,1.6-.492,1.79,1.79,0,0,0,.549-1.406,2.111,2.111,0,0,0-.554-1.521,2.068,2.068,0,0,0-1.529-.6H20.162Zm19.485.536a7.725,7.725,0,0,1-.668,3.313A5.03,5.03,0,0,1,37.068-.6a5.288,5.288,0,0,1-2.852.773,5.324,5.324,0,0,1-2.839-.765,5.08,5.08,0,0,1-1.934-2.184,7.5,7.5,0,0,1-.694-3.265v-.633A7.685,7.685,0,0,1,29.43-10,5.072,5.072,0,0,1,31.355-12.2a5.3,5.3,0,0,1,2.843-.769,5.3,5.3,0,0,1,2.843.769A5.072,5.072,0,0,1,38.966-10a7.663,7.663,0,0,1,.681,3.318Zm-2.672-.58a5.385,5.385,0,0,0-.721-3.059A2.349,2.349,0,0,0,34.2-10.793,2.349,2.349,0,0,0,32.15-9.76a5.324,5.324,0,0,0-.729,3.028v.624a5.453,5.453,0,0,0,.721,3.041,2.342,2.342,0,0,0,2.074,1.081,2.321,2.321,0,0,0,2.039-1.042,5.421,5.421,0,0,0,.721-3.037ZM48.2-3.357A1.353,1.353,0,0,0,47.672-4.5a6.917,6.917,0,0,0-1.9-.844A13.458,13.458,0,0,1,43.6-6.223,3.547,3.547,0,0,1,41.423-9.4a3.09,3.09,0,0,1,.584-1.85,3.812,3.812,0,0,1,1.679-1.27,6.318,6.318,0,0,1,2.457-.457,5.751,5.751,0,0,1,2.443.5,3.891,3.891,0,0,1,1.666,1.4,3.668,3.668,0,0,1,.593,2.057H48.208a1.726,1.726,0,0,0-.554-1.367,2.276,2.276,0,0,0-1.556-.488,2.432,2.432,0,0,0-1.5.409,1.289,1.289,0,0,0-.536,1.077,1.235,1.235,0,0,0,.628,1.046,7.1,7.1,0,0,0,1.85.791,7.994,7.994,0,0,1,3.278,1.679,3.343,3.343,0,0,1,1.028,2.5A3.08,3.08,0,0,1,49.588-.769,5.5,5.5,0,0,1,46.2.176a6.534,6.534,0,0,1-2.689-.541,4.256,4.256,0,0,1-1.85-1.481,3.793,3.793,0,0,1-.637-2.18h2.646q0,2.118,2.531,2.118a2.462,2.462,0,0,0,1.468-.382A1.244,1.244,0,0,0,48.2-3.357ZM57.111,0V-12.8h3.938a5.98,5.98,0,0,1,3.019.76,5.3,5.3,0,0,1,2.079,2.162,6.669,6.669,0,0,1,.747,3.186V-6.1a6.688,6.688,0,0,1-.734,3.173A5.256,5.256,0,0,1,64.09-.773,6.025,6.025,0,0,1,61.075,0Zm2.637-10.661v8.543h1.274a2.863,2.863,0,0,0,2.364-1.011,4.567,4.567,0,0,0,.835-2.892V-6.7a4.64,4.64,0,0,0-.809-2.958,2.854,2.854,0,0,0-2.364-1.006ZM76.509-5.546H71.446v3.428h5.941V0H68.81V-12.8H77.37v2.136H71.446v3.05h5.063ZM90.053-3.357A1.353,1.353,0,0,0,89.525-4.5a6.917,6.917,0,0,0-1.9-.844,13.458,13.458,0,0,1-2.171-.875A3.547,3.547,0,0,1,83.276-9.4a3.09,3.09,0,0,1,.584-1.85,3.812,3.812,0,0,1,1.679-1.27A6.318,6.318,0,0,1,88-12.973a5.751,5.751,0,0,1,2.443.5,3.891,3.891,0,0,1,1.666,1.4A3.668,3.668,0,0,1,92.7-9.018H90.062a1.726,1.726,0,0,0-.554-1.367,2.276,2.276,0,0,0-1.556-.488,2.432,2.432,0,0,0-1.5.409,1.289,1.289,0,0,0-.536,1.077,1.235,1.235,0,0,0,.628,1.046,7.1,7.1,0,0,0,1.85.791A7.994,7.994,0,0,1,91.67-5.871a3.343,3.343,0,0,1,1.028,2.5A3.08,3.08,0,0,1,91.441-.769a5.5,5.5,0,0,1-3.384.945,6.534,6.534,0,0,1-2.689-.541,4.256,4.256,0,0,1-1.85-1.481,3.793,3.793,0,0,1-.637-2.18h2.646q0,2.118,2.531,2.118a2.462,2.462,0,0,0,1.468-.382A1.244,1.244,0,0,0,90.053-3.357Zm14.941-2.751a7.725,7.725,0,0,1-.668,3.313,5.03,5.03,0,0,1-1.912,2.2,5.288,5.288,0,0,1-2.852.773,5.324,5.324,0,0,1-2.839-.765A5.08,5.08,0,0,1,94.79-2.773,7.5,7.5,0,0,1,94.1-6.038v-.633A7.685,7.685,0,0,1,94.777-10,5.072,5.072,0,0,1,96.7-12.2a5.3,5.3,0,0,1,2.843-.769,5.3,5.3,0,0,1,2.843.769A5.072,5.072,0,0,1,104.313-10a7.663,7.663,0,0,1,.681,3.318Zm-2.672-.58a5.385,5.385,0,0,0-.721-3.059,2.349,2.349,0,0,0-2.057-1.046A2.349,2.349,0,0,0,97.5-9.76a5.324,5.324,0,0,0-.729,3.028v.624a5.453,5.453,0,0,0,.721,3.041,2.342,2.342,0,0,0,2.074,1.081A2.321,2.321,0,0,0,101.6-3.028a5.421,5.421,0,0,0,.721-3.037Zm14.634,2.426a4.528,4.528,0,0,1-1.525,3.252A5.355,5.355,0,0,1,111.806.176a4.816,4.816,0,0,1-3.872-1.657,6.793,6.793,0,0,1-1.411-4.548v-.782a7.671,7.671,0,0,1,.65-3.252,4.874,4.874,0,0,1,1.859-2.158,5.207,5.207,0,0,1,2.808-.751,5.217,5.217,0,0,1,3.568,1.187,4.866,4.866,0,0,1,1.564,3.331h-2.637a2.673,2.673,0,0,0-.69-1.8,2.555,2.555,0,0,0-1.806-.558,2.24,2.24,0,0,0-1.973.945,5.3,5.3,0,0,0-.672,2.931v.967a5.667,5.667,0,0,0,.628,3.032,2.2,2.2,0,0,0,1.982.958,2.6,2.6,0,0,0,1.824-.558,2.521,2.521,0,0,0,.69-1.727ZM121.491,0h-2.637V-12.8h2.637Zm10.143-5.546h-5.062v3.428h5.941V0h-8.578V-12.8H132.5v2.136h-5.924v3.05h5.063ZM134.06,0V-12.8H138a5.98,5.98,0,0,1,3.019.76,5.3,5.3,0,0,1,2.079,2.162,6.669,6.669,0,0,1,.747,3.186V-6.1a6.688,6.688,0,0,1-.734,3.173,5.256,5.256,0,0,1-2.07,2.153A6.025,6.025,0,0,1,138.023,0ZM136.7-10.661v8.543h1.274a2.863,2.863,0,0,0,2.364-1.011,4.567,4.567,0,0,0,.835-2.892V-6.7a4.64,4.64,0,0,0-.809-2.958A2.854,2.854,0,0,0,138-10.661Zm16.286,8.024h-4.623L147.48,0h-2.8l4.764-12.8h2.443L156.674,0h-2.8Zm-3.911-2.136h3.2l-1.608-4.79ZM157.869,0V-12.8h3.938a5.98,5.98,0,0,1,3.019.76A5.3,5.3,0,0,1,166.9-9.875a6.669,6.669,0,0,1,.747,3.186V-6.1a6.688,6.688,0,0,1-.734,3.173,5.256,5.256,0,0,1-2.07,2.153A6.025,6.025,0,0,1,161.833,0Zm2.637-10.661v8.543h1.274a2.863,2.863,0,0,0,2.364-1.011,4.567,4.567,0,0,0,.835-2.892V-6.7a4.64,4.64,0,0,0-.809-2.958,2.854,2.854,0,0,0-2.364-1.006Z" transform="translate(11.456 54.562)" fill="#1d272b"/>
      <rect id="Rectángulo_34968" data-name="Rectángulo 34968" width="5.728" height="61.276" transform="translate(0 1)" fill="#d93328"/>
    </g>
    <g id="Grupo_129718" data-name="Grupo 129718" transform="translate(625.813 3887.947)">
      <g id="Grupo_129682" data-name="Grupo 129682" transform="translate(401.363 232.177)">
        <rect id="Rectángulo_35905" data-name="Rectángulo 35905" width="274.212" height="178.636" rx="12.13" fill="#1d272b"/>
        <path id="Rectángulo_35906" data-name="Rectángulo 35906" d="M5.631,0H155.937a5.631,5.631,0,0,1,5.631,5.631V251.513a5.633,5.633,0,0,1-5.633,5.633H5.632A5.632,5.632,0,0,1,0,251.513V5.631A5.631,5.631,0,0,1,5.631,0Z" transform="translate(265.679 8.534) rotate(90)" fill="#bbb4f8"/>
        <path id="Trazado_166744" data-name="Trazado 166744" d="M652.354,228.816V375.6a7.4,7.4,0,0,1-7.393,7.394H402.6a7.409,7.409,0,0,1-7.393-7.394V228.816a7.409,7.409,0,0,1,7.393-7.393H644.961A7.4,7.4,0,0,1,652.354,228.816Z" transform="translate(-386.679 -212.888)" fill="#a4a4b4"/>
        <g id="Grupo_129681" data-name="Grupo 129681" transform="translate(8.531 8.535)" opacity="0.14" style="mix-blend-mode: overlay;isolation: isolate">
          <path id="Trazado_166745" data-name="Trazado 166745" d="M609.293,221.423,447.726,382.99H402.6a7.409,7.409,0,0,1-7.393-7.394V372.9L546.691,221.423Z" transform="translate(-395.21 -221.423)" fill="#fff"/>
          <path id="Trazado_166746" data-name="Trazado 166746" d="M627.59,221.423,466.023,382.99h-22.9L604.687,221.423Z" transform="translate(-380.203 -221.423)" fill="#fff"/>
        </g>
      </g>
      <g id="Grupo_129699" data-name="Grupo 129699" transform="translate(459.392 186.665)">
        <rect id="Rectángulo_35907" data-name="Rectángulo 35907" width="158.155" height="224.148" rx="16.895" fill="url(#linear-gradient)"/>
        <g id="Grupo_129686" data-name="Grupo 129686" transform="translate(7.614 20.415)">
          <g id="Grupo_129683" data-name="Grupo 129683" transform="translate(62.361 16.422)">
            <line id="Línea_2065" data-name="Línea 2065" x2="65.708" fill="none" stroke="#1d272b" stroke-linecap="round" stroke-linejoin="round" stroke-width="3.899"/>
            <line id="Línea_2066" data-name="Línea 2066" x2="13.763" transform="translate(0 14.223)" fill="none" stroke="#1d272b" stroke-linecap="round" stroke-linejoin="round" stroke-width="3.899"/>
          </g>
          <g id="Grupo_129685" data-name="Grupo 129685">
            <circle id="Elipse_4461" data-name="Elipse 4461" cx="16.64" cy="16.64" r="16.64" transform="translate(0 23.533) rotate(-45)" fill="#1d272b"/>
            <g id="Grupo_129684" data-name="Grupo 129684" transform="translate(15.983 15.766)">
              <path id="Trazado_166747" data-name="Trazado 166747" d="M460.711,211.122a3.3,3.3,0,1,1-3.3-3.3A3.3,3.3,0,0,1,460.711,211.122Z" transform="translate(-449.857 -207.819)" fill="url(#linear-gradient-2)"/>
              <path id="Trazado_166748" data-name="Trazado 166748" d="M458.421,213.9a7.55,7.55,0,0,0-7.551,7.55h15.1A7.55,7.55,0,0,0,458.421,213.9Z" transform="translate(-450.87 -205.915)" fill="url(#linear-gradient-3)"/>
            </g>
          </g>
        </g>
        <g id="Grupo_129690" data-name="Grupo 129690" transform="translate(11.113 71.381)">
          <g id="Grupo_129687" data-name="Grupo 129687" transform="translate(58.862 12.923)">
            <line id="Línea_2067" data-name="Línea 2067" x2="65.708" fill="none" stroke="#1d272b" stroke-linecap="round" stroke-linejoin="round" stroke-width="3.899"/>
            <line id="Línea_2068" data-name="Línea 2068" x2="24.321" transform="translate(0 14.223)" fill="none" stroke="#1d272b" stroke-linecap="round" stroke-linejoin="round" stroke-width="3.899"/>
          </g>
          <g id="Grupo_129689" data-name="Grupo 129689">
            <circle id="Elipse_4462" data-name="Elipse 4462" cx="16.64" cy="16.64" r="16.64" transform="translate(0 32.381) rotate(-76.644)" fill="#1d272b"/>
            <g id="Grupo_129688" data-name="Grupo 129688" transform="translate(12.484 12.267)">
              <circle id="Elipse_4463" data-name="Elipse 4463" cx="3.303" cy="3.303" r="3.303" transform="translate(4.247)" fill="url(#linear-gradient-4)"/>
              <path id="Trazado_166749" data-name="Trazado 166749" d="M458.421,250.044a7.55,7.55,0,0,0-7.551,7.55h15.1A7.55,7.55,0,0,0,458.421,250.044Z" transform="translate(-450.87 -242.059)" fill="url(#linear-gradient-4)"/>
            </g>
          </g>
        </g>
        <g id="Grupo_129694" data-name="Grupo 129694" transform="translate(7.614 115.349)">
          <g id="Grupo_129691" data-name="Grupo 129691" transform="translate(62.361 16.422)">
            <line id="Línea_2069" data-name="Línea 2069" x2="65.708" fill="none" stroke="#1d272b" stroke-linecap="round" stroke-linejoin="round" stroke-width="3.899"/>
            <line id="Línea_2070" data-name="Línea 2070" x2="35.679" transform="translate(0 14.223)" fill="none" stroke="#1d272b" stroke-linecap="round" stroke-linejoin="round" stroke-width="3.899"/>
          </g>
          <g id="Grupo_129693" data-name="Grupo 129693">
            <circle id="Elipse_4464" data-name="Elipse 4464" cx="16.64" cy="16.64" r="16.64" transform="translate(0 23.533) rotate(-45)" fill="#1d272b"/>
            <g id="Grupo_129692" data-name="Grupo 129692" transform="translate(15.983 15.766)">
              <circle id="Elipse_4465" data-name="Elipse 4465" cx="3.303" cy="3.303" r="3.303" transform="translate(4.247)" fill="url(#linear-gradient-4)"/>
              <path id="Trazado_166750" data-name="Trazado 166750" d="M458.421,286.189a7.55,7.55,0,0,0-7.551,7.55h15.1A7.55,7.55,0,0,0,458.421,286.189Z" transform="translate(-450.87 -278.205)" fill="url(#linear-gradient-7)"/>
            </g>
          </g>
        </g>
        <g id="Grupo_129698" data-name="Grupo 129698" transform="translate(14.507 169.709)">
          <g id="Grupo_129695" data-name="Grupo 129695" transform="translate(55.468 9.529)">
            <line id="Línea_2071" data-name="Línea 2071" x2="65.708" fill="none" stroke="#1d272b" stroke-linecap="round" stroke-linejoin="round" stroke-width="3.899"/>
            <line id="Línea_2072" data-name="Línea 2072" x2="13.763" transform="translate(0 14.223)" fill="none" stroke="#1d272b" stroke-linecap="round" stroke-linejoin="round" stroke-width="3.899"/>
          </g>
          <g id="Grupo_129697" data-name="Grupo 129697">
            <circle id="Elipse_4466" data-name="Elipse 4466" cx="16.64" cy="16.64" r="16.64" fill="#1d272b"/>
            <g id="Grupo_129696" data-name="Grupo 129696" transform="translate(9.09 8.873)">
              <circle id="Elipse_4467" data-name="Elipse 4467" cx="3.303" cy="3.303" r="3.303" transform="translate(4.247)" fill="url(#linear-gradient-4)"/>
              <path id="Trazado_166751" data-name="Trazado 166751" d="M458.421,322.334a7.55,7.55,0,0,0-7.551,7.551h15.1A7.55,7.55,0,0,0,458.421,322.334Z" transform="translate(-450.87 -314.35)" fill="url(#linear-gradient-9)"/>
            </g>
          </g>
        </g>
      </g>
      <g id="Grupo_129700" data-name="Grupo 129700" transform="translate(386.572 410.814)">
        <path id="Trazado_166752" data-name="Trazado 166752" d="M668.445,363.752H390.251a12.8,12.8,0,0,1-12.8-12.8H681.245A12.8,12.8,0,0,1,668.445,363.752Z" transform="translate(-377.451 -350.952)" fill="#1d272b"/>
        <path id="Trazado_166753" data-name="Trazado 166753" d="M514.257,355.725h-32.3a4.769,4.769,0,0,1-4.77-4.77h41.838A4.769,4.769,0,0,1,514.257,355.725Z" transform="translate(-346.21 -350.951)" fill="#868695"/>
      </g>
      <g id="Grupo_129708" data-name="Grupo 129708" transform="translate(376.526 202.021)">
        <g id="Grupo_129704" data-name="Grupo 129704" transform="translate(269.208 132.57)">
          <circle id="Elipse_4471" data-name="Elipse 4471" cx="21.838" cy="21.838" r="21.838" fill="#d93328"/>
          <path id="Trazado_166757" data-name="Trazado 166757" d="M596.515,301.365l1.752,5.141a2.072,2.072,0,0,0,1.931,1.4l5.431.077a2.07,2.07,0,0,1,1.211,3.727l-4.348,3.256a2.069,2.069,0,0,0-.738,2.269l1.6,5.189a2.07,2.07,0,0,1-3.17,2.3l-4.44-3.129a2.071,2.071,0,0,0-2.386,0l-4.439,3.129a2.071,2.071,0,0,1-3.171-2.3l1.6-5.189a2.069,2.069,0,0,0-.738-2.269l-4.348-3.256a2.07,2.07,0,0,1,1.212-3.727l5.43-.077a2.071,2.071,0,0,0,1.93-1.4l1.752-5.141A2.071,2.071,0,0,1,596.515,301.365Z" transform="translate(-572.718 -290.702)" fill="#fafafa"/>
        </g>
        <g id="Grupo_129719" data-name="Grupo 129719" transform="translate(47.992 48.354)">
          <circle id="Elipse_4471-2" data-name="Elipse 4471" cx="10.055" cy="10.055" r="10.055" fill="#d93328"/>
          <path id="Trazado_166757-2" data-name="Trazado 166757" d="M588.38,300.608l.807,2.367a.954.954,0,0,0,.889.646l2.5.036a.953.953,0,0,1,.557,1.716l-2,1.5a.953.953,0,0,0-.34,1.045l.739,2.389a.953.953,0,0,1-1.46,1.061l-2.044-1.441a.953.953,0,0,0-1.1,0l-2.044,1.441a.953.953,0,0,1-1.46-1.061l.739-2.389a.953.953,0,0,0-.34-1.045l-2-1.5a.953.953,0,0,1,.558-1.716l2.5-.036a.953.953,0,0,0,.889-.646l.807-2.367A.953.953,0,0,1,588.38,300.608Z" transform="translate(-577.423 -295.698)" fill="#fafafa"/>
        </g>
        <g id="Grupo_129720" data-name="Grupo 129720" transform="translate(269.208 4.678)">
          <circle id="Elipse_4471-3" data-name="Elipse 4471" cx="21.838" cy="21.838" r="21.838" fill="#d93328"/>
          <path id="Trazado_166757-3" data-name="Trazado 166757" d="M596.515,301.365l1.752,5.141a2.072,2.072,0,0,0,1.931,1.4l5.431.078a2.07,2.07,0,0,1,1.211,3.727l-4.348,3.255a2.069,2.069,0,0,0-.738,2.269l1.6,5.189a2.07,2.07,0,0,1-3.17,2.3l-4.44-3.129a2.071,2.071,0,0,0-2.386,0l-4.438,3.129a2.071,2.071,0,0,1-3.172-2.3l1.6-5.189a2.069,2.069,0,0,0-.738-2.269l-4.348-3.255a2.07,2.07,0,0,1,1.212-3.727l5.43-.078a2.071,2.071,0,0,0,1.93-1.4l1.752-5.141A2.071,2.071,0,0,1,596.515,301.365Z" transform="translate(-572.718 -290.702)" fill="#fafafa"/>
        </g>
        <g id="Grupo_129721" data-name="Grupo 129721" transform="translate(131.208 -38.998)">
          <circle id="Elipse_4471-4" data-name="Elipse 4471" cx="21.838" cy="21.838" r="21.838" fill="#d93328"/>
          <path id="Trazado_166757-4" data-name="Trazado 166757" d="M596.515,301.365l1.752,5.141a2.072,2.072,0,0,0,1.931,1.4l5.431.078a2.07,2.07,0,0,1,1.211,3.727l-4.348,3.255a2.069,2.069,0,0,0-.738,2.269l1.6,5.189a2.07,2.07,0,0,1-3.17,2.3l-4.44-3.129a2.071,2.071,0,0,0-2.386,0l-4.438,3.129a2.071,2.071,0,0,1-3.172-2.3l1.6-5.189a2.069,2.069,0,0,0-.738-2.269l-4.348-3.255a2.07,2.07,0,0,1,1.212-3.727l5.43-.078a2.071,2.071,0,0,0,1.93-1.4l1.752-5.141A2.071,2.071,0,0,1,596.515,301.365Z" transform="translate(-572.718 -290.702)" fill="#fafafa"/>
        </g>
      </g>
      <g id="Grupo_129712" data-name="Grupo 129712" transform="translate(348.331 180.084)">
        <g id="Grupo_129710" data-name="Grupo 129710">
          <rect id="Rectángulo_35908" data-name="Rectángulo 35908" width="132.977" height="30.712" rx="5.287" fill="#1d272b"/>
          <path id="Trazado_166761" data-name="Trazado 166761" d="M441.609,208.892l-13.148-13.148h13.148Z" transform="translate(-323.232 -168.839)" fill="#1d272b"/>
        </g>
        <g id="Grupo_129711" data-name="Grupo 129711" transform="translate(10.527 7.1)">
          <path id="Trazado_166762" data-name="Trazado 166762" d="M366.243,181.584l1.15,3.375a1.36,1.36,0,0,0,1.267.921l3.564.05a1.36,1.36,0,0,1,.8,2.448l-2.855,2.137a1.359,1.359,0,0,0-.483,1.489l1.053,3.405a1.359,1.359,0,0,1-2.081,1.513l-2.914-2.054a1.358,1.358,0,0,0-1.565,0l-2.914,2.054a1.359,1.359,0,0,1-2.081-1.513L360.233,192a1.36,1.36,0,0,0-.485-1.489l-2.854-2.137a1.36,1.36,0,0,1,.794-2.448l3.565-.05a1.363,1.363,0,0,0,1.267-.921l1.149-3.375A1.359,1.359,0,0,1,366.243,181.584Z" transform="translate(-356.347 -180.663)" fill="#db8804"/>
          <path id="Trazado_166763" data-name="Trazado 166763" d="M384.273,181.584l1.149,3.375a1.361,1.361,0,0,0,1.267.921l3.565.05a1.36,1.36,0,0,1,.794,2.448l-2.854,2.137a1.36,1.36,0,0,0-.485,1.489l1.053,3.405a1.359,1.359,0,0,1-2.081,1.513l-2.914-2.054a1.358,1.358,0,0,0-1.565,0l-2.914,2.054a1.359,1.359,0,0,1-2.081-1.513L378.261,192a1.359,1.359,0,0,0-.483-1.489l-2.855-2.137a1.36,1.36,0,0,1,.8-2.448l3.564-.05a1.36,1.36,0,0,0,1.267-.921l1.15-3.375A1.359,1.359,0,0,1,384.273,181.584Z" transform="translate(-350.7 -180.663)" fill="#db8804"/>
          <path id="Trazado_166764" data-name="Trazado 166764" d="M402.3,181.584l1.15,3.375a1.36,1.36,0,0,0,1.267.921l3.564.05a1.36,1.36,0,0,1,.795,2.448l-2.854,2.137A1.357,1.357,0,0,0,405.74,192l1.053,3.405a1.359,1.359,0,0,1-2.081,1.513l-2.914-2.054a1.36,1.36,0,0,0-1.567,0l-2.914,2.054a1.358,1.358,0,0,1-2.08-1.513L396.29,192a1.36,1.36,0,0,0-.485-1.489l-2.854-2.137a1.36,1.36,0,0,1,.794-2.448l3.565-.05a1.36,1.36,0,0,0,1.266-.921l1.15-3.375A1.359,1.359,0,0,1,402.3,181.584Z" transform="translate(-345.053 -180.663)" fill="#db8804"/>
          <path id="Trazado_166765" data-name="Trazado 166765" d="M420.33,181.584l1.149,3.375a1.361,1.361,0,0,0,1.267.921l3.564.05a1.36,1.36,0,0,1,.8,2.448l-2.854,2.137a1.358,1.358,0,0,0-.485,1.489l1.053,3.405a1.359,1.359,0,0,1-2.081,1.513l-2.914-2.054a1.358,1.358,0,0,0-1.565,0l-2.914,2.054a1.359,1.359,0,0,1-2.081-1.513L414.318,192a1.358,1.358,0,0,0-.485-1.489l-2.854-2.137a1.36,1.36,0,0,1,.794-2.448l3.565-.05a1.361,1.361,0,0,0,1.267-.921l1.149-3.375A1.36,1.36,0,0,1,420.33,181.584Z" transform="translate(-339.406 -180.663)" fill="#db8804"/>
          <path id="Trazado_166766" data-name="Trazado 166766" d="M438.358,181.584l1.15,3.375a1.36,1.36,0,0,0,1.266.921l3.565.05a1.36,1.36,0,0,1,.794,2.448l-2.854,2.137A1.36,1.36,0,0,0,441.8,192l1.053,3.405a1.358,1.358,0,0,1-2.08,1.513l-2.914-2.054a1.36,1.36,0,0,0-1.567,0l-2.914,2.054a1.359,1.359,0,0,1-2.081-1.513L432.346,192a1.357,1.357,0,0,0-.483-1.489l-2.854-2.137a1.359,1.359,0,0,1,.794-2.448l3.564-.05a1.36,1.36,0,0,0,1.267-.921l1.15-3.375A1.359,1.359,0,0,1,438.358,181.584Z" transform="translate(-333.759 -180.663)" fill="#db8804"/>
        </g>
      </g>
      <g id="Grupo_129717" data-name="Grupo 129717" transform="translate(534.686 240.712)">
        <rect id="Rectángulo_35909" data-name="Rectángulo 35909" width="5.376" height="7.406" transform="translate(64.273 181.579)" fill="#f6a19e"/>
        <path id="Trazado_166767" data-name="Trazado 166767" d="M512.973,366.78h5.376l1.672-7.406h-5.376Z" transform="translate(-483.114 -178.213)" fill="#f6a19e"/>
        <path id="Trazado_166768" data-name="Trazado 166768" d="M504.8,256.253s-.11-4.507-1.454-5.313-3.047-4.694-3.047-4.694a2.538,2.538,0,0,0-.9,1.557,9.387,9.387,0,0,0,.448,2.172,10.58,10.58,0,0,0-3.047-.768c-4.6-.478-5.375-2.927-5.913-2.658-.3.151-1.236,1.982-.11,4.21a11.325,11.325,0,0,0,5.385,4.51,17.089,17.089,0,0,1,6.193,4.451l3.225-2.6Z" transform="translate(-490.236 -213.648)" fill="#f6a19e"/>
        <path id="Trazado_166769" data-name="Trazado 166769" d="M544.963,234.075c.066,1.2-.5,2.009-.775,3.1-.323,1.25-1.3,2.054-2.281,3.086-1.231,1.292-2.278,3.4-4.028,3.405-2.33,0-1.4-7.375-.489-8.611C538.36,233.732,542.858,231.989,544.963,234.075Z" transform="translate(-475.771 -217.763)" fill="#12263f"/>
        <path id="Trazado_166770" data-name="Trazado 166770" d="M545.558,245.067s9.2,2.777,12.065,6.9,2.33,14.155-1.254,26.341a83.672,83.672,0,0,0-2.867,24.907H523s-.717-17.932-1.433-30.3-1.593-20.951,1.468-22.924a43.134,43.134,0,0,1,10.93-4.926Z" transform="translate(-480.637 -214.017)" fill="url(#linear-gradient-10)"/>
        <path id="Trazado_166771" data-name="Trazado 166771" d="M540.262,236.471v14.423l-5.147-.739-4.268.739V236.471Z" transform="translate(-477.515 -216.71)" fill="#f6a19e"/>
        <path id="Trazado_166772" data-name="Trazado 166772" d="M540.263,237.8s-.913,6-9.415,5.464V239.1Z" transform="translate(-477.515 -216.293)" fill="#f26463" opacity="0.42"/>
        <path id="Trazado_166773" data-name="Trazado 166773" d="M529.452,249.255s-3.508,4.382-6.684,9.21c-3.258,4.95-5.758,8.644-5.758,8.644s-11.736-10.393-13.708-12.543a14.622,14.622,0,0,0-4.929,5.2s10.484,12.543,12.9,14.783,4.39,3.136,8.959-.717,10.393-9.856,10.393-9.856S533.484,255.285,529.452,249.255Z" transform="translate(-487.687 -212.705)" fill="url(#linear-gradient-11)"/>
        <path id="Trazado_166774" data-name="Trazado 166774" d="M556.192,289.344s3.907,42.57-2.185,97.221h-7.526s-4.982-60.487-6.6-75.181l-18.815,75.181h-8.78s11.279-92.629,13.4-97.221Z" transform="translate(-483.328 -200.148)" fill="#1d272b"/>
        <path id="Trazado_166775" data-name="Trazado 166775" d="M520.845,364.489a4.5,4.5,0,0,1,.928,1.892c.406,1.567.464,3.849-.787,3.849H506.83c-1.363,0-1.772-2.486.339-2.871,1.712-.313,3.405-.336,4.838-1.114s3.463-1.965,3.463-1.965A28.984,28.984,0,0,0,520.845,364.489Z" transform="translate(-485.393 -176.675)" fill="#1d272b"/>
        <g id="Grupo_129716" data-name="Grupo 129716" transform="translate(52.017 33.435)">
          <path id="Trazado_166776" data-name="Trazado 166776" d="M536.327,248.972,538,285.1l-4.1,7.509a72.777,72.777,0,0,1-4.05-7.509s1.536-26.414,4.353-36.131Z" transform="translate(-529.846 -246.229)" fill="#db8804"/>
          <g id="Grupo_129715" data-name="Grupo 129715" transform="translate(3.722)">
            <g id="Grupo_129714" data-name="Grupo 129714">
              <path id="Trazado_166777" data-name="Trazado 166777" d="M534.587,246.883a5.877,5.877,0,0,1,1.775,2.15c.268.986-1.228,2.075-2.087,2.075-.893,0-1.659-1.284-1.592-1.94A3.4,3.4,0,0,1,534.587,246.883Z" transform="translate(-532.68 -246.883)" fill="#db8804"/>
            </g>
          </g>
        </g>
        <path id="Trazado_166778" data-name="Trazado 166778" d="M527.259,228.544c-.1,3,.1,6.64.322,9.739.167,2.3,1.269,5.429,3.145,7,1.418,1.186,8.566,1.424,10.669-4.041,1.8.444,4.218-2.039,3.343-3.719-.561-1.076-2.609-1.085-3.343-.15.013-4.135.033-9.1-4.813-10.153-2.045-.441-5.5-.7-7.521.244C528.446,227.75,527.283,227.859,527.259,228.544Z" transform="translate(-478.648 -219.732)" fill="#f6a19e"/>
        <path id="Trazado_166779" data-name="Trazado 166779" d="M550.216,229.851a6.506,6.506,0,0,0,.056-.767c.029-2.022-2.54-2.808-3.606-4.233-1.569-2.1-2.82-3.707-5.7-3.388s-5.756,2.23-8.695,1.565c-1.71-.386-3.014-1.55-4.856-1.011-4.54,1.328-2.487,7.307,1.082,8.4,1.622.5,2.745,1.332,4.511,1.317,1.522-.013,2.935-.746,4.412-1.023a9.851,9.851,0,0,1,4.364.056c1.869.512,3.577,1.819,5.547,1.934C549.178,232.807,550,231.4,550.216,229.851Z" transform="translate(-479.408 -221.423)" fill="#12263f"/>
        <path id="Trazado_166780" data-name="Trazado 166780" d="M536.6,234.3a4.791,4.791,0,0,1,2.016,3.942c.263-.942,1.926-1.7,3.53-.735a3.056,3.056,0,0,0,4.346-1.15,6.824,6.824,0,0,0,.869-4.294,7.334,7.334,0,0,0-1.044-3.442,6.513,6.513,0,0,0-2.289-2.489,5.088,5.088,0,0,0-2.9-.345,11.211,11.211,0,0,0-2.766.838,4.434,4.434,0,0,0-1.719,1.224,8.62,8.62,0,0,0-.758,1.249A4.074,4.074,0,0,0,536.6,234.3Z" transform="translate(-476.136 -220.075)" fill="#12263f"/>
        <path id="Trazado_166781" data-name="Trazado 166781" d="M539.245,244.043a5.674,5.674,0,0,1-5.147,3.74s.236,3.249,2.867,3.7,4.453-6.092,4.453-6.092A2.509,2.509,0,0,0,539.245,244.043Z" transform="translate(-476.497 -214.338)" fill="#fafafa"/>
        <path id="Trazado_166782" data-name="Trazado 166782" d="M535.443,247.7s-3.7-1.074-4.268-3.382a1.9,1.9,0,0,0-1.366,1.51s-.222,3.014,2.076,4.268C534.076,251.291,535.443,247.7,535.443,247.7Z" transform="translate(-477.842 -214.252)" fill="#fafafa"/>
        <path id="Trazado_166783" data-name="Trazado 166783" d="M541.141,289.344s-1.807,7.3,6.443,9.185c0,0-.319-6.812-.376-9.185Z" transform="translate(-474.344 -200.148)" fill="#161638"/>
        <path id="Trazado_166784" data-name="Trazado 166784" d="M548.073,289.344a8.115,8.115,0,0,1-2.932,2.2,20.743,20.743,0,0,0-3.877,1.959s.667,3.776,6.229,5.03c0,0,2.964-2.777,3.233-3.853s1.254-4.569,1.254-4.569Z" transform="translate(-474.253 -200.148)" fill="#f6a19e"/>
        <path id="Trazado_166785" data-name="Trazado 166785" d="M549.783,250.32s10.034,17.022,12.185,24.37-11.046,29.074-11.046,29.074-1.839,0-4.885-2.687l6.971-20.832-6.271-11.11S543.512,255.875,549.783,250.32Z" transform="translate(-472.798 -212.372)" fill="url(#linear-gradient-12)"/>
        <path id="Trazado_166786" data-name="Trazado 166786" d="M544.933,364.776s2.128,2.889,1.927,3.391a12.528,12.528,0,0,1-1.506,1.909h-5.825a2.478,2.478,0,0,1-1.558-2.236c0-.71,1.588-2.989,1.588-2.989A15.462,15.462,0,0,0,544.933,364.776Z" transform="translate(-475.284 -176.52)" fill="#1d272b"/>
      </g>
      <g id="Grupo_130119" data-name="Grupo 130119" transform="translate(695.568 214.521)">
        <g id="Grupo_121047" data-name="Grupo 121047" transform="translate(0 0)">
          <g id="Grupo_18423" data-name="Grupo 18423" transform="translate(0 0)">
            <g id="Grupo_18421" data-name="Grupo 18421">
              <g id="Grupo_18420" data-name="Grupo 18420">
                <g id="Grupo_18419" data-name="Grupo 18419">
                  <path id="Trazado_40936" data-name="Trazado 40936" d="M239.589,2168.2a22.483,22.483,0,1,1-22.483-22.482A22.483,22.483,0,0,1,239.589,2168.2Z" transform="translate(-194.623 -2145.721)" fill="#fff"/>
                </g>
              </g>
            </g>
            <path id="Trazado_40937" data-name="Trazado 40937" d="M239.869,2168.509a22.483,22.483,0,1,0-22.483,22.484A22.395,22.395,0,0,0,239.869,2168.509Z" transform="translate(-194.903 -2146.026)" fill="url(#radial-gradient)"/>
            <path id="Trazado_40938" data-name="Trazado 40938" d="M237.173,2171.137a17.161,17.161,0,1,0-17.161,17.161A17.1,17.1,0,0,0,237.173,2171.137Z" transform="translate(-197.46 -2148.58)" fill="none" stroke="#1d272b" stroke-miterlimit="10" stroke-width="2"/>
            <g id="Grupo_18422" data-name="Grupo 18422" transform="translate(3.983 12.623)">
              <path id="Trazado_40939" data-name="Trazado 40939" d="M239.255,2164.488a22.486,22.486,0,0,1-38.71,22.39,22.414,22.414,0,0,0,38.71-22.39Z" transform="translate(-200.545 -2164.488)" fill="#eceef0"/>
            </g>
          </g>
          <g id="TKvKcl.tif" transform="translate(14.48 12.439)">
            <g id="Grupo_121018" data-name="Grupo 121018" transform="translate(0 0)">
              <path id="Trazado_158642" data-name="Trazado 158642" d="M996.48,26.94a9.4,9.4,0,0,1-1.134-.395,2.908,2.908,0,0,1-.739-.564q-2.522-2.5-5.028-5.023a3.046,3.046,0,0,1-.028-4.385,3.022,3.022,0,0,1,2.269-1.088,1.093,1.093,0,0,0,.868-.384,5.491,5.491,0,0,1,1.983-1.246c.046-.017.089-.038.163-.069a4.568,4.568,0,0,1-2.418-4.143,4.412,4.412,0,0,1,1.634-3.421,4.576,4.576,0,0,1,6.51.649,4.452,4.452,0,0,1,.875,3.925,4.517,4.517,0,0,1-2.523,3.1l1.985,1.178a.75.75,0,0,1,.109-.165q2.081-2.087,4.167-4.169c.383-.383.724-.307.911.2.664,1.815,1.324,3.632,1.995,5.445a.61.61,0,0,1-.163.724q-4.415,4.4-8.818,8.817a3.18,3.18,0,0,1-1.882.986.179.179,0,0,0-.054.029Zm8.923-15.193c-.081.1-.124.167-.179.221q-3.987,3.988-7.975,7.975c-.329.329-.531.329-.864,0-.943-.942-1.884-1.888-2.832-2.826a2.663,2.663,0,0,0-.527-.425,2.1,2.1,0,0,0-2.573.281,2.179,2.179,0,0,0-.222,3.354q2.5,2.521,5.03,5.021a2.413,2.413,0,0,0,.846.545,2.1,2.1,0,0,0,2.326-.587q4.3-4.3,8.594-8.589a.279.279,0,0,0,.08-.347c-.539-1.454-1.07-2.911-1.6-4.367C1005.481,11.935,1005.453,11.872,1005.4,11.747Zm-12.012-1.33c.018.092.03.168.049.243a3.666,3.666,0,0,0,6.875.617c.062-.13.014-.19-.066-.269C999.53,10.3,998.81,9.6,998.1,8.886a.251.251,0,0,0-.313-.06c-1.1.4-2.208.8-3.313,1.2Zm-.068-.948c.1-.035.177-.058.249-.084,1.405-.507,2.813-1.008,4.214-1.525a.61.61,0,0,1,.726.157c.639.645,1.29,1.278,1.937,1.915.052.051.109.1.2.178a3.6,3.6,0,0,0-1.581-3.4,3.486,3.486,0,0,0-3.822-.2A3.593,3.593,0,0,0,993.322,9.47Zm-.016,6.3a33.468,33.468,0,0,1,3.042,2.829V14.614A3.526,3.526,0,0,0,993.307,15.766Zm6.844-.062a4.454,4.454,0,0,0-2.859-1.109v3.965Z" transform="translate(-988.634 -5.153)" fill="#1d272b"/>
              <path id="Trazado_158643" data-name="Trazado 158643" d="M1048.386,309.15c0,.422-.353.642-.647.487a.8.8,0,0,1-.184-.142q-.858-.855-1.711-1.715a.689.689,0,0,1-.174-.261.411.411,0,0,1,.15-.474.423.423,0,0,1,.513-.026.913.913,0,0,1,.164.134c.562.56,1.125,1.119,1.68,1.686A1.689,1.689,0,0,1,1048.386,309.15Z" transform="translate(-1043.217 -294.077)" fill="#1d272b"/>
            </g>
          </g>
        </g>
      </g>
      <g id="Grupo_130120" data-name="Grupo 130120" transform="translate(630.845 152.214)">
        <g id="Grupo_18423-2" data-name="Grupo 18423" transform="translate(0 0)">
          <g id="Grupo_18421-2" data-name="Grupo 18421">
            <g id="Grupo_18420-2" data-name="Grupo 18420">
              <g id="Grupo_18419-2" data-name="Grupo 18419">
                <path id="Trazado_40936-2" data-name="Trazado 40936" d="M239.589,2168.2a22.483,22.483,0,1,1-22.483-22.482A22.483,22.483,0,0,1,239.589,2168.2Z" transform="translate(-194.623 -2145.721)" fill="#fff"/>
              </g>
            </g>
          </g>
          <path id="Trazado_40937-2" data-name="Trazado 40937" d="M239.869,2168.509a22.483,22.483,0,1,0-22.483,22.484A22.395,22.395,0,0,0,239.869,2168.509Z" transform="translate(-194.903 -2146.026)" fill="url(#radial-gradient)"/>
          <path id="Trazado_40938-2" data-name="Trazado 40938" d="M237.173,2171.137a17.161,17.161,0,1,0-17.161,17.161A17.1,17.1,0,0,0,237.173,2171.137Z" transform="translate(-197.46 -2148.58)" fill="none" stroke="#1d272d" stroke-miterlimit="10" stroke-width="2"/>
          <g id="Grupo_18422-2" data-name="Grupo 18422" transform="translate(3.983 12.623)">
            <path id="Trazado_40939-2" data-name="Trazado 40939" d="M239.255,2164.488a22.486,22.486,0,0,1-38.71,22.39,22.414,22.414,0,0,0,38.71-22.39Z" transform="translate(-200.545 -2164.488)" fill="#eceef0"/>
          </g>
        </g>
        <g id="XNzkG7" transform="translate(10.669 11.61)">
          <g id="Grupo_121017" data-name="Grupo 121017" transform="translate(0)">
            <path id="Trazado_158635" data-name="Trazado 158635" d="M555.432,47.365l2.841,2.843c-.159.148-.34.311-.514.482q-.479.471-.951.95c-.175.179-.209.379-.056.537.429.443.873.87,1.324,1.316.055-.16.1-.307.155-.451a2.627,2.627,0,0,1,2.058-1.77c.757-.151,1.519-.278,2.278-.417.082-.015.164-.034.313-.065-.072-.109-.106-.212-.176-.258a3.866,3.866,0,0,1-1.674-2.334.32.32,0,0,0-.178-.2,1.44,1.44,0,0,1-1.053-1.3c-.03-.469-.021-.942-.013-1.413a18.926,18.926,0,0,1,.071-2.2,4.954,4.954,0,0,1,9.775-.083,5.176,5.176,0,0,1,.077.806q.012,2.294,0,4.588a1.125,1.125,0,0,1-1.221,1.189,1.121,1.121,0,0,0-1.1.439,3.466,3.466,0,0,1-.6.5.845.845,0,0,0-.133.213.744.744,0,0,0,.188.1c.782.146,1.566.276,2.346.431a2.59,2.59,0,0,1,2.059,1.766c.309.871.589,1.753.894,2.663h-8.119l-.029.056.574.464c-.077.091-.1.121-.124.145-.631.58-1.255,1.168-1.9,1.738a2.642,2.642,0,0,1-3.6-.087q-2.641-2.6-5.243-5.244a2.642,2.642,0,0,1,.045-3.738q.775-.781,1.556-1.557C555.351,47.434,555.4,47.4,555.432,47.365Zm6.274,6.088c.446.448.884.88,1.313,1.323a.507.507,0,0,0,.4.17q3.694-.008,7.389,0h.274c-.188-.567-.356-1.1-.543-1.633a1.88,1.88,0,0,0-1.525-1.3c-.721-.133-1.446-.244-2.162-.4a.71.71,0,0,0-.783.241c-.415.465-.874.891-1.325,1.344-.518-.52-1.016-1.025-1.524-1.521a.374.374,0,0,0-.272-.108c-.86.145-1.72.291-2.573.466a1.845,1.845,0,0,0-1.408,1.216,3.293,3.293,0,0,1-.138.392.577.577,0,0,0,.205.84,3.013,3.013,0,0,1,.346.341c.31.312.46.316.78.026Zm-.768-8.821a4.431,4.431,0,0,0,3.807-1.708,4.441,4.441,0,0,0,3.827,1.707c-.055.314,0,.534.37.55,0-.452.014-.905,0-1.357a4.033,4.033,0,0,0-2.368-3.72,3.979,3.979,0,0,0-4.4.462c-1.544,1.174-1.763,2.836-1.593,4.616C560.9,45.084,560.9,45.084,560.938,44.633Zm3.822,4.2h.279c.718,0,1.436,0,2.154,0,.085,0,.216-.043.245-.1a2.242,2.242,0,0,0,.276-.754c.052-.844.052-1.692.072-2.538,0-.012-.017-.025-.031-.044a5.007,5.007,0,0,1-3-1.341,5.411,5.411,0,0,1-3.031,1.359c0,.764,0,1.526,0,2.287a1.3,1.3,0,0,0,.035.275,3.046,3.046,0,0,0,4.055,2.194,8.026,8.026,0,0,0,.895-.476l-.034-.082H564.76ZM560.6,55.508a1.191,1.191,0,0,1-1.8-.178q-1.244-1.246-2.489-2.492a1.486,1.486,0,0,1-.263-.321,1.15,1.15,0,0,1,.158-1.379L554.477,49.4a1.908,1.908,0,0,0-.113,2.949q2.5,2.5,5,5a1.924,1.924,0,0,0,2.974-.109Zm2.8.778-1.746-1.756-.452.414,1.746,1.754Zm-6.245-6.1-1.7-1.7-.369.3L556.8,50.52Zm8.7.779a3.983,3.983,0,0,1-2.215.006l1.109,1.1Zm2.415-2.157c.636.121.752-.195.62-.916-.144.074-.343.11-.4.222A3.371,3.371,0,0,0,568.276,48.806Zm.3-2.9v1.276a.751.751,0,0,0,0-1.276ZM560.9,47.175V45.914A.741.741,0,0,0,560.9,47.175Z" transform="translate(-552.955 -35.088)" fill="#1d272b"/>
            <path id="Trazado_158636" data-name="Trazado 158636" d="M899.559-35.791l.386-2.294h-.918a1.151,1.151,0,0,1-1.247-1.237q0-1.448,0-2.9a1.141,1.141,0,0,1,1.205-1.208q2.618-.005,5.236,0a1.138,1.138,0,0,1,1.2,1.215q0,1.459,0,2.919a1.1,1.1,0,0,1-1.2,1.195,2.742,2.742,0,0,0-1.827.533c-.839.576-1.721,1.09-2.585,1.629C899.74-35.895,899.674-35.858,899.559-35.791Zm1.039-1.544c.494-.309.974-.564,1.4-.887a2.78,2.78,0,0,1,2.168-.624.138.138,0,0,0,.023,0c.319-.006.458-.135.459-.448q0-1.46,0-2.92c0-.317-.136-.449-.456-.449q-2.6,0-5.191,0c-.319,0-.451.136-.452.453q0,1.448,0,2.9c0,.334.13.465.462.467.525,0,1.051,0,1.576,0,.081,0,.163.007.262.011Z" transform="translate(-881.793 43.428)" fill="#1d272b"/>
            <path id="Trazado_158637" data-name="Trazado 158637" d="M568.073-18.551l-.221.713a9.9,9.9,0,0,0-9.035,1.671,9.671,9.671,0,0,0-3.519,5.43l1.013-.6.395.651-2.239,1.344-1.342-2.237.655-.391.7,1.165a10.663,10.663,0,0,1,7.509-7.812A10.315,10.315,0,0,1,568.073-18.551Z" transform="translate(-553.116 20.173)" fill="#1d272b"/>
            <path id="Trazado_158638" data-name="Trazado 158638" d="M977.882,111.333l-.392.656-1.1-.654a10.841,10.841,0,0,1-1.84,10.123c-.118-.094-.212-.168-.306-.244s-.19-.155-.289-.237a9.888,9.888,0,0,0,1.645-9.427l-.646,1.071-.654-.393,1.341-2.237Z" transform="translate(-954.441 -102.879)" fill="#1d272b"/>
            <path id="Trazado_158639" data-name="Trazado 158639" d="M880.606,517.65c-.007-.119-.014-.238-.023-.389.273.12.283.194.111.384Z" transform="translate(-865.394 -491.267)" fill="#1d272b"/>
            <path id="Trazado_158640" data-name="Trazado 158640" d="M935.6-10.1v.726h-4.561V-10.1Z" transform="translate(-913.513 11.647)" fill="#1d272b"/>
            <path id="Trazado_158641" data-name="Trazado 158641" d="M930.943,23.575v-.727h3.033v.727Z" transform="translate(-913.419 -19.775)" fill="#1d272b"/>
          </g>
        </g>
      </g>
      <g id="Grupo_130121" data-name="Grupo 130121" transform="translate(679.698 163.023)">
        <g id="Grupo_18423-3" data-name="Grupo 18423" transform="translate(0 0)">
          <g id="Grupo_18421-3" data-name="Grupo 18421">
            <g id="Grupo_18420-3" data-name="Grupo 18420">
              <g id="Grupo_18419-3" data-name="Grupo 18419">
                <path id="Trazado_40936-3" data-name="Trazado 40936" d="M239.589,2168.2a22.483,22.483,0,1,1-22.483-22.482A22.483,22.483,0,0,1,239.589,2168.2Z" transform="translate(-194.623 -2145.721)" fill="#fff"/>
              </g>
            </g>
          </g>
          <path id="Trazado_40937-3" data-name="Trazado 40937" d="M239.869,2168.509a22.483,22.483,0,1,0-22.483,22.484A22.395,22.395,0,0,0,239.869,2168.509Z" transform="translate(-194.903 -2146.026)" fill="url(#radial-gradient)"/>
          <path id="Trazado_40938-3" data-name="Trazado 40938" d="M237.173,2171.137a17.161,17.161,0,1,0-17.161,17.161A17.1,17.1,0,0,0,237.173,2171.137Z" transform="translate(-197.46 -2148.58)" fill="none" stroke="#1d272b" stroke-miterlimit="10" stroke-width="2"/>
          <g id="Grupo_18422-3" data-name="Grupo 18422" transform="translate(3.983 12.623)">
            <path id="Trazado_40939-3" data-name="Trazado 40939" d="M239.255,2164.488a22.486,22.486,0,0,1-38.71,22.39,22.414,22.414,0,0,0,38.71-22.39Z" transform="translate(-200.545 -2164.488)" fill="#eceef0"/>
          </g>
        </g>
        <g id="p8ix17" transform="translate(11.811 13.14)">
          <g id="Grupo_121019" data-name="Grupo 121019">
            <path id="Trazado_158644" data-name="Trazado 158644" d="M1597.929,131.1c0-.547-.005-1.026,0-1.5a1.031,1.031,0,0,1,1.142-1.17q3.88-.01,7.76,0a1.032,1.032,0,0,1,1.144,1.17q.008,3.184,0,6.368a1.016,1.016,0,0,1-1.15,1.156c-.82.01-1.645.05-2.46-.012a.956.956,0,0,0-1.1,1.071c.045,2.461.019,4.923.017,7.385,0,.74-.206.941-.959.941-3.157,0-6.315-.007-9.472.015a1.293,1.293,0,0,0-.781.318c-.6.536-1.143,1.127-1.715,1.69a1.763,1.763,0,1,1-2.49-2.473c1.245-1.252,2.505-2.49,3.735-3.758a1.171,1.171,0,0,0,.3-.736c.02-3.122.013-6.243.013-9.365,0-.941.15-1.094,1.072-1.094Zm-5.328,10c.907-.4,1.814-.832,2.743-1.208.694-.281,1.451.3,1.205.957a7.168,7.168,0,0,1-1.6,3.094c-.624.567-1.2,1.189-1.861,1.852h9.514V138.51c-.393-.1-.831-.081-1.043-.292a3.079,3.079,0,0,1-.428-1.093c-.59,0-1.23,0-1.87,0-1.021,0-1.332-.319-1.334-1.35q0-.616,0-1.231v-2.731H1592.6Zm9.381-3.369.146.08c.331-.329.677-.644.987-.991a1.043,1.043,0,0,1,.885-.373c.891.026,1.784-.014,2.674.017.506.018.648-.19.644-.662-.016-2.015-.019-4.03,0-6.045.005-.522-.191-.679-.694-.675-2.443.018-4.886.007-7.329.009-.646,0-.7.055-.7.7q0,2.942,0,5.885c0,.767.012.777.78.778h2.607Zm-11.836,7.86,3.535-3.535-.35-.382-3.569,3.574Zm4.2-2.889-3.548,3.548.385.367,3.516-3.482Zm-6.147,4.014a1.049,1.049,0,0,0,1.464,1.5Zm2.5.5-1.539-1.537-.406.407,1.535,1.543Zm4.43-4.708c.38-.737.4-.764-.372-1.358-.18-.138-.556-.02-.841-.02l0,.162Z" transform="translate(-1586.93 -128.425)" fill="#1d272b"/>
            <path id="Trazado_158645" data-name="Trazado 158645" d="M1737,219.638h-1.646v.608q0,3.049,0,6.1c0,.786-.192.976-.979.979-.994,0-1.989,0-3,0v-.672h3.266v-7.014h-1.594l1.977-2.962Zm-1.973-1.76-.675,1.021h1.35Z" transform="translate(-1715.654 -207.228)" fill="#1d272b"/>
            <path id="Trazado_158646" data-name="Trazado 158646" d="M1584.512,142.356h1.639v-.629q0-3.024,0-6.047c0-.857.168-1.019,1.043-1.021.746,0,1.492,0,2.268,0v.665h-2.6v7.023h1.59l-1.972,2.961Zm1.274.7.694,1.039.689-1.039Z" transform="translate(-1584.512 -133.991)" fill="#1d272b"/>
            <path id="Trazado_158647" data-name="Trazado 158647" d="M1664.274,129.462a1.006,1.006,0,1,1-.991-.994A1.035,1.035,0,0,1,1664.274,129.462Zm-.545.046c-.21-.168-.339-.349-.45-.339a.492.492,0,0,0-.32.314c-.021.071.169.286.273.293C1663.36,129.783,1663.5,129.641,1663.729,129.508Z" transform="translate(-1653.938 -128.463)" fill="#1d272b"/>
            <path id="Trazado_158648" data-name="Trazado 158648" d="M1637.249,129.476a1.007,1.007,0,1,1,.981,1.006A1.028,1.028,0,0,1,1637.249,129.476Zm1.012-.464c-.154.219-.306.343-.312.474,0,.1.195.305.272.291a.476.476,0,0,0,.336-.289C1638.575,129.375,1638.409,129.233,1638.261,129.011Z" transform="translate(-1631.604 -128.465)" fill="#1d272b"/>
            <path id="Trazado_158649" data-name="Trazado 158649" d="M1708.123,304.549a1.042,1.042,0,0,1-.979,1.009,1.006,1.006,0,0,1-.057-2.011A1.029,1.029,0,0,1,1708.123,304.549Zm-1.019-.45c-.142.214-.3.345-.3.478,0,.1.2.2.3.3.106-.116.272-.22.3-.352C1707.427,304.428,1707.256,304.3,1707.1,304.1Z" transform="translate(-1693.102 -284.799)" fill="#1d272b"/>
            <path id="Trazado_158650" data-name="Trazado 158650" d="M1683.113,304.546a1.042,1.042,0,0,1-.976,1.012,1.006,1.006,0,0,1-.063-2.011A1.029,1.029,0,0,1,1683.113,304.546Zm-.556.069c-.2-.18-.306-.353-.432-.368-.1-.013-.229.163-.345.254.1.124.178.3.307.352C1682.172,304.886,1682.329,304.737,1682.557,304.614Z" transform="translate(-1670.769 -284.799)" fill="#1d272b"/>
            <path id="Trazado_158651" data-name="Trazado 158651" d="M1658.1,304.55a1.043,1.043,0,0,1-.981,1.008,1.006,1.006,0,0,1-.055-2.011A1.03,1.03,0,0,1,1658.1,304.55Zm-.989-.448c-.156.2-.318.321-.33.454-.009.1.2.31.28.294a.5.5,0,0,0,.328-.307C1657.416,304.45,1657.252,304.308,1657.114,304.1Z" transform="translate(-1648.436 -284.799)" fill="#1d272b"/>
            <path id="Trazado_158652" data-name="Trazado 158652" d="M1688.147,310.449c-.228.123-.385.272-.47.238-.129-.051-.207-.228-.307-.352.116-.092.242-.267.345-.254" transform="translate(-1676.359 -290.633)" fill="#1d272b"/>
            <path id="Trazado_158653" data-name="Trazado 158653" d="M1681.344,232.762v-4H1686c0,1.253.007,2.479-.012,3.705a.4.4,0,0,1-.275.28C1684.275,232.767,1682.833,232.762,1681.344,232.762Zm3.955-3.324h-3.279v2.6h3.279Z" transform="translate(-1670.978 -218.023)" fill="#1d272b"/>
            <path id="Trazado_158654" data-name="Trazado 158654" d="M1664.749,272.3c.579-.41.7-.388,1.366.3a.652.652,0,0,0,.425.117c.96.01,1.92.005,2.92.005v.628h-3.95l-.1-.7-1.01.92-.6-.962-.374.875-.565-.184c.1-.491.146-1.019.663-1.154A3.771,3.771,0,0,1,1664.749,272.3Z" transform="translate(-1654.475 -256.653)" fill="#1d272b"/>
            <path id="Trazado_158655" data-name="Trazado 158655" d="M1647.832,178.819v.58h-3.972v-.58Z" transform="translate(-1637.506 -173.424)" fill="#1d272b"/>
            <path id="Trazado_158656" data-name="Trazado 158656" d="M1643.8,216.415h3.965l.028.593H1643.8Z" transform="translate(-1637.457 -206.995)" fill="#1d272b"/>
            <path id="Trazado_158657" data-name="Trazado 158657" d="M1643.737,167.09v-.576h1.954l.028.576Z" transform="translate(-1637.397 -162.437)" fill="#1d272b"/>
            <path id="Trazado_158658" data-name="Trazado 158658" d="M1662.54,203.748h1.957c.011.192.021.364.035.587h-1.991Z" transform="translate(-1654.187 -195.685)" fill="#1d272b"/>
            <path id="Trazado_158659" data-name="Trazado 158659" d="M1645.475,192.089h-1.983l-.029-.6h1.984C1645.456,191.661,1645.464,191.847,1645.475,192.089Z" transform="translate(-1637.153 -184.737)" fill="#1d272b"/>
            <path id="Trazado_158660" data-name="Trazado 158660" d="M1668.739,167.091V166.5h1.286v.588Z" transform="translate(-1659.722 -162.427)" fill="#1d272b"/>
            <path id="Trazado_158661" data-name="Trazado 158661" d="M1668.874,191.374h1.279v.591h-1.279Z" transform="translate(-1659.843 -184.635)" fill="#1d272b"/>
            <path id="Trazado_158662" data-name="Trazado 158662" d="M1645.158,203.847v.595h-1.278v-.595Z" transform="translate(-1637.525 -195.773)" fill="#1d272b"/>
            <path id="Trazado_158663" data-name="Trazado 158663" d="M1726.051,141.064c.831,0,1.026.211.928,1.02-.063.528-.143,1.054-.221,1.58-.065.437-.294.744-.762.729-.437-.014-.649-.314-.708-.73-.071-.509-.149-1.018-.214-1.528C1724.962,141.264,1725.151,141.061,1726.051,141.064Zm-.361.687.276,1.821.122-.007.257-1.814Z" transform="translate(-1710 -139.711)" fill="#1d272b"/>
            <path id="Trazado_158664" data-name="Trazado 158664" d="M1725.9,178.485a1.005,1.005,0,1,1-.987,1.037A1,1,0,0,1,1725.9,178.485Zm.459.968c-.228-.129-.369-.27-.5-.261-.1.007-.282.246-.256.31a.529.529,0,0,0,.35.288C1726.051,179.8,1726.172,179.621,1726.364,179.453Z" transform="translate(-1709.887 -173.126)" fill="#1d272b"/>
          </g>
        </g>
      </g>
    </g>
    <g id="Grupo_129722" data-name="Grupo 129722" transform="translate(974.144 4204.025) rotate(-43)">
      <g id="Grupo_81848" data-name="Grupo 81848" transform="translate(0 0)">
        <g id="Grupo_81829" data-name="Grupo 81829">
          <g id="Grupo_81828" data-name="Grupo 81828">
            <g id="Grupo_81827" data-name="Grupo 81827">
              <g id="Grupo_81826" data-name="Grupo 81826">
                <g id="Grupo_81825" data-name="Grupo 81825">
                  <g id="Grupo_81824" data-name="Grupo 81824">
                    <path id="Trazado_139735" data-name="Trazado 139735" d="M40.669,73.219,3.394,61.161A4.9,4.9,0,0,1,.239,54.988L16.929,3.395A4.9,4.9,0,0,1,23.1.239l23.64,7.647,12.2,24.78-12.1,37.4A4.9,4.9,0,0,1,40.669,73.219Z" fill="#1d272b"/>
                  </g>
                </g>
              </g>
            </g>
          </g>
        </g>
        <g id="Grupo_81835" data-name="Grupo 81835" transform="translate(41.822 7.887)">
          <g id="Grupo_81834" data-name="Grupo 81834" transform="translate(0 0)">
            <g id="Grupo_81833" data-name="Grupo 81833">
              <g id="Grupo_81832" data-name="Grupo 81832">
                <g id="Grupo_81831" data-name="Grupo 81831">
                  <g id="Grupo_81830" data-name="Grupo 81830">
                    <path id="Trazado_139736" data-name="Trazado 139736" d="M4.92,0,.223,14.52a4.559,4.559,0,0,0,2.934,5.741L17.118,24.78Z" fill="#f2e9e4"/>
                  </g>
                </g>
              </g>
            </g>
          </g>
        </g>
        <g id="Grupo_81841" data-name="Grupo 81841" transform="translate(41.588 23.742)" opacity="0.2">
          <g id="Grupo_81840" data-name="Grupo 81840" transform="translate(0 0)">
            <g id="Grupo_81839" data-name="Grupo 81839">
              <g id="Grupo_81838" data-name="Grupo 81838">
                <g id="Grupo_81837" data-name="Grupo 81837">
                  <g id="Grupo_81836" data-name="Grupo 81836">
                    <path id="Trazado_139737" data-name="Trazado 139737" d="M.235,0A5.069,5.069,0,0,0,2.547,5.917a4.857,4.857,0,0,0,.426.252C4.69,7.085,16,13.1,16.089,12.826c.1-.3,1.263-3.9,1.263-3.9L3.39,4.408S-.058,3.161.235,0Z"/>
                  </g>
                </g>
              </g>
            </g>
          </g>
        </g>
      </g>
      <g id="Grupo_81853" data-name="Grupo 81853" transform="translate(21.865 15.204)">
        <g id="Grupo_81852" data-name="Grupo 81852" transform="translate(0 0)">
          <g id="Grupo_81851" data-name="Grupo 81851">
            <g id="Grupo_81850" data-name="Grupo 81850">
              <g id="Grupo_81849" data-name="Grupo 81849">
                <path id="Trazado_139739" data-name="Trazado 139739" d="M17.246,5.6c-.061.187-3.97-.911-8.731-2.451S-.06.207,0,.021,3.97.931,8.733,2.472,17.306,5.412,17.246,5.6Z" fill="#fafafa"/>
              </g>
            </g>
          </g>
        </g>
      </g>
      <g id="Grupo_81858" data-name="Grupo 81858" transform="translate(19.209 23.422)">
        <g id="Grupo_81857" data-name="Grupo 81857" transform="translate(0 0)">
          <g id="Grupo_81856" data-name="Grupo 81856">
            <g id="Grupo_81855" data-name="Grupo 81855">
              <g id="Grupo_81854" data-name="Grupo 81854">
                <path id="Trazado_139740" data-name="Trazado 139740" d="M28.383,9.194c-.061.187-6.464-1.717-14.3-4.252S-.06.2,0,.013,6.463,1.73,14.3,4.265,28.443,9.008,28.383,9.194Z" fill="#fafafa"/>
              </g>
            </g>
          </g>
        </g>
      </g>
      <g id="Grupo_81863" data-name="Grupo 81863" transform="translate(16.991 30.279)">
        <g id="Grupo_81862" data-name="Grupo 81862" transform="translate(0 0)">
          <g id="Grupo_81861" data-name="Grupo 81861">
            <g id="Grupo_81860" data-name="Grupo 81860">
              <g id="Grupo_81859" data-name="Grupo 81859">
                <path id="Trazado_139741" data-name="Trazado 139741" d="M30.939,10.019c-.061.187-7.036-1.9-15.578-4.665S-.06.2,0,.012s7.034,1.9,15.58,4.666S31,9.833,30.939,10.019Z" fill="#fafafa"/>
              </g>
            </g>
          </g>
        </g>
      </g>
      <g id="Grupo_81868" data-name="Grupo 81868" transform="translate(14.899 36.746)">
        <g id="Grupo_81867" data-name="Grupo 81867" transform="translate(0 0)">
          <g id="Grupo_81866" data-name="Grupo 81866">
            <g id="Grupo_81865" data-name="Grupo 81865">
              <g id="Grupo_81864" data-name="Grupo 81864">
                <path id="Trazado_139742" data-name="Trazado 139742" d="M30.939,10.02c-.061.187-7.036-1.9-15.578-4.666S-.06.2,0,.012s7.034,1.9,15.58,4.667S31,9.833,30.939,10.02Z" fill="#fafafa"/>
              </g>
            </g>
          </g>
        </g>
      </g>
      <g id="Grupo_81873" data-name="Grupo 81873" transform="translate(12.807 43.215)">
        <g id="Grupo_81872" data-name="Grupo 81872" transform="translate(0 0)">
          <g id="Grupo_81871" data-name="Grupo 81871">
            <g id="Grupo_81870" data-name="Grupo 81870">
              <g id="Grupo_81869" data-name="Grupo 81869">
                <path id="Trazado_139743" data-name="Trazado 139743" d="M30.938,10.019c-.06.187-7.036-1.9-15.577-4.665S-.06.2,0,.012s7.034,1.9,15.58,4.666S31,9.833,30.938,10.019Z" fill="#fafafa"/>
              </g>
            </g>
          </g>
        </g>
      </g>
      <g id="Grupo_81878" data-name="Grupo 81878" transform="translate(10.714 49.682)">
        <g id="Grupo_81877" data-name="Grupo 81877" transform="translate(0 0)">
          <g id="Grupo_81876" data-name="Grupo 81876">
            <g id="Grupo_81875" data-name="Grupo 81875">
              <g id="Grupo_81874" data-name="Grupo 81874">
                <path id="Trazado_139744" data-name="Trazado 139744" d="M30.939,10.02c-.061.187-7.036-1.9-15.578-4.666S-.06.2,0,.012s7.034,1.9,15.58,4.667S31,9.833,30.939,10.02Z" fill="#fafafa"/>
              </g>
            </g>
          </g>
        </g>
      </g>
    </g>
    <g id="Grupo_129723" data-name="Grupo 129723" transform="matrix(0.966, 0.259, -0.259, 0.966, 1207.657, 4050.971)">
      <g id="Grupo_81848-2" data-name="Grupo 81848" transform="translate(0 0)">
        <g id="Grupo_81829-2" data-name="Grupo 81829" transform="translate(0 0)">
          <g id="Grupo_81828-2" data-name="Grupo 81828">
            <g id="Grupo_81827-2" data-name="Grupo 81827">
              <g id="Grupo_81826-2" data-name="Grupo 81826">
                <g id="Grupo_81825-2" data-name="Grupo 81825">
                  <g id="Grupo_81824-2" data-name="Grupo 81824">
                    <path id="Trazado_139735-2" data-name="Trazado 139735" d="M32.227,58.02,2.69,48.465a3.884,3.884,0,0,1-2.5-4.891L13.415,2.69A3.884,3.884,0,0,1,18.306.19L37.039,6.25l9.666,19.636L37.119,55.52A3.885,3.885,0,0,1,32.227,58.02Z" transform="translate(0 0)" fill="#1d272b"/>
                  </g>
                </g>
              </g>
            </g>
          </g>
        </g>
        <g id="Grupo_81835-2" data-name="Grupo 81835" transform="translate(33.141 6.25)">
          <g id="Grupo_81834-2" data-name="Grupo 81834" transform="translate(0 0)">
            <g id="Grupo_81833-2" data-name="Grupo 81833">
              <g id="Grupo_81832-2" data-name="Grupo 81832">
                <g id="Grupo_81831-2" data-name="Grupo 81831">
                  <g id="Grupo_81830-2" data-name="Grupo 81830">
                    <path id="Trazado_139736-2" data-name="Trazado 139736" d="M3.9,0,.176,11.506A3.613,3.613,0,0,0,2.5,16.056l11.064,3.581Z" transform="translate(0 0)" fill="#f2e9e4"/>
                  </g>
                </g>
              </g>
            </g>
          </g>
        </g>
        <g id="Grupo_81841-2" data-name="Grupo 81841" transform="translate(32.955 18.814)" opacity="0.2">
          <g id="Grupo_81840-2" data-name="Grupo 81840" transform="translate(0 0)">
            <g id="Grupo_81839-2" data-name="Grupo 81839" transform="translate(0)">
              <g id="Grupo_81838-2" data-name="Grupo 81838">
                <g id="Grupo_81837-2" data-name="Grupo 81837">
                  <g id="Grupo_81836-2" data-name="Grupo 81836">
                    <path id="Trazado_139737-2" data-name="Trazado 139737" d="M.186,0A4.017,4.017,0,0,0,2.018,4.689a3.849,3.849,0,0,0,.337.2c1.361.725,10.324,5.493,10.394,5.275.077-.237,1-3.092,1-3.092L2.686,3.493S-.046,2.5.186,0Z" transform="translate(0 0)"/>
                  </g>
                </g>
              </g>
            </g>
          </g>
        </g>
      </g>
      <g id="Grupo_81853-2" data-name="Grupo 81853" transform="translate(17.326 12.048)">
        <g id="Grupo_81852-2" data-name="Grupo 81852" transform="translate(0 0)">
          <g id="Grupo_81851-2" data-name="Grupo 81851">
            <g id="Grupo_81850-2" data-name="Grupo 81850">
              <g id="Grupo_81849-2" data-name="Grupo 81849">
                <path id="Trazado_139739-2" data-name="Trazado 139739" d="M13.666,4.437A46.05,46.05,0,0,1,6.747,2.494,46.125,46.125,0,0,1,0,.016,46.046,46.046,0,0,1,6.92,1.959,46.067,46.067,0,0,1,13.666,4.437Z" transform="translate(0 0)" fill="#fafafa"/>
              </g>
            </g>
          </g>
        </g>
      </g>
      <g id="Grupo_81858-2" data-name="Grupo 81858" transform="translate(15.222 18.56)">
        <g id="Grupo_81857-2" data-name="Grupo 81857" transform="translate(0 0)">
          <g id="Grupo_81856-2" data-name="Grupo 81856" transform="translate(0)">
            <g id="Grupo_81855-2" data-name="Grupo 81855">
              <g id="Grupo_81854-2" data-name="Grupo 81854">
                <path id="Trazado_139740-2" data-name="Trazado 139740" d="M22.491,7.285c-.048.148-5.122-1.361-11.332-3.369S-.048.158,0,.01,5.121,1.371,11.333,3.38,22.539,7.138,22.491,7.285Z" transform="translate(0)" fill="#fafafa"/>
              </g>
            </g>
          </g>
        </g>
      </g>
      <g id="Grupo_81863-2" data-name="Grupo 81863" transform="translate(13.464 23.994)">
        <g id="Grupo_81862-2" data-name="Grupo 81862" transform="translate(0 0)">
          <g id="Grupo_81861-2" data-name="Grupo 81861" transform="translate(0 0)">
            <g id="Grupo_81860-2" data-name="Grupo 81860">
              <g id="Grupo_81859-2" data-name="Grupo 81859">
                <path id="Trazado_139741-2" data-name="Trazado 139741" d="M24.517,7.94c-.048.148-5.575-1.508-12.344-3.7S-.047.157,0,.009s5.574,1.507,12.346,3.7S24.565,7.792,24.517,7.94Z" transform="translate(0 0)" fill="#fafafa"/>
              </g>
            </g>
          </g>
        </g>
      </g>
      <g id="Grupo_81868-2" data-name="Grupo 81868" transform="translate(11.806 29.119)">
        <g id="Grupo_81867-2" data-name="Grupo 81867" transform="translate(0 0)">
          <g id="Grupo_81866-2" data-name="Grupo 81866">
            <g id="Grupo_81865-2" data-name="Grupo 81865">
              <g id="Grupo_81864-2" data-name="Grupo 81864">
                <path id="Trazado_139742-2" data-name="Trazado 139742" d="M24.517,7.94c-.048.148-5.575-1.508-12.344-3.7S-.047.157,0,.009s5.574,1.508,12.346,3.7S24.565,7.792,24.517,7.94Z" transform="translate(0 0)" fill="#fafafa"/>
              </g>
            </g>
          </g>
        </g>
      </g>
      <g id="Grupo_81873-2" data-name="Grupo 81873" transform="translate(10.149 34.244)">
        <g id="Grupo_81872-2" data-name="Grupo 81872" transform="translate(0 0)">
          <g id="Grupo_81871-2" data-name="Grupo 81871" transform="translate(0)">
            <g id="Grupo_81870-2" data-name="Grupo 81870">
              <g id="Grupo_81869-2" data-name="Grupo 81869">
                <path id="Trazado_139743-2" data-name="Trazado 139743" d="M24.516,7.939c-.047.148-5.575-1.507-12.344-3.7S-.048.157,0,.009s5.574,1.507,12.346,3.7S24.565,7.792,24.516,7.939Z" transform="translate(0 0)" fill="#fafafa"/>
              </g>
            </g>
          </g>
        </g>
      </g>
      <g id="Grupo_81878-2" data-name="Grupo 81878" transform="translate(8.49 39.37)">
        <g id="Grupo_81877-2" data-name="Grupo 81877" transform="translate(0 0)">
          <g id="Grupo_81876-2" data-name="Grupo 81876">
            <g id="Grupo_81875-2" data-name="Grupo 81875">
              <g id="Grupo_81874-2" data-name="Grupo 81874">
                <path id="Trazado_139744-2" data-name="Trazado 139744" d="M24.517,7.94c-.048.148-5.575-1.508-12.344-3.7S-.047.157,0,.009s5.574,1.508,12.346,3.7S24.565,7.792,24.517,7.94Z" transform="translate(0 0)" fill="#fafafa"/>
              </g>
            </g>
          </g>
        </g>
      </g>
    </g>
    <g id="Grupo_121046" data-name="Grupo 121046" transform="translate(1321.381 4102.468)">
      <g id="Grupo_121047-2" data-name="Grupo 121047" transform="translate(0 0)">
        <g id="Grupo_18423-4" data-name="Grupo 18423" transform="translate(0 0)">
          <g id="Grupo_18421-4" data-name="Grupo 18421">
            <g id="Grupo_18420-4" data-name="Grupo 18420">
              <g id="Grupo_18419-4" data-name="Grupo 18419">
                <path id="Trazado_40936-4" data-name="Trazado 40936" d="M239.589,2168.2a22.483,22.483,0,1,1-22.483-22.482A22.483,22.483,0,0,1,239.589,2168.2Z" transform="translate(-194.623 -2145.721)" fill="#fff"/>
              </g>
            </g>
          </g>
          <path id="Trazado_40937-4" data-name="Trazado 40937" d="M239.869,2168.509a22.483,22.483,0,1,0-22.483,22.484A22.395,22.395,0,0,0,239.869,2168.509Z" transform="translate(-194.903 -2146.026)" fill="url(#radial-gradient)"/>
          <path id="Trazado_40938-4" data-name="Trazado 40938" d="M237.173,2171.137a17.161,17.161,0,1,0-17.161,17.161A17.1,17.1,0,0,0,237.173,2171.137Z" transform="translate(-197.46 -2148.58)" fill="none" stroke="#1d272b" stroke-miterlimit="10" stroke-width="2"/>
          <g id="Grupo_18422-4" data-name="Grupo 18422" transform="translate(3.983 12.623)">
            <path id="Trazado_40939-4" data-name="Trazado 40939" d="M239.255,2164.488a22.486,22.486,0,0,1-38.71,22.39,22.414,22.414,0,0,0,38.71-22.39Z" transform="translate(-200.545 -2164.488)" fill="#eceef0"/>
          </g>
        </g>
        <g id="TKvKcl.tif-2" data-name="TKvKcl.tif" transform="translate(14.48 12.439)">
          <g id="Grupo_121018-2" data-name="Grupo 121018" transform="translate(0 0)">
            <path id="Trazado_158642-2" data-name="Trazado 158642" d="M996.48,26.94a9.4,9.4,0,0,1-1.134-.395,2.908,2.908,0,0,1-.739-.564q-2.522-2.5-5.028-5.023a3.046,3.046,0,0,1-.028-4.385,3.022,3.022,0,0,1,2.269-1.088,1.093,1.093,0,0,0,.868-.384,5.491,5.491,0,0,1,1.983-1.246c.046-.017.089-.038.163-.069a4.568,4.568,0,0,1-2.418-4.143,4.412,4.412,0,0,1,1.634-3.421,4.576,4.576,0,0,1,6.51.649,4.452,4.452,0,0,1,.875,3.925,4.517,4.517,0,0,1-2.523,3.1l1.985,1.178a.75.75,0,0,1,.109-.165q2.081-2.087,4.167-4.169c.383-.383.724-.307.911.2.664,1.815,1.324,3.632,1.995,5.445a.61.61,0,0,1-.163.724q-4.415,4.4-8.818,8.817a3.18,3.18,0,0,1-1.882.986.179.179,0,0,0-.054.029Zm8.923-15.193c-.081.1-.124.167-.179.221q-3.987,3.988-7.975,7.975c-.329.329-.531.329-.864,0-.943-.942-1.884-1.888-2.832-2.826a2.663,2.663,0,0,0-.527-.425,2.1,2.1,0,0,0-2.573.281,2.179,2.179,0,0,0-.222,3.354q2.5,2.521,5.03,5.021a2.413,2.413,0,0,0,.846.545,2.1,2.1,0,0,0,2.326-.587q4.3-4.3,8.594-8.589a.279.279,0,0,0,.08-.347c-.539-1.454-1.07-2.911-1.6-4.367C1005.481,11.935,1005.453,11.872,1005.4,11.747Zm-12.012-1.33c.018.092.03.168.049.243a3.666,3.666,0,0,0,6.875.617c.062-.13.014-.19-.066-.269C999.53,10.3,998.81,9.6,998.1,8.886a.251.251,0,0,0-.313-.06c-1.1.4-2.208.8-3.313,1.2Zm-.068-.948c.1-.035.177-.058.249-.084,1.405-.507,2.813-1.008,4.214-1.525a.61.61,0,0,1,.726.157c.639.645,1.29,1.278,1.937,1.915.052.051.109.1.2.178a3.6,3.6,0,0,0-1.581-3.4,3.486,3.486,0,0,0-3.822-.2A3.593,3.593,0,0,0,993.322,9.47Zm-.016,6.3a33.468,33.468,0,0,1,3.042,2.829V14.614A3.526,3.526,0,0,0,993.307,15.766Zm6.844-.062a4.454,4.454,0,0,0-2.859-1.109v3.965Z" transform="translate(-988.634 -5.153)" fill="#1d272b"/>
            <path id="Trazado_158643-2" data-name="Trazado 158643" d="M1048.386,309.15c0,.422-.353.642-.647.487a.8.8,0,0,1-.184-.142q-.858-.855-1.711-1.715a.689.689,0,0,1-.174-.261.411.411,0,0,1,.15-.474.423.423,0,0,1,.513-.026.913.913,0,0,1,.164.134c.562.56,1.125,1.119,1.68,1.686A1.689,1.689,0,0,1,1048.386,309.15Z" transform="translate(-1043.217 -294.077)" fill="#1d272b"/>
          </g>
        </g>
      </g>
    </g>
    <g id="Grupo_121047-3" data-name="Grupo 121047" transform="translate(1256.658 4040.162)">
      <g id="Grupo_18423-5" data-name="Grupo 18423" transform="translate(0 0)">
        <g id="Grupo_18421-5" data-name="Grupo 18421">
          <g id="Grupo_18420-5" data-name="Grupo 18420">
            <g id="Grupo_18419-5" data-name="Grupo 18419">
              <path id="Trazado_40936-5" data-name="Trazado 40936" d="M239.589,2168.2a22.483,22.483,0,1,1-22.483-22.482A22.483,22.483,0,0,1,239.589,2168.2Z" transform="translate(-194.623 -2145.721)" fill="#fff"/>
            </g>
          </g>
        </g>
        <path id="Trazado_40937-5" data-name="Trazado 40937" d="M239.869,2168.509a22.483,22.483,0,1,0-22.483,22.484A22.395,22.395,0,0,0,239.869,2168.509Z" transform="translate(-194.903 -2146.026)" fill="url(#radial-gradient)"/>
        <path id="Trazado_40938-5" data-name="Trazado 40938" d="M237.173,2171.137a17.161,17.161,0,1,0-17.161,17.161A17.1,17.1,0,0,0,237.173,2171.137Z" transform="translate(-197.46 -2148.58)" fill="none" stroke="#1d272d" stroke-miterlimit="10" stroke-width="2"/>
        <g id="Grupo_18422-5" data-name="Grupo 18422" transform="translate(3.983 12.623)">
          <path id="Trazado_40939-5" data-name="Trazado 40939" d="M239.255,2164.488a22.486,22.486,0,0,1-38.71,22.39,22.414,22.414,0,0,0,38.71-22.39Z" transform="translate(-200.545 -2164.488)" fill="#eceef0"/>
        </g>
      </g>
      <g id="XNzkG7-2" data-name="XNzkG7" transform="translate(10.669 11.61)">
        <g id="Grupo_121017-2" data-name="Grupo 121017" transform="translate(0)">
          <path id="Trazado_158635-2" data-name="Trazado 158635" d="M555.432,47.365l2.841,2.843c-.159.148-.34.311-.514.482q-.479.471-.951.95c-.175.179-.209.379-.056.537.429.443.873.87,1.324,1.316.055-.16.1-.307.155-.451a2.627,2.627,0,0,1,2.058-1.77c.757-.151,1.519-.278,2.278-.417.082-.015.164-.034.313-.065-.072-.109-.106-.212-.176-.258a3.866,3.866,0,0,1-1.674-2.334.32.32,0,0,0-.178-.2,1.44,1.44,0,0,1-1.053-1.3c-.03-.469-.021-.942-.013-1.413a18.926,18.926,0,0,1,.071-2.2,4.954,4.954,0,0,1,9.775-.083,5.176,5.176,0,0,1,.077.806q.012,2.294,0,4.588a1.125,1.125,0,0,1-1.221,1.189,1.121,1.121,0,0,0-1.1.439,3.466,3.466,0,0,1-.6.5.845.845,0,0,0-.133.213.744.744,0,0,0,.188.1c.782.146,1.566.276,2.346.431a2.59,2.59,0,0,1,2.059,1.766c.309.871.589,1.753.894,2.663h-8.119l-.029.056.574.464c-.077.091-.1.121-.124.145-.631.58-1.255,1.168-1.9,1.738a2.642,2.642,0,0,1-3.6-.087q-2.641-2.6-5.243-5.244a2.642,2.642,0,0,1,.045-3.738q.775-.781,1.556-1.557C555.351,47.434,555.4,47.4,555.432,47.365Zm6.274,6.088c.446.448.884.88,1.313,1.323a.507.507,0,0,0,.4.17q3.694-.008,7.389,0h.274c-.188-.567-.356-1.1-.543-1.633a1.88,1.88,0,0,0-1.525-1.3c-.721-.133-1.446-.244-2.162-.4a.71.71,0,0,0-.783.241c-.415.465-.874.891-1.325,1.344-.518-.52-1.016-1.025-1.524-1.521a.374.374,0,0,0-.272-.108c-.86.145-1.72.291-2.573.466a1.845,1.845,0,0,0-1.408,1.216,3.293,3.293,0,0,1-.138.392.577.577,0,0,0,.205.84,3.013,3.013,0,0,1,.346.341c.31.312.46.316.78.026Zm-.768-8.821a4.431,4.431,0,0,0,3.807-1.708,4.441,4.441,0,0,0,3.827,1.707c-.055.314,0,.534.37.55,0-.452.014-.905,0-1.357a4.033,4.033,0,0,0-2.368-3.72,3.979,3.979,0,0,0-4.4.462c-1.544,1.174-1.763,2.836-1.593,4.616C560.9,45.084,560.9,45.084,560.938,44.633Zm3.822,4.2h.279c.718,0,1.436,0,2.154,0,.085,0,.216-.043.245-.1a2.242,2.242,0,0,0,.276-.754c.052-.844.052-1.692.072-2.538,0-.012-.017-.025-.031-.044a5.007,5.007,0,0,1-3-1.341,5.411,5.411,0,0,1-3.031,1.359c0,.764,0,1.526,0,2.287a1.3,1.3,0,0,0,.035.275,3.046,3.046,0,0,0,4.055,2.194,8.026,8.026,0,0,0,.895-.476l-.034-.082H564.76ZM560.6,55.508a1.191,1.191,0,0,1-1.8-.178q-1.244-1.246-2.489-2.492a1.486,1.486,0,0,1-.263-.321,1.15,1.15,0,0,1,.158-1.379L554.477,49.4a1.908,1.908,0,0,0-.113,2.949q2.5,2.5,5,5a1.924,1.924,0,0,0,2.974-.109Zm2.8.778-1.746-1.756-.452.414,1.746,1.754Zm-6.245-6.1-1.7-1.7-.369.3L556.8,50.52Zm8.7.779a3.983,3.983,0,0,1-2.215.006l1.109,1.1Zm2.415-2.157c.636.121.752-.195.62-.916-.144.074-.343.11-.4.222A3.371,3.371,0,0,0,568.276,48.806Zm.3-2.9v1.276a.751.751,0,0,0,0-1.276ZM560.9,47.175V45.914A.741.741,0,0,0,560.9,47.175Z" transform="translate(-552.955 -35.088)" fill="#1d272b"/>
          <path id="Trazado_158636-2" data-name="Trazado 158636" d="M899.559-35.791l.386-2.294h-.918a1.151,1.151,0,0,1-1.247-1.237q0-1.448,0-2.9a1.141,1.141,0,0,1,1.205-1.208q2.618-.005,5.236,0a1.138,1.138,0,0,1,1.2,1.215q0,1.459,0,2.919a1.1,1.1,0,0,1-1.2,1.195,2.742,2.742,0,0,0-1.827.533c-.839.576-1.721,1.09-2.585,1.629C899.74-35.895,899.674-35.858,899.559-35.791Zm1.039-1.544c.494-.309.974-.564,1.4-.887a2.78,2.78,0,0,1,2.168-.624.138.138,0,0,0,.023,0c.319-.006.458-.135.459-.448q0-1.46,0-2.92c0-.317-.136-.449-.456-.449q-2.6,0-5.191,0c-.319,0-.451.136-.452.453q0,1.448,0,2.9c0,.334.13.465.462.467.525,0,1.051,0,1.576,0,.081,0,.163.007.262.011Z" transform="translate(-881.793 43.428)" fill="#1d272b"/>
          <path id="Trazado_158637-2" data-name="Trazado 158637" d="M568.073-18.551l-.221.713a9.9,9.9,0,0,0-9.035,1.671,9.671,9.671,0,0,0-3.519,5.43l1.013-.6.395.651-2.239,1.344-1.342-2.237.655-.391.7,1.165a10.663,10.663,0,0,1,7.509-7.812A10.315,10.315,0,0,1,568.073-18.551Z" transform="translate(-553.116 20.173)" fill="#1d272b"/>
          <path id="Trazado_158638-2" data-name="Trazado 158638" d="M977.882,111.333l-.392.656-1.1-.654a10.841,10.841,0,0,1-1.84,10.123c-.118-.094-.212-.168-.306-.244s-.19-.155-.289-.237a9.888,9.888,0,0,0,1.645-9.427l-.646,1.071-.654-.393,1.341-2.237Z" transform="translate(-954.441 -102.879)" fill="#1d272b"/>
          <path id="Trazado_158639-2" data-name="Trazado 158639" d="M880.606,517.65c-.007-.119-.014-.238-.023-.389.273.12.283.194.111.384Z" transform="translate(-865.394 -491.267)" fill="#1d272b"/>
          <path id="Trazado_158640-2" data-name="Trazado 158640" d="M935.6-10.1v.726h-4.561V-10.1Z" transform="translate(-913.513 11.647)" fill="#1d272b"/>
          <path id="Trazado_158641-2" data-name="Trazado 158641" d="M930.943,23.575v-.727h3.033v.727Z" transform="translate(-913.419 -19.775)" fill="#1d272b"/>
        </g>
      </g>
    </g>
    <g id="Grupo_121048" data-name="Grupo 121048" transform="translate(1305.511 4050.971)">
      <g id="Grupo_18423-6" data-name="Grupo 18423" transform="translate(0 0)">
        <g id="Grupo_18421-6" data-name="Grupo 18421">
          <g id="Grupo_18420-6" data-name="Grupo 18420">
            <g id="Grupo_18419-6" data-name="Grupo 18419">
              <path id="Trazado_40936-6" data-name="Trazado 40936" d="M239.589,2168.2a22.483,22.483,0,1,1-22.483-22.482A22.483,22.483,0,0,1,239.589,2168.2Z" transform="translate(-194.623 -2145.721)" fill="#fff"/>
            </g>
          </g>
        </g>
        <path id="Trazado_40937-6" data-name="Trazado 40937" d="M239.869,2168.509a22.483,22.483,0,1,0-22.483,22.484A22.395,22.395,0,0,0,239.869,2168.509Z" transform="translate(-194.903 -2146.026)" fill="url(#radial-gradient)"/>
        <path id="Trazado_40938-6" data-name="Trazado 40938" d="M237.173,2171.137a17.161,17.161,0,1,0-17.161,17.161A17.1,17.1,0,0,0,237.173,2171.137Z" transform="translate(-197.46 -2148.58)" fill="none" stroke="#1d272b" stroke-miterlimit="10" stroke-width="2"/>
        <g id="Grupo_18422-6" data-name="Grupo 18422" transform="translate(3.983 12.623)">
          <path id="Trazado_40939-6" data-name="Trazado 40939" d="M239.255,2164.488a22.486,22.486,0,0,1-38.71,22.39,22.414,22.414,0,0,0,38.71-22.39Z" transform="translate(-200.545 -2164.488)" fill="#eceef0"/>
        </g>
      </g>
      <g id="p8ix17-2" data-name="p8ix17" transform="translate(11.811 13.14)">
        <g id="Grupo_121019-2" data-name="Grupo 121019">
          <path id="Trazado_158644-2" data-name="Trazado 158644" d="M1597.929,131.1c0-.547-.005-1.026,0-1.5a1.031,1.031,0,0,1,1.142-1.17q3.88-.01,7.76,0a1.032,1.032,0,0,1,1.144,1.17q.008,3.184,0,6.368a1.016,1.016,0,0,1-1.15,1.156c-.82.01-1.645.05-2.46-.012a.956.956,0,0,0-1.1,1.071c.045,2.461.019,4.923.017,7.385,0,.74-.206.941-.959.941-3.157,0-6.315-.007-9.472.015a1.293,1.293,0,0,0-.781.318c-.6.536-1.143,1.127-1.715,1.69a1.763,1.763,0,1,1-2.49-2.473c1.245-1.252,2.505-2.49,3.735-3.758a1.171,1.171,0,0,0,.3-.736c.02-3.122.013-6.243.013-9.365,0-.941.15-1.094,1.072-1.094Zm-5.328,10c.907-.4,1.814-.832,2.743-1.208.694-.281,1.451.3,1.205.957a7.168,7.168,0,0,1-1.6,3.094c-.624.567-1.2,1.189-1.861,1.852h9.514V138.51c-.393-.1-.831-.081-1.043-.292a3.079,3.079,0,0,1-.428-1.093c-.59,0-1.23,0-1.87,0-1.021,0-1.332-.319-1.334-1.35q0-.616,0-1.231v-2.731H1592.6Zm9.381-3.369.146.08c.331-.329.677-.644.987-.991a1.043,1.043,0,0,1,.885-.373c.891.026,1.784-.014,2.674.017.506.018.648-.19.644-.662-.016-2.015-.019-4.03,0-6.045.005-.522-.191-.679-.694-.675-2.443.018-4.886.007-7.329.009-.646,0-.7.055-.7.7q0,2.942,0,5.885c0,.767.012.777.78.778h2.607Zm-11.836,7.86,3.535-3.535-.35-.382-3.569,3.574Zm4.2-2.889-3.548,3.548.385.367,3.516-3.482Zm-6.147,4.014a1.049,1.049,0,0,0,1.464,1.5Zm2.5.5-1.539-1.537-.406.407,1.535,1.543Zm4.43-4.708c.38-.737.4-.764-.372-1.358-.18-.138-.556-.02-.841-.02l0,.162Z" transform="translate(-1586.93 -128.425)" fill="#1d272b"/>
          <path id="Trazado_158645-2" data-name="Trazado 158645" d="M1737,219.638h-1.646v.608q0,3.049,0,6.1c0,.786-.192.976-.979.979-.994,0-1.989,0-3,0v-.672h3.266v-7.014h-1.594l1.977-2.962Zm-1.973-1.76-.675,1.021h1.35Z" transform="translate(-1715.654 -207.228)" fill="#1d272b"/>
          <path id="Trazado_158646-2" data-name="Trazado 158646" d="M1584.512,142.356h1.639v-.629q0-3.024,0-6.047c0-.857.168-1.019,1.043-1.021.746,0,1.492,0,2.268,0v.665h-2.6v7.023h1.59l-1.972,2.961Zm1.274.7.694,1.039.689-1.039Z" transform="translate(-1584.512 -133.991)" fill="#1d272b"/>
          <path id="Trazado_158647-2" data-name="Trazado 158647" d="M1664.274,129.462a1.006,1.006,0,1,1-.991-.994A1.035,1.035,0,0,1,1664.274,129.462Zm-.545.046c-.21-.168-.339-.349-.45-.339a.492.492,0,0,0-.32.314c-.021.071.169.286.273.293C1663.36,129.783,1663.5,129.641,1663.729,129.508Z" transform="translate(-1653.938 -128.463)" fill="#1d272b"/>
          <path id="Trazado_158648-2" data-name="Trazado 158648" d="M1637.249,129.476a1.007,1.007,0,1,1,.981,1.006A1.028,1.028,0,0,1,1637.249,129.476Zm1.012-.464c-.154.219-.306.343-.312.474,0,.1.195.305.272.291a.476.476,0,0,0,.336-.289C1638.575,129.375,1638.409,129.233,1638.261,129.011Z" transform="translate(-1631.604 -128.465)" fill="#1d272b"/>
          <path id="Trazado_158649-2" data-name="Trazado 158649" d="M1708.123,304.549a1.042,1.042,0,0,1-.979,1.009,1.006,1.006,0,0,1-.057-2.011A1.029,1.029,0,0,1,1708.123,304.549Zm-1.019-.45c-.142.214-.3.345-.3.478,0,.1.2.2.3.3.106-.116.272-.22.3-.352C1707.427,304.428,1707.256,304.3,1707.1,304.1Z" transform="translate(-1693.102 -284.799)" fill="#1d272b"/>
          <path id="Trazado_158650-2" data-name="Trazado 158650" d="M1683.113,304.546a1.042,1.042,0,0,1-.976,1.012,1.006,1.006,0,0,1-.063-2.011A1.029,1.029,0,0,1,1683.113,304.546Zm-.556.069c-.2-.18-.306-.353-.432-.368-.1-.013-.229.163-.345.254.1.124.178.3.307.352C1682.172,304.886,1682.329,304.737,1682.557,304.614Z" transform="translate(-1670.769 -284.799)" fill="#1d272b"/>
          <path id="Trazado_158651-2" data-name="Trazado 158651" d="M1658.1,304.55a1.043,1.043,0,0,1-.981,1.008,1.006,1.006,0,0,1-.055-2.011A1.03,1.03,0,0,1,1658.1,304.55Zm-.989-.448c-.156.2-.318.321-.33.454-.009.1.2.31.28.294a.5.5,0,0,0,.328-.307C1657.416,304.45,1657.252,304.308,1657.114,304.1Z" transform="translate(-1648.436 -284.799)" fill="#1d272b"/>
          <path id="Trazado_158652-2" data-name="Trazado 158652" d="M1688.147,310.449c-.228.123-.385.272-.47.238-.129-.051-.207-.228-.307-.352.116-.092.242-.267.345-.254" transform="translate(-1676.359 -290.633)" fill="#1d272b"/>
          <path id="Trazado_158653-2" data-name="Trazado 158653" d="M1681.344,232.762v-4H1686c0,1.253.007,2.479-.012,3.705a.4.4,0,0,1-.275.28C1684.275,232.767,1682.833,232.762,1681.344,232.762Zm3.955-3.324h-3.279v2.6h3.279Z" transform="translate(-1670.978 -218.023)" fill="#1d272b"/>
          <path id="Trazado_158654-2" data-name="Trazado 158654" d="M1664.749,272.3c.579-.41.7-.388,1.366.3a.652.652,0,0,0,.425.117c.96.01,1.92.005,2.92.005v.628h-3.95l-.1-.7-1.01.92-.6-.962-.374.875-.565-.184c.1-.491.146-1.019.663-1.154A3.771,3.771,0,0,1,1664.749,272.3Z" transform="translate(-1654.475 -256.653)" fill="#1d272b"/>
          <path id="Trazado_158655-2" data-name="Trazado 158655" d="M1647.832,178.819v.58h-3.972v-.58Z" transform="translate(-1637.506 -173.424)" fill="#1d272b"/>
          <path id="Trazado_158656-2" data-name="Trazado 158656" d="M1643.8,216.415h3.965l.028.593H1643.8Z" transform="translate(-1637.457 -206.995)" fill="#1d272b"/>
          <path id="Trazado_158657-2" data-name="Trazado 158657" d="M1643.737,167.09v-.576h1.954l.028.576Z" transform="translate(-1637.397 -162.437)" fill="#1d272b"/>
          <path id="Trazado_158658-2" data-name="Trazado 158658" d="M1662.54,203.748h1.957c.011.192.021.364.035.587h-1.991Z" transform="translate(-1654.187 -195.685)" fill="#1d272b"/>
          <path id="Trazado_158659-2" data-name="Trazado 158659" d="M1645.475,192.089h-1.983l-.029-.6h1.984C1645.456,191.661,1645.464,191.847,1645.475,192.089Z" transform="translate(-1637.153 -184.737)" fill="#1d272b"/>
          <path id="Trazado_158660-2" data-name="Trazado 158660" d="M1668.739,167.091V166.5h1.286v.588Z" transform="translate(-1659.722 -162.427)" fill="#1d272b"/>
          <path id="Trazado_158661-2" data-name="Trazado 158661" d="M1668.874,191.374h1.279v.591h-1.279Z" transform="translate(-1659.843 -184.635)" fill="#1d272b"/>
          <path id="Trazado_158662-2" data-name="Trazado 158662" d="M1645.158,203.847v.595h-1.278v-.595Z" transform="translate(-1637.525 -195.773)" fill="#1d272b"/>
          <path id="Trazado_158663-2" data-name="Trazado 158663" d="M1726.051,141.064c.831,0,1.026.211.928,1.02-.063.528-.143,1.054-.221,1.58-.065.437-.294.744-.762.729-.437-.014-.649-.314-.708-.73-.071-.509-.149-1.018-.214-1.528C1724.962,141.264,1725.151,141.061,1726.051,141.064Zm-.361.687.276,1.821.122-.007.257-1.814Z" transform="translate(-1710 -139.711)" fill="#1d272b"/>
          <path id="Trazado_158664-2" data-name="Trazado 158664" d="M1725.9,178.485a1.005,1.005,0,1,1-.987,1.037A1,1,0,0,1,1725.9,178.485Zm.459.968c-.228-.129-.369-.27-.5-.261-.1.007-.282.246-.256.31a.529.529,0,0,0,.35.288C1726.051,179.8,1726.172,179.621,1726.364,179.453Z" transform="translate(-1709.887 -173.126)" fill="#1d272b"/>
        </g>
      </g>
    </g>
  </g>
</svg>
