<svg xmlns="http://www.w3.org/2000/svg" width="127.497" height="127.448" viewBox="0 0 127.497 127.448">
  <g id="img9" transform="translate(-1944.981 -206.379)">
    <g id="Grupo_129414" data-name="Grupo 129414" transform="translate(1944.981 206.379)">
      <path id="Trazado_166507" data-name="Trazado 166507" d="M2072.284,333.827h-94.363V280.493h-32.827c0-5.648-.311-11.015.1-16.326.312-4.02,3.063-6.638,6.932-7.864,4.444-1.408,8.911-2.742,14.18-4.357-3.611-2.177-4.389-6.115-8.369-7.474-1.9-.65-4.224-3.366-4.358-5.286-.411-5.888-.872-12.094.519-17.724,3.826-15.489,23.4-20.218,34.415-8.65a5.893,5.893,0,0,0,4.824,1.94c18.263-.057,36.526,0,54.79-.08a6.123,6.123,0,0,1,4.834,2.039c5.938,6.076,12.02,12.011,17.959,18.086a5.212,5.212,0,0,1,1.5,3.217q.111,47.319.04,94.638A9.719,9.719,0,0,1,2072.284,333.827ZM2047.9,218.871h-54.212c.2,6.534.575,12.82.508,19.1a6.83,6.83,0,0,1-4.9,6.675c-3.894,1.169-4.706,5.012-8.059,7.318,5.193,1.6,9.643,2.952,14.078,4.349a9.509,9.509,0,0,1,7.118,8.742c.377,5.022.089,10.095.089,15.43H1982.1v49.372h86.3V239.152h-20.5Zm-98.921,57.311h8.476v-7.774h3.9v7.771H1986.3v-7.814h4.021v7.793h8.158v-7.53c0-6.253-.947-7.326-6.955-9.339-2.167-.726-3.084-.159-4.07,1.681-2.286,4.266-4.773,8.425-7.339,12.906l-6.4-8.432-6.452,8.4c-2.67-4.663-5.11-8.978-7.62-13.252-.405-.69-1.058-1.615-1.708-1.718-3.573-.565-8.557,2.93-8.881,6.476S1948.984,272.508,1948.984,276.182Zm8.326-46.272a14.23,14.23,0,0,1,2.424-.614c4.747-.3,9.267-1.235,13.181-4.187a1.656,1.656,0,0,1,1.564-.032c4.564,3.766,10.223,3.742,15.622,4.629.86-10.846-6.345-19.349-16.382-19.347S1956.291,219.029,1957.31,229.91Zm6.12,3.66c-.273,5.267-.889,11,4.912,14.524a9.711,9.711,0,0,0,11.277-.362c5.27-3.693,4.6-9.164,4.311-14.177-3.3-1.263-6.265-2.431-9.262-3.519a2.9,2.9,0,0,0-1.827-.069C1969.757,231.087,1966.706,232.3,1963.43,233.57Zm88.65-11.983v13.561h13.19a11.624,11.624,0,0,0-.814-1.1C2060.489,230.043,2056.515,226.049,2052.08,221.588Zm-89.485,35.91,5.146,8.992,3.258-4.3C1967.4,255.821,1967.3,255.758,1962.594,257.5Zm22.22-.006c-4.687-1.752-4.773-1.7-8.429,4.694l3.274,4.328Zm-14.847-3.843,3.785,4.91,3.584-4.91Zm18.205-13.216c2.767-2.288,2.764-4.14,0-6.321Zm-29.055-6.748c-2.588,3.24-2.469,4.852,0,6.5Z" transform="translate(-1944.981 -206.379)" fill="#1d272b"/>
      <path id="Trazado_166508" data-name="Trazado 166508" d="M2083.88,340.91l2.261-1.79,2.178,2.992-1.4,1.922c5.887,8.513,6.043,17.133.036,25.9l1.69,2.438-3.074,2.116-1.786-1.383c-8.649,6.043-17.251,6.034-25.968-.022l-2.219,1.784-2.356-2.858,1.483-1.975c-5.993-8.566-6.126-17.267.028-26l-1.725-2.039c.468-.511.842-.943,1.242-1.35s.835-.8,1.391-1.333l2.042,1.5C2069.167,334.972,2073.948,334.965,2083.88,340.91Zm-26.323,25.714,10.194-10.066c-1.6-1.506-3.392-3.019-4.975-4.724-1.559-1.679-2.908-3.553-4.464-5.484C2053.136,353.558,2053.148,360.733,2057.557,366.624Zm3.658,3.558c5.581,4.646,15.114,4.5,19.115-.149l-9.53-9.822Zm19.353-26.161c-5.426-4.826-16.018-4.646-19-.256l9.28,9.827Zm3.361,22.787c4.581-5.975,4.566-13.974.086-19.362l-9.632,9.593Z" transform="translate(-1988.513 -260.194)"/>
      <path id="Trazado_166509" data-name="Trazado 166509" d="M2085.948,265.593l2.211-1.674,2.711,2.879c-2.435,1.455-1.934,3.064-1.02,5.185,4.647,10.776-1.316,23.6-12.492,27.237a20.57,20.57,0,0,1-17.4-36.956,20.416,20.416,0,0,1,24.228,1.79C2084.708,264.491,2085.213,264.95,2085.948,265.593Zm-3.077,2.91c-6.494-6.723-16.071-7.193-22.936-1.173a16.5,16.5,0,0,0,20.425,25.846c6.736-4.69,9.044-14.068,4.924-20.863l-15.952,16.333-9.87-9.9,2.869-2.744,6.137,6.9Z" transform="translate(-1988.568 -228.195)" fill="#008f85"/>
      <path id="Trazado_166510" data-name="Trazado 166510" d="M2133.792,334.658a6.048,6.048,0,1,1,.048-12.1,6.048,6.048,0,0,1-.048,12.1Zm.178-3.12c.853-1.381,1.835-2.268,1.729-3-.109-.744-1.338-1.9-1.983-1.837a2.771,2.771,0,0,0-1.868,2.011C2131.815,329.451,2132.925,330.234,2133.969,331.538Z" transform="translate(-2020.594 -254.452)"/>
      <path id="Trazado_166511" data-name="Trazado 166511" d="M2134.9,284.157v-3.446h3.585v3.446Z" transform="translate(-2023.564 -237.135)" fill="#008f85"/>
      <path id="Trazado_166512" data-name="Trazado 166512" d="M2138.609,354.539H2135v-3.647h3.608Z" transform="translate(-2023.606 -266.174)" fill="#1d272b"/>
      <path id="Trazado_166513" data-name="Trazado 166513" d="M2138.524,368.665h-3.489v-3.658h3.489Z" transform="translate(-2023.62 -272.014)" fill="#1d272b"/>
      <path id="Trazado_166514" data-name="Trazado 166514" d="M2138.628,378.625v3.926h-3.6v-3.7Z" transform="translate(-2023.618 -277.649)" fill="#1d272b"/>
      <path id="Trazado_166515" data-name="Trazado 166515" d="M2135.028,298.241v-3.589h3.588v3.589Z" transform="translate(-2023.617 -242.904)" fill="#008f85"/>
      <path id="Trazado_166516" data-name="Trazado 166516" d="M2138.572,312.347H2135v-3.482h3.575Z" transform="translate(-2023.604 -248.785)" fill="#008f85"/>
    </g>
  </g>
</svg>
