<svg id="icon3" xmlns="http://www.w3.org/2000/svg" xmlns:xlink="http://www.w3.org/1999/xlink" width="114.636" height="114.636" viewBox="0 0 114.636 114.636">
  <defs>
    <radialGradient id="radial-gradient" cx="0.076" cy="0.019" r="1.465" gradientTransform="translate(0.001)" gradientUnits="objectBoundingBox">
      <stop offset="0" stop-color="#f6f6f7"/>
      <stop offset="0.477" stop-color="#f9f9fa"/>
      <stop offset="0.715" stop-color="#fff"/>
    </radialGradient>
  </defs>
  <g id="Grupo_18423" data-name="Grupo 18423" transform="translate(0 0)">
    <g id="Grupo_18421" data-name="Grupo 18421">
      <g id="Grupo_18420" data-name="Grupo 18420">
        <g id="Grupo_18419" data-name="Grupo 18419">
          <path id="Trazado_40936" data-name="Trazado 40936" d="M309.259,2203.037a57.318,57.318,0,1,1-57.317-57.316A57.317,57.317,0,0,1,309.259,2203.037Z" transform="translate(-194.623 -2145.721)" fill="#fff"/>
        </g>
      </g>
    </g>
    <path id="Trazado_40937" data-name="Trazado 40937" d="M308.648,2202.372a57.316,57.316,0,1,0-57.317,57.319A57.091,57.091,0,0,0,308.648,2202.372Z" transform="translate(-194.013 -2145.056)" fill="url(#radial-gradient)"/>
    <path id="Trazado_40938" data-name="Trazado 40938" d="M289.672,2196.986a43.75,43.75,0,1,0-43.75,43.75A43.587,43.587,0,0,0,289.672,2196.986Z" transform="translate(-188.43 -2139.479)" fill="none" stroke="#1d272d" stroke-miterlimit="10" stroke-width="4"/>
    <g id="Grupo_18422" data-name="Grupo 18422" transform="translate(10.154 32.18)">
      <path id="Trazado_40939" data-name="Trazado 40939" d="M299.231,2164.488a57.325,57.325,0,0,1-98.686,57.081,57.143,57.143,0,0,0,98.686-57.081Z" transform="translate(-200.545 -2164.488)" fill="#eceef0"/>
    </g>
  </g>
  <g id="ae2wd8" transform="translate(-1510.449 229.696)">
    <g id="Grupo_130117" data-name="Grupo 130117" transform="translate(1544.216 -200.696)">
      <path id="Trazado_167032" data-name="Trazado 167032" d="M1592.487-143.99H1564.5a3.734,3.734,0,0,1-2.558-4.234c.083-.9.014-1.806.014-2.792-4.722,0-9.248,0-13.775,0-2.838,0-3.942-1.107-3.942-3.97,0-13.886.023-27.772-.027-41.658-.007-2.039.731-3.371,2.641-4.051h24.958a23.176,23.176,0,0,1,2.457,1.877c2.058,2.037,4.013,4.178,6.068,6.217a4.8,4.8,0,0,1,1.533,3.822c-.077,1.912-.018,3.829-.018,5.831,3.2,0,6.219,0,9.237,0,2.895,0,4.008,1.129,4.009,4.056,0,10.283-.03,20.566.027,30.849C1595.139-146.005,1594.394-144.674,1592.487-143.99Zm-30.527-9.145v-1.532q0-12.282,0-24.563c0-2.482,1.214-3.706,3.722-3.715,4.158-.016,8.316,0,12.474,0h1.4v-4.473c-1.7,0-3.324.008-4.952,0-2.556-.016-3.8-1.256-3.8-3.783,0-2.383,0-4.765,0-7.282h-1.47q-10.4,0-20.79,0c-2.016,0-2.173.155-2.173,2.133q0,20.532,0,41.064c0,.252,0,.5,0,.756a1.229,1.229,0,0,0,1.3,1.388C1552.367-153.121,1557.065-153.135,1561.96-153.135Zm31.015-10.388q0-7.681,0-15.362c0-1.619-.281-1.9-1.909-1.9q-12.532,0-25.065,0c-1.587,0-1.918.318-1.919,1.9q-.009,15.425,0,30.85c0,1.52.323,1.826,1.866,1.827q12.6.008,25.191,0c1.571,0,1.834-.266,1.835-1.836Q1592.981-155.779,1592.975-163.523Zm-13.486-26.086.289-.358-6.8-7.071c0,2.3-.016,4.223.007,6.142a1.186,1.186,0,0,0,1.356,1.29C1576.057-189.614,1577.773-189.608,1579.489-189.608Z" transform="translate(-1544.216 200.696)" fill="#1d272b"/>
      <path id="Trazado_167033" data-name="Trazado 167033" d="M1568.005-179.059c.046,1.122-.653,1.63-1.437,1.341-.267-.1-.477-.4-.741-.447a3,3,0,0,0-1.485-.006,1.117,1.117,0,0,0-.359,1.05c.187.376.687.6,1.07.87.089.061.248.011.371.034a3.308,3.308,0,0,1,2.8,2.558,3.432,3.432,0,0,1-1.406,3.533c-.38.3-.482.927-.767,1.368-.3.468-.612,1.2-1.021,1.273-.818.155-1.167-.528-1.084-1.3a1.258,1.258,0,0,0-.876-1.439,2.293,2.293,0,0,1-1.092-1,1.583,1.583,0,0,1,.029-1.4c.256-.258.962-.2,1.42-.084.369.095.629.55.994.732a1.048,1.048,0,0,0,1.617-.63c.259-.74-.138-1.2-.848-1.4-.24-.068-.5-.068-.745-.114a3.18,3.18,0,0,1-2.692-2.649,2.969,2.969,0,0,1,1.385-3.264,1.449,1.449,0,0,0,.808-1.5c-.058-.717.219-1.256,1.031-1.28s1.131.511,1.069,1.229a1.409,1.409,0,0,0,.928,1.557A4.257,4.257,0,0,1,1568.005-179.059Z" transform="translate(-1557.27 187.327)" fill="#1d272b"/>
      <path id="Trazado_167034" data-name="Trazado 167034" d="M1602.616-165.53h4.021c.75,0,1.384.234,1.4,1.084s-.588,1.136-1.351,1.137q-4.147.006-8.294,0c-.781,0-1.362-.348-1.338-1.156s.654-1.077,1.419-1.069C1599.852-165.521,1601.234-165.53,1602.616-165.53Z" transform="translate(-1583.735 174.395)" fill="#1d272b"/>
      <path id="Trazado_167035" data-name="Trazado 167035" d="M1567.236-109.253c-1.3,0-2.6-.016-3.9.006-.812.013-1.5-.234-1.494-1.119,0-.905.733-1.1,1.523-1.1q4.025.014,8.049,0c.759,0,1.421.248,1.435,1.061.015.87-.633,1.168-1.464,1.154C1570-109.27,1568.62-109.253,1567.236-109.253Z" transform="translate(-1557.401 133.951)" fill="#1d272b"/>
      <path id="Trazado_167036" data-name="Trazado 167036" d="M1602.475-145.7c-1.386,0-2.773-.013-4.159.005-.745.01-1.275-.282-1.276-1.05s.5-1.076,1.26-1.073c2.815.013,5.631-.04,8.443.052a1.682,1.682,0,0,1,1.237,1.016c.154.74-.487,1.055-1.22,1.052C1605.331-145.7,1603.9-145.7,1602.475-145.7Z" transform="translate(-1583.727 161.144)" fill="#1d272b"/>
      <path id="Trazado_167037" data-name="Trazado 167037" d="M1590.453-73.722c1.075.008,2.286-.227,2.311,1.077.025,1.325-1.2,1.151-2.093,1.113s-2.2.392-2.174-1.126C1588.518-74.064,1589.775-73.628,1590.453-73.722Z" transform="translate(-1577.336 105.731)" fill="#1d272b"/>
      <path id="Trazado_167038" data-name="Trazado 167038" d="M1564.2-73.8c.757.08,1.986-.326,2.01,1.087.025,1.44-1.214,1.041-2.07,1.115-.25.022-.5,0-.754,0-.8.01-1.57-.262-1.422-1.137.071-.422.878-.75,1.392-1.051C1563.542-73.894,1563.848-73.8,1564.2-73.8Z" transform="translate(-1557.477 105.81)" fill="#1d272b"/>
      <path id="Trazado_167039" data-name="Trazado 167039" d="M1564-36.434c-.126,0-.252,0-.377,0-.848.031-1.75-.057-1.756-1.113-.006-1.072.907-1.134,1.75-1.113a3.455,3.455,0,0,1,1.244.034c.492.226,1.162.6,1.264,1.022.194.814-.472,1.148-1.244,1.168C1564.589-36.428,1564.3-36.434,1564-36.434Z" transform="translate(-1557.42 79.529)" fill="#1d272b"/>
      <path id="Trazado_167040" data-name="Trazado 167040" d="M1590.554-38.529c.892.035,2.138-.23,2.146,1.077.009,1.392-1.275,1.117-2.209,1.147-.125,0-.251,0-.377,0-.846.023-1.709-.036-1.7-1.151.008-1.051.844-1.087,1.638-1.074C1590.219-38.525,1590.386-38.528,1590.554-38.529Z" transform="translate(-1577.274 79.4)" fill="#1d272b"/>
      <path id="Trazado_167041" data-name="Trazado 167041" d="M1590.39-53.94c-.71-.085-1.9.338-1.917-1.014-.024-1.459,1.219-1.011,2.062-1.085a1.883,1.883,0,0,1,.987.022,9.139,9.139,0,0,1,1.281,1.047,9.626,9.626,0,0,1-1.327,1.006C1591.216-53.827,1590.822-53.94,1590.39-53.94Z" transform="translate(-1577.319 92.539)" fill="#1d272b"/>
      <path id="Trazado_167042" data-name="Trazado 167042" d="M1564.073-53.877c-.91-.08-2.165.3-2.143-1.085s1.276-1.034,2.129-1.012c.829.021,2.1-.44,2.133.988C1566.224-53.436,1564.868-54.034,1564.073-53.877Z" transform="translate(-1557.465 92.489)" fill="#1d272b"/>
      <path id="Trazado_167043" data-name="Trazado 167043" d="M1590.624-93.781c.946.046,2.185-.262,2.152,1.1-.033,1.341-1.284,1.04-2.147,1.014-.832-.025-2.11.421-2.121-1.009C1588.5-94.2,1589.829-93.657,1590.624-93.781Z" transform="translate(-1577.345 120.727)" fill="#1d272b"/>
      <path id="Trazado_167044" data-name="Trazado 167044" d="M1563.811-91.788c-.684-.059-1.919.29-1.891-1.1.026-1.27,1.19-.988,2.031-1.017a2.431,2.431,0,0,1,1.11.03,6.429,6.429,0,0,1,1.164,1.014,6.127,6.127,0,0,1-1.125,1.042C1564.813-91.659,1564.366-91.788,1563.811-91.788Z" transform="translate(-1557.458 120.857)" fill="#1d272b"/>
      <path id="Trazado_167045" data-name="Trazado 167045" d="M1644.205-99.759c-3.482,0-6.965-.023-10.447.013-1.165.012-1.689-.419-1.672-1.622.039-2.852.033-5.7,0-8.556-.012-1.134.486-1.569,1.6-1.565q10.573.03,21.146,0c1.183,0,1.644.51,1.627,1.681q-.062,4.214,0,8.43c.017,1.21-.535,1.636-1.681,1.627C1651.254-99.775,1647.73-99.759,1644.205-99.759Zm-9.852-9.476v7.193h19.789v-7.193Z" transform="translate(-1609.94 133.972)" fill="#1d272b"/>
      <path id="Trazado_167046" data-name="Trazado 167046" d="M1702.521-48.323c0-2.014.047-4.03-.018-6.042-.039-1.226.471-1.655,1.647-1.6,1.214.06,2.434.029,3.651.01a1.139,1.139,0,0,1,1.313,1.3q0,6.42,0,12.84a1.132,1.132,0,0,1-1.22,1.282c-1.385.019-2.77.012-4.155,0-.909-.005-1.232-.513-1.223-1.378C1702.537-44.043,1702.522-46.183,1702.521-48.323Zm4.271,5.579v-11h-2.068v11Z" transform="translate(-1662.61 92.442)" fill="#1d272b"/>
      <path id="Trazado_167047" data-name="Trazado 167047" d="M1635.46-20.819c3.365.011,3.256-.419,3.256,3.265s.128,3.311-3.354,3.315c-3.378,0-3.257.31-3.256-3.288C1632.108-21.274,1631.982-20.8,1635.46-20.819Zm-1.121,2.173v2.162h2.123v-2.162Z" transform="translate(-1609.955 66.16)" fill="#1d272b"/>
      <path id="Trazado_167048" data-name="Trazado 167048" d="M1638.71-52.561c.031,3.352.163,3.238-3.216,3.232-3.617-.007-3.381.2-3.387-3.445s-.076-3.163,3.221-3.16C1638.906-55.929,1638.725-56.444,1638.71-52.561Zm-4.366-1.214v2.138h2.111v-2.138Z" transform="translate(-1609.956 92.433)" fill="#1d272b"/>
      <path id="Trazado_167049" data-name="Trazado 167049" d="M1667.395-52.7c0-3.628-.277-3.234,3.257-3.229,3.461,0,3.332-.48,3.339,3.31.006,3.439.121,3.3-3.3,3.3C1667-49.322,1667.4-49.21,1667.395-52.7Zm2.174,1.067h2.1v-2.113h-2.1Z" transform="translate(-1636.344 92.426)" fill="#1d272b"/>
      <path id="Trazado_167050" data-name="Trazado 167050" d="M1670.675-20.818c3.44.01,3.321-.418,3.324,3.338,0,3.492.087,3.256-3.186,3.244-3.724-.014-3.407.328-3.411-3.359C1667.4-21.206,1667.167-20.807,1670.675-20.818Zm1.005,4.365v-2.171h-2.071v2.171Z" transform="translate(-1636.352 66.159)" fill="#1d272b"/>
      <path id="Trazado_167051" data-name="Trazado 167051" d="M1659.9-93.836c-1.382,0-2.764.009-4.146,0-.781-.007-1.341.25-1.326,1.122.014.834.609,1.005,1.3,1.005q4.146,0,8.293,0c.757,0,1.471-.237,1.273-1.1a1.721,1.721,0,0,0-1.256-.98C1662.676-93.92,1661.286-93.836,1659.9-93.836Zm-8.817,2.6c.482-.737,1.013-1.2.933-1.512a1.62,1.62,0,0,0-1.07-1c-.266-.048-.929.628-.928.978C1650.021-92.37,1650.552-91.963,1651.087-91.24Z" transform="translate(-1623.355 120.787)" fill="#1d272b"/>
      <path id="Trazado_167052" data-name="Trazado 167052" d="M1672.993-93.836c1.382,0,2.772-.084,4.142.047a1.722,1.722,0,0,1,1.256.98c.2.861-.516,1.1-1.273,1.1q-4.147,0-8.293,0c-.695,0-1.29-.171-1.3-1.005-.015-.872.545-1.129,1.326-1.122C1670.229-93.827,1671.611-93.836,1672.993-93.836Z" transform="translate(-1636.445 120.787)" fill="#1d272b"/>
      <path id="Trazado_167053" data-name="Trazado 167053" d="M1651.087-90.928c-.535-.723-1.066-1.13-1.066-1.537,0-.351.663-1.026.928-.978a1.62,1.62,0,0,1,1.07,1C1652.1-92.132,1651.569-91.665,1651.087-90.928Z" transform="translate(-1623.355 120.475)" fill="#1d272b"/>
    </g>
  </g>
</svg>
