<svg xmlns="http://www.w3.org/2000/svg" xmlns:xlink="http://www.w3.org/1999/xlink" width="79.155" height="79.154" viewBox="0 0 79.155 79.154">
  <defs>
    <radialGradient id="radial-gradient" cx="0.077" cy="0.019" r="1.465" gradientTransform="matrix(1, 0, 0, -1, 0, 9.666)" gradientUnits="objectBoundingBox">
      <stop offset="0" stop-color="#f4f4f5"/>
      <stop offset="0.477" stop-color="#f7f8fa"/>
      <stop offset="0.715" stop-color="#fff"/>
    </radialGradient>
  </defs>
  <g id="icon8" transform="translate(0)">
    <g id="Group_18531" data-name="Group 18531">
      <g id="Group_18423" data-name="Group 18423">
        <g id="Group_18421" data-name="Group 18421">
          <g id="Group_18420" data-name="Group 18420">
            <g id="Group_18419" data-name="Group 18419">
              <path id="Path_40936" data-name="Path 40936" d="M201.954,554.407a39.577,39.577,0,1,1-39.578-39.575h0A39.576,39.576,0,0,1,201.954,554.407Z" transform="translate(-122.8 -514.832)" fill="#fff"/>
            </g>
          </g>
        </g>
        <path id="Path_40937" data-name="Path 40937" d="M201.953,554.407a39.42,39.42,0,1,0,0,.312Z" transform="translate(-122.799 -514.832)" fill="url(#radial-gradient)"/>
        <path id="Path_40938" data-name="Path 40938" d="M190.028,551.858a30.209,30.209,0,1,0-30.209,30.209h0a30.1,30.1,0,0,0,30.209-29.984Z" transform="translate(-120.122 -512.151)" fill="none" stroke="#1d272b" stroke-miterlimit="10" stroke-width="2"/>
        <g id="Group_18422" data-name="Group 18422" transform="translate(7.012 22.22)">
          <path id="Path_40939" data-name="Path 40939" d="M195.973,530.78a39.581,39.581,0,0,1-68.14,39.411,39.456,39.456,0,0,0,68.14-39.411Z" transform="translate(-127.833 -530.78)" fill="#e7e9eb"/>
        </g>
      </g>
    </g>
    <g id="fc2zO0" transform="translate(-472.34 -257.698)">
      <g id="Grupo_130125" data-name="Grupo 130125" transform="translate(499.34 277.043)">
        <path id="Trazado_167056" data-name="Trazado 167056" d="M521.619,344.42v-29.7H517.9v-1.711h4.267c.9,0,1.148.238,1.148,1.128q0,6.85,0,13.7,0,8.555,0,17.11c0,.114,0,.228,0,.341a.821.821,0,0,1-.911.851c-1.394.006-2.788,0-4.183,0H500.682c-1.165,0-1.341-.175-1.341-1.324q0-7.362,0-14.723,0-7.958,0-15.916c0-.947.231-1.171,1.191-1.17l4.1.006a.692.692,0,0,1,.119.029v1.659h-3.7V344.42Z" transform="translate(-499.34 -309.942)" fill="#1d272b"/>
        <path id="Trazado_167057" data-name="Trazado 167057" d="M586.328,279.268c.5,0,.987.029,1.466-.006,1-.072,1.533.292,1.469,1.491a2.035,2.035,0,0,1-1.014,1.845,2.532,2.532,0,0,1-1.13.306c-2.048.029-4.1.025-6.144.01a2.054,2.054,0,0,1-2.123-2.173c0-.142,0-.285,0-.427a.994.994,0,0,1,1.045-1.045c.6-.011,1.194-.007,1.791-.012a.222.222,0,0,0,.076-.031c.372-1.538,1.143-2.233,2.422-2.182A2.3,2.3,0,0,1,586.328,279.268Zm-2.263.941a.935.935,0,0,0,.918-.921.931.931,0,1,0-1.862.026A.934.934,0,0,0,584.066,280.209Z" transform="translate(-572.063 -277.043)" fill="#1d272b"/>
        <path id="Trazado_167058" data-name="Trazado 167058" d="M632.29,417.425H622.1V416.3c.15-.008.3-.024.447-.024,3.07,0,6.141.008,9.21-.013.441,0,.593.119.533.547A4.726,4.726,0,0,0,632.29,417.425Z" transform="translate(-611.624 -404.375)" fill="#1d272b"/>
        <path id="Trazado_167059" data-name="Trazado 167059" d="M631.556,554.04H621.407v-1.11h10.149Z" transform="translate(-610.986 -529.378)" fill="#1d272b"/>
        <path id="Trazado_167060" data-name="Trazado 167060" d="M631.2,622.059H621.055v-1.113H631.2Z" transform="translate(-610.664 -591.587)" fill="#1d272b"/>
        <path id="Trazado_167061" data-name="Trazado 167061" d="M632.087,485.924H621.961v-1.13h10.126Z" transform="translate(-611.493 -467.059)" fill="#1d272b"/>
        <path id="Trazado_167062" data-name="Trazado 167062" d="M536.416,389.019l.868-.779,1.391,1.53,2.915-2.549.785.872-3.807,3.342Z" transform="translate(-533.251 -377.816)" fill="#1d272b"/>
        <path id="Trazado_167063" data-name="Trazado 167063" d="M540.3,591.234l.774.885-3.8,3.327-2.148-2.408.868-.785,1.385,1.533Z" transform="translate(-532.07 -564.412)" fill="#1d272b"/>
        <path id="Trazado_167064" data-name="Trazado 167064" d="M540.732,523.225l.774.882-3.8,3.33-2.154-2.407.866-.782,1.387,1.53Z" transform="translate(-532.459 -502.209)" fill="#1d272b"/>
        <path id="Trazado_167065" data-name="Trazado 167065" d="M541.125,455.193l.771.889-3.8,3.318-2.156-2.4.877-.787,1.381,1.539Z" transform="translate(-532.815 -439.984)" fill="#1d272b"/>
      </g>
    </g>
  </g>
</svg>
