<svg xmlns="http://www.w3.org/2000/svg" xmlns:xlink="http://www.w3.org/1999/xlink" width="79.155" height="79.154" viewBox="0 0 79.155 79.154">
  <defs>
    <radialGradient id="radial-gradient" cx="0.077" cy="0.019" r="1.465" gradientTransform="matrix(1, 0, 0, -1, 0, 9.666)" gradientUnits="objectBoundingBox">
      <stop offset="0" stop-color="#f4f4f5"/>
      <stop offset="0.477" stop-color="#f7f8fa"/>
      <stop offset="0.715" stop-color="#fff"/>
    </radialGradient>
  </defs>
  <g id="icon7" transform="translate(0)">
    <g id="Group_18531" data-name="Group 18531">
      <g id="Group_18423" data-name="Group 18423">
        <g id="Group_18421" data-name="Group 18421">
          <g id="Group_18420" data-name="Group 18420">
            <g id="Group_18419" data-name="Group 18419">
              <path id="Path_40936" data-name="Path 40936" d="M201.954,554.407a39.577,39.577,0,1,1-39.578-39.575h0A39.576,39.576,0,0,1,201.954,554.407Z" transform="translate(-122.8 -514.832)" fill="#fff"/>
            </g>
          </g>
        </g>
        <path id="Path_40937" data-name="Path 40937" d="M201.953,554.407a39.42,39.42,0,1,0,0,.312Z" transform="translate(-122.799 -514.832)" fill="url(#radial-gradient)"/>
        <path id="Path_40938" data-name="Path 40938" d="M190.028,551.858a30.209,30.209,0,1,0-30.209,30.209h0a30.1,30.1,0,0,0,30.209-29.984Z" transform="translate(-120.122 -512.151)" fill="none" stroke="#1d272b" stroke-miterlimit="10" stroke-width="2"/>
        <g id="Group_18422" data-name="Group 18422" transform="translate(7.012 22.22)">
          <path id="Path_40939" data-name="Path 40939" d="M195.973,530.78a39.581,39.581,0,0,1-68.14,39.411,39.456,39.456,0,0,0,68.14-39.411Z" transform="translate(-127.833 -530.78)" fill="#e7e9eb"/>
        </g>
      </g>
    </g>
    <g id="oEzUjZ.tif" transform="translate(-3315.279 127.033)">
      <g id="Grupo_129741" data-name="Grupo 129741" transform="translate(3336.703 -104.025)">
        <path id="Trazado_166856" data-name="Trazado 166856" d="M3374.041-97.9c-.045.173-.093.344-.133.518a5.439,5.439,0,0,1-8.037,3.556.394.394,0,0,0-.581.078c-1.212,1.278-2.438,2.543-3.67,3.822.251.486.6,1.055.85,1.665a7.349,7.349,0,0,1,.072,5.474.373.373,0,0,0,.143.51c1.279,1.006,2.544,2.029,3.772,3.011a10.344,10.344,0,0,1,1.327-.575,3.3,3.3,0,0,1,4.059,3.4,3.158,3.158,0,0,1-2.006,2.848,3.109,3.109,0,0,1-3.458-.6,3.229,3.229,0,0,1-1.064-2.855.563.563,0,0,0-.135-.427c-1.241-1.015-2.5-2.013-3.75-3.014a1.3,1.3,0,0,0-.141-.084,7.749,7.749,0,0,1-4.808,2.72V-75.3a4.343,4.343,0,0,1,2.166,1.352,4.208,4.208,0,0,1,.847,4.322,4.112,4.112,0,0,1-3.39,2.856,4.326,4.326,0,0,1-5.02-5.066,4.138,4.138,0,0,1,2.8-3.313.507.507,0,0,0,.409-.59c-.029-.69-.009-1.383-.009-2.08a7.824,7.824,0,0,1-6.52-6.519h-3.119a3.164,3.164,0,0,1-.4,0,1.442,1.442,0,0,0-1.639.8,2.9,2.9,0,0,1-3.269,1.3,3.094,3.094,0,0,1-2.522-2.44,3.078,3.078,0,0,1,1.062-3.246,3.257,3.257,0,0,1,5.1,1.122c.053.109.184.256.28.257,1.506.016,3.012.011,4.546.011a7.914,7.914,0,0,1,1.485-3.519l-3.7-3.583a13.36,13.36,0,0,1-1.535.468,4.353,4.353,0,0,1-5.007-3.5,4.356,4.356,0,0,1,3.623-5.111,4.16,4.16,0,0,1,4.207,1.753,4.17,4.17,0,0,1,.37,4.509c-.077.162-.135.277.032.441,1.144,1.125,2.274,2.263,3.41,3.4a1.525,1.525,0,0,0,.132.1,7.891,7.891,0,0,1,3.462-1.438c0-1.515,0-3-.01-4.478,0-.09-.13-.213-.229-.262a3.232,3.232,0,0,1-1.74-4.08,3.151,3.151,0,0,1,2.469-2.131c.082-.018.162-.043.242-.065h.729a.667.667,0,0,0,.132.053,3.259,3.259,0,0,1,2.725,2.666,3.225,3.225,0,0,1-1.89,3.543.375.375,0,0,0-.242.416c.006,1.348,0,2.7.006,4.045,0,.093.013.186.021.3a8.092,8.092,0,0,1,3.583,1.531c1.238-1.288,2.461-2.572,3.7-3.838a.379.379,0,0,0,.062-.55,5.44,5.44,0,0,1,3.56-8.032c.174-.04.346-.088.518-.133h1.24a1.456,1.456,0,0,0,.205.065,5.309,5.309,0,0,1,4.166,3.133,12.158,12.158,0,0,1,.516,1.687Zm-18.676,17.937a5.488,5.488,0,0,0,5.475-5.472A5.488,5.488,0,0,0,3355.4-90.9a5.487,5.487,0,0,0-5.492,5.454A5.488,5.488,0,0,0,3355.365-79.963Zm13.192-21.871a3.309,3.309,0,0,0-3.265,3.283,3.314,3.314,0,0,0,3.311,3.274,3.308,3.308,0,0,0,3.247-3.3A3.312,3.312,0,0,0,3368.557-101.835Zm-23.034,4.369a2.2,2.2,0,0,0-2.188-2.179,2.2,2.2,0,0,0-2.179,2.187,2.2,2.2,0,0,0,2.187,2.18A2.2,2.2,0,0,0,3345.523-97.466Zm12.033,26.409a2.207,2.207,0,0,0-2.176-2.194,2.2,2.2,0,0,0-2.194,2.175,2.207,2.207,0,0,0,2.176,2.195A2.2,2.2,0,0,0,3357.556-71.057Zm12.106-5.549a1.168,1.168,0,0,0-1.073-1.166,1.171,1.171,0,0,0-1.109,1.168,1.1,1.1,0,0,0,1.092,1.087A1.1,1.1,0,0,0,3369.662-76.606Zm-13.2-24.148a1.1,1.1,0,0,0-1.1-1.082,1.1,1.1,0,0,0-1.082,1.1,1.1,1.1,0,0,0,1.1,1.082A1.1,1.1,0,0,0,3356.462-100.753ZM3339.976-84.34a1.1,1.1,0,0,0,1.1-1.083,1.1,1.1,0,0,0-1.083-1.1,1.1,1.1,0,0,0-1.1,1.083A1.1,1.1,0,0,0,3339.976-84.34Z" transform="translate(-3336.703 104.025)" fill="#1d272b"/>
      </g>
    </g>
  </g>
</svg>
