<svg id="icon6" xmlns="http://www.w3.org/2000/svg" xmlns:xlink="http://www.w3.org/1999/xlink" width="79.155" height="79.154" viewBox="0 0 79.155 79.154">
  <defs>
    <radialGradient id="radial-gradient" cx="0.077" cy="0.019" r="1.465" gradientTransform="matrix(1, 0, 0, -1, 0, 9.666)" gradientUnits="objectBoundingBox">
      <stop offset="0" stop-color="#f4f4f5"/>
      <stop offset="0.477" stop-color="#f7f8fa"/>
      <stop offset="0.715" stop-color="#fff"/>
    </radialGradient>
  </defs>
  <g id="Group_18531" data-name="Group 18531">
    <g id="Group_18423" data-name="Group 18423">
      <g id="Group_18421" data-name="Group 18421">
        <g id="Group_18420" data-name="Group 18420">
          <g id="Group_18419" data-name="Group 18419">
            <path id="Path_40936" data-name="Path 40936" d="M201.954,554.407a39.577,39.577,0,1,1-39.578-39.575h0A39.576,39.576,0,0,1,201.954,554.407Z" transform="translate(-122.8 -514.832)" fill="#fff"/>
          </g>
        </g>
      </g>
      <path id="Path_40937" data-name="Path 40937" d="M201.953,554.407a39.42,39.42,0,1,0,0,.312Z" transform="translate(-122.799 -514.832)" fill="url(#radial-gradient)"/>
      <path id="Path_40938" data-name="Path 40938" d="M190.028,551.858a30.209,30.209,0,1,0-30.209,30.209h0a30.1,30.1,0,0,0,30.209-29.984Z" transform="translate(-120.122 -512.151)" fill="none" stroke="#1d272b" stroke-miterlimit="10" stroke-width="2"/>
      <g id="Group_18422" data-name="Group 18422" transform="translate(7.012 22.22)">
        <path id="Path_40939" data-name="Path 40939" d="M195.973,530.78a39.581,39.581,0,0,1-68.14,39.411,39.456,39.456,0,0,0,68.14-39.411Z" transform="translate(-127.833 -530.78)" fill="#e7e9eb"/>
      </g>
    </g>
  </g>
  <g id="p3R8wN" transform="translate(-1924.12 -185.511)">
    <g id="Grupo_129414" data-name="Grupo 129414" transform="translate(1944.981 206.379)">
      <path id="Trazado_166507" data-name="Trazado 166507" d="M1982.356,243.8h-27.7V228.138h-9.638c0-1.658-.091-3.234.03-4.793a2.63,2.63,0,0,1,2.035-2.309c1.3-.413,2.616-.805,4.163-1.279-1.06-.639-1.288-1.8-2.457-2.194a2.234,2.234,0,0,1-1.28-1.552,17.117,17.117,0,0,1,.152-5.2,5.943,5.943,0,0,1,10.1-2.54,1.73,1.73,0,0,0,1.416.57c5.362-.017,10.724,0,16.086-.023a1.8,1.8,0,0,1,1.419.6c1.743,1.784,3.529,3.526,5.273,5.31a1.53,1.53,0,0,1,.442.945q.033,13.892.012,27.785A2.876,2.876,0,0,1,1982.356,243.8Zm-7.158-33.75h-15.916c.059,1.918.169,3.764.149,5.608a2.005,2.005,0,0,1-1.438,1.96c-1.143.343-1.382,1.472-2.366,2.148,1.525.47,2.831.867,4.133,1.277a2.792,2.792,0,0,1,2.09,2.567c.111,1.474.026,2.964.026,4.53h-6v14.5h25.338V216H1975.2Zm-29.042,16.826h2.489V224.59h1.144v2.281h7.323v-2.294h1.181v2.288h2.4v-2.211c0-1.836-.278-2.151-2.042-2.742-.636-.213-.905-.047-1.195.494-.671,1.252-1.4,2.473-2.154,3.789l-1.878-2.476-1.894,2.467c-.784-1.369-1.5-2.636-2.237-3.891-.119-.2-.31-.474-.5-.5a2.546,2.546,0,0,0-2.608,1.9C1946.082,224.735,1946.156,225.794,1946.156,226.872Zm2.445-13.585a4.174,4.174,0,0,1,.712-.18,6.883,6.883,0,0,0,3.87-1.229.486.486,0,0,1,.459-.009c1.34,1.106,3,1.1,4.586,1.359.252-3.184-1.863-5.681-4.809-5.68A4.969,4.969,0,0,0,1948.6,213.288Zm1.8,1.074c-.08,1.546-.261,3.229,1.442,4.264a2.851,2.851,0,0,0,3.311-.106c1.547-1.084,1.35-2.69,1.266-4.162-.968-.371-1.839-.714-2.719-1.033a.851.851,0,0,0-.536-.02C1952.255,213.633,1951.359,213.99,1950.4,214.362Zm26.026-3.518v3.981h3.872a3.407,3.407,0,0,0-.239-.324C1978.893,213.326,1977.726,212.154,1976.424,210.844Zm-26.272,10.543,1.51,2.64.957-1.261C1951.564,220.894,1951.533,220.876,1950.152,221.387Zm6.523,0c-1.376-.514-1.4-.5-2.475,1.378l.961,1.271Zm-4.359-1.128,1.111,1.442,1.052-1.442Zm5.345-3.88c.812-.672.811-1.215,0-1.856Zm-8.53-1.981c-.76.951-.725,1.425,0,1.908Z" transform="translate(-1944.981 -206.379)" fill="#1d272b"/>
      <path id="Trazado_166508" data-name="Trazado 166508" d="M2060.08,337.753l.664-.525.64.878-.41.564a6.173,6.173,0,0,1,.011,7.6l.5.716-.9.621-.524-.406a6.12,6.12,0,0,1-7.624-.007l-.651.524-.692-.839.435-.58a6.115,6.115,0,0,1,.008-7.634l-.507-.6c.137-.15.248-.277.365-.4s.245-.236.409-.391l.6.439C2055.76,336.009,2057.164,336.007,2060.08,337.753Zm-7.729,7.549,2.993-2.955c-.47-.442-1-.886-1.461-1.387s-.854-1.043-1.311-1.61C2051.054,341.466,2051.057,343.572,2052.352,345.3Zm1.074,1.045c1.638,1.364,4.437,1.322,5.612-.044l-2.8-2.884Zm5.681-7.681c-1.593-1.417-4.7-1.364-5.579-.075l2.725,2.885Zm.987,6.69a4.547,4.547,0,0,0,.025-5.684l-2.828,2.816Z" transform="translate(-2032.081 -314.055)" fill="#1d272b"/>
      <path id="Trazado_166509" data-name="Trazado 166509" d="M2060.782,261.01l.649-.491.8.845c-.715.427-.568.9-.3,1.522a6,6,0,1,1-1.663-2.328C2060.418,260.686,2060.566,260.821,2060.782,261.01Zm-.9.854a4.751,4.751,0,0,0-6.734-.344,4.844,4.844,0,0,0,6,7.588,4.677,4.677,0,0,0,1.446-6.125l-4.683,4.8-2.9-2.907.843-.805,1.8,2.026Z" transform="translate(-2032.193 -250.03)" fill="#1d272b"/>
      <path id="Trazado_166510" data-name="Trazado 166510" d="M2129.505,326.114a1.776,1.776,0,1,1,.014-3.551,1.776,1.776,0,0,1-.014,3.551Zm.052-.916c.25-.405.539-.666.507-.879s-.393-.556-.582-.539a.814.814,0,0,0-.548.59C2128.925,324.585,2129.251,324.815,2129.558,325.2Z" transform="translate(-2096.272 -302.566)" fill="#1d272b"/>
      <path id="Trazado_166511" data-name="Trazado 166511" d="M2134.9,281.723v-1.012h1.053v1.012Z" transform="translate(-2102.213 -267.918)" fill="#1d272b"/>
      <path id="Trazado_166512" data-name="Trazado 166512" d="M2136.06,351.962H2135v-1.071h1.059Z" transform="translate(-2102.297 -326.019)" fill="#1d272b"/>
      <path id="Trazado_166513" data-name="Trazado 166513" d="M2136.06,366.081h-1.025v-1.074h1.025Z" transform="translate(-2102.325 -337.705)" fill="#1d272b"/>
      <path id="Trazado_166514" data-name="Trazado 166514" d="M2136.087,378.625v1.153h-1.056v-1.085Z" transform="translate(-2102.321 -348.98)" fill="#1d272b"/>
      <path id="Trazado_166515" data-name="Trazado 166515" d="M2135.028,295.706v-1.054h1.053v1.054Z" transform="translate(-2102.319 -279.459)" fill="#1d272b"/>
      <path id="Trazado_166516" data-name="Trazado 166516" d="M2136.046,309.887H2135v-1.022h1.05Z" transform="translate(-2102.293 -291.226)" fill="#1d272b"/>
    </g>
  </g>
</svg>
