<svg xmlns="http://www.w3.org/2000/svg" xmlns:xlink="http://www.w3.org/1999/xlink" width="413.602" height="227.705" viewBox="0 0 413.602 227.705">
  <defs>
    <linearGradient id="linear-gradient" x1="0.5" x2="0.5" y2="1" gradientUnits="objectBoundingBox">
      <stop offset="0" stop-color="#f5f5f5"/>
      <stop offset="0.25" stop-color="#f5f5f5"/>
      <stop offset="1" stop-color="#eeeef2"/>
    </linearGradient>
  </defs>
  <g id="img6" transform="translate(-1029.596 -1535.431)">
    <g id="Grupo_53286" data-name="Grupo 53286" transform="translate(1054.063 1535.503)">
      <path id="Trazado_99088" data-name="Trazado 99088" d="M1200.15,727.758Zm3.509-13.363a6.753,6.753,0,1,1-1.977,4.775,6.734,6.734,0,0,1,1.977-4.775Zm1.458-6.692a11.91,11.91,0,0,0-4.967,2.877.414.414,0,0,1-.495.06l-3.137-1.81-.017-.011a.785.785,0,0,0-1.046.3l-.013.021-2.207,3.823a.786.786,0,0,0,.285,1.064l.021.013,3.111,1.8a.412.412,0,0,1,.2.457h0a11.8,11.8,0,0,0-.263,1.426,11.956,11.956,0,0,0,.263,4.334.416.416,0,0,1-.219.471l-3.11,1.8h0a.784.784,0,0,0-.285,1.063l2.22,3.845h0a.782.782,0,0,0,1.062.285l.024-.012,3.115-1.8a.418.418,0,0,1,.493.06,11.911,11.911,0,0,0,4.985,2.882.415.415,0,0,1,.3.4v3.619a.782.782,0,0,0,.776.777h4.441a.781.781,0,0,0,.775-.777v-3.619a.417.417,0,0,1,.32-.4,11.911,11.911,0,0,0,4.967-2.877.414.414,0,0,1,.515-.047l3.115,1.8a.782.782,0,0,0,1.063-.285l.013-.02,2.207-3.825h0a.785.785,0,0,0-.283-1.062l-3.135-1.81a.417.417,0,0,1-.2-.458h0a11.742,11.742,0,0,0,.262-1.425,12.152,12.152,0,0,0,0-2.91,11.811,11.811,0,0,0-.262-1.425.415.415,0,0,1,.219-.471l3.112-1.8a.786.786,0,0,0,.283-1.062l-.012-.023-2.208-3.823h0a.783.783,0,0,0-1.062-.286h0l-3.137,1.81a.414.414,0,0,1-.5-.069,12.019,12.019,0,0,0-2.313-1.741,11.887,11.887,0,0,0-2.663-1.132.415.415,0,0,1-.3-.4V703.68a.779.779,0,0,0-.775-.776h-4.441a.766.766,0,0,0-.548.228.774.774,0,0,0-.229.547V707.3A.415.415,0,0,1,1205.117,707.7Z" transform="translate(-862.256 -596.672)" fill="#008f85" fill-rule="evenodd"/>
      <path id="Trazado_99089" data-name="Trazado 99089" d="M1223.79,653.816a10.041,10.041,0,1,1-2.179,3.264,10.061,10.061,0,0,1,2.179-3.264Zm3.615-1.322a9.17,9.17,0,1,0,3.487-.689,9.1,9.1,0,0,0-3.487.689Zm-1.111-7.392a16.416,16.416,0,0,0-3.628,1.548,16.813,16.813,0,0,0-1.675,1.11,16.634,16.634,0,0,0-1.529,1.306,1.047,1.047,0,0,1-1.255.152c-1.476-.852-3.026-1.695-4.472-2.582a.6.6,0,0,0-.216-.067.677.677,0,0,0-.247.019.655.655,0,0,0-.226.109.636.636,0,0,0-.163.186c-1.076,1.628-2.155,3.729-3.151,5.455a.611.611,0,0,0-.079.232.638.638,0,0,0,.02.254.624.624,0,0,0,.3.389c1.327.877,3.036,1.754,4.442,2.567a1.052,1.052,0,0,1,.51.717l.092.03-.1.414q-.12.489-.211.976t-.149.991c-.041.335-.072.67-.091,1s-.03.659-.03,1.01.01.688.03,1.009.05.664.091,1,.093.675.149.99.132.651.211.977a1.045,1.045,0,0,1-.542,1.187l-3.934,2.272h0l-.466.269a.622.622,0,0,0-.3.39.632.632,0,0,0-.02.253.61.61,0,0,0,.079.232l2.913,5.047h0l.237.408a.607.607,0,0,0,.163.185.651.651,0,0,0,.226.11.677.677,0,0,0,.253.019.635.635,0,0,0,.23-.078c1.409-.886,3-1.73,4.453-2.57a1.049,1.049,0,0,1,1.251.151l0,0a16.316,16.316,0,0,0,1.531,1.306,16.312,16.312,0,0,0,5.349,2.67,1.052,1.052,0,0,1,.763,1.013l0,5.134a.607.607,0,0,0,.049.242.664.664,0,0,0,.346.348.635.635,0,0,0,.242.047h6.3a.639.639,0,0,0,.242-.047.632.632,0,0,0,.207-.139.671.671,0,0,0,.14-.208.631.631,0,0,0,.047-.242v-5.134a1.048,1.048,0,0,1,.228-.652,1.059,1.059,0,0,1,.582-.374,15.8,15.8,0,0,0,1.851-.659,16.078,16.078,0,0,0,1.778-.889,16.583,16.583,0,0,0,3.2-2.415,1.053,1.053,0,0,1,1.308-.119l4.4,2.537a.613.613,0,0,0,.233.078.664.664,0,0,0,.254-.019.652.652,0,0,0,.226-.11.628.628,0,0,0,.162-.185c1.045-1.821,2.1-3.634,3.151-5.455a.613.613,0,0,0,.077-.232.652.652,0,0,0-.019-.252.637.637,0,0,0-.109-.227.6.6,0,0,0-.183-.162l-4.446-2.567a1.031,1.031,0,0,1-.443-.5.875.875,0,0,1-.056-.168l-.117-.024.117-.472c.08-.325.151-.651.212-.976s.108-.646.15-.99.071-.671.091-1,.029-.658.029-1.009-.009-.687-.029-1.009-.05-.662-.091-1-.094-.681-.15-.994-.131-.649-.212-.974a1.049,1.049,0,0,1,.539-1.187l4.4-2.542a.616.616,0,0,0,.185-.162.641.641,0,0,0,.109-.226.658.658,0,0,0,.019-.253.622.622,0,0,0-.077-.233c-1.075-1.6-2.154-3.735-3.151-5.455a.625.625,0,0,0-.388-.3.667.667,0,0,0-.254-.019.616.616,0,0,0-.232.079l-4.449,2.568a1.043,1.043,0,0,1-.667.133,1.062,1.062,0,0,1-.6-.3,16.42,16.42,0,0,0-3.192-2.4,16.2,16.2,0,0,0-3.673-1.559,1.055,1.055,0,0,1-.764-1.014l0-5.135a.631.631,0,0,0-.047-.241.646.646,0,0,0-.14-.208.627.627,0,0,0-.449-.188h-6.3a.64.64,0,0,0-.637.637v5.135a1.054,1.054,0,0,1-.811,1.024Zm-2.214-.193a17.382,17.382,0,0,0-5.261,3.489.122.122,0,0,1-.071.032.125.125,0,0,1-.077-.014q-2.244-1.3-4.488-2.592a1.527,1.527,0,0,0-.561-.176,1.555,1.555,0,0,0-.589.044,1.572,1.572,0,0,0-.55.27,1.545,1.545,0,0,0-.4.458c-1.085,1.756-2.113,3.657-3.152,5.454a1.58,1.58,0,0,0,.116,1.74,1.534,1.534,0,0,0,.458.4c1.431.884,2.982,1.723,4.446,2.568a.13.13,0,0,1,.051.058.123.123,0,0,1,.006.078l-.1.416.006,0c-.046.2-.087.406-.126.615-.064.355-.119.7-.161,1.048s-.073.693-.094,1.054-.033.718-.033,1.064.011.7.033,1.063.053.714.094,1.054.1.694.161,1.049.139.7.221,1.031a.125.125,0,0,1-.007.081.131.131,0,0,1-.056.059c-1.635.873-3.293,1.9-4.908,2.833l.057.072-.049.062a1.574,1.574,0,0,0-.116,1.739l3.386,5.863.063-.037c.033.03.068.06.1.087a1.581,1.581,0,0,0,1.724.125c1.481-.786,3-1.734,4.466-2.58a.13.13,0,0,1,.076-.013.126.126,0,0,1,.072.033,17.3,17.3,0,0,0,7.266,4.2.124.124,0,0,1,.064.045.115.115,0,0,1,.025.075v5.134a1.578,1.578,0,0,0,.97,1.447,1.544,1.544,0,0,0,.6.12h6.3a1.554,1.554,0,0,0,.6-.12,1.628,1.628,0,0,0,.509-.34,1.6,1.6,0,0,0,.34-.509,1.561,1.561,0,0,0,.12-.6v-5.134a.128.128,0,0,1,.025-.078.123.123,0,0,1,.069-.043l.021-.007a17.425,17.425,0,0,0,1.979-.7,17.431,17.431,0,0,0,5.263-3.489.126.126,0,0,1,.073-.035.132.132,0,0,1,.081.021l4.447,2.567a1.553,1.553,0,0,0,.578.2,1.612,1.612,0,0,0,.61-.041,1.572,1.572,0,0,0,.944-.715c1.168-1.878,2.272-3.937,3.387-5.866l-.06-.035c.01-.05.02-.1.025-.149a1.559,1.559,0,0,0-.31-1.158,1.548,1.548,0,0,0-.457-.4l-4.447-2.567a.127.127,0,0,1-.051-.057.139.139,0,0,1-.006-.081l.116-.47-.006,0c.039-.183.076-.369.111-.557q.1-.534.161-1.05c.041-.341.074-.693.095-1.054s.033-.717.033-1.063-.011-.7-.033-1.063-.054-.715-.095-1.058-.1-.69-.161-1.048-.139-.7-.221-1.029a.13.13,0,0,1,.008-.082.133.133,0,0,1,.057-.058l4.442-2.565a1.536,1.536,0,0,0,.456-.4,1.562,1.562,0,0,0,.309-1.158,1.519,1.519,0,0,0-.187-.566c-1.058-1.961-2.271-3.937-3.391-5.877l-.064.037c-.034-.03-.069-.06-.105-.087a1.562,1.562,0,0,0-.548-.27,1.608,1.608,0,0,0-.61-.041,1.539,1.539,0,0,0-.577.193l-.329.189v0l-4.124,2.38a.126.126,0,0,1-.08.015.112.112,0,0,1-.069-.035l-.011-.011a17.511,17.511,0,0,0-3.371-2.538,17.206,17.206,0,0,0-3.885-1.65.131.131,0,0,1-.064-.044.119.119,0,0,1-.025-.076v-5.135a1.569,1.569,0,0,0-.462-1.106,1.6,1.6,0,0,0-.507-.34,1.551,1.551,0,0,0-.6-.12h-6.3a1.542,1.542,0,0,0-.6.12,1.617,1.617,0,0,0-.51.34,1.563,1.563,0,0,0-.46,1.106v5.135a.135.135,0,0,1-.025.078.123.123,0,0,1-.07.042l-.02.007A17.384,17.384,0,0,0,1224.08,644.909Z" transform="translate(-863.949 -589.558)" fill="#1d272b" fill-rule="evenodd"/>
      <g id="Grupo_53268" data-name="Grupo 53268" transform="translate(117.145 69.426)">
        <path id="Rectángulo_5027" data-name="Rectángulo 5027" d="M1.013,0H3.506A1.013,1.013,0,0,1,4.52,1.013V3.506A1.014,1.014,0,0,1,3.506,4.52H1.014A1.014,1.014,0,0,1,0,3.506V1.013A1.013,1.013,0,0,1,1.013,0Z" fill="#1d272b"/>
        <path id="Rectángulo_5028" data-name="Rectángulo 5028" d="M1.013,0H3.506A1.013,1.013,0,0,1,4.519,1.013V3.506A1.014,1.014,0,0,1,3.5,4.52H1.013A1.013,1.013,0,0,1,0,3.507V1.013A1.013,1.013,0,0,1,1.013,0Z" transform="translate(9.265)" fill="#1d272b"/>
        <path id="Rectángulo_5029" data-name="Rectángulo 5029" d="M1.013,0H3.506A1.013,1.013,0,0,1,4.519,1.013V3.506A1.014,1.014,0,0,1,3.505,4.52H1.014A1.014,1.014,0,0,1,0,3.506V1.013A1.013,1.013,0,0,1,1.013,0Z" transform="translate(18.528)" fill="#1d272b"/>
        <path id="Rectángulo_5030" data-name="Rectángulo 5030" d="M1.013,0H3.507A1.013,1.013,0,0,1,4.519,1.013V3.506A1.014,1.014,0,0,1,3.505,4.52H1.014A1.014,1.014,0,0,1,0,3.506V1.013A1.013,1.013,0,0,1,1.013,0Z" transform="translate(27.793)" fill="#1d272b"/>
      </g>
      <path id="Trazado_99112" data-name="Trazado 99112" d="M831.034,728.935a.374.374,0,1,1,.749,0v1.683a.374.374,0,1,1-.749,0v-1.683Zm-2.552,1.367a.375.375,0,0,1,.53-.531l1.191,1.191a.374.374,0,0,1-.529.529l-1.191-1.19Zm-.838,2.771a.375.375,0,0,1,0-.75h1.684a.375.375,0,1,1,0,.75Zm1.367,2.551a.374.374,0,0,1-.53-.529l1.191-1.19a.374.374,0,0,1,.529.528l-1.191,1.191Zm2.771.838a.374.374,0,0,1-.749,0v-1.685a.374.374,0,0,1,.749,0v1.685Zm2.551-1.367a.374.374,0,0,1-.529.529l-1.192-1.191a.374.374,0,0,1,.53-.528l1.191,1.19Zm.838-2.772a.375.375,0,0,1,0,.75h-1.684a.375.375,0,0,1,0-.75Zm-1.367-2.552a.374.374,0,0,1,.529.531l-1.191,1.19a.374.374,0,0,1-.53-.529Z" transform="translate(-822.531 -599.458)" fill="#80bbe7" fill-rule="evenodd"/>
      <path id="Trazado_99114" data-name="Trazado 99114" d="M828.97,647.352Zm3.51-13.364a6.75,6.75,0,1,1-1.978,4.774,6.731,6.731,0,0,1,1.978-4.774Zm1.458-6.692a11.864,11.864,0,0,0-2.647,1.127,11.987,11.987,0,0,0-2.321,1.75.415.415,0,0,1-.495.061l-3.137-1.812-.017-.01a.784.784,0,0,0-1.045.3l-.013.021-2.207,3.822a.784.784,0,0,0,.285,1.064l.021.013,3.112,1.8a.414.414,0,0,1,.2.457h0a11.747,11.747,0,0,0-.262,1.426,12.034,12.034,0,0,0,0,2.91,11.766,11.766,0,0,0,.262,1.425.415.415,0,0,1-.218.471l-3.112,1.8h0a.783.783,0,0,0-.285,1.063l2.22,3.845h0a.782.782,0,0,0,1.062.285l.023-.013,3.116-1.8a.415.415,0,0,1,.493.06,12.014,12.014,0,0,0,2.321,1.75,11.874,11.874,0,0,0,2.664,1.131.416.416,0,0,1,.3.4v3.619a.781.781,0,0,0,.776.776h4.44a.782.782,0,0,0,.777-.776v-3.619a.415.415,0,0,1,.318-.4,11.867,11.867,0,0,0,2.647-1.127,11.989,11.989,0,0,0,2.321-1.75.416.416,0,0,1,.515-.047l3.116,1.8a.781.781,0,0,0,1.062-.285l.013-.021,2.208-3.824h0a.782.782,0,0,0-.283-1.062l-3.134-1.811a.412.412,0,0,1-.2-.456h0a11.813,11.813,0,0,0,.262-1.426,12.034,12.034,0,0,0,0-2.91,11.746,11.746,0,0,0-.262-1.426.417.417,0,0,1,.219-.471l3.112-1.8a.783.783,0,0,0,.283-1.062l-.012-.023-2.207-3.822h0a.782.782,0,0,0-1.062-.286h0l-3.138,1.812a.415.415,0,0,1-.5-.07,12.021,12.021,0,0,0-2.312-1.741,11.85,11.85,0,0,0-2.664-1.131.415.415,0,0,1-.3-.4v-3.618a.781.781,0,0,0-.777-.776h-4.44a.779.779,0,0,0-.776.776v3.618A.415.415,0,0,1,833.938,627.3Z" transform="translate(-821.954 -587.942)" fill="#d93328" fill-rule="evenodd"/>
      <g id="Grupo_53270" data-name="Grupo 53270" transform="translate(193.473 0)">
        <path id="Trazado_99115" data-name="Trazado 99115" d="M1068.525,703.848c-3.943,3.591-4.558,4.019-4.558,4.019s-2.6,4.944-1.6,4.939a2.8,2.8,0,0,0,1.8-.908s.976,1.245,1.854.727a12.423,12.423,0,0,1,1.339-.714s1.006,1,1.836.348,4.794-4.929,4.794-4.929l5.238-3.434-2.089-1.881Z" transform="translate(-1041.506 -596.576)" fill="#e98daf" fill-rule="evenodd"/>
        <path id="Trazado_99116" data-name="Trazado 99116" d="M1139.522,822.23c-.08.552-.726,3.335-.715,3.4.114.82.315,2.462.315,2.462s-1.6,1.843-3.091,2.112-8.241.57-8.327.2,1.688-3.285,1.688-3.285a7.779,7.779,0,0,0,2.175-5.329C1131.824,818.073,1139.522,822.23,1139.522,822.23Z" transform="translate(-1048.625 -609.413)" fill="#f3c6d4" fill-rule="evenodd"/>
        <path id="Trazado_99117" data-name="Trazado 99117" d="M1130.688,828.5l.827-.3a5.73,5.73,0,0,0,4.233.182,5.057,5.057,0,0,0,3-2.13.446.446,0,0,1,.369-.268h.555a1.192,1.192,0,0,1,1.089.7,13.287,13.287,0,0,1,.061,6.331c-.723,2.042-1.738,1.773-1.738,1.773s-4.029-1.188-6.747-.23-5.207,1.957-5.207,1.957S1127.257,831.11,1130.688,828.5Z" transform="translate(-1048.563 -610.036)" fill="#0e0226" fill-rule="evenodd"/>
        <path id="Trazado_99118" data-name="Trazado 99118" d="M1110.5,835.954l-.3-.88v-1.068c0-.4.167-1.6,1.329-1.6h4.453c1.033,0,6.616-2.839,10.906-6.329a.59.59,0,0,1,.753-.1c.449.259,1.818,1.353,1.957,1.467a.881.881,0,0,1,.074.749c-.083.162-4.053,8.026-4.053,8.026S1113.933,837.755,1110.5,835.954Z" transform="translate(-1046.725 -610.025)" fill="#1a0f44" fill-rule="evenodd"/>
        <path id="Trazado_99119" data-name="Trazado 99119" d="M1110.173,835.942a.736.736,0,0,0-.263.461v.857a1.678,1.678,0,0,0,1.669,1.091h12.361a10.561,10.561,0,0,0,4.413-.962,25.524,25.524,0,0,1,3.183-1.165s.3-.1.3.406v.982c0,.245-.15.913.858.913h6.013c.457,0,.983-.261.983-1.2V834.92c0-.583-.354-1.044-.735-1.044h-4.623a12.891,12.891,0,0,0-5.9,1.611,15.77,15.77,0,0,1-7.126,1.474h-6.916C1113.17,836.96,1111,836.684,1110.173,835.942Z" transform="translate(-1046.693 -610.893)" fill="#0e0226" fill-rule="evenodd"/>
        <path id="Trazado_99120" data-name="Trazado 99120" d="M1168.931,822.23c-.08.552-.725,3.335-.715,3.4.114.82.315,2.462.315,2.462s-1.6,1.843-3.091,2.112-8.24.57-8.327.2,1.688-3.285,1.688-3.285a7.779,7.779,0,0,0,2.175-5.329C1161.232,818.073,1168.931,822.23,1168.931,822.23Z" transform="translate(-1051.818 -609.413)" fill="#f3c6d4" fill-rule="evenodd"/>
        <path id="Trazado_99121" data-name="Trazado 99121" d="M1160.1,828.5l.827-.3a5.731,5.731,0,0,0,4.233.182,5.049,5.049,0,0,0,3-2.13.448.448,0,0,1,.369-.268h.556a1.191,1.191,0,0,1,1.089.7,13.278,13.278,0,0,1,.061,6.331c-.724,2.042-1.739,1.773-1.739,1.773s-4.028-1.188-6.745-.23-5.208,1.957-5.208,1.957S1156.667,831.11,1160.1,828.5Z" transform="translate(-1051.756 -610.036)" fill="#0e0226" fill-rule="evenodd"/>
        <path id="Trazado_99122" data-name="Trazado 99122" d="M1139.912,835.954l-.3-.88v-1.068c0-.4.168-1.6,1.33-1.6h4.454c1.031,0,6.615-2.839,10.905-6.329a.589.589,0,0,1,.753-.1c.451.259,1.818,1.353,1.958,1.467a.886.886,0,0,1,.074.749l-4.052,8.026S1143.343,837.755,1139.912,835.954Z" transform="translate(-1049.918 -610.025)" fill="#1a0f44" fill-rule="evenodd"/>
        <path id="Trazado_99123" data-name="Trazado 99123" d="M1139.581,835.942a.736.736,0,0,0-.261.461v.857a1.677,1.677,0,0,0,1.669,1.091h12.36a10.562,10.562,0,0,0,4.413-.962,25.584,25.584,0,0,1,3.183-1.165s.3-.1.3.406v.982c0,.245-.151.913.858.913h6.013c.457,0,.981-.261.981-1.2V834.92c0-.583-.353-1.044-.734-1.044h-4.624a12.9,12.9,0,0,0-5.895,1.611,15.771,15.771,0,0,1-7.125,1.474H1143.8C1142.58,836.96,1140.405,836.684,1139.581,835.942Z" transform="translate(-1049.887 -610.893)" fill="#0e0226" fill-rule="evenodd"/>
        <path id="Trazado_99124" data-name="Trazado 99124" d="M1087.886,634.052s-2.787,4.675-1.038,15.306,13.813,52,5.619,73.591a1.951,1.951,0,0,0,.9,2.3c1.408.816,21.307,4.269,35.856-1.928S1118.222,637.2,1087.886,634.052Z" transform="translate(-1044.126 -589.197)" fill="#868689" fill-rule="evenodd"/>
        <path id="Trazado_99125" data-name="Trazado 99125" d="M1130.081,807.064s3.259,1.979,8.772.783a2.91,2.91,0,0,0,1.717-1.975c.312-1.457,10.613-88.162,11.86-103.555s-8.156-24.791-22.564-34.671-2.349-1.539-3.466-2.172a131.439,131.439,0,0,1-7.766,21.73l-.033,6.519a5.325,5.325,0,0,0,.329,1.291c4.39,17.451,4.908,31.375,5.568,48.93.027.513-.258-13.177.06,1.533s3.651,57.011,3.859,58.675S1129.351,806.907,1130.081,807.064Z" transform="translate(-1047.637 -592.316)" fill="#1d272b" fill-rule="evenodd"/>
        <path id="Trazado_99126" data-name="Trazado 99126" d="M1090.943,650.083l4.164,6.758s17.645,30.311,20.091,34.628,12.9,3.7,12.9,3.7l-22.338-64.926a97.409,97.409,0,0,0-10.828-1.171c-3.027.064-4.97,4.7-4.97,4.7Z" transform="translate(-1044.528 -588.656)" fill="#344154" fill-rule="evenodd"/>
        <path id="Trazado_99127" data-name="Trazado 99127" d="M1087.886,634.052s-2.787,4.675-1.038,15.306c1.352,8.215,8.862,34.793,8.422,56.41l0,0c3.842-39.347-3.239-64.239-5.711-71.457C1089.007,634.2,1088.447,634.11,1087.886,634.052Z" transform="translate(-1044.126 -589.197)" fill="#868689" fill-rule="evenodd"/>
        <path id="Trazado_99128" data-name="Trazado 99128" d="M1156.529,807s3.027,1.693,8.539.5a2.91,2.91,0,0,0,1.716-1.975c.312-1.458,4.435-30.528,5.682-45.92s11.71-73.14-15.906-92.08-33.569,13.739-33.569,13.739,25.764,10.844,26.387,39.757,5.279,81.407,5.487,83.071S1155.8,806.84,1156.529,807Z" transform="translate(-1048.114 -592.189)" fill="#1d272b" fill-rule="evenodd"/>
        <path id="Trazado_99129" data-name="Trazado 99129" d="M1161.847,810.781a15.973,15.973,0,0,0,6.271-.212,2.909,2.909,0,0,0,1.716-1.975c.312-1.457,4.435-30.528,5.682-45.92.948-11.678,7.193-47.736-1.908-72.731-.125.088-14.341,10.05-22.522,24.025a45.206,45.206,0,0,1,1.342,10.121c.105,4.88.327,10.43.62,16.3,3.51-3.766,8.174-8.836,10.541-11.678,4.091-4.909,8.695-3.171,10.331-.818s-4.6,61.577-5.422,69.146C1167.922,802.363,1164.077,807.943,1161.847,810.781Z" transform="translate(-1051.164 -595.265)" fill="#354348" fill-rule="evenodd"/>
        <path id="Trazado_99130" data-name="Trazado 99130" d="M1079.436,614.328c.043-.005.164.506.672,1.362l-2.508,2.639a22.285,22.285,0,0,0,1.558,1.733,5.418,5.418,0,0,0-2.741,1.988s-2.691,8.29-1.909,9.094c-.028.034-.055.068-.084.1-4.847,5.722-7.822,3.828-8.427,3.314s-3.583-3.243-3.905-3.306-1.47,1.294-2.245.638a81.117,81.117,0,0,1-8.638-11.729c-4.1-6.47-1.785-13.921-1.785-13.921,9.99-8.11,18.291,7.164,19.3,4.6s3.87-2.8,5.46.044C1074.4,611.282,1079.378,613.9,1079.436,614.328Z" transform="translate(-1040.055 -585.917)" fill="#f3c6d4" fill-rule="evenodd"/>
        <path id="Trazado_99131" data-name="Trazado 99131" d="M1079.436,614.354c.043-.005.164.506.672,1.362l-2.507,2.638a22.275,22.275,0,0,0,1.558,1.733,6.237,6.237,0,0,0-.811.343,2.037,2.037,0,0,0-.254-.983c-.681-.785-2.038-2.471-2.038-2.471a1.509,1.509,0,0,1-2.257-1.212c-.358-2.1-1.969-4.143-3.658-3.81s-.719,2.529-.719,2.529l3.992,5.757-.664,6.853s-6.24,1.125-4.96-1.533-2-4.707-5.781-9-5.882-3.836-6.854-3.171c-.607.415-3.422,2.3-5.453,3.664a18.435,18.435,0,0,1-.814-7.912,49.394,49.394,0,0,1,8.552-5.057c6.12,1.346,10.562,8.615,11.28,6.784,1-2.563,3.871-2.8,5.46.045C1074.4,611.308,1079.378,613.929,1079.436,614.354Z" transform="translate(-1040.055 -585.943)" fill="#e98daf" fill-rule="evenodd"/>
        <path id="Trazado_99132" data-name="Trazado 99132" d="M1083.856,615.595s1.945.129,3.427.194,2.7,8.708,2.7,8.708l-2.525,3.837-.588.9-1.912,2.906-.181-.9s-2-1.55-3.26.194-4.413-2.929-4.413-2.929S1076.53,618.259,1083.856,615.595Z" transform="translate(-1043.13 -587.193)" fill="#f3c6d4" fill-rule="evenodd"/>
        <path id="Trazado_99133" data-name="Trazado 99133" d="M1084.166,615.595s1.945.129,3.427.194,2.7,8.708,2.7,8.708l-2.524,3.837-.588.9-1.911,2.906-.181-.9s-2-1.55-3.26.194a.925.925,0,0,1-1.214.281l.865-3.6s.681-6.63,0-7.416c-.415-.479-1.079-1.29-1.537-1.852A8.787,8.787,0,0,1,1084.166,615.595Z" transform="translate(-1043.439 -587.193)" fill="#e98daf" fill-rule="evenodd"/>
        <path id="Trazado_99134" data-name="Trazado 99134" d="M1064.184,612.113c-.005,0-4.566,2.228-8.175-4.621,0,0-4.675,4.955-7.721,6.194a1.974,1.974,0,0,1-.19.064l.19-.064a6.885,6.885,0,0,1-2.73-.583,9.744,9.744,0,0,1-5.565-4.891c-2.659-5.319.512-8.03,3.376-7.672,0,0,4.3-9.36,6.7-12.121s8.03-1.585,8.03-1.585-.818-2.4.154-2.967,6.238.479,8.285,6.581c0,0,4.092-.668,6.243,1.416s6.916,20.177,6.94,20.272c.1,1.154-.354,2.318-1.517,2.36a5.943,5.943,0,0,1-5.031-2.351s-1.513-5.4-4.174-4.584c0,0-2.262.021-1.2,3.823a11.8,11.8,0,0,0,2.172,2.745,21.64,21.64,0,0,1,7.085,8.966c2.39,5.585-2.66,9.115-4.047,10.752s-3.714,2.912-5.387,1.495-5.448-4.614-6.021-5.1-.7-1.017-.566-1.173c0,0,2.435-2.583,4.283-4.359s3.292-2.928,3.293-4.958-.047-3.631-1.91-5.708A8.87,8.87,0,0,0,1064.184,612.113Z" transform="translate(-1038.993 -583.734)" fill="#344154" fill-rule="evenodd"/>
        <path id="Trazado_99135" data-name="Trazado 99135" d="M1056.009,607.492s-4.675,4.955-7.721,6.194a1.974,1.974,0,0,1-.19.064l.19-.064a6.885,6.885,0,0,1-2.73-.583,9.744,9.744,0,0,1-5.565-4.891c-2.659-5.319.512-8.03,3.376-7.672,0,0,4.3-9.36,6.7-12.121s8.03-1.585,8.03-1.585-.818-2.4.154-2.967,6.238.479,8.285,6.581C1066.536,590.448,1066.552,596.545,1056.009,607.492Z" transform="translate(-1038.993 -583.734)" fill="#27313f" fill-rule="evenodd"/>
        <path id="Trazado_99136" data-name="Trazado 99136" d="M1039.429,607.009c-1.544-4.437,1.325-6.67,3.94-6.343,0,0,16.572,3.9,18.822-15.766a9.168,9.168,0,0,1,.763.512C1063.173,593.55,1060.746,608.606,1039.429,607.009Z" transform="translate(-1038.993 -583.86)" fill="#344154" fill-rule="evenodd"/>
        <path id="Trazado_99137" data-name="Trazado 99137" d="M1060.163,625.709h0a1.062,1.062,0,0,1,1.493.124l.891,1.055a1.062,1.062,0,0,1-.125,1.493h0a1.061,1.061,0,0,1-1.491-.125l-.892-1.055A1.061,1.061,0,0,1,1060.163,625.709Z" transform="translate(-1041.251 -588.264)" fill="#344154" fill-rule="evenodd"/>
        <path id="Trazado_99138" data-name="Trazado 99138" d="M1063.759,628.772a1.566,1.566,0,1,1-.184,2.206A1.565,1.565,0,0,1,1063.759,628.772Z" transform="translate(-1041.622 -588.583)" fill="#ed7792" fill-rule="evenodd"/>
        <path id="Trazado_99139" data-name="Trazado 99139" d="M1060.085,623.335a.32.32,0,1,0-.139-.626,3.982,3.982,0,0,0-2.8,2.293.321.321,0,0,0,.6.219A3.323,3.323,0,0,1,1060.085,623.335Z" transform="translate(-1040.962 -587.964)" fill="#344154" fill-rule="evenodd"/>
        <path id="Trazado_99140" data-name="Trazado 99140" d="M1093.743,699.615s-13.5,5.037-14.913,5.718-2.962-4.944-3.093-5.859.836-1.99,2.667-3.038,12.006-6.946,12.006-6.946Z" transform="translate(-1042.981 -595.216)" fill="#fff" fill-rule="evenodd"/>
        <path id="Trazado_99141" data-name="Trazado 99141" d="M1096.06,694.756c-4.938,1.854-13.5,5.086-14.714,5.674-1.726.832-3.616-6.037-3.778-7.155s1.021-2.429,3.257-3.709c1.264-.724,5.785-3.341,9.477-5.479a10.4,10.4,0,0,0,3.79-7.342c.495-5.052,2.233-28.225,2.233-28.225l13.526,6.016,2.4,3.537s-5.071,21.941-7.061,27.041S1100.438,693.107,1096.06,694.756Z" transform="translate(-1043.18 -590.768)" fill="#344154" fill-rule="evenodd"/>
        <path id="Trazado_99142" data-name="Trazado 99142" d="M1166.643,662.18s9.614,16.633,11.429,41.542a1.176,1.176,0,0,1-.806,1.253c-.963.41-9.014.023-18.475,11.637s-24.58,22.048-33.249,20.687c0,0-.937-.005-1.053-1.523s-1.932-69.662-29.781-94.288a7.955,7.955,0,0,1-2.6-5.994C1092.2,631.718,1135.734,616.273,1166.643,662.18Z" transform="translate(-1044.76 -588.752)" fill="#a4a4b4" fill-rule="evenodd"/>
        <path id="Trazado_99143" data-name="Trazado 99143" d="M1162.7,680.972l-2.016,6.752s-4.3.209-15.436-22.142c0,0-4.434-8.611-17.231-11.242l5.7-8.112s24.327,4.3,24.2,6.373S1162.7,680.972,1162.7,680.972Z" transform="translate(-1048.659 -590.519)" fill="#1d272b" fill-rule="evenodd"/>
        <path id="Trazado_99144" data-name="Trazado 99144" d="M1103,664.563l8.029-5.392a2.123,2.123,0,0,1,2.666.34l14.033,15.507a1.5,1.5,0,0,1-.269,2.311l-8.029,5.391a2.122,2.122,0,0,1-2.666-.339l-14.033-15.507A1.5,1.5,0,0,1,1103,664.563Z" transform="translate(-1045.868 -591.889)" fill="#344154" fill-rule="evenodd"/>
        <path id="Trazado_99145" data-name="Trazado 99145" d="M1101.693,665.441l8.03-5.392a2.12,2.12,0,0,1,2.665.34l14.034,15.506a1.5,1.5,0,0,1-.269,2.31l-8.03,5.391a2.124,2.124,0,0,1-2.667-.339l-14.032-15.506A1.5,1.5,0,0,1,1101.693,665.441Z" transform="translate(-1045.726 -591.984)" fill="#1a212a" fill-rule="evenodd"/>
        <path id="Trazado_99146" data-name="Trazado 99146" d="M1103.047,668.153l1.293-.868a.342.342,0,0,1,.429.055l3.474,3.837a.242.242,0,0,1-.043.373l-1.293.867a.341.341,0,0,1-.43-.054L1103,668.525A.241.241,0,0,1,1103.047,668.153Z" transform="translate(-1045.936 -592.799)" fill="#674f9b" fill-rule="evenodd"/>
        <path id="Trazado_99147" data-name="Trazado 99147" d="M1104.245,668.252a.852.852,0,0,1,1.1.154.647.647,0,0,1-.131.981.851.851,0,0,1-1.1-.155A.645.645,0,0,1,1104.245,668.252Z" transform="translate(-1046.046 -592.895)" fill="#d3ebfa" fill-rule="evenodd"/>
        <path id="Trazado_99148" data-name="Trazado 99148" d="M1105.736,669.921a.852.852,0,0,1,1.1.154.647.647,0,0,1-.132.981.852.852,0,0,1-1.1-.154A.647.647,0,0,1,1105.736,669.921Z" transform="translate(-1046.208 -593.077)" fill="#d3ebfa" fill-rule="evenodd"/>
        <path id="Trazado_99149" data-name="Trazado 99149" d="M1105.985,670.2a.484.484,0,0,1,.623.087.367.367,0,0,1-.075.556.484.484,0,0,1-.622-.088A.368.368,0,0,1,1105.985,670.2Z" transform="translate(-1046.249 -593.114)" fill="#fff" fill-rule="evenodd"/>
        <path id="Trazado_99150" data-name="Trazado 99150" d="M1104.475,668.511a.516.516,0,0,1,.662.093.391.391,0,0,1-.079.591.514.514,0,0,1-.661-.094A.39.39,0,0,1,1104.475,668.511Z" transform="translate(-1046.084 -592.93)" fill="#fff" fill-rule="evenodd"/>
        <path id="Trazado_99151" data-name="Trazado 99151" d="M1107.172,671.518a.512.512,0,0,1,.661.094.389.389,0,0,1-.078.59.514.514,0,0,1-.661-.094A.39.39,0,0,1,1107.172,671.518Z" transform="translate(-1046.377 -593.256)" fill="#d3ebfa" fill-rule="evenodd"/>
        <path id="Trazado_99152" data-name="Trazado 99152" d="M1092.2,609.16c-.163.095-3.5.959-4.06,1.211s-.739,1.44-.863,3.464-1.768,17.031-1.846,17.886a1.364,1.364,0,0,0,.968,1.622c.741.254,9.28,3.327,9.28,3.327Z" transform="translate(-1044.034 -586.494)" fill="#344154" fill-rule="evenodd"/>
        <path id="Trazado_99153" data-name="Trazado 99153" d="M1143.075,656.591s-12.9,8.55-14.388,9.347,2.426,5.7,3.139,6.389,2.257.53,4.325-.4,13.617-6.047,13.617-6.047Z" transform="translate(-1048.696 -591.644)" fill="#fff" fill-rule="evenodd"/>
        <path id="Trazado_99154" data-name="Trazado 99154" d="M1148.985,650.978s-16.874,11.184-18.816,12.226,3.173,7.45,4.1,8.356,2.952.693,5.655-.522,17.812-7.909,17.812-7.909Z" transform="translate(-1048.846 -591.035)" fill="#1a212a" fill-rule="evenodd"/>
        <path id="Trazado_99155" data-name="Trazado 99155" d="M1109.5,647.749a112.556,112.556,0,0,0,17.41,2.5c9.446.576,29.06,1.876,30.274,33.208,0,0,.147.166.653-.012s14.165-12.291,16.082-18.113-9.175-27.233-15.258-30-17.407-5.02-29.779-17.444-29.391-10.936-29.391-10.936l-3.7,13.711S1097.476,644.2,1109.5,647.749Z" transform="translate(-1045.16 -586.248)" fill="#a4a4b4" fill-rule="evenodd"/>
        <path id="Trazado_99156" data-name="Trazado 99156" d="M1156.125,667.417c1.9,4.4,3.163,10.036,3.444,17.283,0,0,.147.166.653-.013s14.165-12.291,16.082-18.113c.768-2.331-.55-7.161-2.8-12.292-.009,3.754-.5,7.911-2.378,9.983-2.632,2.905-10.3,3.24-15,3.151Zm5.932-30.244a6.318,6.318,0,0,0-1.011-.6c-6.084-2.767-17.407-5.021-29.779-17.444-.256-.258-.515-.507-.775-.752.092.207,7.987,18.092-11.743,22.058,0,0-1.278.256-.92,1.33S1154.1,632.106,1162.056,637.173Z" transform="translate(-1047.546 -587.495)" fill-rule="evenodd" fill="url(#linear-gradient)"/>
        <path id="Trazado_99157" data-name="Trazado 99157" d="M1100.374,606.911c-.459.016-.71.038-.71.038l-2.262,8.375,3.282,22.9,2.882,1.186s-.478-3.207-.223-3.437,6.292-3.2,7.059-3.606a1.092,1.092,0,0,0,.614-1.15C1110.426,629.984,1102.19,611.08,1100.374,606.911Z" transform="translate(-1045.335 -586.25)" fill="#1b7fc2" fill-rule="evenodd"/>
        <path id="Trazado_99158" data-name="Trazado 99158" d="M1093.009,606.169a1.886,1.886,0,0,0-1.012,1.214c-.236.9.1,19.647.186,21.736s8.5,12.762,10.584,15.233a10.819,10.819,0,0,0,6.311,3.3.122.122,0,0,0,.111-.1c.012-.1-3.279-1.456-4.28-2.977s-2.74-8.033-2.943-8.984c0,0,5.784-2.786,6.781-3.351s1.156-1.023.779-1.67-9.779-22.895-10.457-23.717S1095.927,605.825,1093.009,606.169Z" transform="translate(-1044.739 -586.152)" fill-rule="evenodd" fill="url(#linear-gradient)"/>
        <path id="Trazado_99159" data-name="Trazado 99159" d="M1061.587,587.344a.29.29,0,1,1-.334.473,11.29,11.29,0,0,0-8.271-1.333.289.289,0,0,1-.1-.569A11.909,11.909,0,0,1,1061.587,587.344Z" transform="translate(-1040.475 -583.945)" fill="#201049" fill-rule="evenodd"/>
        <path id="Trazado_99160" data-name="Trazado 99160" d="M1048,615.677a.289.289,0,0,1,.257.519c-.017.008-5.432,2.781-8.839-3.553a.29.29,0,0,1,.511-.275C1043.07,618.205,1047.989,615.684,1048,615.677Z" transform="translate(-1039.036 -586.826)" fill="#201049" fill-rule="evenodd"/>
        <path id="Trazado_99161" data-name="Trazado 99161" d="M1126.513,667.208c-.853-.3-2.629-1.271-3.1-1.506-.529-.265-4.958-1.257-4.958-1.257l2.38,2.645s-7.272,3.173-8.859,4.429-.595,1.851.794,1.851h1.388s-.265,2.38,1.521,2.446a9.543,9.543,0,0,0,1.916,0s.661,1.984,2.117,1.785a19.561,19.561,0,0,0,6.875-2.446,10.491,10.491,0,0,0,3.127-2.238C1128.756,671.837,1126.214,668.507,1126.513,667.208Z" transform="translate(-1046.83 -592.497)" fill="#f2bbc9" fill-rule="evenodd"/>
        <path id="Trazado_99162" data-name="Trazado 99162" d="M1126.513,667.5c-.242-.085-.555-.225-.893-.384-.151,2.619,1.879,4.7-1.354,6.429-3.559,1.9-5.891,1.412-9.942-2.455-.188-.128-.37-.249-.55-.365a13.717,13.717,0,0,0-1.8,1.088c-1.587,1.256-.595,1.851.794,1.851h1.388s-.265,2.38,1.521,2.446a9.525,9.525,0,0,0,1.916,0s.661,1.984,2.117,1.786a19.567,19.567,0,0,0,6.875-2.446,10.494,10.494,0,0,0,3.127-2.238C1128.756,672.127,1126.214,668.8,1126.513,667.5Z" transform="translate(-1046.83 -592.787)" fill="#e98daf" fill-rule="evenodd"/>
      </g>
      <g id="Grupo_53279" data-name="Grupo 53279" transform="translate(67.255 83.935)">
        <path id="Trazado_99163" data-name="Trazado 99163" d="M997.6,677.892H905.723c-4.577,0-8.322,3.132-8.322,6.959V821.42h108.523V684.852C1005.924,681.024,1002.179,677.892,997.6,677.892Z" transform="translate(-897.401 -677.892)" fill="#868695" fill-rule="evenodd"/>
        <path id="Trazado_99164" data-name="Trazado 99164" d="M1016.5,677.892H939.534c-3.836,0-6.974,2.623-6.974,5.83v137.7h90.917v-137.7C1023.477,680.516,1020.34,677.892,1016.5,677.892Z" transform="translate(-901.219 -677.892)" fill="#a4a4b4" fill-rule="evenodd"/>
        <path id="Trazado_99165" data-name="Trazado 99165" d="M1017.167,681.921H940.2a1.424,1.424,0,0,0-1.529,1.278V821.857H1018.7V683.2A1.424,1.424,0,0,0,1017.167,681.921Z" transform="translate(-901.882 -678.329)" fill="#fff" fill-rule="evenodd"/>
        <path id="Trazado_99166" data-name="Trazado 99166" d="M971.568,681.921h20.986a1.658,1.658,0,0,1,1.78,1.488v0a1.658,1.658,0,0,1-1.78,1.489H971.568a1.659,1.659,0,0,1-1.78-1.489v0A1.659,1.659,0,0,1,971.568,681.921Z" transform="translate(-905.261 -678.329)" fill="#1a212a" fill-rule="evenodd"/>
        <path id="Trazado_99167" data-name="Trazado 99167" d="M940.2,681.921h76.97a1.424,1.424,0,0,1,1.529,1.278v.21H938.668v-.21A1.424,1.424,0,0,1,940.2,681.921Z" transform="translate(-901.882 -678.329)" fill="#1a212a" fill-rule="evenodd"/>
        <path id="Trazado_99168" data-name="Trazado 99168" d="M971.568,800.846h20.986a1.658,1.658,0,0,1,1.78,1.488v0a1.659,1.659,0,0,1-1.78,1.489H971.568a1.659,1.659,0,0,1-1.78-1.489v0A1.659,1.659,0,0,1,971.568,800.846Z" transform="translate(-905.261 -691.242)" fill="#1a212a" fill-rule="evenodd"/>
        <path id="Trazado_99169" data-name="Trazado 99169" d="M940.2,800.846h76.97a1.424,1.424,0,0,1,1.529,1.277v.212H938.668v-.212A1.424,1.424,0,0,1,940.2,800.846Z" transform="translate(-901.882 -691.242)" fill="#1a212a" fill-rule="evenodd"/>
        <g id="Grupo_53271" data-name="Grupo 53271" transform="translate(36.786 25.981)">
          <rect id="Rectángulo_5035" data-name="Rectángulo 5035" width="18.243" height="28.666" transform="translate(0)" fill="#f9b532"/>
          <rect id="Rectángulo_5036" data-name="Rectángulo 5036" width="18.243" height="24.423" transform="translate(0 4.243)" fill="#f59f3a"/>
          <rect id="Rectángulo_5037" data-name="Rectángulo 5037" width="18.243" height="21.839" transform="translate(0 6.827)" fill="#fff"/>
          <rect id="Rectángulo_5038" data-name="Rectángulo 5038" width="18.243" height="21.839" transform="translate(0 6.827)" fill="#fff2d1"/>
          <path id="Trazado_99170" data-name="Trazado 99170" d="M956.912,712.63h-13.5a5.376,5.376,0,0,0-4.742,3.453V736.31h18.244Z" transform="translate(-938.668 -707.644)" fill="#fcc749" fill-rule="evenodd"/>
        </g>
        <g id="Grupo_53272" data-name="Grupo 53272" transform="translate(42.552 25.981)">
          <rect id="Rectángulo_5039" data-name="Rectángulo 5039" width="12.478" height="25.341" fill="#f18d3d"/>
          <rect id="Rectángulo_5040" data-name="Rectángulo 5040" width="12.478" height="21.099" transform="translate(0 4.243)" fill="#ee7e40"/>
          <rect id="Rectángulo_5041" data-name="Rectángulo 5041" width="12.478" height="18.514" transform="translate(0 6.827)" fill="#f2bcc2"/>
          <rect id="Rectángulo_5042" data-name="Rectángulo 5042" width="12.478" height="18.514" transform="translate(0 6.827)" fill="#f2b2a5"/>
          <rect id="Rectángulo_5043" data-name="Rectángulo 5043" width="12.478" height="20.355" transform="translate(0 4.986)" fill="#f39a4c"/>
        </g>
        <g id="Grupo_53273" data-name="Grupo 53273" transform="translate(47.282 25.981)">
          <path id="Trazado_99171" data-name="Trazado 99171" d="M982.226,707.037H954.344a3.913,3.913,0,0,0-3.9,3.9V735.7h31.784Z" transform="translate(-950.442 -707.037)" fill="#f9b532" fill-rule="evenodd"/>
          <path id="Trazado_99172" data-name="Trazado 99172" d="M982.49,711.8H956.776a3.913,3.913,0,0,0-3.9,3.9v20.521H982.49Z" transform="translate(-950.706 -707.554)" fill="#f59f3a" fill-rule="evenodd"/>
          <path id="Trazado_99173" data-name="Trazado 99173" d="M954.738,736.534V717.876a3.189,3.189,0,0,1,3.179-3.18h24.776v21.838Z" transform="translate(-950.909 -707.869)" fill="#fff" fill-rule="evenodd"/>
          <path id="Trazado_99174" data-name="Trazado 99174" d="M956.914,736.534l4.963-19.778a5.019,5.019,0,0,1,1.11-2.06h19.942v21.838Z" transform="translate(-951.145 -707.869)" fill="#fff2d1" fill-rule="evenodd"/>
          <path id="Trazado_99175" data-name="Trazado 99175" d="M983.254,712.63h-13.5a5.359,5.359,0,0,0-4.881,3.9l-4.965,19.778h23.346Z" transform="translate(-951.47 -707.644)" fill="#fcc749" fill-rule="evenodd"/>
        </g>
        <g id="Grupo_53274" data-name="Grupo 53274" transform="translate(66.588 25.981)">
          <rect id="Rectángulo_5044" data-name="Rectángulo 5044" width="12.478" height="25.341" fill="#f18d3d"/>
          <rect id="Rectángulo_5045" data-name="Rectángulo 5045" width="12.478" height="21.099" transform="translate(0 4.243)" fill="#ee7e40"/>
          <rect id="Rectángulo_5046" data-name="Rectángulo 5046" width="12.478" height="18.514" transform="translate(0 6.827)" fill="#f2bcc2"/>
          <rect id="Rectángulo_5047" data-name="Rectángulo 5047" width="12.478" height="18.514" transform="translate(0 6.827)" fill="#f2b2a5"/>
          <rect id="Rectángulo_5048" data-name="Rectángulo 5048" width="12.478" height="20.355" transform="translate(0 4.986)" fill="#f39a4c"/>
        </g>
        <g id="Grupo_53275" data-name="Grupo 53275" transform="translate(71.318 25.981)">
          <path id="Trazado_99176" data-name="Trazado 99176" d="M1009.191,707.037H981.308a3.914,3.914,0,0,0-3.9,3.9V735.7h31.785Z" transform="translate(-977.406 -707.037)" fill="#f9b532" fill-rule="evenodd"/>
          <path id="Trazado_99177" data-name="Trazado 99177" d="M1009.455,711.8H983.74a3.914,3.914,0,0,0-3.9,3.9v20.521h29.617Z" transform="translate(-977.67 -707.554)" fill="#f59f3a" fill-rule="evenodd"/>
          <path id="Trazado_99178" data-name="Trazado 99178" d="M981.7,736.534V717.876a3.189,3.189,0,0,1,3.18-3.18h24.776v21.838Z" transform="translate(-977.873 -707.869)" fill="#fff" fill-rule="evenodd"/>
          <path id="Trazado_99179" data-name="Trazado 99179" d="M983.878,736.534l4.964-19.778a5,5,0,0,1,1.109-2.06h19.943v21.838Z" transform="translate(-978.109 -707.869)" fill="#fff2d1" fill-rule="evenodd"/>
          <path id="Trazado_99180" data-name="Trazado 99180" d="M1010.219,712.63h-13.5a5.359,5.359,0,0,0-4.881,3.9l-4.964,19.778h23.346Z" transform="translate(-978.434 -707.644)" fill="#fcc749" fill-rule="evenodd"/>
        </g>
        <g id="Grupo_53276" data-name="Grupo 53276" transform="translate(90.625 25.981)">
          <rect id="Rectángulo_5049" data-name="Rectángulo 5049" width="12.478" height="25.341" fill="#f18d3d"/>
          <rect id="Rectángulo_5050" data-name="Rectángulo 5050" width="12.478" height="21.099" transform="translate(0 4.243)" fill="#ee7e40"/>
          <rect id="Rectángulo_5051" data-name="Rectángulo 5051" width="12.478" height="18.514" transform="translate(0 6.827)" fill="#f2bcc2"/>
          <rect id="Rectángulo_5052" data-name="Rectángulo 5052" width="12.478" height="18.514" transform="translate(0 6.827)" fill="#f2b2a5"/>
          <rect id="Rectángulo_5053" data-name="Rectángulo 5053" width="12.478" height="20.355" transform="translate(0 4.986)" fill="#f39a4c"/>
        </g>
        <g id="Grupo_53277" data-name="Grupo 53277" transform="translate(94.64 23.09)">
          <path id="Trazado_99181" data-name="Trazado 99181" d="M1007.472,750.26h47.116a3.914,3.914,0,0,0,3.9-3.9v-35.77a3.912,3.912,0,0,0-3.9-3.9h-1.916v-1.817a1.077,1.077,0,0,0-1.074-1.074h-14.235a1.077,1.077,0,0,0-1.073,1.074v1.817h-28.818a3.914,3.914,0,0,0-3.9,3.9v35.77A3.915,3.915,0,0,0,1007.472,750.26Z" transform="translate(-1003.569 -703.794)" fill="#f9b532" fill-rule="evenodd"/>
          <path id="Trazado_99182" data-name="Trazado 99182" d="M1007.736,750.776h47.116a3.914,3.914,0,0,0,3.9-3.9V711.853a3.868,3.868,0,0,0-1.734-.409H1055.1v-1.816a1.077,1.077,0,0,0-1.073-1.074H1039.8a1.077,1.077,0,0,0-1.074,1.074v1.816H1009.9a3.914,3.914,0,0,0-3.9,3.9v35.021A3.864,3.864,0,0,0,1007.736,750.776Z" transform="translate(-1003.833 -704.311)" fill="#f59f3a" fill-rule="evenodd"/>
          <rect id="Rectángulo_5054" data-name="Rectángulo 5054" width="36.132" height="36.747" rx="3.567" transform="translate(3.83 9.718)" fill="#fff"/>
          <path id="Trazado_99183" data-name="Trazado 99183" d="M1040.818,751.443h-29.773a3.189,3.189,0,0,1-3.179-3.18v-4l6.9-27.507a4.994,4.994,0,0,1,1.11-2.06h24.939a3.19,3.19,0,0,1,3.18,3.18v30.388A3.19,3.19,0,0,1,1040.818,751.443Z" transform="translate(-1004.036 -704.978)" fill="#fff2d1" fill-rule="evenodd"/>
          <path id="Trazado_99184" data-name="Trazado 99184" d="M1012.846,750.81h43.5a5.36,5.36,0,0,0,4.881-3.9l7.727-30.785a2.95,2.95,0,0,0-2.924-3.9h-2.286l.486-1.933a1.077,1.077,0,0,0-1.068-1.425h-15.878a1.959,1.959,0,0,0-1.783,1.425l-.484,1.933h-22.489a5.361,5.361,0,0,0-4.882,3.9l-7.726,30.785A2.951,2.951,0,0,0,1012.846,750.81Z" transform="translate(-1004.246 -704.344)" fill="#fcc749" fill-rule="evenodd"/>
          <path id="Trazado_99185" data-name="Trazado 99185" d="M1059.166,717.824l-6.174,24.6a5.362,5.362,0,0,1-4.882,3.9h-38.042l-.145.578a2.951,2.951,0,0,0,2.923,3.9h43.5a5.36,5.36,0,0,0,4.881-3.9l7.726-30.785a2.95,2.95,0,0,0-2.923-3.9h-2.286l.486-1.933a1.077,1.077,0,0,0-1.068-1.425h-2.918a3.21,3.21,0,0,1,.472,2.779Z" transform="translate(-1004.246 -704.344)" fill="#f9b532" fill-rule="evenodd"/>
        </g>
        <rect id="Rectángulo_5055" data-name="Rectángulo 5055" width="80.027" height="33.849" transform="translate(90.429 40.417)" fill="#e6e6e6"/>
        <g id="Grupo_53278" data-name="Grupo 53278" transform="translate(36.786 74.266)">
          <path id="Trazado_99186" data-name="Trazado 99186" d="M971.568,761.2h20.986a1.659,1.659,0,0,1,1.78,1.489v0a1.658,1.658,0,0,1-1.78,1.488H971.568a1.658,1.658,0,0,1-1.78-1.488v0A1.659,1.659,0,0,1,971.568,761.2Z" transform="translate(-942.047 -761.203)" fill="#1a212a" fill-rule="evenodd"/>
          <path id="Trazado_99187" data-name="Trazado 99187" d="M940.2,761.2h76.97a1.424,1.424,0,0,1,1.529,1.278v.212H938.668v-.212A1.425,1.425,0,0,1,940.2,761.2Z" transform="translate(-938.668 -761.203)" fill="#1a212a" fill-rule="evenodd"/>
        </g>
        <path id="Trazado_99188" data-name="Trazado 99188" d="M1000.373,721.562h76.97a1.424,1.424,0,0,1,1.528,1.277v.211h-27.74a1.66,1.66,0,0,1-1.781,1.489h-20.985a1.659,1.659,0,0,1-1.779-1.489H998.844v-.211A1.425,1.425,0,0,1,1000.373,721.562Z" transform="translate(-908.416 -682.633)" fill="#1a212a" fill-rule="evenodd"/>
        <path id="Trazado_99189" data-name="Trazado 99189" d="M992.31,757.081V723.232H938.668v35.127a1.425,1.425,0,0,1,1.529-1.278H992.31Z" transform="translate(-901.882 -682.815)" fill="#868695" fill-rule="evenodd"/>
      </g>
      <path id="Trazado_99199" data-name="Trazado 99199" d="M1074.242,700.378c-.49.361-.756.6-.756.6s-4.3-.391-5.6,1.107-4.167,5.145-5.4,5.73.129,1.629,2.734.717a24.9,24.9,0,0,0,5.535-3.126,7.2,7.2,0,0,0,4.817-.629,20.627,20.627,0,0,1-1.319-4.119A1.166,1.166,0,0,1,1074.242,700.378Z" transform="translate(-848.02 -596.398)" fill="#f2bbc9" fill-rule="evenodd"/>
    </g>
    <g id="Grupo_84670" data-name="Grupo 84670" transform="translate(1029.596 1600.796)">
      <g id="Grupo_79085" data-name="Grupo 79085" transform="translate(0 0)">
        <rect id="Rectángulo_30234" data-name="Rectángulo 30234" width="131.061" height="126.187" rx="8.41" fill="#e6e6e6"/>
      </g>
      <g id="Grupo_79114" data-name="Grupo 79114" transform="translate(9.159 13.33)">
        <g id="Grupo_79108" data-name="Grupo 79108">
          <g id="Grupo_79086" data-name="Grupo 79086" transform="translate(0 73.116)">
            <rect id="Rectángulo_30235" data-name="Rectángulo 30235" width="4.301" height="1.239" fill="#263238"/>
          </g>
          <g id="Grupo_79087" data-name="Grupo 79087" transform="translate(9.731 79.742)">
            <rect id="Rectángulo_30236" data-name="Rectángulo 30236" width="5.501" height="1.239" fill="#263238"/>
          </g>
          <g id="Grupo_79088" data-name="Grupo 79088" transform="translate(28.88 79.742)">
            <rect id="Rectángulo_30237" data-name="Rectángulo 30237" width="5.501" height="1.239" fill="#263238"/>
          </g>
          <g id="Grupo_79089" data-name="Grupo 79089" transform="translate(48.029 79.742)">
            <rect id="Rectángulo_30238" data-name="Rectángulo 30238" width="5.501" height="1.239" fill="#263238"/>
          </g>
          <g id="Grupo_79090" data-name="Grupo 79090" transform="translate(67.178 79.742)">
            <rect id="Rectángulo_30239" data-name="Rectángulo 30239" width="5.501" height="1.239" fill="#263238"/>
          </g>
          <g id="Grupo_79091" data-name="Grupo 79091" transform="translate(86.327 79.742)">
            <rect id="Rectángulo_30240" data-name="Rectángulo 30240" width="5.501" height="1.239" fill="#263238"/>
          </g>
          <g id="Grupo_79092" data-name="Grupo 79092" transform="translate(105.475 79.742)">
            <rect id="Rectángulo_30241" data-name="Rectángulo 30241" width="5.501" height="1.239" fill="#263238"/>
          </g>
          <g id="Grupo_79093" data-name="Grupo 79093" transform="translate(0 56.561)">
            <rect id="Rectángulo_30242" data-name="Rectángulo 30242" width="4.301" height="1.239" fill="#263238"/>
          </g>
          <g id="Grupo_79094" data-name="Grupo 79094" transform="translate(0 25.403)">
            <rect id="Rectángulo_30243" data-name="Rectángulo 30243" width="4.301" height="1.239" fill="#263238"/>
          </g>
          <g id="Grupo_79095" data-name="Grupo 79095" transform="translate(0 9.745)">
            <rect id="Rectángulo_30244" data-name="Rectángulo 30244" width="4.301" height="1.239" fill="#263238"/>
          </g>
          <g id="Grupo_79096" data-name="Grupo 79096" transform="translate(0.218 40.982)">
            <rect id="Rectángulo_30245" data-name="Rectángulo 30245" width="4.301" height="1.239" fill="#263238"/>
          </g>
          <g id="Grupo_79098" data-name="Grupo 79098" transform="translate(6.344)">
            <g id="Grupo_79097" data-name="Grupo 79097">
              <path id="Trazado_138854" data-name="Trazado 138854" d="M473.563,341.084s-.157.014-.461.021l-1.354.02-5.205.038-19.141.065-63.151.059-14.965,0h-.2v-.2c.027-21.117.052-39.7.069-53.021.026-6.642.046-11.972.06-15.657.015-1.823.027-3.238.035-4.215.008-.469.013-.831.018-1.091.006-.245.019-.37.019-.37s.013.125.019.37c0,.261.01.622.018,1.091.008.976.02,2.392.034,4.215.015,3.685.035,9.015.061,15.657.017,13.321.042,31.9.069,53.021l-.2-.2,14.965,0,63.151.06,19.141.065,5.205.038,1.354.02C473.406,341.07,473.563,341.084,473.563,341.084Z" transform="translate(-369.084 -266.729)" fill="#263238"/>
            </g>
          </g>
          <g id="Grupo_79100" data-name="Grupo 79100" transform="translate(10.706 41.398)">
            <g id="Grupo_79099" data-name="Grupo 79099">
              <path id="Trazado_138855" data-name="Trazado 138855" d="M475.983,319.807c0,.113-22.684.2-50.662.2s-50.666-.092-50.666-.2,22.68-.2,50.666-.2S475.983,319.694,475.983,319.807Z" transform="translate(-374.655 -319.603)" fill="#263238"/>
            </g>
          </g>
          <g id="Grupo_79102" data-name="Grupo 79102" transform="translate(10.706 25.819)">
            <g id="Grupo_79101" data-name="Grupo 79101">
              <path id="Trazado_138856" data-name="Trazado 138856" d="M475.983,299.909c0,.113-22.684.2-50.662.2s-50.666-.091-50.666-.2,22.68-.2,50.666-.2S475.983,299.8,475.983,299.909Z" transform="translate(-374.655 -299.705)" fill="#263238"/>
            </g>
          </g>
          <g id="Grupo_79104" data-name="Grupo 79104" transform="translate(10.706 10.161)">
            <g id="Grupo_79103" data-name="Grupo 79103">
              <path id="Trazado_138857" data-name="Trazado 138857" d="M475.983,279.911c0,.113-22.684.2-50.662.2s-50.666-.092-50.666-.2,22.68-.2,50.666-.2S475.983,279.8,475.983,279.911Z" transform="translate(-374.655 -279.707)" fill="#263238"/>
            </g>
          </g>
          <g id="Grupo_79106" data-name="Grupo 79106" transform="translate(10.706 56.976)">
            <g id="Grupo_79105" data-name="Grupo 79105">
              <path id="Trazado_138858" data-name="Trazado 138858" d="M475.983,339.7c0,.112-22.684.2-50.662.2s-50.666-.092-50.666-.2,22.68-.2,50.666-.2S475.983,339.592,475.983,339.7Z" transform="translate(-374.655 -339.5)" fill="#263238"/>
            </g>
          </g>
          <g id="Grupo_79107" data-name="Grupo 79107" transform="translate(11.75 1.149)">
            <path id="Trazado_138859" data-name="Trazado 138859" d="M375.989,338.05V324.228l8.615-13.374,5.846,4.486,12-18.639,7.077,4.983,9.846-17.195,8,6.517,12-22.81,12.923,25.494,10.461-12.756,12.307-3.522V338.05Z" transform="translate(-375.989 -268.196)" fill="#868695"/>
          </g>
        </g>
        <g id="Grupo_79110" data-name="Grupo 79110" transform="translate(11.75 5.344)">
          <g id="Grupo_79109" data-name="Grupo 79109">
            <path id="Trazado_138860" data-name="Trazado 138860" d="M476.272,273.668a1.07,1.07,0,0,1-.217.016l-.641.016-2.5.029-9.444.053.09-.044-10.119,13.227-.049.063h-.08l-25.337.035.168-.095L417.494,304.7c-3.628,6.032-7.141,11.87-10.459,17.383l-.153.254-.174-.24-13.724-18.872.274-.009-12.52,19.507c-1.5,2.317-2.678,4.137-3.492,5.392l-.926,1.408c-.211.316-.331.472-.331.472s.091-.174.288-.5.505-.817.885-1.434l3.415-5.441,12.4-19.583.131-.206.144.2,13.773,18.837-.327.014,10.446-17.39,10.665-17.726.058-.1h.11l25.337.035-.128.063L463.383,273.6l.035-.045h.055l9.444.053,2.5.029.641.015A1.241,1.241,0,0,1,476.272,273.668Z" transform="translate(-375.989 -273.554)" fill="#263238"/>
          </g>
        </g>
        <g id="Grupo_79111" data-name="Grupo 79111" transform="translate(31.089 38.413)">
          <path id="Trazado_138861" data-name="Trazado 138861" d="M402.633,316.726a.973.973,0,1,1-.972-.936A.955.955,0,0,1,402.633,316.726Z" transform="translate(-400.689 -315.79)" fill="#263238"/>
        </g>
        <g id="Grupo_79112" data-name="Grupo 79112" transform="translate(60.314 21.801)">
          <path id="Trazado_138862" data-name="Trazado 138862" d="M439.96,295.51a.973.973,0,1,1-.973-.936A.955.955,0,0,1,439.96,295.51Z" transform="translate(-438.016 -294.574)" fill="#263238"/>
        </g>
        <g id="Grupo_79113" data-name="Grupo 79113" transform="translate(83.034 17.72)">
          <path id="Trazado_138863" data-name="Trazado 138863" d="M468.978,290.3a.973.973,0,1,1-.972-.936A.954.954,0,0,1,468.978,290.3Z" transform="translate(-467.034 -289.361)" fill="#263238"/>
        </g>
      </g>
      <g id="Grupo_79115" data-name="Grupo 79115" transform="translate(18.89 103.582)">
        <ellipse id="Elipse_4180" data-name="Elipse 4180" cx="6.286" cy="6.052" rx="6.286" ry="6.052" fill="#fff"/>
      </g>
      <g id="Grupo_79116" data-name="Grupo 79116" transform="translate(40.789 105.581)">
        <rect id="Rectángulo_30246" data-name="Rectángulo 30246" width="73.845" height="2.265" fill="#fff"/>
      </g>
      <g id="Grupo_79117" data-name="Grupo 79117" transform="translate(40.789 111.238)">
        <rect id="Rectángulo_30247" data-name="Rectángulo 30247" width="30.661" height="2.265" fill="#fff"/>
      </g>
    </g>
    <path id="Trazado_142639" data-name="Trazado 142639" d="M939.674,587.326h64.28a8.514,8.514,0,0,1,8.489,8.489V655.7a.948.948,0,0,1-1.617.67L996.36,641.9H939.674a8.514,8.514,0,0,1-8.49-8.489v-37.6A8.514,8.514,0,0,1,939.674,587.326Z" transform="translate(220.249 951.379)" fill="#a4a4b4" fill-rule="evenodd"/>
    <g id="Grupo_89125" data-name="Grupo 89125" transform="translate(1155.73 1535.431)">
      <path id="Trazado_99090" data-name="Trazado 99090" d="M944.493,583.653h64.281a8.514,8.514,0,0,1,8.488,8.49v59.883a.948.948,0,0,1-1.618.67l-14.465-14.466H944.493A8.514,8.514,0,0,1,936,629.741v-37.6A8.515,8.515,0,0,1,944.493,583.653Z" transform="translate(-936.004 -583.653)" fill="#f2e9e4" fill-rule="evenodd"/>
      <g id="Grupo_53266" data-name="Grupo 53266" transform="translate(12.498 6.951)">
        <path id="Trazado_99091" data-name="Trazado 99091" d="M952.787,628.841h33.345a2.771,2.771,0,0,0,2.762-2.762V600.762A2.771,2.771,0,0,0,986.132,598h-1.355v-1.285a.762.762,0,0,0-.761-.76H973.942a.763.763,0,0,0-.76.76V598H952.787a2.77,2.77,0,0,0-2.763,2.762v25.317A2.77,2.77,0,0,0,952.787,628.841Z" transform="translate(-950.024 -591.94)" fill="#f59f3a" fill-rule="evenodd"/>
        <path id="Rectángulo_5025" data-name="Rectángulo 5025" d="M2.525,0H23.047a2.525,2.525,0,0,1,2.525,2.525V23.483a2.524,2.524,0,0,1-2.524,2.524H2.524A2.524,2.524,0,0,1,0,23.483V2.525A2.525,2.525,0,0,1,2.525,0Z" transform="translate(2.711 10.894)" fill="#fff"/>
        <path id="Trazado_99092" data-name="Trazado 99092" d="M956.634,629.23h30.789a4.865,4.865,0,0,0,3.992-2.762l9.706-21.787c.676-1.519-.014-2.762-1.532-2.762H997.97l.609-1.367c.248-.555,0-1.009-.558-1.009H986.783a1.777,1.777,0,0,0-1.458,1.009l-.609,1.367H968.8a4.866,4.866,0,0,0-3.993,2.762L955.1,626.469C954.426,627.988,955.115,629.23,956.634,629.23Z" transform="translate(-950.547 -592.33)" fill="#fcc749" fill-rule="evenodd"/>
        <g id="Grupo_53265" data-name="Grupo 53265" transform="translate(18.564 12.929)">
          <g id="Grupo_53264" data-name="Grupo 53264">
            <path id="Trazado_99093" data-name="Trazado 99093" d="M973.99,609.1a10.726,10.726,0,1,1-3.141,7.584,10.694,10.694,0,0,1,3.141-7.584Zm7.584-1.605a9.188,9.188,0,1,0,6.5,2.691A9.162,9.162,0,0,0,981.575,607.491Z" transform="translate(-970.849 -605.955)" fill="#344154" fill-rule="evenodd"/>
            <path id="Trazado_99094" data-name="Trazado 99094" d="M990.144,626.335a.768.768,0,0,1,1.085-1.086l2.539,2.538a.768.768,0,0,1-1.087,1.087Z" transform="translate(-972.92 -608.026)" fill="#344154" fill-rule="evenodd"/>
            <path id="Trazado_99095" data-name="Trazado 99095" d="M993.08,630.359a1.536,1.536,0,0,1,2.172-2.173l8.181,8.182a1.536,1.536,0,0,1-2.172,2.172Z" transform="translate(-973.214 -608.32)" fill="#344154" fill-rule="evenodd"/>
          </g>
          <path id="Trazado_99096" data-name="Trazado 99096" d="M987.145,611.936a.507.507,0,0,1,.718-.718,8.487,8.487,0,0,1,2.49,6.018h0a8.542,8.542,0,0,1-.331,2.357.508.508,0,0,1-.976-.278,7.475,7.475,0,0,0,.293-2.079h0a7.465,7.465,0,0,0-2.2-5.3Zm1.01,9.351a.506.506,0,1,1,.851.547,8.275,8.275,0,0,1-.533.738,8.466,8.466,0,0,1-.611.681.507.507,0,0,1-.718-.717,7.476,7.476,0,0,0,.539-.6,7.3,7.3,0,0,0,.471-.652Zm-11.611,1.25a.507.507,0,0,1-.718.717,8.5,8.5,0,0,1-2.493-6.017,8.539,8.539,0,0,1,.57-3.06.5.5,0,0,1,.943.361,7.483,7.483,0,0,0,1.7,8Zm-.786-9.681a.505.505,0,1,1-.82-.59c.135-.188.276-.369.423-.541l.024-.027c.153-.178.3-.339.441-.48a.507.507,0,0,1,.718.718q-.224.224-.391.418l-.023.028C976,612.539,975.872,612.7,975.758,612.855Z" transform="translate(-971.119 -606.51)" fill="#fff" fill-rule="evenodd"/>
        </g>
        <path id="Trazado_99097" data-name="Trazado 99097" d="M989.158,591.451H1013.4a.564.564,0,0,1,.563.563h0a.564.564,0,0,1-.563.563H989.158a.564.564,0,0,1-.563-.563h0A.564.564,0,0,1,989.158,591.451Z" transform="translate(-954.212 -591.451)" fill="#efeef8" fill-rule="evenodd"/>
        <path id="Trazado_99098" data-name="Trazado 99098" d="M989.158,595.41H1013.4a.564.564,0,0,1,.563.562h0a.564.564,0,0,1-.563.562H989.158a.564.564,0,0,1-.563-.562h0A.564.564,0,0,1,989.158,595.41Z" transform="translate(-954.212 -591.881)" fill="#efeef8" fill-rule="evenodd"/>
        <path id="Trazado_99099" data-name="Trazado 99099" d="M1011.218,599.77h4.578a.564.564,0,0,1,.562.563h0a.564.564,0,0,1-.562.562h-4.578a.564.564,0,0,1-.562-.562h0A.564.564,0,0,1,1011.218,599.77Z" transform="translate(-956.608 -592.354)" fill="#efeef8" fill-rule="evenodd"/>
        <path id="Trazado_99100" data-name="Trazado 99100" d="M1011.218,604.245h4.578a.564.564,0,0,1,.562.562h0a.564.564,0,0,1-.562.563h-4.578a.564.564,0,0,1-.562-.563h0A.564.564,0,0,1,1011.218,604.245Z" transform="translate(-956.608 -592.84)" fill="#efeef8" fill-rule="evenodd"/>
        <path id="Trazado_99101" data-name="Trazado 99101" d="M1011.218,608.72h4.578a.565.565,0,0,1,.562.563h0a.564.564,0,0,1-.562.563h-4.578a.564.564,0,0,1-.562-.562h0A.565.565,0,0,1,1011.218,608.72Z" transform="translate(-956.608 -593.326)" fill="#efeef8" fill-rule="evenodd"/>
        <path id="Trazado_99102" data-name="Trazado 99102" d="M1011.218,613.2h4.578a.565.565,0,0,1,.562.563h0a.563.563,0,0,1-.562.562h-4.578a.563.563,0,0,1-.562-.562h0A.565.565,0,0,1,1011.218,613.2Z" transform="translate(-956.608 -593.812)" fill="#efeef8" fill-rule="evenodd"/>
        <path id="Trazado_99103" data-name="Trazado 99103" d="M1011.218,617.671h4.578a.564.564,0,0,1,.562.562h0a.563.563,0,0,1-.562.562h-4.578a.563.563,0,0,1-.562-.562h0A.564.564,0,0,1,1011.218,617.671Z" transform="translate(-956.608 -594.298)" fill="#efeef8" fill-rule="evenodd"/>
        <path id="Trazado_99104" data-name="Trazado 99104" d="M1011.218,622.146h4.578a.564.564,0,0,1,.562.563h0a.564.564,0,0,1-.562.563h-4.578a.564.564,0,0,1-.562-.562h0A.564.564,0,0,1,1011.218,622.146Z" transform="translate(-956.608 -594.784)" fill="#efeef8" fill-rule="evenodd"/>
        <rect id="Rectángulo_5026" data-name="Rectángulo 5026" width="12.736" height="1.125" rx="0.563" transform="translate(47.015 31.351)" fill="#efeef8"/>
        <path id="Trazado_99105" data-name="Trazado 99105" d="M1004.619,622.146h3.427a.564.564,0,0,1,.563.563h0a.564.564,0,0,1-.563.563h-3.427a.564.564,0,0,1-.562-.562h0A.564.564,0,0,1,1004.619,622.146Z" transform="translate(-955.891 -594.784)" fill="#efeef8" fill-rule="evenodd"/>
        <path id="Trazado_99106" data-name="Trazado 99106" d="M1006.341,617.671h1.727a.564.564,0,0,1,.562.562h0a.563.563,0,0,1-.562.562h-1.727a.563.563,0,0,1-.562-.562h0A.564.564,0,0,1,1006.341,617.671Z" transform="translate(-956.078 -594.298)" fill="#efeef8" fill-rule="evenodd"/>
        <path id="Trazado_99107" data-name="Trazado 99107" d="M1007.692,613.2h1.263a.565.565,0,0,1,.563.563h0a.564.564,0,0,1-.563.562h-1.263a.563.563,0,0,1-.563-.562h0A.564.564,0,0,1,1007.692,613.2Z" transform="translate(-956.224 -593.812)" fill="#efeef8" fill-rule="evenodd"/>
      </g>
    </g>
  </g>
</svg>
