<svg xmlns="http://www.w3.org/2000/svg" xmlns:xlink="http://www.w3.org/1999/xlink" width="126.927" height="126.927" viewBox="0 0 126.927 126.927">
  <defs>
    <radialGradient id="radial-gradient" cx="0.076" cy="0.019" r="1.465" gradientTransform="translate(0.001)" gradientUnits="objectBoundingBox">
      <stop offset="0" stop-color="#f6f6f7"/>
      <stop offset="0.477" stop-color="#f9f9fa"/>
      <stop offset="0.715" stop-color="#fff"/>
    </radialGradient>
  </defs>
  <g id="icon1" transform="translate(0)">
    <g id="Grupo_42274" data-name="Grupo 42274" transform="translate(0)">
      <g id="Grupo_18423" data-name="Grupo 18423" transform="translate(0 0)">
        <g id="Grupo_18421" data-name="Grupo 18421">
          <g id="Grupo_18420" data-name="Grupo 18420">
            <g id="Grupo_18419" data-name="Grupo 18419">
              <path id="Trazado_40936" data-name="Trazado 40936" d="M321.55,2209.183a63.464,63.464,0,1,1-63.463-63.462A63.463,63.463,0,0,1,321.55,2209.183Z" transform="translate(-194.623 -2145.721)" fill="#fff"/>
            </g>
          </g>
        </g>
        <path id="Trazado_40937" data-name="Trazado 40937" d="M320.783,2208.346a63.462,63.462,0,1,0-63.463,63.465A63.213,63.213,0,0,0,320.783,2208.346Z" transform="translate(-193.856 -2144.885)" fill="url(#radial-gradient)"/>
        <path id="Trazado_40938" data-name="Trazado 40938" d="M298.935,2201.548a48.442,48.442,0,1,0-48.441,48.441A48.262,48.262,0,0,0,298.935,2201.548Z" transform="translate(-186.837 -2137.874)" fill="none" stroke="#008f85" stroke-miterlimit="10" stroke-width="4"/>
        <g id="Grupo_18422" data-name="Grupo 18422" transform="translate(11.243 35.63)">
          <path id="Trazado_40939" data-name="Trazado 40939" d="M309.812,2164.488a63.471,63.471,0,0,1-109.267,63.2,63.27,63.27,0,0,0,109.267-63.2Z" transform="translate(-200.545 -2164.488)" fill="#eceef0"/>
        </g>
      </g>
    </g>
    <g id="Fc9VRk.tif" transform="translate(41.045 32.536)">
      <g id="Grupo_129409" data-name="Grupo 129409">
        <path id="Trazado_166474" data-name="Trazado 166474" d="M802.331-270.278h21.4a3.6,3.6,0,0,1,2.676,2.461,11.881,11.881,0,0,1,.221,1.169,2.542,2.542,0,0,0,.254.038c2.766.129,3.926,1.351,3.926,4.137q0,6.792,0,13.584c0,2.491-1.229,3.8-3.693,3.906-.407.018-.557.162-.548.56.017.688,0,1.377,0,2.066a1.338,1.338,0,0,1-.8,1.423,1.323,1.323,0,0,1-1.56-.459c-1-1.064-2-2.133-3.035-3.157a1.569,1.569,0,0,0-.964-.4c-1.312-.045-2.627-.019-3.941-.019H814.96c.058.156.072.215.1.267a4.353,4.353,0,0,1-2.967,6.627.647.647,0,0,0-.378.179,2.082,2.082,0,0,1-2.434.9c-.763,2.817-1.5,4.485-3.248,5.65a3.147,3.147,0,0,0-1.382,3.373c.006.062-.016.136.01.185.063.12.12.286.225.335a38.651,38.651,0,0,0,4.264,1.9c2.037.657,4.15,1.072,6.224,1.618a4.092,4.092,0,0,1,3.106,3.728q.328,5.717.635,11.435c.1,1.8-.7,2.613-2.514,2.613H783.38c-1.8,0-2.253-.319-2.826-2v-.25c.038-.245.1-.489.111-.735.21-3.666.405-7.332.623-11a4.072,4.072,0,0,1,3.1-3.791c1.005-.27,2.011-.541,3.029-.757a23.638,23.638,0,0,0,7.288-2.679.968.968,0,0,0,.372-.665c.014-.137-.238-.375-.419-.447a1.813,1.813,0,0,1-1.239-1.224,1.064,1.064,0,0,0-.71-.76c-2.488-1.19-4.145-2.925-3.854-5.934.046-.479-.945-1.57-1.462-1.681a4.376,4.376,0,0,1-2.484-7.212,1.346,1.346,0,0,0,.278-.773c.034-1,0-2,.024-3A14.537,14.537,0,0,1,795.76-262.7c1.19-.336,2.438-.466,3.721-.7,0-1.064-.005-2.187,0-3.31a3.284,3.284,0,0,1,1.255-2.743A9.879,9.879,0,0,1,802.331-270.278Zm-6.941,44.1c-.28.13-.5.237-.723.336a33.071,33.071,0,0,1-3.6,1.554c-2.085.637-4.224,1.093-6.335,1.645a2.824,2.824,0,0,0-2.135,2.748c-.036,1.062-.1,2.123-.158,3.183-.152,2.682-.321,5.362-.458,8.045-.048.932.232,1.191,1.16,1.2,1.209.006,2.419,0,3.628,0,.867,0,.867,0,.867-.9q0-2.253,0-4.506a.7.7,0,0,1,.708-.79c.442-.015.664.3.725.716a3.848,3.848,0,0,1,.019.562c0,1.377.034,2.755-.014,4.13-.023.645.183.8.811.8,6.4-.023,12.8-.014,19.2-.014,1.583,0,1.583,0,1.583-1.557,0-1.272-.008-2.545.011-3.817.007-.47.244-.834.753-.814.464.018.681.353.694.811,0,.167,0,.334,0,.5,0,1.419.02,2.837-.01,4.255-.011.508.167.645.652.632,1.146-.03,2.293-.01,3.44-.01,1.473,0,1.657-.195,1.576-1.666,0-.042,0-.083-.006-.125-.2-3.534-.422-7.067-.608-10.6A2.892,2.892,0,0,0,815-222.65c-.823-.221-1.657-.4-2.479-.632-2.237-.617-4.571-.938-6.615-2.158-.473-.282-.99-.491-1.537-.757-.537,1.1-1.038,2.129-1.535,3.155a1.629,1.629,0,0,1-1.624,1.033c-.854-.024-1.712-.049-2.564.006a1.8,1.8,0,0,1-1.963-1.29C796.292-224.25,795.839-225.183,795.39-226.178Zm9.661-20.139c1-.907,2.084-1.823,3.083-2.824a2.614,2.614,0,0,1,1.993-.838c2.377.017,4.755.006,7.132.006,1.9,0,3.8-.011,5.693,0a1.965,1.965,0,0,0,1.879-.886,3.117,3.117,0,0,0,.384-1.466c.039-4.756.041-9.513.05-14.27A2.171,2.171,0,0,0,822.872-269q-9.7,0-19.394,0c-1.936,0-2.706.755-2.7,2.676.014,4.673.073,9.346.034,14.019a2.261,2.261,0,0,0,2.314,2.355c1.36-.037,1.9.59,1.923,1.968C805.059-247.363,805.051-246.742,805.051-246.317Zm2.909,1.37a1.791,1.791,0,0,1-.257-.1c-.725-.388-1.346-.5-1.961.291-.188.241-.851.242-1.25.151a1.1,1.1,0,0,1-.8-1.143c-.015-.667,0-1.335,0-2,0-.826,0-.817-.85-.853a2.553,2.553,0,0,1-.855-.14.62.62,0,0,0-.8.229,9.631,9.631,0,0,1-7.447,3.172c-.739,0-1.478-.064-2.275-.1,0,.264,0,.49,0,.716,0,2.023.029,4.047-.013,6.069a8.168,8.168,0,0,0,2.1,5.661c.421.49.827,1.037,1.614.69a.494.494,0,0,1,.246.016c.9.146,1.8.289,2.7.444a1.679,1.679,0,0,1,1.4,1.109.677.677,0,0,0,.883.511c.206-.029.409-.077.615-.105a7.98,7.98,0,0,0,6.9-6.826C808.16-239.719,807.96-242.32,807.96-244.947Zm-.486-1.5a12.32,12.32,0,0,0,1.4.183q5.726.021,11.451,0a2.16,2.16,0,0,1,1.712.73c.891.966,1.811,1.906,2.722,2.853.12.124.258.231.5.444,0-.832-.018-1.517,0-2.2.04-1.252.622-1.8,1.882-1.817a2.125,2.125,0,0,0,2.352-2.311q.014-7.231,0-14.463a2.148,2.148,0,0,0-2.872-2.172v.718q0,6.073,0,12.146a3.529,3.529,0,0,1-3.767,3.743q-6.383,0-12.766.007a1.112,1.112,0,0,0-.694.149C808.782-247.855,808.211-247.221,807.474-246.449ZM796.328-228.1a7.179,7.179,0,0,0,.26,1.132c.445,1.053.937,2.086,1.39,3.136a.656.656,0,0,0,.7.474c.75-.025,1.5.029,2.25-.028a1.019,1.019,0,0,0,.705-.437c.428-.759.725-1.594,1.175-2.337a5.271,5.271,0,0,0,.523-3.251c-1.113.177-2.207.374-3.309.513a1.478,1.478,0,0,0-.981.408,1.874,1.874,0,0,1-1.67.505C797.089-228.026,796.8-228.048,796.328-228.1Zm-8.71-18.679c-.171-8.186,3.662-12.977,11.8-14.187v-1c-7.361-.53-13.915,7.333-12.9,15.474Zm1.362,4.429c0,1.145-.02,2.292.018,3.436a.809.809,0,0,0,.386.6c.14.064.47-.1.6-.26a1.1,1.1,0,0,0,.148-.648c.014-1.083.006-2.166.006-3.249s.008-2.166-.005-3.249c0-.4-.15-.8-.6-.81-.481-.008-.559.393-.556.806C788.984-244.6,788.978-243.475,788.979-242.35Zm21.578.73h0c0-.873-.02-1.747.008-2.619.015-.466-.154-.617-.612-.613s-.567.186-.563.6c.015,1.663.005,3.326.008,4.989,0,.144-.026.331.05.424a5.518,5.518,0,0,0,.618.566c.162-.223.451-.437.465-.669C810.59-239.831,810.557-240.727,810.557-241.621ZM790.26-237c-.655,1.994.614,4.552,2.457,5A10.106,10.106,0,0,1,790.26-237Z" transform="translate(-780.554 270.278)" fill="#1d272b"/>
        <path id="Trazado_166475" data-name="Trazado 166475" d="M929.977,133.928c.186.277.526.561.511.827a.973.973,0,0,1-.648.657.585.585,0,0,1-.7-.664c.04-.294.355-.55.547-.824Z" transform="translate(-910.496 -83.211)" fill="#1d272b"/>
        <path id="Trazado_166476" data-name="Trazado 166476" d="M930.572,167.841c-.278.184-.544.492-.837.521a.581.581,0,0,1-.646-.71.975.975,0,0,1,.674-.626c.266-.008.543.336.815.526Q930.575,167.7,930.572,167.841Z" transform="translate(-910.437 -112.159)" fill="#1d272b"/>
        <path id="Trazado_166477" data-name="Trazado 166477" d="M930.593,199.765c-.277.183-.542.491-.835.52a.582.582,0,0,1-.646-.708.972.972,0,0,1,.671-.627c.267-.006.543.337.815.529Z" transform="translate(-910.457 -140.077)" fill="#1d272b"/>
        <path id="Trazado_166478" data-name="Trazado 166478" d="M1022.18-193.55a2.057,2.057,0,0,1-2.038-2.015,2.053,2.053,0,0,1,2.077-2.038,2.055,2.055,0,0,1,2.007,2.045A2.056,2.056,0,0,1,1022.18-193.55Zm-.749-1.818c.187.138.436.456.731.506.448.075.741-.247.743-.72a.668.668,0,0,0-.7-.729C1021.74-196.325,1021.493-196.038,1021.431-195.368Z" transform="translate(-990.081 206.722)" fill="#1d272b"/>
        <path id="Trazado_166479" data-name="Trazado 166479" d="M973.949-195.6a2.026,2.026,0,0,1-2.009,2.044,2.022,2.022,0,0,1-2.042-2.01,2.026,2.026,0,0,1,2.009-2.044A2.023,2.023,0,0,1,973.949-195.6Zm-2.021-.734c-.45.059-.742.294-.738.761a.679.679,0,0,0,.7.723.684.684,0,0,0,.769-.713C972.672-196.025,972.378-196.266,971.927-196.33Z" transform="translate(-946.141 206.724)" fill="#1d272b"/>
        <path id="Trazado_166480" data-name="Trazado 166480" d="M1072.64-197.607a2.022,2.022,0,0,1,2.057,1.995,2.025,2.025,0,0,1-1.993,2.059,2.023,2.023,0,0,1-2.058-1.995A2.027,2.027,0,0,1,1072.64-197.607Zm.014,2.777c.451-.052.747-.284.751-.75a.68.68,0,0,0-.687-.735.683.683,0,0,0-.78.7C1071.915-195.146,1072.206-194.9,1072.654-194.829Z" transform="translate(-1034.249 206.725)" fill="#1d272b"/>
        <path id="Trazado_166481" data-name="Trazado 166481" d="M910-.049A4.114,4.114,0,0,1,906.706-1.7c-.279-.356-.36-.727.043-1.036.379-.29.687-.108.968.21a2.786,2.786,0,0,0,4.552.027c.3-.34.615-.546,1.011-.219s.276.694,0,1.044A4.031,4.031,0,0,1,910-.049Z" transform="translate(-890.673 36.429)" fill="#1d272b"/>
        <path id="Trazado_166482" data-name="Trazado 166482" d="M903.217-47.834c.171.234.441.448.491.705a.526.526,0,0,1-.618.646.915.915,0,0,1-.6-.617c-.031-.216.276-.482.434-.726Z" transform="translate(-887.194 75.743)" fill="#1d272b"/>
        <path id="Trazado_166483" data-name="Trazado 166483" d="M957.607-45.4c-.274-.44-.529-.677-.562-.942a.5.5,0,0,1,.659-.584.908.908,0,0,1,.552.646C958.262-46.054,957.931-45.816,957.607-45.4Z" transform="translate(-934.896 74.974)" fill="#1d272b"/>
      </g>
    </g>
  </g>
</svg>
