<svg xmlns="http://www.w3.org/2000/svg" xmlns:xlink="http://www.w3.org/1999/xlink" width="126.927" height="126.927" viewBox="0 0 126.927 126.927">
  <defs>
    <radialGradient id="radial-gradient" cx="0.076" cy="0.019" r="1.465" gradientTransform="translate(0.001)" gradientUnits="objectBoundingBox">
      <stop offset="0" stop-color="#f6f6f7"/>
      <stop offset="0.477" stop-color="#f9f9fa"/>
      <stop offset="0.715" stop-color="#fff"/>
    </radialGradient>
  </defs>
  <g id="icon4" transform="translate(0)">
    <g id="Grupo_42274" data-name="Grupo 42274" transform="translate(0)">
      <g id="Grupo_18423" data-name="Grupo 18423" transform="translate(0 0)">
        <g id="Grupo_18421" data-name="Grupo 18421">
          <g id="Grupo_18420" data-name="Grupo 18420">
            <g id="Grupo_18419" data-name="Grupo 18419">
              <path id="Trazado_40936" data-name="Trazado 40936" d="M321.55,2209.183a63.464,63.464,0,1,1-63.463-63.462A63.463,63.463,0,0,1,321.55,2209.183Z" transform="translate(-194.623 -2145.721)" fill="#fff"/>
            </g>
          </g>
        </g>
        <path id="Trazado_40937" data-name="Trazado 40937" d="M320.783,2208.346a63.462,63.462,0,1,0-63.463,63.465A63.213,63.213,0,0,0,320.783,2208.346Z" transform="translate(-193.856 -2144.885)" fill="url(#radial-gradient)"/>
        <path id="Trazado_40938" data-name="Trazado 40938" d="M298.935,2201.548a48.442,48.442,0,1,0-48.441,48.441A48.262,48.262,0,0,0,298.935,2201.548Z" transform="translate(-186.837 -2137.874)" fill="none" stroke="#008f85" stroke-miterlimit="10" stroke-width="4"/>
        <g id="Grupo_18422" data-name="Grupo 18422" transform="translate(11.243 35.63)">
          <path id="Trazado_40939" data-name="Trazado 40939" d="M309.812,2164.488a63.471,63.471,0,0,1-109.267,63.2,63.27,63.27,0,0,0,109.267-63.2Z" transform="translate(-200.545 -2164.488)" fill="#eceef0"/>
        </g>
      </g>
    </g>
    <g id="V4aVxr" transform="translate(42.439 33.822)">
      <g id="Grupo_129412" data-name="Grupo 129412">
        <path id="Trazado_166491" data-name="Trazado 166491" d="M1581.273,362.9c2.061.731,2.867,2.156,2.86,4.364-.053,16.528-.01,33.057-.068,49.585a8.666,8.666,0,0,1-.966,3.068,1.483,1.483,0,0,1-.984.7,1.4,1.4,0,0,1-1.171-.283,1.159,1.159,0,0,1,.214-1.13c1.125-.647,1.2-1.636,1.2-2.754q-.019-20.544-.005-41.089c0-.366,0-.731,0-1.2h-42.045a11.577,11.577,0,0,1-.04,2.235c-.083.422-.571.764-.876,1.141-.276-.36-.785-.717-.791-1.082-.057-3.435-.072-6.871-.007-10.306.034-1.781,1.3-2.65,2.8-3.247Zm-40.95,9.207h41.938a2.933,2.933,0,0,0,.079-.407q.01-2.09.013-4.181c0-2.334-.424-2.764-2.752-2.768q-11.85-.018-23.7-.026c-4.415,0-8.829.027-13.244.016-1.2,0-2.227.307-2.306,1.65C1540.24,368.282,1540.323,370.18,1540.323,372.111Z" transform="translate(-1538.527 -362.904)" fill="#1d272b"/>
        <path id="Trazado_166492" data-name="Trazado 166492" d="M1653.122,545.268l-2.592-3.847c-.694.386-1.391.817-2.126,1.172-1.3.63-2.417.058-2.445-1.377q-.105-5.354-.006-10.711c.028-1.534,1.174-2.149,2.513-1.4q4.6,2.589,9.14,5.286a1.556,1.556,0,0,1,.05,2.868c-.652.432-1.343.805-2.144,1.281.5.875.995,1.7,1.456,2.534.858,1.56.691,2.174-.813,3.071-.635.379-1.278.746-1.917,1.119Zm-5.274-4.446c.522-.285.845-.455,1.162-.635,1.947-1.1,2.432-.976,3.546.925.434.742.887,1.473,1.352,2.243l1.63-.982c-2.105-4.26-2.105-4.26.83-6.619l-8.521-4.913Z" transform="translate(-1615.952 -482.543)" fill="#1d272b"/>
        <path id="Trazado_166493" data-name="Trazado 166493" d="M1582.392,443.6c3.994,0,7.988-.007,11.983,0,1.926.005,2.58.67,2.6,2.591.006.511.02,1.022,0,1.532-.049,1.486-.755,2.292-2.216,2.3q-12.4.036-24.8-.006a2.025,2.025,0,0,1-2.246-2.262c-.068-3.014-.39-4.35,3.947-4.183C1575.235,443.712,1578.816,443.6,1582.392,443.6Zm-12.738,1.834v2.635h25.406v-2.635Z" transform="translate(-1559.538 -421.075)" fill="#1d272b"/>
        <path id="Trazado_166494" data-name="Trazado 166494" d="M1538.5,442.071q0-8.779,0-17.557a3.06,3.06,0,0,1,.035-1.1,4.279,4.279,0,0,1,.776-.965c.311.323.856.623.892.974.115,1.15.047,2.318.047,3.479q0,16.373,0,32.747c0,1.948.533,2.5,2.455,2.5q10.8.005,21.608,0a2.972,2.972,0,0,1,1.1.031,5.069,5.069,0,0,1,1.054.826,6.7,6.7,0,0,1-.982.9c-.2.126-.544.034-.823.034q-10.943,0-21.887,0c-3.1,0-4.295-1.216-4.293-4.3q0-8.779,0-17.558Z" transform="translate(-1538.462 -405.846)" fill="#1d272b"/>
        <path id="Trazado_166495" data-name="Trazado 166495" d="M1582.4,487.285c-4.042,0-8.084.007-12.126,0-1.831,0-2.491-.677-2.533-2.524-.01-.464-.016-.929-.008-1.393.031-1.8.738-2.524,2.557-2.528,5.2-.011,10.407,0,15.611,0,2.834,0,5.668-.011,8.5,0,1.9.011,2.58.709,2.6,2.618.007.511.016,1.022,0,1.532-.058,1.575-.753,2.278-2.339,2.285C1590.582,487.3,1586.493,487.284,1582.4,487.285Zm-12.747-1.846h25.44v-2.714h-25.44Z" transform="translate(-1559.573 -447.957)" fill="#1d272b"/>
        <path id="Trazado_166496" data-name="Trazado 166496" d="M1606.871,520.658c.65,0,1.3-.02,1.951,0a3.163,3.163,0,0,1,0,6.326q-2.019.055-4.04,0a3.17,3.17,0,1,1,0-6.337c.7-.019,1.394,0,2.09,0Zm-.05,4.512a6.271,6.271,0,0,0,2.059-.052c.526-.194,1.229-.845,1.223-1.285a1.817,1.817,0,0,0-1.179-1.338,18.392,18.392,0,0,0-4.418.008,1.818,1.818,0,0,0-1.147,1.37c0,.435.731,1.074,1.262,1.247A7.344,7.344,0,0,0,1606.821,525.17Z" transform="translate(-1583.925 -476.669)" fill="#1d272b"/>
        <path id="Trazado_166497" data-name="Trazado 166497" d="M1595.617,415.782q4.033,0,8.066,0c.669,0,1.489-.007,1.363.883-.049.345-.913.812-1.41.818-5.377.061-10.755.044-16.133.041-.684,0-1.568.122-1.544-.895s.916-.841,1.591-.844C1590.239,415.777,1592.928,415.781,1595.617,415.782Z" transform="translate(-1572.718 -401.036)" fill="#1d272b"/>
        <path id="Trazado_166498" data-name="Trazado 166498" d="M1584.528,375.724a2.769,2.769,0,0,1-2.87,2.757,2.8,2.8,0,0,1,.219-5.589A2.77,2.77,0,0,1,1584.528,375.724Zm-1.361-.071c-.661-.437-1.065-.912-1.4-.868a.9.9,0,0,0,.037,1.8C1582.141,376.611,1582.524,376.119,1583.167,375.653Z" transform="translate(-1567.679 -370.106)" fill="#1d272b"/>
        <path id="Trazado_166499" data-name="Trazado 166499" d="M1605.558,375.691a2.728,2.728,0,0,1,2.81-2.8,2.8,2.8,0,0,1-.135,5.589A2.71,2.71,0,0,1,1605.558,375.691Zm2.817-1.4c-.5.636-1.016,1-.994,1.337.023.359.549.686.855,1.027.339-.3.892-.571.955-.925C1609.25,375.4,1608.79,374.976,1608.375,374.291Z" transform="translate(-1586.853 -370.106)" fill="#1d272b"/>
        <path id="Trazado_166500" data-name="Trazado 166500" d="M1558.265,375.62a2.909,2.909,0,0,1-2.69,2.849,2.8,2.8,0,1,1-.108-5.6A2.913,2.913,0,0,1,1558.265,375.62Zm-1.433.041c-.668-.447-1.071-.926-1.392-.877-.365.056-.658.584-.983.906.33.319.633.847,1,.894C1555.778,376.626,1556.17,376.132,1556.832,375.661Z" transform="translate(-1548.711 -370.095)" fill="#1d272b"/>
      </g>
    </g>
  </g>
</svg>
