<svg xmlns="http://www.w3.org/2000/svg" width="144.48" height="144.424" viewBox="0 0 144.48 144.424">
  <g id="img14" transform="translate(-1944.981 -206.379)">
    <g id="Grupo_129414" data-name="Grupo 129414" transform="translate(1944.981 206.379)">
      <path id="Trazado_166507" data-name="Trazado 166507" d="M2089.24,350.8H1982.308V290.364h-37.2c0-6.4-.352-12.482.115-18.5.354-4.555,3.471-7.523,7.855-8.912,5.036-1.6,10.1-3.108,16.068-4.938-4.092-2.467-4.973-6.929-9.483-8.469-2.156-.737-4.787-3.814-4.938-5.99-.466-6.672-.988-13.7.588-20.085,4.336-17.552,26.513-22.911,39-9.8a6.678,6.678,0,0,0,5.467,2.2c20.7-.064,41.392,0,62.088-.09a6.939,6.939,0,0,1,5.479,2.31c6.729,6.885,13.621,13.611,20.351,20.5a5.9,5.9,0,0,1,1.705,3.646q.125,53.622.046,107.244A11.015,11.015,0,0,1,2089.24,350.8Zm-27.626-130.268H2000.18c.227,7.4.652,14.528.576,21.645a7.74,7.74,0,0,1-5.55,7.564c-4.413,1.325-5.333,5.68-9.133,8.293,5.885,1.815,10.927,3.345,15.953,4.928,4.847,1.527,7.7,5.025,8.066,9.907.428,5.691.1,11.439.1,17.485h-23.148v55.949h97.8V243.517h-23.23Zm-112.1,64.945h9.605v-8.81h4.417v8.806H1991.8v-8.855h4.557v8.831h9.245v-8.533c0-7.086-1.073-8.3-7.882-10.582-2.456-.823-3.495-.18-4.612,1.905-2.59,4.834-5.409,9.547-8.316,14.625l-7.249-9.555-7.311,9.521c-3.026-5.284-5.791-10.174-8.635-15.018-.459-.782-1.2-1.83-1.936-1.946-4.049-.64-9.7,3.32-10.064,7.339S1949.517,281.316,1949.517,285.48Zm9.435-52.435a16.125,16.125,0,0,1,2.746-.7c5.379-.339,10.5-1.4,14.937-4.745a1.877,1.877,0,0,1,1.772-.036c5.172,4.268,11.585,4.241,17.7,5.246.974-12.291-7.19-21.926-18.564-21.924S1957.8,220.714,1958.952,233.045Zm6.935,4.147c-.31,5.968-1.007,12.464,5.567,16.458a11,11,0,0,0,12.779-.411c5.972-4.185,5.21-10.385,4.885-16.065-3.737-1.431-7.1-2.755-10.5-3.987a3.285,3.285,0,0,0-2.07-.078C1973.057,234.378,1969.6,235.756,1965.887,237.192Zm100.458-13.579v15.368h14.947a13.216,13.216,0,0,0-.923-1.25C2075.875,233.195,2071.371,228.669,2066.345,223.613Zm-101.4,40.693,5.831,10.19,3.692-4.867C1970.389,262.406,1970.27,262.336,1964.94,264.307Zm25.179-.007c-5.312-1.986-5.409-1.927-9.552,5.319l3.71,4.9Zm-16.824-4.355,4.289,5.564,4.062-5.564Zm20.63-14.976c3.135-2.593,3.132-4.691,0-7.163ZM1961,237.321c-2.933,3.671-2.8,5.5,0,7.365Z" transform="translate(-1944.981 -206.379)" fill="#1d272b"/>
      <path id="Trazado_166508" data-name="Trazado 166508" d="M2088.368,341.5l2.562-2.028,2.469,3.39-1.582,2.178c6.671,9.647,6.848,19.415.041,29.349l1.916,2.762-3.484,2.4-2.024-1.567c-9.8,6.848-19.549,6.838-29.427-.025l-2.514,2.022-2.67-3.239,1.68-2.238c-6.792-9.707-6.942-19.567.031-29.465l-1.955-2.31c.53-.579.955-1.068,1.407-1.529s.946-.909,1.576-1.511l2.314,1.7C2071.694,334.776,2077.112,334.769,2088.368,341.5Zm-29.83,29.14,11.552-11.407c-1.816-1.707-3.844-3.421-5.638-5.354-1.766-1.9-3.3-4.026-5.058-6.215C2053.529,355.838,2053.542,363.969,2058.539,370.644Zm4.145,4.032c6.324,5.265,17.127,5.1,21.661-.169l-10.8-11.13Zm21.93-29.646c-6.149-5.469-18.152-5.265-21.536-.29l10.516,11.136Zm3.809,25.823c5.191-6.771,5.174-15.835.1-21.94l-10.915,10.87Z" transform="translate(-1980.297 -250.039)"/>
      <path id="Trazado_166509" data-name="Trazado 166509" d="M2090.694,266.457l2.505-1.9,3.073,3.262c-2.759,1.649-2.192,3.472-1.156,5.875,5.266,12.211-1.492,26.74-14.156,30.865-12.934,4.214-26.919-3.524-29.992-16.593a23.287,23.287,0,0,1,37.73-23.256C2089.289,265.209,2089.861,265.728,2090.694,266.457Zm-3.486,3.3c-7.359-7.619-18.212-8.151-25.991-1.329a18.7,18.7,0,0,0,23.146,29.289c7.634-5.315,10.249-15.942,5.58-23.642l-18.077,18.509-11.184-11.22,3.251-3.109,6.955,7.82Z" transform="translate(-1980.343 -224.078)" fill="#008f85"/>
      <path id="Trazado_166510" data-name="Trazado 166510" d="M2134.6,336.269a6.853,6.853,0,1,1,.054-13.706,6.853,6.853,0,0,1-.054,13.706Zm.2-3.535c.967-1.564,2.08-2.57,1.959-3.395-.124-.843-1.516-2.148-2.247-2.081a3.14,3.14,0,0,0-2.117,2.279C2132.36,330.368,2133.618,331.255,2134.8,332.734Z" transform="translate(-2006.325 -245.38)"/>
      <path id="Trazado_166511" data-name="Trazado 166511" d="M2134.9,284.616v-3.905h4.063v3.905Z" transform="translate(-2008.734 -231.331)" fill="#008f85"/>
      <path id="Trazado_166512" data-name="Trazado 166512" d="M2139.09,355.024H2135v-4.133h4.089Z" transform="translate(-2008.768 -254.889)" fill="#1d272b"/>
      <path id="Trazado_166513" data-name="Trazado 166513" d="M2138.989,369.152h-3.954v-4.145h3.954Z" transform="translate(-2008.779 -259.628)" fill="#1d272b"/>
      <path id="Trazado_166514" data-name="Trazado 166514" d="M2139.107,378.625v4.449h-4.076v-4.188Z" transform="translate(-2008.778 -264.199)" fill="#1d272b"/>
      <path id="Trazado_166515" data-name="Trazado 166515" d="M2135.028,298.719v-4.067h4.066v4.067Z" transform="translate(-2008.777 -236.011)" fill="#008f85"/>
      <path id="Trazado_166516" data-name="Trazado 166516" d="M2139.048,312.811H2135v-3.946h4.052Z" transform="translate(-2008.766 -240.782)" fill="#008f85"/>
    </g>
  </g>
</svg>
