<svg xmlns="http://www.w3.org/2000/svg" width="157.525" height="139.026" viewBox="0 0 157.525 139.026">
  <g id="img17" transform="translate(-2505.577 -175.962)">
    <g id="Grupo_129417" data-name="Grupo 129417" transform="translate(2505.577 175.962)">
      <path id="Trazado_166540" data-name="Trazado 166540" d="M2785.008,561c-2.541-1.108-3.106-2.022-2.5-4.778.86-3.884,1.35-7.968,2.939-11.549,3.509-7.906,10.005-12.324,18.616-12.792,7.821-.425,5.7-.891,10.857,4.137,1.137,1.108,2.241,2.25,3.468,3.485,2.071-2.071,4.118-4.058,6.092-6.114a5.186,5.186,0,0,1,3.957-1.659c3.923-.041,7.781.156,11.445,1.767,7.48,3.289,11.834,9.04,13.421,16.971.382,1.908.679,3.832,1.017,5.748.491,2.783.021,3.675-2.52,4.783Zm62.754-6.465a48.839,48.839,0,0,0-1.608-6.324c-2.9-7.26-9.222-10.544-16.748-10.174a2.484,2.484,0,0,0-1.4.767c-2.348,2.293-4.638,4.645-6.981,6.943-1.782,1.747-3.443,1.747-5.227.014a61.354,61.354,0,0,1-5.079-5.139c-1.848-2.281-3.96-2.795-6.831-2.5-7.6.771-14.232,6.972-14.532,16.416Z" transform="translate(-2696.972 -421.977)" fill="#1d272b"/>
      <path id="Trazado_166541" data-name="Trazado 166541" d="M2505.577,556.878c.613-2.839,1.141-5.7,1.853-8.515a22.008,22.008,0,0,1,20.633-16.378c6.931-.1,5.2-.719,9.9,3.919,1.239,1.222,2.416,2.506,3.716,3.859,2.144-2.149,4.191-4.143,6.169-6.2a5.184,5.184,0,0,1,3.962-1.642c3.922-.042,7.775.165,11.436,1.776,7.477,3.29,11.819,9.044,13.4,16.97.381,1.906.679,3.83,1.016,5.745.492,2.784.038,3.646-2.52,4.779h-66.8l-2.771-2.462Zm65.551-2.135a53.243,53.243,0,0,0-1.668-6.433c-2.57-6.487-8.22-10.048-15.577-10.146a3.611,3.611,0,0,0-2.962,1.187c-2.076,2.2-4.25,4.306-6.4,6.432-1.972,1.948-3.579,1.945-5.556-.012-2.26-2.237-4.482-4.51-6.763-6.725a2.664,2.664,0,0,0-1.528-.819,17.219,17.219,0,0,0-10.946,2.834c-4.706,3.329-6.652,8.049-7.1,13.682Z" transform="translate(-2505.577 -422.159)" fill="#1d272b"/>
      <path id="Trazado_166542" data-name="Trazado 166542" d="M2505.577,618.894l2.771,2.462h-2.771Z" transform="translate(-2505.577 -482.329)" fill="#1d272b"/>
      <path id="Trazado_166543" data-name="Trazado 166543" d="M2597.2,224.953a3.642,3.642,0,0,0-3.988,1.115q-5.384,5.6-11,10.972a5.222,5.222,0,0,1-3.04,1.42c-1.828.095-2.883-1.393-2.9-3.609-.027-3.277-.007-6.554-.007-10.076h-1.855q-20.007,0-40.014,0c-3.547,0-4.562-1.019-4.563-4.582q0-19.845,0-39.69c0-3.559,1-4.54,4.6-4.54H2604.3c3.592,0,4.553.967,4.554,4.57,0,4.816,0,9.632,0,14.671h1.883q21.393,0,42.784.013a7.059,7.059,0,0,1,2.561.329c1.712.685,1.872,2.25,1.87,3.857q-.014,12.845,0,25.691c0,1.384.015,2.769,0,4.153-.039,2.922-1.086,3.979-4.013,3.983q-14.313.018-28.625,0H2623.2c0,1.932,0,3.749,0,5.566s.114,3.7-2,4.55c-2.036.817-3.263-.526-4.513-1.783-2.386-2.4-4.825-4.751-7.159-7.2a3.4,3.4,0,0,0-2.837-1.139c-1.947.074-3.9.053-5.847.009-2.4-.055-3.534-1.2-3.63-3.616-.03-.768-.006-1.538-.006-2.307S2597.2,225.786,2597.2,224.953Zm5.293-6.511V182.383h-66.207v36.058h1.965q19.93,0,39.86,0c3.427,0,4.473,1.06,4.479,4.515,0,1.5,0,2.994,0,4.907,2.8-2.806,5.294-5.233,7.7-7.738a5.213,5.213,0,0,1,4.1-1.7C2597.06,218.48,2599.722,218.442,2602.5,218.442Zm49.1-16.872h-42.738v1.792c0,5.841.01,11.682,0,17.523-.007,2.641-1.18,3.8-3.845,3.892-.445.015-.889.055-1.369.086v2.126c1.622,0,3.156.085,4.677-.021a5.328,5.328,0,0,1,4.613,1.936c1.17,1.3,2.468,2.494,3.9,3.927.033-.631.054-.884.058-1.137.058-3.868.9-4.7,4.718-4.7h29.988Z" transform="translate(-2522.354 -175.962)" fill="#1d272b"/>
      <path id="Trazado_166544" data-name="Trazado 166544" d="M2587.365,378.967a52.413,52.413,0,0,1,6.133.32c6.015,1,10.023,6.243,9.691,12.668q-.468,9.056-1.205,18.1a14.641,14.641,0,0,1-29.206-.375c-.372-5.727-.74-11.454-1.152-17.178-.557-7.748,4.586-13.37,12.352-13.447,1.128-.011,2.256,0,3.384,0Zm-9,20.852c.293,3.589.422,7.025.89,10.413a8.236,8.236,0,0,0,16.274.045c.508-3.952.672-7.95.907-11.933a1.592,1.592,0,0,0-.849-1.118,44.428,44.428,0,0,0-4.372-1.825,2.179,2.179,0,0,0-1.478.135c-2.084.948-4.087,2.092-6.212,2.928A43.887,43.887,0,0,1,2578.369,399.819Zm-.592-6.57c6-.242,10.93-3.79,11.336-7.946-1.993,0-3.985-.091-5.966.024a5.033,5.033,0,0,0-4.8,3.444A22.425,22.425,0,0,0,2577.776,393.249Zm18.736-2.35.552-.241-1.242-3.441-.466.079-1.006,2.7Z" transform="translate(-2551.233 -316.377)" fill="#1d272b"/>
      <path id="Trazado_166545" data-name="Trazado 166545" d="M2864,378.944a50.249,50.249,0,0,1,6.13.346c6.02,1.053,9.961,6.31,9.609,12.737q-.493,8.979-1.2,17.945a14.643,14.643,0,0,1-29.21-.243c-.388-5.777-.763-11.555-1.161-17.331-.53-7.679,4.6-13.269,12.286-13.359,1.179-.014,2.359,0,3.538,0Zm-9,20.872c.187,3.133.36,6.145.553,9.156a12.252,12.252,0,0,0,.233,1.36,8.365,8.365,0,0,0,8.253,6.866,8.154,8.154,0,0,0,8.04-6.892c.491-3.955.676-7.95.9-11.933.022-.389-.524-.983-.95-1.192a36.219,36.219,0,0,0-4.228-1.769,2.4,2.4,0,0,0-1.6.179c-1.852.846-3.61,1.918-5.5,2.644C2858.9,398.922,2856.978,399.281,2855,399.816Zm-.375-6.589c5.776-.28,10.706-3.843,11.02-7.951-1.941,0-3.879-.053-5.814.015a5.46,5.46,0,0,0-4.415,2.387C2854.209,389.357,2854.355,391.225,2854.624,393.227Zm18.6-2.344.4-.28-1.293-3.433-.43.105-1.023,2.752Z" transform="translate(-2742.518 -316.361)" fill="#1d272b"/>
      <path id="Trazado_166546" data-name="Trazado 166546" d="M2599.224,271.08h-21.392c-.359,0-.719.007-1.077,0-2.444-.06-3.919-1.286-3.877-3.219.041-1.9,1.473-3.1,3.839-3.1q22.392-.021,44.784,0a6.264,6.264,0,0,1,1.665.232,3.047,3.047,0,0,1,2.212,2.981,3,3,0,0,1-2.322,2.89,9.812,9.812,0,0,1-2.132.206Q2610.074,271.092,2599.224,271.08Z" transform="translate(-2552.127 -237.375)" fill="#008f85"/>
      <path id="Trazado_166547" data-name="Trazado 166547" d="M2592.721,223.889c5.123,0,10.246-.009,15.368.01a7.809,7.809,0,0,1,2.123.24,2.885,2.885,0,0,1,2.175,2.836,3.036,3.036,0,0,1-2.164,3.011,1.568,1.568,0,0,1-.45.093c-11.465,0-22.931.088-34.393-.092-2.448-.038-3.487-3.367-1.687-4.971a5.293,5.293,0,0,1,3.2-1.078C2582.167,223.83,2587.444,223.889,2592.721,223.889Z" transform="translate(-2552.063 -209.101)" fill="#008f85"/>
      <path id="Trazado_166548" data-name="Trazado 166548" d="M2721,230.254c-2.494,0-3.949-1.107-4.016-3.053-.068-1.986,1.361-3.224,3.786-3.279,2.659-.06,4.256,1.106,4.281,3.127C2725.081,229.043,2723.549,230.255,2721,230.254Z" transform="translate(-2651.805 -209.133)" fill="#008f85"/>
      <path id="Trazado_166549" data-name="Trazado 166549" d="M2818.967,311c-4.15,0-8.3.022-12.451-.009-2.393-.018-3.782-1.184-3.819-3.087s1.368-3.188,3.694-3.211c3.792-.038,7.583-.011,11.375-.011,4.612,0,9.223-.028,13.834.011,2.819.024,4.463,2.106,3.493,4.356-.692,1.605-2.1,1.951-3.676,1.951Z" transform="translate(-2711.089 -264.986)" fill="#1d272b"/>
      <path id="Trazado_166550" data-name="Trazado 166550" d="M2819.044,274.277c4.148,0,8.3-.037,12.445.028a4.1,4.1,0,0,1,2.561.674,3.713,3.713,0,0,1,1.211,2.708c-.138.927-1.116,1.786-1.868,2.535-.3.294-.969.287-1.47.288q-12.83.024-25.66,0c-2.458-.009-3.866-1.651-3.414-3.818.318-1.524,1.486-2.39,3.443-2.4C2810.542,274.257,2814.793,274.278,2819.044,274.277Z" transform="translate(-2711.136 -243.957)" fill="#1d272b"/>
    </g>
  </g>
</svg>
