<svg xmlns="http://www.w3.org/2000/svg" width="193.252" height="231.814" viewBox="0 0 193.252 231.814">
  <g id="img19" transform="translate(-2166.181 66.701)">
    <g id="Grupo_129416" data-name="Grupo 129416" transform="translate(2166.181 -66.701)">
      <path id="Trazado_166523" data-name="Trazado 166523" d="M2359.434-48.138v13.13c-2.079,5.666-3.841,6.9-9.836,6.91q-2.489,0-4.976,0H2336.1V-6.783q0,79.32,0,158.64c0,8.72-4.549,13.253-13.239,13.254q-71.938,0-143.874,0c-8.063,0-12.8-4.735-12.8-12.8q-.009-103.082.008-206.164a17.977,17.977,0,0,1,.295-3.6c1.043-5.069,4.552-7.74,9.2-9.253h166.551a4.023,4.023,0,0,0,.81.333,18.667,18.667,0,0,1,14.47,11.159C2358.513-53.015,2358.815-50.5,2359.434-48.138ZM2328.359-28.1h-3.325q-63.245,0-126.49,0c-6.364,0-9.214-2.89-9.23-9.288-.009-3.546.062-7.1-.059-10.638a11.409,11.409,0,0,0-8.056-10.391c-5.017-1.536-7.307.152-7.307,5.39q0,102.2,0,204.409c0,4.931,1.074,6.018,5.947,6.018h142.556c4.92,0,5.966-1.041,5.966-5.959q0-88.283,0-176.566ZM2197.15-36.017h154.434c0-3.558.036-6.942-.007-10.325-.1-7.927-4.843-12.639-12.766-12.641q-71.733-.016-143.465,0c-.622,0-1.244.09-2.223.166C2198.706-51.788,2196.5-43.707,2197.15-36.017Z" transform="translate(-2166.181 66.701)" fill="#1d272b"/>
      <path id="Trazado_166524" data-name="Trazado 166524" d="M2217.16,199.463c0-3.619-.037-7.238.01-10.856.066-5.09,3.026-8.284,8.092-8.373q11.3-.2,22.607.007c4.888.094,7.836,3.108,7.919,8.039q.19,11.192.005,22.39c-.083,5.193-3.262,8.166-8.5,8.2q-10.74.061-21.479,0c-5.511-.028-8.613-3.2-8.65-8.774C2217.14,206.549,2217.16,203.006,2217.16,199.463Zm7.874-11.375v22.889h22.842V188.088Z" transform="translate(-2194.027 -68.159)" fill="#1d272b"/>
      <path id="Trazado_166525" data-name="Trazado 166525" d="M2236.322,338.1c-3.693,0-7.386.045-11.078-.012-4.891-.075-8.039-3.171-8.09-8.1q-.118-11.194,0-22.39c.058-4.893,3.291-8.025,8.167-8.053q11.191-.063,22.382,0c4.62.029,7.868,2.861,7.983,7.456q.3,11.863-.01,23.74c-.119,4.515-3.29,7.225-7.827,7.359-.151,0-.3,0-.452,0Q2241.861,338.1,2236.322,338.1Zm-11.312-30.775v22.9h22.871v-22.9Z" transform="translate(-2193.998 -133.38)" fill="#1d272b"/>
      <path id="Trazado_166526" data-name="Trazado 166526" d="M2224.945,68.73v23h22.982c.065-1.3.059-2.563.205-3.807a3.861,3.861,0,0,1,3.832-3.7,3.7,3.7,0,0,1,3.684,3.569,25.668,25.668,0,0,1-.151,5.849,7.1,7.1,0,0,1-6.814,5.88c-8.136.12-16.276.141-24.411,0a7.27,7.27,0,0,1-7.083-7.412q-.225-11.756,0-23.519c.091-4.483,3.426-7.481,7.957-7.556,3.541-.059,7.084-.045,10.626,0,2.873.034,4.528,1.549,4.464,3.965-.06,2.306-1.68,3.7-4.467,3.725C2232.234,68.759,2228.7,68.73,2224.945,68.73Z" transform="translate(-2193.986 -3.066)" fill="#1d272b"/>
      <path id="Trazado_166527" data-name="Trazado 166527" d="M2253.656,69.469c5.416-7.583,10.354-14.5,15.292-21.413.481-.674.946-1.36,1.451-2.016,1.635-2.121,3.836-2.577,5.685-1.2,1.744,1.3,2.063,3.563.6,5.623q-9.333,13.181-18.766,26.292c-1.871,2.593-4.206,2.745-6.518.531q-3.591-3.437-7.022-7.039c-1.781-1.867-1.835-4.069-.3-5.646,1.508-1.543,3.8-1.5,5.668.147a19.051,19.051,0,0,1,2.068,2.083C2252.449,67.587,2252.952,68.443,2253.656,69.469Z" transform="translate(-2208.145 6.188)" fill="#008f85"/>
      <path id="Trazado_166528" data-name="Trazado 166528" d="M2427.729,85.735q-8.711,0-17.421,0c-.6,0-1.209.022-1.809-.024a3.876,3.876,0,0,1-3.837-3.7,3.813,3.813,0,0,1,3.611-3.915c2.174-.171,4.37-.076,6.557-.077q15.158-.007,30.317,0a17.562,17.562,0,0,1,2.034.04,3.808,3.808,0,0,1,3.677,4.061,3.7,3.7,0,0,1-3.9,3.581c-2.486.085-4.977.03-7.466.031Q2433.612,85.738,2427.729,85.735Z" transform="translate(-2296.476 -12.356)" fill="#1d272b"/>
      <path id="Trazado_166529" data-name="Trazado 166529" d="M2351.164,119.767c-6.335,0-12.67.034-19-.016-2.446-.02-4.029-1.481-4.162-3.595s1.532-3.824,3.986-4.074a15.593,15.593,0,0,1,1.583-.026q17.534,0,35.069,0a14.994,14.994,0,0,1,1.808.042c2.4.3,3.84,1.837,3.77,3.992-.071,2.173-1.569,3.634-4.043,3.657C2363.834,119.8,2357.5,119.766,2351.164,119.767Z" transform="translate(-2254.586 -30.96)" fill="#1d272b"/>
      <path id="Trazado_166530" data-name="Trazado 166530" d="M2350.989,231.452q8.937,0,17.875.006a10.69,10.69,0,0,1,2.475.165,3.479,3.479,0,0,1,2.854,3.352,3.429,3.429,0,0,1-2.272,3.763,9.068,9.068,0,0,1-3.1.438q-17.649.043-35.3.009a10.969,10.969,0,0,1-2.461-.23,3.7,3.7,0,0,1-3.034-3.912,3.626,3.626,0,0,1,3.51-3.507c1.652-.115,3.315-.078,4.973-.081Q2343.748,231.442,2350.989,231.452Z" transform="translate(-2254.59 -96.196)" fill="#1d272b"/>
      <path id="Trazado_166531" data-name="Trazado 166531" d="M2427.762,324.263q-8.825,0-17.648,0a14.852,14.852,0,0,1-2.032-.065,3.8,3.8,0,0,1-.064-7.563,11.065,11.065,0,0,1,1.8-.078q17.987-.006,35.975,0a11.84,11.84,0,0,1,1.581.052,3.82,3.82,0,0,1-.159,7.623,18.08,18.08,0,0,1-1.809.033Q2436.587,324.265,2427.762,324.263Z" transform="translate(-2296.477 -142.691)" fill="#1d272b"/>
      <path id="Trazado_166532" data-name="Trazado 166532" d="M2427.968,205.085c-5.882,0-11.764.01-17.645-.011a12.415,12.415,0,0,1-2.688-.248,3.733,3.733,0,0,1,.265-7.326,13.759,13.759,0,0,1,2.25-.153q17.646-.014,35.291,0a11.118,11.118,0,0,1,2.693.225,3.748,3.748,0,0,1,.157,7.187,10.39,10.39,0,0,1-2.9.31C2439.581,205.1,2433.774,205.085,2427.968,205.085Z" transform="translate(-2296.519 -77.56)" fill="#1d272b"/>
      <path id="Trazado_166533" data-name="Trazado 166533" d="M2351.061,358.259q-8.71,0-17.42,0c-.6,0-1.209.019-1.809-.027a3.889,3.889,0,0,1-3.843-3.7,3.838,3.838,0,0,1,3.428-3.862,37.422,37.422,0,0,1,4.741-.122q16.175-.012,32.352,0a16.048,16.048,0,0,1,2.033.05,3.805,3.805,0,0,1,3.661,4.075,3.686,3.686,0,0,1-3.912,3.557c-3.09.081-6.183.031-9.275.033Q2356.038,358.262,2351.061,358.259Z" transform="translate(-2254.585 -161.256)" fill="#1d272b"/>
      <path id="Trazado_166534" data-name="Trazado 166534" d="M2460.651,358.234c-3.009,0-6.017.037-9.025-.011-2.644-.042-4.193-1.407-4.281-3.643-.093-2.333,1.484-4,4.164-4.03q9.249-.12,18.5,0c2.674.034,4.264,1.7,4.172,4.025-.089,2.237-1.639,3.607-4.279,3.649C2466.818,358.27,2463.735,358.234,2460.651,358.234Z" transform="translate(-2319.795 -161.234)" fill="#1d272b"/>
      <path id="Trazado_166535" data-name="Trazado 166535" d="M2341.445,197.331c3.008,0,6.02-.052,9.027.016,2.773.063,4.436,1.507,4.5,3.739.068,2.289-1.683,3.924-4.538,3.958q-8.914.1-17.83,0c-2.884-.03-4.626-1.593-4.615-3.885s1.734-3.764,4.652-3.82C2335.575,197.285,2338.51,197.329,2341.445,197.331Z" transform="translate(-2254.587 -77.544)" fill="#1d272b"/>
      <path id="Trazado_166536" data-name="Trazado 166536" d="M2341.5,324.245c-3.009,0-6.02.03-9.029-.01-2.7-.035-4.432-1.528-4.489-3.762-.058-2.286,1.764-3.911,4.559-3.927q8.916-.052,17.833,0c2.812.015,4.633,1.6,4.606,3.886s-1.821,3.781-4.676,3.808C2347.366,324.267,2344.432,324.245,2341.5,324.245Z" transform="translate(-2254.58 -142.675)" fill="#1d272b"/>
      <path id="Trazado_166537" data-name="Trazado 166537" d="M2460.635,119.742c-3.008,0-6.018.04-9.025-.012-2.66-.046-4.186-1.4-4.266-3.651-.083-2.319,1.494-3.983,4.179-4.021q9.249-.129,18.5,0c2.674.039,4.254,1.73,4.155,4.046-.1,2.244-1.625,3.583-4.293,3.626C2466.8,119.781,2463.719,119.743,2460.635,119.742Z" transform="translate(-2319.794 -30.93)" fill="#1d272b"/>
      <path id="Trazado_166538" data-name="Trazado 166538" d="M2341.475,85.736c-3.009,0-6.02.031-9.028-.009-2.693-.035-4.429-1.539-4.469-3.771-.038-2.214,1.715-3.886,4.358-3.912q9.141-.086,18.282,0c2.643.025,4.4,1.7,4.356,3.913-.04,2.232-1.776,3.733-4.47,3.769C2347.493,85.766,2344.484,85.736,2341.475,85.736Z" transform="translate(-2254.579 -12.358)" fill="#1d272b"/>
      <path id="Trazado_166539" data-name="Trazado 166539" d="M2460.706,239.174c-2.934,0-5.868.047-8.8-.013-2.915-.059-4.568-1.516-4.573-3.883,0-2.395,1.613-3.812,4.561-3.831q8.913-.056,17.826,0c2.827.02,4.393,1.389,4.458,3.7.066,2.383-1.579,3.933-4.447,4C2466.725,239.23,2463.714,239.173,2460.706,239.174Z" transform="translate(-2319.791 -96.179)" fill="#1d272b"/>
    </g>
  </g>
</svg>
