<svg xmlns="http://www.w3.org/2000/svg" xmlns:xlink="http://www.w3.org/1999/xlink" width="334.975" height="261.456" viewBox="0 0 334.975 261.456">
  <defs>
    <linearGradient id="linear-gradient" x1="0.5" x2="0.5" y2="1" gradientUnits="objectBoundingBox">
      <stop offset="0" stop-color="#f5f5f5"/>
      <stop offset="0.25" stop-color="#f5f5f5"/>
      <stop offset="1" stop-color="#a7b3cf"/>
    </linearGradient>
  </defs>
  <g id="img1" transform="translate(-199.249 -396.544)">
    <g id="Grupo_107105" data-name="Grupo 107105" transform="translate(147.347 307.385)">
      <g id="Grupo_107097" data-name="Grupo 107097" transform="translate(64.712 94.819)">
        <g id="Grupo_107070" data-name="Grupo 107070" transform="translate(10.322)">
          <path id="Trazado_151846" data-name="Trazado 151846" d="M323.157,344.939a66.386,66.386,0,0,0,7.972-55.106c-3.535-11.594-10.319-22.364-11.186-34.454-1.735-24.172,20.133-43.714,24.669-67.52,1.994-10.462-.182-22.652-8.728-29.007-8.442-6.277-20.491-5-30.048-.6s-17.644,11.433-26.82,16.578-20.475,8.325-30.165,4.231c-9.815-4.148-15.383-14.6-18.5-24.791S225.7,133.229,220.377,124c-8.772-15.214-27.475-23.509-44.9-21.362s-33,13.9-41.355,29.352-9.813,34.132-5.655,51.194c2.109,8.653,5.584,16.94,7.478,25.644s2.068,18.229-2.162,26.068c-8.845,16.392-32.181,18.678-44.4,32.737-10.086,11.6-10.4,29.309-4.678,43.577s16.48,25.845,27.205,36.86c50.024,1.682,100.944,1.793,150.968,3.475C282.315,352.2,303.738,346.083,323.157,344.939Z" transform="translate(-80.961 -98.62)" fill="#a4a4b4" opacity="0.354" style="mix-blend-mode: multiply;isolation: isolate"/>
          <path id="Trazado_151847" data-name="Trazado 151847" d="M359.21,170.783c-.132,14.149,13.318,26.464,10.977,40.418-1.252,7.466-6.941,15.035-3.634,21.846,2.925,6.026,11.3,7.071,17.709,5.112,14.995-4.587,24.109-19.915,28.468-34.978,4.1-14.169,5.117-29.995-1.448-43.2-5.291-10.642-17.5-20.036-29.894-19.167C370.034,141.607,359.309,160.126,359.21,170.783Z" transform="translate(-134.687 -106.045)" fill="#a4a4b4" opacity="0.31" style="mix-blend-mode: multiply;isolation: isolate"/>
          <path id="Trazado_151848" data-name="Trazado 151848" d="M114.394,139.291a57.39,57.39,0,0,0-1.145,55.844c2.946,5.406,6.925,10.443,12.3,13.449s12.3,3.676,17.65.626c8.109-4.626,9.9-15.537,9.258-24.851s-2.756-19.079.831-27.7c2.338-5.619,6.828-10,10.811-14.6s7.7-9.972,7.906-16.054c.533-15.767-16.206-14.589-26.294-11.315A57.333,57.333,0,0,0,114.394,139.291Z" transform="translate(-85.903 -100.62)" fill="#a4a4b4" opacity="0.31" style="mix-blend-mode: multiply;isolation: isolate"/>
          <g id="Grupo_107069" data-name="Grupo 107069" transform="translate(5.604)" style="mix-blend-mode: multiply;isolation: isolate">
            <path id="Trazado_151849" data-name="Trazado 151849" d="M322,347.293l-1.076-.982c2.96-3.235,7.684-10.65,6.085-23.983-.712-5.935-2.476-11.8-4.183-17.467-.762-2.533-1.55-5.152-2.238-7.753A120.418,120.418,0,0,1,329.4,213.12c1.149-2.274,2.392-4.556,3.6-6.762,3.566-6.541,7.253-13.305,8.838-20.612,2.781-12.822-2.716-22.432-9-25.935-6.028-3.362-14.538-2.848-23.346,1.411-3.222,1.557-6.354,3.462-9.382,5.3a86.779,86.779,0,0,1-12.584,6.735c-17.482,7.014-39.339,1.053-50.84-13.863-5.527-7.168-8.648-15.831-11.666-24.209-1.169-3.246-2.379-6.6-3.709-9.816-4.136-9.987-11.707-22.523-24.282-25.522-11.05-2.636-22.242,3.157-29.683,8.481-14.237,10.186-24.273,23.982-28.26,38.845-2.688,10.023-2.8,20.931-2.9,31.481-.156,15.711-.317,31.956-9.189,45.04-4.036,5.952-9.588,10.7-14.955,15.293-5.028,4.3-10.227,8.749-14.1,14.14C89.15,265.347,87,282.641,92.026,300.579c4.519,16.117,13.73,30.418,22.637,44.249l-1.224.788C104.474,331.7,95.2,317.3,90.624,300.972c-5.149-18.367-2.916-36.114,6.125-48.69,3.978-5.534,9.245-10.039,14.337-14.4,5.3-4.53,10.771-9.215,14.7-15,8.626-12.72,8.778-28.029,8.938-44.237.106-10.641.215-21.643,2.952-31.845,4.073-15.187,14.308-29.268,28.818-39.652,7.687-5.5,19.283-11.477,30.868-8.713,13.174,3.141,21.024,16.08,25.29,26.381,1.344,3.244,2.559,6.617,3.734,9.88,2.98,8.272,6.061,16.826,11.449,23.813,11.118,14.419,32.246,20.18,49.145,13.4a85.815,85.815,0,0,0,12.369-6.627c3.057-1.861,6.219-3.784,9.5-5.372,9.24-4.467,18.239-4.969,24.689-1.372,6.738,3.757,12.652,13.97,9.714,27.516-1.63,7.512-5.368,14.369-8.983,21-1.2,2.2-2.436,4.467-3.574,6.721a118.939,118.939,0,0,0-8.7,82.959c.681,2.577,1.466,5.184,2.225,7.706,1.724,5.729,3.508,11.653,4.235,17.713C330.125,336.064,325.127,343.876,322,347.293Z" transform="translate(-87.906 -97.739)" fill="#a4a4b4"/>
          </g>
        </g>
        <path id="Trazado_151852" data-name="Trazado 151852" d="M365.681,412.152H73.587a5.417,5.417,0,0,1-5.418-5.417h0a5.418,5.418,0,0,1,5.418-5.418H365.681a5.418,5.418,0,0,1,5.418,5.418h0A5.418,5.418,0,0,1,365.681,412.152Z" transform="translate(-68.169 -156.356)" fill="#1d272b"/>
        <g id="Grupo_107086" data-name="Grupo 107086" transform="translate(58.489 41.407)">
          <path id="Trazado_151853" data-name="Trazado 151853" d="M179.961,279.134A24.828,24.828,0,0,1,172.555,243c3.195-4.336,7.986-8.043,8.59-13.395.625-5.545-3.527-10.352-5.44-15.594a20.473,20.473,0,0,1,3.07-19.293c3.038-3.869,7.521-6.672,9.55-11.154,1.275-2.817,1.427-5.99,1.782-9.062s1-6.279,3.027-8.619,5.815-3.4,8.28-1.536c4.67-4.821,10.168-10.667,16.357-13.264s13.622-2.965,19.414.428c4.582,2.684,7.63,7.328,11.654,10.792,3.458,2.976,7.591,5.043,11.319,7.671s7.2,6.067,8.346,10.483c1.878,7.258-2.972,14.549-3.2,22.043-.218,7.282,3.922,13.993,4.844,21.219.934,7.331-1.542,14.771-5.447,21.045s-9.176,11.564-14.4,16.793c-2.117,9.446-9.078,16.134-17.959,19.985s-18.82,4.51-28.495,4.159C195.971,285.421,186.757,283.129,179.961,279.134Z" transform="translate(-145.882 -149.055)" fill="#12263f"/>
          <path id="Trazado_151854" data-name="Trazado 151854" d="M195.868,271.036c-2.012-2.664-1.954-6.379-1.114-9.61s2.361-6.268,3.024-9.54c.9-4.42.181-9-.737-13.416s-2.042-8.848-1.958-13.358,1.561-9.222,5.012-12.128c12.1-10.186,31.686-6.644,47.414-4.988,7.949.837,13.384,8.506,15.9,16.091s1.665,16.037-1.338,23.445-8.029,13.851-13.74,19.443c-3.407,3.336-9.442.658-14.12,1.576-4.586.9-8.54,3.7-12.85,5.506a31.321,31.321,0,0,1-21.9.783C197.385,274.138,195.635,273.217,195.868,271.036Z" transform="translate(-150.993 -160.056)" fill="#0c1f36"/>
          <path id="Trazado_151855" data-name="Trazado 151855" d="M276.394,287.2a42.129,42.129,0,0,0-22.914-14.983c-4.144-1.037-8.443-1.436-12.519-2.714a23.746,23.746,0,0,1-3.389-1.362,74.732,74.732,0,0,1-2.337-19.109H211.343a74.732,74.732,0,0,1-2.337,19.109,23.744,23.744,0,0,1-3.389,1.362c-4.077,1.278-8.375,1.678-12.519,2.714a41.76,41.76,0,0,0-31.624,40.937V372.2l106.584-1.56a17.3,17.3,0,0,0,17.045-17.3V313.154A42.125,42.125,0,0,0,276.394,287.2Z" transform="translate(-144.673 -168.359)" fill="#ffc582"/>
          <path id="Trazado_151856" data-name="Trazado 151856" d="M241.761,377.383c2.035-5.334,2.21-11.16,2.948-16.821,1.415-10.86,4.956-21.313,7.469-31.973s4.74-22.275,1.987-32.875a193.96,193.96,0,0,1-46.841-.073c-5.88,2.465-8.932,9.885-10.023,16.167s-.293,12.713-.171,19.088c.133,6.973-.55,13.95-.221,20.917s1.765,14.094,5.7,19.85a35.852,35.852,0,0,0,9.256,8.9l28.595-.418A20.487,20.487,0,0,0,241.761,377.383Z" transform="translate(-151.482 -177.358)" fill="#fff"/>
          <g id="Grupo_107073" data-name="Grupo 107073" transform="translate(45.256 118.282)">
            <path id="Trazado_151857" data-name="Trazado 151857" d="M197.3,317.366c1.092-6.281,4.143-13.7,10.023-16.167a193.96,193.96,0,0,0,46.841.073,40.107,40.107,0,0,1,1.188,7.886,44.6,44.6,0,0,0-1.188-13.445,193.96,193.96,0,0,1-46.841-.073c-5.88,2.465-8.932,9.885-10.023,16.167a50.981,50.981,0,0,0-.508,10.445A38.712,38.712,0,0,1,197.3,317.366Z" transform="translate(-196.738 -295.64)" fill="#ededed"/>
            <path id="Trazado_151858" data-name="Trazado 151858" d="M197.151,346.063c0-.218-.015-.437-.02-.654-.1,4.783-.374,9.568-.252,14.347C196.98,355.193,197.239,350.627,197.151,346.063Z" transform="translate(-196.76 -305.25)" fill="#ededed"/>
          </g>
          <path id="Trazado_151859" data-name="Trazado 151859" d="M222.5,259.19a50.816,50.816,0,0,0,24.58-6.655c-.046-1.168-.073-2.335-.065-3.5H223.128A74.359,74.359,0,0,1,222.5,259.19Z" transform="translate(-156.458 -168.359)" fill="#94724c"/>
          <g id="Grupo_107074" data-name="Grupo 107074" transform="translate(45.426 44.505)">
            <path id="Trazado_151860" data-name="Trazado 151860" d="M207.565,209.511a11.078,11.078,0,0,0-3.893-4.6c-1.762-1.016-4.261-1.012-5.615.506-1.1,1.233-1.175,3.053-1.075,4.7.2,3.337.937,6.763,2.948,9.432s5.527,4.4,8.758,3.545C209.15,218.56,209.728,213.531,207.565,209.511Z" transform="translate(-196.949 -204.209)" fill="#ffc582"/>
            <path id="Trazado_151861" data-name="Trazado 151861" d="M207.688,213.709l.346.056a20.085,20.085,0,0,0-1.535-3.212,6.751,6.751,0,0,0-2.528-2.453,4.081,4.081,0,0,0-3.442-.211,2.949,2.949,0,0,0-1.8,2.814,2.937,2.937,0,0,1,2.775-.783,2.84,2.84,0,0,1,2.1,1.907,2.163,2.163,0,0,0-1.641,1.788,4.243,4.243,0,0,0,.378,2.491,3.909,3.909,0,0,0,.781,1.256,1.858,1.858,0,0,0,1.323.589,2.743,2.743,0,0,1-1.947,1.1,5.293,5.293,0,0,0,5.154-.334A23.057,23.057,0,0,0,207.688,213.709Z" transform="translate(-197.291 -204.864)" fill="#d6a56d"/>
          </g>
          <g id="Grupo_107075" data-name="Grupo 107075" transform="translate(98.152 46.248)">
            <path id="Trazado_151862" data-name="Trazado 151862" d="M263.848,211.671a11.1,11.1,0,0,1,3.893-4.6c1.763-1.016,4.261-1.012,5.615.506,1.1,1.233,1.176,3.053,1.075,4.7-.2,3.336-.937,6.762-2.947,9.432s-5.527,4.4-8.759,3.544C262.264,220.72,261.685,215.691,263.848,211.671Z" transform="translate(-262.292 -206.369)" fill="#ffc582"/>
            <path id="Trazado_151863" data-name="Trazado 151863" d="M264.411,215.869l-.347.056a20.226,20.226,0,0,1,1.536-3.212,6.739,6.739,0,0,1,2.528-2.453,4.084,4.084,0,0,1,3.442-.211,2.951,2.951,0,0,1,1.8,2.815,2.937,2.937,0,0,0-2.776-.783,2.836,2.836,0,0,0-2.1,1.906,2.163,2.163,0,0,1,1.641,1.789,4.246,4.246,0,0,1-.378,2.491,3.92,3.92,0,0,1-.78,1.256,1.861,1.861,0,0,1-1.323.588,2.751,2.751,0,0,0,1.948,1.1,5.3,5.3,0,0,1-5.155-.335A23.062,23.062,0,0,1,264.411,215.869Z" transform="translate(-262.634 -207.024)" fill="#d6a56d"/>
          </g>
          <circle id="Elipse_4259" data-name="Elipse 4259" cx="6.876" cy="6.876" r="6.876" transform="translate(46.889 46.349)" fill="#1d272b"/>
          <circle id="Elipse_4260" data-name="Elipse 4260" cx="6.876" cy="6.876" r="6.876" transform="translate(95.566 46.349)" fill="#1d272b"/>
          <ellipse id="Elipse_4261" data-name="Elipse 4261" cx="24.38" cy="32.788" rx="24.38" ry="32.788" transform="translate(53.682 21.927)" fill="#ffc582"/>
          <path id="Trazado_151864" data-name="Trazado 151864" d="M208.932,200.8c-.762-.352.554-1.672,2.537-2.207,5.252-1.417,11.066-2.02,15.432,1.226.172.905-.986,1.981-1.9,2.092a5.973,5.973,0,0,1-2.674-.571A23.73,23.73,0,0,0,208.932,200.8Z" transform="translate(-153.795 -158.399)" fill="#0c1f36"/>
          <path id="Trazado_151865" data-name="Trazado 151865" d="M261.228,200.8c.761-.352-.554-1.672-2.537-2.207-5.252-1.417-11.066-2.02-15.432,1.226-.172.905.986,1.981,1.9,2.092a5.978,5.978,0,0,0,2.674-.571A23.73,23.73,0,0,1,261.228,200.8Z" transform="translate(-160.462 -158.399)" fill="#0c1f36"/>
          <path id="Trazado_151866" data-name="Trazado 151866" d="M225.658,226.3c0,.947-3.014,1.714-6.732,1.714s-6.732-.767-6.732-1.714,3.014-1.714,6.732-1.714S225.658,225.358,225.658,226.3Z" transform="translate(-154.467 -163.64)" fill="#ffa866"/>
          <path id="Trazado_151867" data-name="Trazado 151867" d="M258.91,226.3c0,.947-3.014,1.714-6.732,1.714s-6.732-.767-6.732-1.714,3.015-1.714,6.732-1.714S258.91,225.358,258.91,226.3Z" transform="translate(-160.887 -163.64)" fill="#ffa866"/>
          <path id="Trazado_151868" data-name="Trazado 151868" d="M235.607,208.079a18.076,18.076,0,0,1-3.028,12.789,4.468,4.468,0,0,0-1.139,2.538,2.632,2.632,0,0,0,1.993,2.243,6.577,6.577,0,0,0,3.173-.083" transform="translate(-158.183 -160.451)" fill="none" stroke="#d9d9d9" stroke-linecap="round" stroke-linejoin="round" stroke-width="2" style="mix-blend-mode: multiply;isolation: isolate"/>
          <g id="Grupo_107079" data-name="Grupo 107079" transform="translate(53.765 38.125)">
            <g id="Grupo_107076" data-name="Grupo 107076">
              <path id="Trazado_151869" data-name="Trazado 151869" d="M218.144,218.023A10.861,10.861,0,1,1,229,207.162,10.873,10.873,0,0,1,218.144,218.023Zm0-19.953a9.093,9.093,0,1,0,9.092,9.092A9.1,9.1,0,0,0,218.144,198.07Z" transform="translate(-207.284 -196.302)" fill="#1d272b"/>
            </g>
            <g id="Grupo_107077" data-name="Grupo 107077" transform="translate(27.257)">
              <path id="Trazado_151870" data-name="Trazado 151870" d="M251.923,218.023a10.861,10.861,0,1,1,10.861-10.861A10.873,10.873,0,0,1,251.923,218.023Zm0-19.953a9.093,9.093,0,1,0,9.093,9.092A9.1,9.1,0,0,0,251.923,198.07Z" transform="translate(-241.063 -196.302)" fill="#1d272b"/>
            </g>
            <g id="Grupo_107078" data-name="Grupo 107078" transform="translate(20.325 8.833)">
              <path id="Trazado_151871" data-name="Trazado 151871" d="M233.5,210l-1.022-1.442a7.344,7.344,0,0,1,8.328,0L239.776,210A5.641,5.641,0,0,0,233.5,210Z" transform="translate(-232.473 -207.249)" fill="#1d272b"/>
            </g>
          </g>
          <path id="Trazado_151872" data-name="Trazado 151872" d="M228.722,235.353a14.456,14.456,0,0,0,15.1-.566" transform="translate(-157.658 -165.608)" fill="none" stroke="#d9d9d9" stroke-linecap="round" stroke-linejoin="round" stroke-width="2" style="mix-blend-mode: multiply;isolation: isolate"/>
          <path id="Trazado_151873" data-name="Trazado 151873" d="M234.653,242.106a9.419,9.419,0,0,0,4.551.362" transform="translate(-158.803 -167.022)" fill="none" stroke="#d9d9d9" stroke-linecap="round" stroke-linejoin="round" stroke-width="2" style="mix-blend-mode: multiply;isolation: isolate"/>
          <path id="Trazado_151874" data-name="Trazado 151874" d="M195.373,209.484A51.352,51.352,0,0,0,213.387,185.4a30.846,30.846,0,0,0,21.91,7.942,9.238,9.238,0,0,1-3.646-3.519c7.619,1.8,14.169,6.425,19.188,12.433,2.038,2.441,3.766,5.155,6.071,7.346s5.385,3.851,8.546,3.511c-1.97-8.386-3.89-17.055-7.048-25.07-1.939-4.92-4.227-9.934-8.276-13.337-5.038-4.235-12.07-5.309-18.633-4.829a44.825,44.825,0,0,0-19.9,6.269,42.8,42.8,0,0,0-17.831,21.685A16.057,16.057,0,0,0,192.552,204,7.346,7.346,0,0,0,195.373,209.484Z" transform="translate(-150.672 -153.055)" fill="#12263f"/>
          <path id="Trazado_151875" data-name="Trazado 151875" d="M206.181,225.118a2.221,2.221,0,1,1-2.221-2.22A2.221,2.221,0,0,1,206.181,225.118Z" transform="translate(-152.448 -163.313)" fill="#db8804"/>
          <path id="Trazado_151876" data-name="Trazado 151876" d="M272.049,225.118a2.22,2.22,0,1,1-2.221-2.22A2.22,2.22,0,0,1,272.049,225.118Z" transform="translate(-165.167 -163.313)" fill="#db8804"/>
          <path id="Trazado_151877" data-name="Trazado 151877" d="M220.933,205.739a2.221,2.221,0,0,0-1.868,1.614l1.868,1.868-1.868,1.869a2.221,2.221,0,0,0,1.868,1.614c1.227,0,2.221-1.559,2.221-3.483S222.16,205.739,220.933,205.739Z" transform="translate(-155.794 -160)" fill="#453e18"/>
          <path id="Trazado_151878" data-name="Trazado 151878" d="M253.076,205.739a2.22,2.22,0,0,0-1.868,1.614l1.868,1.868-1.868,1.869a2.22,2.22,0,0,0,1.868,1.614c1.227,0,2.22-1.559,2.22-3.483S254.3,205.739,253.076,205.739Z" transform="translate(-162 -160)" fill="#453e18"/>
          <path id="Trazado_151879" data-name="Trazado 151879" d="M201.973,193.2a24.594,24.594,0,0,1,1.072-10.8,26.685,26.685,0,0,1,5.665-9.609,27.21,27.21,0,0,1,9.221-6.6,27.887,27.887,0,0,1,22.379,0,27.2,27.2,0,0,1,9.224,6.6A26.691,26.691,0,0,1,255.2,182.4a24.567,24.567,0,0,1,1.066,10.8,29.255,29.255,0,0,0-9.17-17.976,26.7,26.7,0,0,0-35.958,0A29.228,29.228,0,0,0,201.973,193.2Z" transform="translate(-152.455 -151.91)" fill="#db8804"/>
          <g id="Grupo_107080" data-name="Grupo 107080" transform="translate(16.799 101.531)">
            <path id="Trazado_151880" data-name="Trazado 151880" d="M269.351,277.255c-3.434-.859-6.973-1.287-10.4-2.133a807.768,807.768,0,0,0-15.28,101.142l40.263-.589a17.3,17.3,0,0,0,17.045-17.3V318.192a41.76,41.76,0,0,0-31.624-40.937Z" transform="translate(-177.343 -274.927)" fill="#1d272b"/>
            <path id="Trazado_151881" data-name="Trazado 151881" d="M204.266,274.881c-3.668.983-7.478,1.4-11.168,2.327a41.76,41.76,0,0,0-31.624,40.937v59.042l58.124-.85A807.781,807.781,0,0,0,204.266,274.881Z" transform="translate(-161.472 -274.881)" fill="#1d272b"/>
          </g>
          <path id="Trazado_151882" data-name="Trazado 151882" d="M197.943,277.379c-1.252.313-2.487.692-3.7,1.122q-4.208,11.961-7.678,24.086c4.393,2.535,8.638,5.692,13.419,7.7-1.724,4.207-3.57,8.864-5.294,13.071A395.75,395.75,0,0,1,217.2,376.595l7.238-.087a675.839,675.839,0,0,0-18.436-100.742C203.321,276.307,200.6,276.714,197.943,277.379Z" transform="translate(-149.517 -173.521)" fill="#009fcf" opacity="0.18" style="mix-blend-mode: multiply;isolation: isolate"/>
          <path id="Trazado_151883" data-name="Trazado 151883" d="M273.457,323.373c-1.686-4.207-3.49-8.864-5.176-13.071,4.674-2,8.825-5.161,13.121-7.7q-3.325-11.944-7.383-23.732a40.843,40.843,0,0,0-4.667-1.477c-2.535-.633-5.126-1.034-7.689-1.54A689.721,689.721,0,0,0,243.667,376.4l7.878-.115A400.357,400.357,0,0,1,273.457,323.373Z" transform="translate(-160.544 -173.538)" fill="#009fcf" opacity="0.18" style="mix-blend-mode: multiply;isolation: isolate"/>
          <path id="Trazado_151884" data-name="Trazado 151884" d="M210.711,274.881c-2.981.8-6.054,1.231-9.082,1.858q-3.738,12.744-6.778,25.678c3.618,2.535,7.114,5.692,11.05,7.7-1.42,4.207-2.94,8.864-4.36,13.071a445.581,445.581,0,0,1,18.542,53.239l5.96-.087A807.784,807.784,0,0,0,210.711,274.881Z" transform="translate(-151.118 -173.35)" fill="#868695"/>
          <path id="Trazado_151885" data-name="Trazado 151885" d="M268.768,277.125c-3.252-.767-6.582-1.2-9.821-2a807.768,807.768,0,0,0-15.28,101.142l6.629-.1a445.29,445.29,0,0,1,18.457-52.935c-1.42-4.207-2.94-8.864-4.359-13.071,3.936-2,7.432-5.161,11.049-7.7Q272.454,289.706,268.768,277.125Z" transform="translate(-160.544 -173.396)" fill="#868695"/>
          <g id="Grupo_107084" data-name="Grupo 107084" transform="translate(60.349 99.294)">
            <g id="Grupo_107081" data-name="Grupo 107081">
              <path id="Trazado_151886" data-name="Trazado 151886" d="M216.769,274.765a1.337,1.337,0,0,1-.936-.388,1.937,1.937,0,0,1-.169-.2,1.153,1.153,0,0,1-.115-.23,1.319,1.319,0,0,1-.08-.248,1.386,1.386,0,0,1-.027-.256,1.411,1.411,0,0,1,.027-.265,1.333,1.333,0,0,1,.08-.247,1.133,1.133,0,0,1,.115-.23,1.789,1.789,0,0,1,.169-.2,1.381,1.381,0,0,1,1.193-.363,1.186,1.186,0,0,1,.248.08.955.955,0,0,1,.229.123,1.211,1.211,0,0,1,.2.16,1.7,1.7,0,0,1,.168.2,1.738,1.738,0,0,1,.124.23c.027.079.053.168.071.247a1.346,1.346,0,0,1,.026.265,1.316,1.316,0,0,1-.026.256,2.527,2.527,0,0,1-.071.248,1.787,1.787,0,0,1-.124.23,1.836,1.836,0,0,1-.168.2.878.878,0,0,1-.2.159.9.9,0,0,1-.229.123,1.141,1.141,0,0,1-.248.08A1.193,1.193,0,0,1,216.769,274.765Z" transform="translate(-215.443 -272.109)" fill="#db8804"/>
            </g>
            <g id="Grupo_107082" data-name="Grupo 107082" transform="translate(1.248 1.981)">
              <path id="Trazado_151887" data-name="Trazado 151887" d="M232.464,282.857h0a1.322,1.322,0,0,1-1.264-1.184h0a1.333,1.333,0,0,1-1.431.972h-.009a1.327,1.327,0,0,1-1.167-1.273h0a1.332,1.332,0,0,1-1.5.867h0a1.337,1.337,0,0,1-1.078-1.37h0a1.32,1.32,0,0,1-1.59.725h0a1.314,1.314,0,0,1-.92-1.5h0a1.33,1.33,0,0,1-1.706.495h0a1.331,1.331,0,0,1-.662-1.661h0a1.334,1.334,0,0,1-1.794.15h0a1.326,1.326,0,0,1-.283-1.785h0a1.33,1.33,0,0,1-1.795-.292h0a1.335,1.335,0,0,1,.248-1.865h0a1.332,1.332,0,0,1,1.856.248h.009a1.345,1.345,0,0,1,.044,1.547h0a1.343,1.343,0,0,1,1.556.052h0a1.332,1.332,0,0,1,.424,1.511h0a1.318,1.318,0,0,1,1.546-.291h0a1.318,1.318,0,0,1,.734,1.431h0a1.319,1.319,0,0,1,1.511-.574h0a1.317,1.317,0,0,1,.936,1.334h0a1.337,1.337,0,0,1,1.459-.76h0a1.32,1.32,0,0,1,1.078,1.264h0a1.333,1.333,0,0,1,1.406-.884h0a1.323,1.323,0,0,1,1.166,1.175h0a1.328,1.328,0,0,1,1.335-.981h0a1.322,1.322,0,0,1,1.247,1.079h0a1.337,1.337,0,0,1,1.246-1.087h0a1.334,1.334,0,0,1,1.335.963h0a1.323,1.323,0,0,1,1.131-1.193h0a1.331,1.331,0,0,1,1.423.822h0a1.313,1.313,0,0,1,1-1.3h0a1.327,1.327,0,0,1,1.494.662h0a1.328,1.328,0,0,1,.84-1.4h0a1.33,1.33,0,0,1,1.564.469h0a1.325,1.325,0,0,1,.663-1.486h0a1.315,1.315,0,0,1,1.6.283h0a1.321,1.321,0,0,1,.469-1.556h0a1.313,1.313,0,0,1,1.617.062h0a1.331,1.331,0,0,1,.248-1.6h0a1.325,1.325,0,0,1,1.874.044h0a1.318,1.318,0,0,1-.044,1.874h0a1.324,1.324,0,0,1-1.759.062h0a1.324,1.324,0,0,1-.4,1.715h0a1.328,1.328,0,0,1-1.75-.186h0a1.316,1.316,0,0,1-.61,1.644h0a1.322,1.322,0,0,1-1.706-.407h0a1.335,1.335,0,0,1-.813,1.556h0a1.334,1.334,0,0,1-1.644-.61h0a1.327,1.327,0,0,1-.989,1.44h0a1.319,1.319,0,0,1-1.556-.795h0a1.341,1.341,0,0,1-1.14,1.326h0a1.32,1.32,0,0,1-1.467-.955h0a1.322,1.322,0,0,1-1.256,1.21h0a1.338,1.338,0,0,1-1.369-1.078h0a1.32,1.32,0,0,1-1.3,1.087h-.053Z" transform="translate(-216.99 -274.564)" fill="#db8804"/>
            </g>
            <g id="Grupo_107083" data-name="Grupo 107083" transform="translate(34.045 0.049)">
              <path id="Trazado_151888" data-name="Trazado 151888" d="M258.96,274.8a1.341,1.341,0,0,1-.936-.389,1.321,1.321,0,0,1,0-1.874,1.366,1.366,0,0,1,1.873,0,1.326,1.326,0,0,1-.937,2.263Z" transform="translate(-257.634 -272.169)" fill="#db8804"/>
            </g>
          </g>
          <g id="Grupo_107085" data-name="Grupo 107085" transform="translate(50.352 53.799)">
            <path id="Trazado_151889" data-name="Trazado 151889" d="M222.8,238.873h-.043a45.16,45.16,0,0,1-7.635-.887,15.47,15.47,0,0,1-7.048-3.473,15.779,15.779,0,0,1-4.458-8.577,45.022,45.022,0,0,1-.533-9.491.751.751,0,0,1,.738-.717.728.728,0,0,1,.717.738,44,44,0,0,0,.505,9.186,14.348,14.348,0,0,0,4.013,7.787,14.035,14.035,0,0,0,6.4,3.129,43.929,43.929,0,0,0,7.388.851.728.728,0,0,1-.041,1.455Z" transform="translate(-203.054 -215.727)" fill="#1d272b"/>
          </g>
          <path id="Trazado_151890" data-name="Trazado 151890" d="M228.846,242.97c0,1.089-1.227,1.973-2.741,1.973s-2.741-.884-2.741-1.973S224.591,241,226.105,241,228.846,241.88,228.846,242.97Z" transform="translate(-156.624 -166.807)" fill="#006385"/>
          <path id="Trazado_151891" data-name="Trazado 151891" d="M168.1,295.218c-8.25,8.474-13.925,19.178-17.894,30.319s-6.32,22.78-8.658,34.373c-.672,3.335-1.343,6.806-.5,10.1,1.726,6.756,9.188,10.446,16.114,11.256s14.016-.353,20.869.931C183.127,353.387,181,321.48,168.1,295.218Z" transform="translate(-140.653 -177.277)" fill="#1d272b"/>
          <path id="Trazado_151892" data-name="Trazado 151892" d="M203.723,383.124a86.969,86.969,0,0,1,15.482-3.519,29.117,29.117,0,0,1,15.54,2.234c4.776,2.3,8.748,6.6,9.835,11.784.346,1.653-2.836,2.1-4.459,2.56a15.2,15.2,0,0,1-5.033.281l-16.856-.94c-4.012-.223-8.389.763-11.753-1.436a7.72,7.72,0,0,1-3.08-5C203,387.115,203.6,385.132,203.723,383.124Z" transform="translate(-152.742 -193.532)" fill="#ffc582"/>
          <path id="Trazado_151894" data-name="Trazado 151894" d="M201.126,365.852A47.357,47.357,0,0,0,184.305,361a147.05,147.05,0,0,0,.589-25.279c2.142,6.78,3.689,13.742,3.6,20.853C193.463,358.38,198.37,361.337,201.126,365.852Z" transform="translate(-149.082 -185.097)" fill="#009fcf" opacity="0.18" style="mix-blend-mode: multiply;isolation: isolate"/>
        </g>
        <g id="Grupo_107088" data-name="Grupo 107088" transform="translate(88.399 168.747)">
          <path id="Rectángulo_34155" data-name="Rectángulo 34155" d="M0,0H167.67a0,0,0,0,1,0,0V.579a4.187,4.187,0,0,1-4.187,4.187H4.187A4.187,4.187,0,0,1,0,.579V0A0,0,0,0,1,0,0Z" transform="translate(0 71.45)" fill="#e0e8ff"/>
          <path id="Rectángulo_34156" data-name="Rectángulo 34156" d="M0,0H167.67a0,0,0,0,1,0,0V.579a4.187,4.187,0,0,1-4.187,4.187H4.187A4.187,4.187,0,0,1,0,.579V0A0,0,0,0,1,0,0Z" transform="translate(0 71.45)" fill="url(#linear-gradient)" style="mix-blend-mode: multiply;isolation: isolate"/>
          <path id="Trazado_151895" data-name="Trazado 151895" d="M236.133,396.8v-1.387H177.721V396.8a3.378,3.378,0,0,0,3.379,3.379h51.655A3.378,3.378,0,0,0,236.133,396.8Z" transform="translate(-177.721 -323.962)" fill="#d0d8ed" style="mix-blend-mode: multiply;isolation: isolate"/>
          <g id="Grupo_107087" data-name="Grupo 107087" transform="translate(58.412)">
            <path id="Trazado_151896" data-name="Trazado 151896" d="M359.368,378.315H250.11l24.363-66.937a7.138,7.138,0,0,1,6.155-4.513H380.861c2.493,0,3.777,2.021,2.87,4.513Z" transform="translate(-250.11 -306.865)" fill="url(#linear-gradient)"/>
            <path id="Trazado_151897" data-name="Trazado 151897" d="M339.155,349.459c-1.411,3.876-5.7,7.017-9.571,7.017s-5.874-3.141-4.463-7.017,5.7-7.017,9.571-7.017S340.565,345.584,339.155,349.459Z" transform="translate(-264.506 -313.734)" fill="#1d272b"/>
          </g>
          <path id="Trazado_151898" data-name="Trazado 151898" d="M234.485,399.04h-3.792a.867.867,0,0,1-.867-.867h0a.866.866,0,0,1,.867-.867h3.792a.866.866,0,0,1,.867.867h0A.867.867,0,0,1,234.485,399.04Z" transform="translate(-187.782 -324.328)" fill="#d0d8ed" style="mix-blend-mode: multiply;isolation: isolate"/>
          <path id="Trazado_151899" data-name="Trazado 151899" d="M224.953,399.04h-3.792a.867.867,0,0,1-.867-.867h0a.866.866,0,0,1,.867-.867h3.792a.866.866,0,0,1,.867.867h0A.867.867,0,0,1,224.953,399.04Z" transform="translate(-185.941 -324.328)" fill="#d0d8ed" style="mix-blend-mode: multiply;isolation: isolate"/>
          <path id="Trazado_151900" data-name="Trazado 151900" d="M215.42,399.04h-3.792a.867.867,0,0,1-.867-.867h0a.866.866,0,0,1,.867-.867h3.792a.866.866,0,0,1,.867.867h0A.867.867,0,0,1,215.42,399.04Z" transform="translate(-184.1 -324.328)" fill="#d0d8ed" style="mix-blend-mode: multiply;isolation: isolate"/>
        </g>
        <g id="Grupo_107090" data-name="Grupo 107090" transform="translate(41.158 211.573)">
          <g id="Grupo_107089" data-name="Grupo 107089" transform="translate(20.634 1.222)">
            <path id="Trazado_151901" data-name="Trazado 151901" d="M156.274,384.507A11.527,11.527,0,1,1,167.8,372.98,11.54,11.54,0,0,1,156.274,384.507Zm0-19.451a7.924,7.924,0,1,0,7.923,7.924A7.933,7.933,0,0,0,156.274,365.056Z" transform="translate(-144.747 -361.453)" fill="#d6d6d6"/>
          </g>
          <path id="Trazado_151902" data-name="Trazado 151902" d="M119.176,383.413a15.389,15.389,0,0,0,.551,4.093,8.016,8.016,0,0,0,7.752,5.822h14.152a8.015,8.015,0,0,0,7.751-5.822,15.356,15.356,0,0,0,.552-4.093V359.939H119.176Z" transform="translate(-119.176 -359.939)" fill="#fff"/>
          <path id="Trazado_151903" data-name="Trazado 151903" d="M145.087,359.939v23.474a15.356,15.356,0,0,1-.552,4.093,8.015,8.015,0,0,1-7.751,5.822h8.247a8.015,8.015,0,0,0,7.751-5.822,15.357,15.357,0,0,0,.552-4.093V359.939Z" transform="translate(-122.576 -359.939)" opacity="0.1"/>
        </g>
        <path id="Trazado_151904" data-name="Trazado 151904" d="M322.761,143.909a18.716,18.716,0,0,0-.119-2.041l2.909-1.255a21.362,21.362,0,0,0-.675-2.957l-3.176.132a18.34,18.34,0,0,0-1.767-3.667l2.081-2.4a21.654,21.654,0,0,0-1.893-2.372l-2.785,1.487a18.527,18.527,0,0,0-3.2-2.531l.834-3.062a21.412,21.412,0,0,0-2.733-1.318l-1.874,2.562a18.312,18.312,0,0,0-3.972-.914l-.575-3.108c-.5-.036-1.007-.06-1.519-.06s-1.016.024-1.518.06l-.575,3.108a18.3,18.3,0,0,0-3.972.914l-1.874-2.562a21.364,21.364,0,0,0-2.733,1.318l.834,3.062a18.52,18.52,0,0,0-3.2,2.531l-2.785-1.487a21.553,21.553,0,0,0-1.893,2.372l2.081,2.4a18.386,18.386,0,0,0-1.768,3.667l-3.176-.132a21.489,21.489,0,0,0-.675,2.957l2.909,1.255a17.6,17.6,0,0,0,0,4.081l-2.909,1.255a21.5,21.5,0,0,0,.675,2.957l3.176-.132a18.372,18.372,0,0,0,1.768,3.668l-2.081,2.4a21.551,21.551,0,0,0,1.893,2.372l2.785-1.487a18.522,18.522,0,0,0,3.2,2.531l-.834,3.062a21.363,21.363,0,0,0,2.733,1.318l1.874-2.562a18.341,18.341,0,0,0,3.972.913l.575,3.109c.5.035,1.007.06,1.518.06s1.016-.024,1.519-.06l.575-3.109a18.358,18.358,0,0,0,3.972-.913l1.874,2.562a21.411,21.411,0,0,0,2.733-1.318l-.834-3.062a18.569,18.569,0,0,0,3.2-2.531l2.785,1.487a21.652,21.652,0,0,0,1.893-2.372l-2.081-2.4a18.325,18.325,0,0,0,1.767-3.668l3.176.132a21.373,21.373,0,0,0,.675-2.957l-2.909-1.255A18.713,18.713,0,0,0,322.761,143.909ZM304.3,156.969a13.06,13.06,0,1,1,13.061-13.06A13.06,13.06,0,0,1,304.3,156.969Z" transform="translate(-109.659 -102.502)" fill="#e0e8ff" style="mix-blend-mode: screen;isolation: isolate"/>
        <path id="Trazado_151906" data-name="Trazado 151906" d="M409.87,276.547a11.432,11.432,0,0,0-.073-1.251l1.784-.77a13,13,0,0,0-.414-1.813l-1.948.081a11.227,11.227,0,0,0-1.084-2.25l1.277-1.471a13.3,13.3,0,0,0-1.161-1.455l-1.709.912a11.382,11.382,0,0,0-1.961-1.552l.512-1.878a13.134,13.134,0,0,0-1.677-.809l-1.15,1.571a11.25,11.25,0,0,0-2.436-.56l-.353-1.907c-.308-.022-.617-.036-.931-.036s-.623.015-.931.036l-.353,1.907a11.251,11.251,0,0,0-2.436.56l-1.15-1.571A13.072,13.072,0,0,0,392,265.1l.512,1.878a11.355,11.355,0,0,0-1.962,1.552l-1.708-.912a13.11,13.11,0,0,0-1.161,1.455l1.277,1.471a11.273,11.273,0,0,0-1.084,2.25l-1.948-.081a13.12,13.12,0,0,0-.414,1.813l1.784.77a10.818,10.818,0,0,0,0,2.5l-1.784.77a13.117,13.117,0,0,0,.414,1.813l1.948-.081a11.272,11.272,0,0,0,1.084,2.25l-1.277,1.471a13.187,13.187,0,0,0,1.161,1.455l1.708-.912a11.38,11.38,0,0,0,1.962,1.552L392,287.995a13.084,13.084,0,0,0,1.676.809l1.15-1.572a11.2,11.2,0,0,0,2.436.561l.353,1.907c.308.022.618.036.931.036s.623-.015.931-.036l.353-1.907a11.2,11.2,0,0,0,2.436-.561l1.15,1.572a13.147,13.147,0,0,0,1.677-.809l-.512-1.878a11.379,11.379,0,0,0,1.961-1.552l1.709.912a13.376,13.376,0,0,0,1.161-1.455l-1.277-1.471a11.226,11.226,0,0,0,1.084-2.25l1.948.081a12.994,12.994,0,0,0,.414-1.813l-1.784-.77A11.433,11.433,0,0,0,409.87,276.547Zm-11.323,8.01a8.01,8.01,0,1,1,8.011-8.01A8.01,8.01,0,0,1,398.547,284.557Z" transform="translate(-129.444 -129.718)" fill="#e0e8ff" style="mix-blend-mode: screen;isolation: isolate"/>
        <g id="Grupo_107091" data-name="Grupo 107091" transform="translate(193.785 111.762)">
          <path id="Trazado_151907" data-name="Trazado 151907" d="M344.64,236.244H316.564a8.24,8.24,0,0,0-8.239,8.239V257.9a8.239,8.239,0,0,0,8.239,8.239h.943l-1.909,2.7a1.074,1.074,0,0,0,1.3,1.608l8.954-3.793a6.482,6.482,0,0,1,2.529-.514H344.64a8.239,8.239,0,0,0,8.239-8.239V244.483A8.239,8.239,0,0,0,344.64,236.244Z" transform="translate(-308.325 -236.244)" fill="#d93328"/>
          <path id="Trazado_151908" data-name="Trazado 151908" d="M348.241,247.968H314.983a1.429,1.429,0,0,1-1.429-1.429h0a1.429,1.429,0,0,1,1.429-1.429h33.258a1.429,1.429,0,0,1,1.429,1.429h0A1.429,1.429,0,0,1,348.241,247.968Z" transform="translate(-309.335 -237.956)" fill="#ededed"/>
          <path id="Trazado_151909" data-name="Trazado 151909" d="M348.241,255.857H314.983a1.429,1.429,0,0,1-1.429-1.429h0A1.429,1.429,0,0,1,314.983,253h33.258a1.429,1.429,0,0,1,1.429,1.429h0A1.429,1.429,0,0,1,348.241,255.857Z" transform="translate(-309.335 -239.479)" fill="#ededed"/>
          <path id="Trazado_151910" data-name="Trazado 151910" d="M333.679,263.745h-18.7a1.429,1.429,0,0,1-1.429-1.429h0a1.429,1.429,0,0,1,1.429-1.429h18.7a1.429,1.429,0,0,1,1.429,1.429h0A1.429,1.429,0,0,1,333.679,263.745Z" transform="translate(-309.335 -241.002)" fill="#ededed"/>
        </g>
        <g id="Grupo_107096" data-name="Grupo 107096" transform="translate(238.34 65.36)">
          <rect id="Rectángulo_34157" data-name="Rectángulo 34157" width="59.552" height="59.552" rx="20.34" fill="#008f85"/>
          <g id="Grupo_107095" data-name="Grupo 107095" transform="translate(8.73 7.483)">
            <g id="Grupo_107094" data-name="Grupo 107094">
              <g id="Grupo_107092" data-name="Grupo 107092" transform="translate(0 2.506)">
                <path id="Trazado_151911" data-name="Trazado 151911" d="M370.909,184.156a21.05,21.05,0,0,1,31.578-27.844,1.68,1.68,0,1,1-2.521,2.222,17.68,17.68,0,1,0,4.017,7.921,1.68,1.68,0,1,1,3.283-.715,21.053,21.053,0,0,1-36.357,18.415Z" transform="translate(-365.657 -149.193)" fill="#fff"/>
              </g>
              <g id="Grupo_107093" data-name="Grupo 107093" transform="translate(24.836)">
                <path id="Trazado_151912" data-name="Trazado 151912" d="M396.855,158.614a1.681,1.681,0,0,1,1.132-2.786l7.361-.569-.569-7.361a1.68,1.68,0,0,1,3.35-.26l.7,9.037a1.68,1.68,0,0,1-1.545,1.805l-9.037.7A1.682,1.682,0,0,1,396.855,158.614Z" transform="translate(-396.436 -146.088)" fill="#fff"/>
              </g>
            </g>
            <text id="_24_7" data-name="24/7" transform="translate(7.262 26.239)" fill="#fff" font-size="10" font-family="Poppins-Bold, Poppins" font-weight="700"><tspan x="0" y="0">24/7</tspan></text>
          </g>
        </g>
      </g>
      <g id="Grupo_107098" data-name="Grupo 107098" transform="translate(51.902 89.159)" style="mix-blend-mode: multiply;isolation: isolate">
        <circle id="Elipse_4262" data-name="Elipse 4262" cx="2.712" cy="2.712" r="2.712" transform="translate(18.954 80.691)" fill="#a4a4b4"/>
        <circle id="Elipse_4263" data-name="Elipse 4263" cx="1.736" cy="1.736" r="1.736" transform="translate(0 149.017)" fill="#a4a4b4"/>
        <path id="Trazado_151913" data-name="Trazado 151913" d="M75.162,374.361a1.3,1.3,0,1,1-1.3-1.3A1.3,1.3,0,0,1,75.162,374.361Z" transform="translate(-56.207 -145.24)" fill="#a4a4b4"/>
        <circle id="Elipse_4264" data-name="Elipse 4264" cx="1.072" cy="1.072" r="1.072" transform="translate(23.115 63.765) rotate(-89.032)" fill="#a4a4b4"/>
        <circle id="Elipse_4265" data-name="Elipse 4265" cx="1.864" cy="1.864" r="1.864" transform="translate(90.325)" fill="#a4a4b4"/>
        <path id="Trazado_151914" data-name="Trazado 151914" d="M249.076,92.884a2.16,2.16,0,1,1-2.159-2.159A2.16,2.16,0,0,1,249.076,92.884Z" transform="translate(-89.455 -90.725)" fill="#a4a4b4"/>
        <path id="Trazado_151915" data-name="Trazado 151915" d="M265.866,118.7a2.473,2.473,0,1,1-2.472-2.472A2.473,2.473,0,0,1,265.866,118.7Z" transform="translate(-92.576 -95.649)" fill="#a4a4b4"/>
        <circle id="Elipse_4266" data-name="Elipse 4266" cx="2.708" cy="2.708" r="2.708" transform="translate(236.117 15.163)" fill="#a4a4b4"/>
        <path id="Trazado_151916" data-name="Trazado 151916" d="M310.508,98.83a1.091,1.091,0,1,1-1.092-1.091A1.092,1.092,0,0,1,310.508,98.83Z" transform="translate(-101.729 -92.079)" fill="#a4a4b4"/>
        <path id="Trazado_151917" data-name="Trazado 151917" d="M384.67,121.052a1.759,1.759,0,1,1-1.759-1.76A1.759,1.759,0,0,1,384.67,121.052Z" transform="translate(-115.791 -96.241)" fill="#a4a4b4"/>
        <path id="Trazado_151918" data-name="Trazado 151918" d="M442.676,161.795a1.9,1.9,0,1,1-1.9-1.9A1.9,1.9,0,0,1,442.676,161.795Z" transform="translate(-126.936 -104.08)" fill="#a4a4b4"/>
        <path id="Trazado_151919" data-name="Trazado 151919" d="M440.155,220.168a2.992,2.992,0,1,1-2.992-2.992A2.992,2.992,0,0,1,440.155,220.168Z" transform="translate(-126.028 -115.141)" fill="#a4a4b4"/>
        <circle id="Elipse_4267" data-name="Elipse 4267" cx="1.502" cy="1.502" r="1.502" transform="translate(331.972 127.434)" fill="#a4a4b4"/>
        <circle id="Elipse_4268" data-name="Elipse 4268" cx="2.232" cy="2.232" r="2.232" transform="translate(303.68 128.936)" fill="#a4a4b4"/>
        <circle id="Elipse_4269" data-name="Elipse 4269" cx="2.035" cy="2.035" r="2.035" transform="translate(318.975 219.855)" fill="#a4a4b4"/>
        <circle id="Elipse_4270" data-name="Elipse 4270" cx="2.847" cy="2.847" r="2.847" transform="translate(301.645 233.927)" fill="#a4a4b4"/>
      </g>
      <g id="Grupo_107101" data-name="Grupo 107101" transform="translate(79.205 121.864)">
        <rect id="Rectángulo_34158" data-name="Rectángulo 34158" width="70.352" height="50.02" rx="17.084" transform="translate(0)" fill="#008f85"/>
        <g id="Grupo_107100" data-name="Grupo 107100" transform="translate(6.812 8.252)">
          <circle id="Elipse_4271" data-name="Elipse 4271" cx="5.859" cy="5.859" r="5.859" transform="translate(0 10.55) rotate(-64.201)" fill="#fff"/>
          <path id="Trazado_151927" data-name="Trazado 151927" d="M148.482,147.522H118.839a1.8,1.8,0,0,1-1.8-1.8h0a1.8,1.8,0,0,1,1.8-1.8h29.643a1.8,1.8,0,0,1,1.8,1.8h0A1.8,1.8,0,0,1,148.482,147.522Z" transform="translate(-98.91 -141.952)" fill="#fff"/>
          <path id="Trazado_151928" data-name="Trazado 151928" d="M148.482,157.674H118.839a1.8,1.8,0,0,1-1.8-1.8h0a1.8,1.8,0,0,1,1.8-1.8h29.643a1.8,1.8,0,0,1,1.8,1.8h0A1.8,1.8,0,0,1,148.482,157.674Z" transform="translate(-98.91 -143.913)" fill="#fff"/>
          <circle id="Elipse_4272" data-name="Elipse 4272" cx="5.859" cy="5.859" r="5.859" transform="translate(0.327 29.14) rotate(-70.183)" fill="#fff"/>
          <path id="Trazado_151929" data-name="Trazado 151929" d="M148.482,169.568H118.839a1.8,1.8,0,0,1-1.8-1.8h0a1.8,1.8,0,0,1,1.8-1.8h29.643a1.8,1.8,0,0,1,1.8,1.8h0A1.8,1.8,0,0,1,148.482,169.568Z" transform="translate(-98.91 -146.209)" fill="#fff"/>
          <path id="Trazado_151930" data-name="Trazado 151930" d="M148.482,179.719H118.839a1.8,1.8,0,0,1-1.8-1.8h0a1.8,1.8,0,0,1,1.8-1.8h29.643a1.8,1.8,0,0,1,1.8,1.8h0A1.8,1.8,0,0,1,148.482,179.719Z" transform="translate(-98.91 -148.169)" fill="#fff"/>
        </g>
      </g>
      <g id="Grupo_107102" data-name="Grupo 107102" transform="translate(69.169 244.504)">
        <rect id="Rectángulo_34159" data-name="Rectángulo 34159" width="46.62" height="46.62" rx="15.923" transform="translate(0)" fill="#008f85"/>
        <text id="_" data-name="?" transform="translate(15.081 33.111)" fill="#fff" font-size="30" font-family="Poppins-Bold, Poppins" font-weight="700"><tspan x="0" y="0">?</tspan></text>
      </g>
    </g>
    <g id="Grupo_129290" data-name="Grupo 129290" transform="translate(376.125 405)">
      <path id="Trazado_167082" data-name="Trazado 167082" d="M9.507-4.1a1.654,1.654,0,0,0-.645-1.4,8.454,8.454,0,0,0-2.32-1.031A16.448,16.448,0,0,1,3.889-7.605a4.335,4.335,0,0,1-2.664-3.878,3.777,3.777,0,0,1,.714-2.261A4.66,4.66,0,0,1,3.991-15.3a7.723,7.723,0,0,1,3-.559,7.029,7.029,0,0,1,2.986.607,4.755,4.755,0,0,1,2.036,1.713,4.483,4.483,0,0,1,.725,2.514H9.518a2.109,2.109,0,0,0-.677-1.67,2.782,2.782,0,0,0-1.9-.6,2.972,2.972,0,0,0-1.837.5,1.576,1.576,0,0,0-.655,1.316,1.509,1.509,0,0,0,.768,1.278,8.677,8.677,0,0,0,2.261.967,9.77,9.77,0,0,1,4.007,2.052A4.086,4.086,0,0,1,12.74-4.125,3.764,3.764,0,0,1,11.2-.94,6.725,6.725,0,0,1,7.068.215,7.986,7.986,0,0,1,3.781-.446,5.2,5.2,0,0,1,1.52-2.256,4.635,4.635,0,0,1,.741-4.92H3.975q0,2.589,3.094,2.589A3.01,3.01,0,0,0,8.862-2.8,1.52,1.52,0,0,0,9.507-4.1ZM24.331-6.778H18.144v4.189h7.262V0H14.921V-15.641H25.384v2.61h-7.24V-9.3h6.188Zm8.755,1.053H30.519V0H27.3V-15.641h5.812a6.57,6.57,0,0,1,4.275,1.235,4.264,4.264,0,0,1,1.5,3.491,4.812,4.812,0,0,1-.693,2.669,4.725,4.725,0,0,1-2.1,1.7L39.478-.15V0H36.019Zm-2.567-2.61h2.6A2.662,2.662,0,0,0,35-8.954a2.208,2.208,0,0,0,.666-1.7,2.363,2.363,0,0,0-.628-1.74,2.612,2.612,0,0,0-1.928-.634H30.519ZM46.911-3.878l3.545-11.763h3.588L48.6,0H45.235L39.811-15.641h3.577ZM58.942,0H55.72V-15.641h3.223ZM74.207-5.21a5.535,5.535,0,0,1-1.864,3.975A6.546,6.546,0,0,1,67.912.215,5.886,5.886,0,0,1,63.18-1.81a8.3,8.3,0,0,1-1.724-5.559v-.956a9.376,9.376,0,0,1,.795-3.975,5.957,5.957,0,0,1,2.272-2.637,6.364,6.364,0,0,1,3.432-.918,6.376,6.376,0,0,1,4.361,1.45,5.948,5.948,0,0,1,1.912,4.071H71.006a3.266,3.266,0,0,0-.843-2.2,3.123,3.123,0,0,0-2.208-.682,2.738,2.738,0,0,0-2.412,1.155,6.472,6.472,0,0,0-.822,3.583v1.182a6.927,6.927,0,0,0,.768,3.706,2.687,2.687,0,0,0,2.422,1.171A3.182,3.182,0,0,0,70.141-3.1a3.081,3.081,0,0,0,.843-2.111ZM79.75,0H76.527V-15.641H79.75ZM95.584-7.466a9.442,9.442,0,0,1-.816,4.05A6.148,6.148,0,0,1,92.431-.73a6.463,6.463,0,0,1-3.486.945,6.507,6.507,0,0,1-3.47-.935,6.209,6.209,0,0,1-2.363-2.669,9.172,9.172,0,0,1-.849-3.991v-.773a9.392,9.392,0,0,1,.833-4.066,6.2,6.2,0,0,1,2.353-2.7,6.471,6.471,0,0,1,3.475-.94,6.471,6.471,0,0,1,3.475.94,6.2,6.2,0,0,1,2.353,2.7,9.366,9.366,0,0,1,.833,4.055Zm-3.266-.709a6.582,6.582,0,0,0-.881-3.738,2.871,2.871,0,0,0-2.514-1.278,2.872,2.872,0,0,0-2.5,1.262,6.507,6.507,0,0,0-.892,3.7v.763a6.664,6.664,0,0,0,.881,3.717,2.863,2.863,0,0,0,2.535,1.321A2.837,2.837,0,0,0,91.438-3.7a6.626,6.626,0,0,0,.881-3.711Z" transform="translate(7.32 22.933)" fill="#008f85"/>
      <path id="Trazado_167081" data-name="Trazado 167081" d="M6.973-2.2H3.12L2.388,0H.051l3.97-10.664H6.057L10.049,0H7.712ZM3.713-3.977H6.379L5.039-7.969Zm9.529,2.212h4.666V0H11.045V-10.664h2.2ZM31.274-3.552A3.774,3.774,0,0,1,30-.842a4.463,4.463,0,0,1-3.021.989,4.013,4.013,0,0,1-3.226-1.381,5.661,5.661,0,0,1-1.176-3.79v-.652a6.393,6.393,0,0,1,.542-2.71,4.062,4.062,0,0,1,1.549-1.8,4.339,4.339,0,0,1,2.34-.626,4.348,4.348,0,0,1,2.974.989,4.055,4.055,0,0,1,1.3,2.776h-2.2a2.227,2.227,0,0,0-.575-1.5,2.129,2.129,0,0,0-1.505-.465,1.867,1.867,0,0,0-1.644.787,4.413,4.413,0,0,0-.56,2.443v.806a4.723,4.723,0,0,0,.524,2.527,1.832,1.832,0,0,0,1.652.8,2.169,2.169,0,0,0,1.52-.465,2.1,2.1,0,0,0,.575-1.439Zm3.64,1.787H39.58V0H32.717V-10.664h2.2ZM43.176,0h-2.2V-10.664h2.2Zm8.452-4.622H47.41v2.856h4.951V0H45.212V-10.664h7.134v1.78H47.41v2.542h4.219ZM62.322,0h-2.2L55.847-7.017V0h-2.2V-10.664h2.2l4.285,7.031v-7.031h2.19Zm9.946-8.884H69V0H66.8V-8.884H63.582v-1.78h8.687Zm7.668,4.263H75.718v2.856h4.951V0H73.521V-10.664h7.134v1.78H75.718v2.542h4.219Z" transform="translate(7.803 36.751)" fill="#1d272b"/>
      <rect id="Rectángulo_34968" data-name="Rectángulo 34968" width="3.902" height="40.751" fill="#d93328"/>
    </g>
  </g>
</svg>
