<svg xmlns="http://www.w3.org/2000/svg" width="208.673" height="120.486" viewBox="0 0 208.673 120.486">
  <g id="img20" transform="translate(-3504.663 209.632)">
    <g id="Grupo_129419" data-name="Grupo 129419" transform="translate(3504.663 -209.632)">
      <path id="Trazado_166562" data-name="Trazado 166562" d="M3504.663,2.229a48.541,48.541,0,0,1,1.558-5,19.9,19.9,0,0,1,13.233-11.741,22.931,22.931,0,0,1,3.646-.911c1.5-.184,2.069-.973,2.4-2.371a2.57,2.57,0,0,0-.986-3.014,16.713,16.713,0,0,1-5.409-9.31,2.613,2.613,0,0,0-1.189-1.563c-6.833-3.406-9.34-10.436-6.224-17.484a2.547,2.547,0,0,0-.009-1.859c-4.179-9.263,2.068-19.078,12.233-19.124q9.6-.043,19.193,0a20.741,20.741,0,0,1,19.407,12.75,20.733,20.733,0,0,1-4.775,22.869c-1.292,1.292-2.687,2.492-3.884,3.866a13.338,13.338,0,0,0-2.2,3.353,17.646,17.646,0,0,1-4.83,6.756c-.769.639-1.257,1.2-.809,2.292s.222,2.4,1.979,2.745c3.81.749,7.542,1.793,10.736,4.211a21.524,21.524,0,0,1,6.89,9.047c1.445-.611,1.07-1.726.965-2.752-.752-7.378-1.677-14.744-2.193-22.139-.371-5.33-.741-10.707.572-16.019a28.549,28.549,0,0,1,28.187-21.382c13.314.385,24.992,10.135,26.946,23.182a77.391,77.391,0,0,1,.227,16.035c-.419,6.883-1.414,13.731-2.1,20.6a11.16,11.16,0,0,0,.3,2.473l.557.035c.212-.364.455-.714.631-1.094a19.785,19.785,0,0,1,13.4-11.284,18.785,18.785,0,0,1,2.824-.683c1.812-.2,2.607-1.123,2.884-2.92a2.093,2.093,0,0,0-.772-2.31,15.909,15.909,0,0,1-5.569-9.374,2.418,2.418,0,0,0-1.554-1.966,12.764,12.764,0,0,1-6.113-17.095,2.926,2.926,0,0,0,.025-2.162,13.308,13.308,0,0,1,12.088-19.026c5.54-.043,11.089-.172,16.62.059,8.394.35,14.726,4.388,18.52,11.838,3.857,7.576,3.227,15.1-1.437,22.239-.623.953-1.358,1.834-2.05,2.742a34.048,34.048,0,0,0-4.2,6.778c-1.011,2.263-3,4.081-4.492,6.144a2.642,2.642,0,0,0-.619,1.8c.261,1.1-.047,2.524,1.7,2.978a38.79,38.79,0,0,1,8.268,2.66c7.124,3.727,10.738,9.85,10.916,17.887.114,5.138.021,10.281.022,15.422H3504.663Zm138.7-49.87c-4.042.786-5.64,2.715-5.643,6.64,0,2.57-.017,5.141,0,7.711a11.27,11.27,0,0,0,10.926,11.181,11.169,11.169,0,0,0,11.636-10.77c.114-2.909.047-5.825.056-8.737.006-1.924,0-3.847,0-5.779h5.824v7.619c6.37-9.506.326-23.174-10.734-24.385-6.324-.692-12.774-.44-19.16-.3a7.28,7.28,0,0,0-6.914,6.285,7.692,7.692,0,0,0,4.349,8.316,1.5,1.5,0,0,0,2.06-.3,10.308,10.308,0,0,1,7.6-2.962ZM3612.833-7.489a200.88,200.88,0,0,0,2.21-28.669,22.643,22.643,0,0,0-22.624-22.684,22.473,22.473,0,0,0-22.576,22.671c.078,6.667.618,13.332,1.074,19.99.2,2.925.71,5.829,1.075,8.7a62.935,62.935,0,0,0,6.794-2.194,10.22,10.22,0,0,0,3.143-2.711c.713-.8.586-1.62-.4-2.43a15.325,15.325,0,0,1-5.842-10.493,51.04,51.04,0,0,1-.085-9.229c.4-4.968,3.034-8.616,7.4-11.01.492-.27.995-.518,1.326-.69-.178-2.382-.345-4.614-.513-6.865h5.81c0,.659,0,1.169,0,1.68.029,5.013,2.187,7.452,7.131,8.09,1.7.219,3.394.451,5.083.725a8.531,8.531,0,0,1,7.549,8.735c.026,2,.019,4,0,6a16.867,16.867,0,0,1-5.524,12.636c-1.637,1.536-1.709,2.473-.091,4.112a6.686,6.686,0,0,0,2.4,1.556C3608.3-8.8,3610.5-8.2,3612.833-7.489Zm-74.294-45.756c-.842,0-1.523-.02-2.2,0-2.083.072-3.344,1.168-3.339,2.882,0,1.732,1.26,2.8,3.364,2.822,2.74.023,5.483-.059,8.22.036a8.328,8.328,0,0,1,8.129,7.742c.054.581.138,1.158.249,2.07,4.7-4.625,6.617-9.73,4.863-15.8-1.761-6.1-5.908-10.178-12.2-10.7a221.816,221.816,0,0,0-22.579-.275,7.34,7.34,0,0,0-6.943,6.288,7.874,7.874,0,0,0,4.226,8.247c1.685.953,3.139,1.4,4.582-.339.346-.417,1-.564,1.413-.944a4.424,4.424,0,0,0,1.309-1.581,8.828,8.828,0,0,1,10.913-5.768Zm65.34,22.935-.151-.014c0-1.2.012-2.395,0-3.592a2.768,2.768,0,0,0-2.457-2.992c-.615-.116-1.238-.187-1.855-.294-3.4-.59-6.951-.594-9.937-2.737-2.128-1.527-2.851-1.472-4.994.153a8.212,8.212,0,0,0-3.365,6.611c-.053,1.88-.034,3.764-.008,5.645a11.274,11.274,0,0,0,9.97,11.02,11.178,11.178,0,0,0,12.247-8.382A39.331,39.331,0,0,0,3603.879-30.31Zm-75.342-15.622a8.184,8.184,0,0,0-3.981,6.571c-.111,2.107-.109,4.227-.031,6.336a11.3,11.3,0,0,0,10.3,10.911c6.037.36,11.115-3.468,12.039-9.335a47.287,47.287,0,0,0,.231-7c.017-2.381-1.033-3.428-3.443-3.478-1.941-.04-3.89-.117-5.823.014C3534.052-41.655,3530.8-42.547,3528.538-45.932ZM3639.652,5.952,3633.688-8.87c-5.153,1.854-8.719,5.224-9.622,10.5-.722,4.215-.493,8.593-.686,12.905a7.449,7.449,0,0,0,.992.19c5.192.011,10.386-.021,15.577.044,1.18.015,1.257-.719,1.414-1.492.567-2.79,1.155-5.577,1.648-8.381a8.345,8.345,0,0,0-.161-2.1l-.649-.261Zm-78.189,8.782c-.2-4.532-.04-8.838-.662-13.029-.761-5.131-5.408-9.708-9.746-10.35L3545.321,5.6l-3.26-3.121a7.065,7.065,0,0,0-.317,2q.843,4.621,1.864,9.208c.091.407.665,1,1.021,1.008C3550.1,14.753,3555.567,14.733,3561.463,14.733ZM3664.338-8.8c-1.918,4.768-3.8,9.447-5.761,14.319l-3.394-3.2a12.06,12.06,0,0,0-.143,2.392c.5,2.8,1.176,5.58,1.6,8.393.216,1.422.867,1.687,2.154,1.663,3.991-.075,7.985-.027,11.978-.027h3.616c0-3.92.17-7.617-.039-11.293A13.969,13.969,0,0,0,3664.338-8.8ZM3510.07,14.722c6,0,11.521.019,17.036-.05.312,0,.795-.7.892-1.135q.972-4.42,1.778-8.875a7.123,7.123,0,0,0-.187-1.933l-.747-.324-2.577,3.145-5.795-14.4c-5.018,1.76-8.553,4.978-9.508,10.008C3510.144,5.469,3510.341,9.977,3510.07,14.722Zm77.485-25.766A11.629,11.629,0,0,1,3579.4-3.8c1.016,1.309,1.826,2.489,2.787,3.531a2.626,2.626,0,0,0,1.693.805c5.706.059,11.413.046,17.119.016a1.988,1.988,0,0,0,1.358-.45c1.063-1.221,2.016-2.539,3.1-3.933a11.631,11.631,0,0,1-8.2-7.213ZM3573.921-1.6c-5.253,2.737-7.921,9.223-6.726,16.2h19.325ZM3598.3,14.614h19.364c1.006-7.358-1.666-13.748-6.782-16.174Zm-67.225-31.282c-.18.743-.912,1.572.362,2.475,4.4,3.123,4.342,3.123,8.789-.05,1.314-.938.329-1.74.3-2.424Zm113.292,0c-.731,1.77-.731,1.77.908,2.864,3.743,2.5,3.7,2.43,7.513.026,1.442-.909,1.678-1.8.963-2.89Zm-51.958,29.611,5.051-6.484h-10.1Zm58.8,1.7c-.542-2.7-1.021-5.153-1.544-7.6-.057-.269-.341-.654-.557-.68a.885.885,0,0,0-.7.518c-.539,2.536-1.02,5.085-1.543,7.761Zm-113.25-.018c-.513-2.623-.975-5.08-1.5-7.523-.063-.3-.46-.523-.7-.783-.2.222-.54.417-.594.671-.531,2.488-1.015,4.986-1.542,7.635ZM3518.6-38.144c.349-1.922.7-3.833,1.053-5.8l-3.159-1.61A6.147,6.147,0,0,0,3518.6-38.144Zm111.057-7.309c-.911,3.02-.042,5.881,2.406,7.382a20.354,20.354,0,0,1,.044-3.848C3632.523-43.974,3631.682-44.985,3629.656-45.453ZM3528.222-4.794l3.062-2.762L3526.5-10.61l-.441.4Zm128.363.078,2.195-5.515-.463-.384L3653.64-7.6Zm-16.849-5.936-.432.485c.731,1.828,1.461,3.656,2.138,5.348l3.093-2.71Zm-94.206.5-.367-.489-4.77,3.039,2.947,2.921Zm-7.6,8.609L3535.5-4.275c-.634,1.338-1.371,2.282-1.459,3.284A1.575,1.575,0,0,0,3535.8.617C3537.469.617,3537.37-.719,3537.927-1.546ZM3649.089-3.77c-2.412,1.839-2.717,2.569-1.3,3.857a2.5,2.5,0,0,0,2.391.121C3651.574-.795,3651.217-1.9,3649.089-3.77Z" transform="translate(-3504.663 100.089)"/>
      <path id="Trazado_166565" data-name="Trazado 166565" d="M3930.781-20.3V-9.225H3925.3V-20.3Z" transform="translate(-3780.829 67.312)"/>
      <g id="Grupo_129420" data-name="Grupo 129420" transform="translate(165.713 0)">
        <path id="Trazado_166563" data-name="Trazado 166563" d="M3547.623-314.494a10.917,10.917,0,0,0-.856-1.509,3.855,3.855,0,0,0-3.234-1.423c-5.862.014-11.723.006-17.584.006q-8.486,0-16.972,0c-2.77,0-4.309,1.541-4.311,4.328q-.006,10.968,0,21.936c0,2.7,1.548,4.252,4.215,4.252h4.636c0,.613,0,1.188,0,1.764a3,3,0,0,0,1.884,3.054,2.955,2.955,0,0,0,3.486-.771c1.151-1.163,2.32-2.309,3.447-3.5a1.656,1.656,0,0,1,1.328-.564c6.422.02,12.844-.048,19.265.042,2.616.037,4.042-.991,4.7-3.135Zm-31.571,25.075h-.9c-2.064,0-4.129,0-6.194,0-1.317,0-1.739-.427-1.74-1.742q0-10.97,0-21.94c0-1.392.38-1.775,1.777-1.775q17.166,0,34.332,0c1.391,0,1.766.385,1.766,1.786q0,10.893,0,21.786c0,1.522-.369,1.885-1.91,1.885q-10.322,0-20.646-.009a1.512,1.512,0,0,0-1.2.493q-1.972,2.043-4.007,4.021a3.258,3.258,0,0,1-.951.445,3.519,3.519,0,0,1-.31-.953C3516.032-286.724,3516.052-288.027,3516.052-289.419Z" transform="translate(-3504.663 317.426)"/>
        <path id="Trazado_166566" data-name="Trazado 166566" d="M3537.973-263.789h27.879v-15.186h-7.567v12.642h-2.507v-15.174h-7.659v15.177h-2.512v-17.72h-7.634Zm2.576-2.525V-281.5h2.381v15.187Zm10.161,0v-12.665h2.417v12.665Zm12.594-10.143v10.143h-2.427v-10.143Z" transform="translate(-3528.031 289.201)" fill="#008f85"/>
        <path id="Trazado_166567" data-name="Trazado 166567" d="M3735.771-185.224v2.439h2.481v-2.439Z" transform="translate(-3730.66 205.622)"/>
        <path id="Trazado_166568" data-name="Trazado 166568" d="M3735.673-215.652h2.459v-2.45h-2.459Z" transform="translate(-3730.524 233.427)"/>
        <path id="Trazado_166569" data-name="Trazado 166569" d="M3735.734-248.716h2.467v-2.471h-2.467Z" transform="translate(-3730.603 261.407)"/>
      </g>
      <g id="Grupo_129421" data-name="Grupo 129421" transform="translate(52.962 2.015)">
        <path id="Trazado_166564" data-name="Trazado 166564" d="M3828.407-259.855c-2.244,0-4.327,0-6.409,0-2.768-.008-4.073-1.321-4.076-4.114q-.008-8.226,0-16.452c0-2.711,1.324-4.028,4.036-4.029q15.231,0,30.462,0c2.7,0,4.044,1.319,4.053,4.034q.028,8.226,0,16.452c-.007,2.774-1.349,4.1-4.1,4.108-3.361.006-6.723-.023-10.083.028a2.376,2.376,0,0,0-1.458.6c-1.777,1.672-3.455,3.45-5.238,5.116a4.02,4.02,0,0,1-4.608.868,4.121,4.121,0,0,1-2.57-3.931c-.019-.494-.006-.99-.007-1.486C3828.407-259.013,3828.407-259.361,3828.407-259.855Zm3.537-3.565c0,1.922-.036,3.684.024,5.442a5.579,5.579,0,0,0,.484,1.485,5.364,5.364,0,0,0,1.29-.694c1.88-1.819,3.688-3.713,5.589-5.51a2.668,2.668,0,0,1,1.643-.668c3.606-.059,7.212-.03,10.819-.03h1.1v-17.454h-31.439v17.429Z" transform="translate(-3817.917 284.453)" fill="#008f85"/>
        <path id="Trazado_166570" data-name="Trazado 166570" d="M3871.006-231.243h-3.37v-3.371h3.37Z" transform="translate(-3857.058 245.217)" fill="#008f85"/>
        <path id="Trazado_166571" data-name="Trazado 166571" d="M3900.535-234.652h3.4v3.356h-3.4Z" transform="translate(-3882.957 245.248)" fill="#008f85"/>
        <path id="Trazado_166572" data-name="Trazado 166572" d="M3936.922-231.108h-3.383v-3.346h3.383Z" transform="translate(-3908.939 245.092)" fill="#008f85"/>
      </g>
    </g>
  </g>
</svg>
