<svg xmlns="http://www.w3.org/2000/svg" width="242.5" height="242.524" viewBox="0 0 242.5 242.524">
  <g id="img21" transform="translate(-2988.542 169.967)">
    <g id="Grupo_129418" data-name="Grupo 129418" transform="translate(2988.542 -169.967)">
      <path id="Trazado_166551" data-name="Trazado 166551" d="M3062.878-169.967c.01,2.824.093,5.65,0,8.471-.045,1.347.284,2.139,1.673,2.482a18.1,18.1,0,0,1,2.861,1.123c3.017,1.323,3.029,1.347,5.4-1.078,1.565-1.6,3.074-3.26,4.816-5.113,3.938,4,7.616,7.74,11.306,11.47,2.031,2.053,4.019,4.157,6.166,6.083a3.763,3.763,0,0,0,2.643.868,95.017,95.017,0,0,1,58.76,11.1,97.2,97.2,0,0,1,41.733,44.151,96.382,96.382,0,0,1,9.052,50.323c-.209,2.617-.781,5.2-1.018,7.82a3.746,3.746,0,0,0,.64,2.586,46.715,46.715,0,0,1,12.109,26.3c.059.5.211.993.353,1.633h11.675V6.172c-3.392,0-6.715.059-10.033-.029-1.357-.036-1.928.36-2.1,1.765a45.447,45.447,0,0,1-17.506,31.18,3.483,3.483,0,0,0-1.512,3.231c.107,2.173.028,4.354.028,6.867,2.01,0,3.91.075,5.8-.024,1.451-.076,2.126.3,2.007,1.908-.136,1.846-.031,3.709-.031,5.832h-7.707V72.557H3145.11V57.031h-7.727V49.185c1.984,0,3.943-.063,5.9.022,1.295.056,1.887-.3,1.79-1.708-.1-1.511-.024-3.035-.024-4.738-3.632,1.114-6.951,2.279-10.345,3.149-19.146,4.9-38.131,4.394-56.833-2.137a96.529,96.529,0,0,1-38.736-25.021,97.027,97.027,0,0,1-25.248-48.479,92.984,92.984,0,0,1-.951-31.024,2.986,2.986,0,0,0-1.021-2.849c-5.3-5.233-10.532-10.526-15.816-15.77a10.636,10.636,0,0,0-1.921-1.162c2.592-2.512,4.627-4.553,6.746-6.5a1.779,1.779,0,0,0,.435-2.5,28.987,28.987,0,0,1-1.908-4.613c-.381-1.234-1.053-1.51-2.239-1.482-2.886.069-5.776.005-8.664-.005v-31.2c2.946-.018,5.893-.081,8.838-.029a1.707,1.707,0,0,0,1.985-1.286,41.351,41.351,0,0,1,2.039-4.966,1.674,1.674,0,0,0-.437-2.324c-2.16-1.973-4.261-4.011-6.1-5.754l22.311-22.474c1.954,2.016,3.961,4.174,6.089,6.206a2.283,2.283,0,0,0,1.927.348c1.758-.574,3.424-1.429,5.174-2.034a1.713,1.713,0,0,0,1.285-1.987c-.053-2.945.011-5.891.029-8.838ZM3198.861-36.579c.146-.606.245-.9.285-1.207a87.66,87.66,0,0,0-3.636-38.383,87.767,87.767,0,0,0-19.712-33.566,88.941,88.941,0,0,0-41.245-25.379,88.455,88.455,0,0,0-37.721-2.517c-2.862.425-4.388,2.991-3.263,5.522a22.835,22.835,0,0,1,1.42,3.569c.36,1.417,1.146,1.733,2.493,1.686,2.789-.1,5.584-.029,8.393-.029V-95.6h-6.4c-3.756,0-3.751,0-5.128,3.386a14.21,14.21,0,0,1-1.029,2.274c-.842,1.33-.545,2.256.6,3.292,2.019,1.827,3.885,3.823,5.684,5.618l-22.331,22.373c-1.293-1.437-2.606-3-4.031-4.457-2.76-2.817-2.784-2.786-6.333-1.283a12.467,12.467,0,0,1-2.339.873c-1.449.29-1.73,1.145-1.686,2.485.092,2.79.028,5.586.028,8.41H3031.92c-.113-.21-.221-.318-.222-.427-.031-1.987-.062-3.975-.068-5.962-.01-3.769,0-3.767-3.39-5.126-.594-.238-1.172-.524-1.774-.741-1.105-.4-2.212-1.685-3.356-.079-.757,1.063-1.952,2.072-2.144,3.238a84.8,84.8,0,0,0-.143,25.682,87.607,87.607,0,0,0,10.094,30.5,90.022,90.022,0,0,0,33.354,34.4,89.306,89.306,0,0,0,36.61,12.034,88.282,88.282,0,0,0,31.5-2.415c2.5-.643,4.95-1.5,7.61-2.309-.423-.494-.578-.7-.754-.877A45.94,45.94,0,0,1,3125.988,7.53c-.118-1.1-.636-1.38-1.632-1.369-3.016.033-6.035.064-9.047-.043-.53-.019-1.453-.676-1.482-1.088-.15-2.154-.07-4.323-.07-6.714,3.594,0,6.977-.037,10.358.02,1.149.019,1.736-.236,1.87-1.526a43.923,43.923,0,0,1,11-25.145c11.422-12.856,25.8-18.095,42.838-15.781A45.037,45.037,0,0,1,3198.861-36.579ZM3083.21-86.129c2.208-5.8,4.153-11,6.2-16.151a2.186,2.186,0,0,1,1.576-1.12c2.288-.126,4.586-.053,6.912-.053v-15.659c-2.219,0-4.271-.107-6.3.036-1.5.106-2.05-.46-2.5-1.853-1.085-3.34-2.35-6.627-3.683-9.878-.695-1.7-1.686-3.27-2.8-5.395l5.724-5.081-11.273-11.407-5.386,5.915a56.678,56.678,0,0,0-15.515-6.675,2.176,2.176,0,0,1-1.046-1.65,54.6,54.6,0,0,1-.039-5.58c.031-1.072-.355-1.5-1.448-1.464-1.8.059-3.594.015-5.391.015H3039.4c0,2.557.06,4.853-.045,7.141-.025.541-.511,1.416-.944,1.529a58.156,58.156,0,0,0-15.861,6.838l-5.326-6.187-11.536,11.488,5.664,4.907c-2.2,5.66-4.248,10.679-6.056,15.784-.45,1.271-.987,1.564-2.154,1.533-2.163-.057-4.328-.016-6.736-.016,0,5.084-.024,9.943.061,14.8.005.293.879.789,1.368.815,1.856.1,3.725-.026,5.58.085.57.034,1.5.451,1.607.864a58.513,58.513,0,0,0,6.907,16.064l-6.029,5.3,11.463,11.41,5.33-6.063a56.99,56.99,0,0,0,15.572,6.749,2.08,2.08,0,0,1,1.083,1.569c.123,2.284.051,4.579.051,6.909h15.659c0-1.191-.016-2.209,0-3.226.031-1.6-.457-3.557.292-4.692.662-1,2.743-1.017,4.144-1.6,4.123-1.7,8.218-3.468,12.876-5.443l4.972,5.544,11.174-11.151ZM3168.6,49.066V46.794c0-8.6-.077-17.2.05-25.8.035-2.378-.052-4.276-2.907-4.753a4.962,4.962,0,0,1-1.51-.827,15.5,15.5,0,0,1-7.006-16.435,15.891,15.891,0,0,1,12.31-12.1,15.7,15.7,0,0,1,16.413,7.5c4.862,8.716,1.166,18.845-8.147,22.507a2.4,2.4,0,0,0-1.355,1.664c-.083,9.754-.047,19.51-.075,29.264,0,1.156.542,1.39,1.538,1.384,4.236-.028,8.472-.039,12.707,0,1.114.011,1.452-.431,1.423-1.486a49.7,49.7,0,0,0-.064-5.96c-.605-4.029,1.062-6.366,4.345-8.734,14.339-10.344,19.348-30.991,11.768-46.955-11.08-23.331-39.493-30.31-59.853-14.377-11.507,9-16.228,21.3-14.455,35.752,1.466,11.949,7.777,21.136,17.747,27.789a2.871,2.871,0,0,1,1.454,2.808c-.07,3.637-.025,7.277-.025,11.03Zm-15.476,8.071v7.707h26.511c3.593,0,7.188.044,10.779-.05.543-.014,1.5-.638,1.532-1.032.151-2.159.072-4.335.072-6.626Zm19.422-47.084a7.911,7.911,0,0,0,7.76-7.921,7.812,7.812,0,0,0-7.961-7.668,7.714,7.714,0,0,0-7.621,7.774A7.8,7.8,0,0,0,3172.542,10.053Z" transform="translate(-2988.542 169.967)" fill="#1d272b"/>
      <path id="Trazado_166552" data-name="Trazado 166552" d="M3138.435,171.91l-15.545-7.751a58.555,58.555,0,0,0,52.7,43.2c-.133,2.6-.26,5.069-.4,7.776a65.128,65.128,0,0,1-37.479-14.572c-10.9-8.79-18.2-20.047-22.342-33.983l-7.069,11.66-6.676-4.012,13.588-22.664,26.719,13.35Z" transform="translate(-3058.003 -27.53)" fill="#008f85"/>
      <path id="Trazado_166553" data-name="Trazado 166553" d="M3373.165,20.541,3380,9.209l6.685,4.005c-2.831,4.729-5.587,9.334-8.344,13.938-1.417,2.366-2.787,4.763-4.3,7.067a2.1,2.1,0,0,1-1.739.847c-8.287-2.7-16.542-5.494-24.8-8.274a3.572,3.572,0,0,1-.516-.336l2.364-7.2,16.3,5.382c-2.781-16.006-20.318-42.245-52.923-44.65.132-2.5.265-5,.419-7.923C3343.44-24.281,3363.2-8.185,3373.165,20.541Z" transform="translate(-3187.669 82.727)" fill="#008f85"/>
      <path id="Trazado_166554" data-name="Trazado 166554" d="M3059.622-67.576a31.322,31.322,0,0,1,31.167-31.309,31.416,31.416,0,0,1,31.454,31.261,31.533,31.533,0,0,1-31.407,31.358A31.413,31.413,0,0,1,3059.622-67.576Zm54.631,4.359-.587-.571h-6.981v-7.764h7.761l-3.976-9.479-.872-.194-4.4,5.439-6.243-6.26,5.522-4.468-.172-.716-9.552-3.911v7.8h-7.769v-7.312a21.594,21.594,0,0,0-10.021,4.347l5.34,4.47-5.846,5.992-4.955-5.659-4.126,10.012h7.772v7.813h-7.775l3.989,9.56.894.177,4.423-5.351,6.1,6.018-5.653,4.621c3.273,2.205,6.232,3.631,9.917,4V-51.8h7.853v7.739l9.47-3.992.094-.757-5.151-4.516,5.984-5.98,4.444,5.292.754-.155Z" transform="translate(-3032.201 126.307)" fill="#1d272b"/>
      <path id="Trazado_166555" data-name="Trazado 166555" d="M3512.875,218.59l-5.2,5.129-4.8-5.238,5.08-4.87Z" transform="translate(-3304.463 -65.639)" fill="#1d272b"/>
      <path id="Trazado_166556" data-name="Trazado 166556" d="M3384.115,266.443h7.868c0,2.333.046,4.608-.054,6.878-.014.316-.736.837-1.15.858a53.692,53.692,0,0,1-5.55-.005c-.387-.02-1.05-.583-1.064-.919C3384.069,271.04,3384.115,268.819,3384.115,266.443Z" transform="translate(-3231.508 -98.089)" fill="#1d272b"/>
      <path id="Trazado_166557" data-name="Trazado 166557" d="M3406.861,323.535l-5.343-5.264,5.169-5.106,5.2,5.366Z" transform="translate(-3242.204 -126.787)" fill="#1d272b"/>
      <path id="Trazado_166558" data-name="Trazado 166558" d="M3455.569,203.156v-7.587h7.541v7.587Z" transform="translate(-3275.404 -54.556)" fill="#1d272b"/>
      <path id="Trazado_166559" data-name="Trazado 166559" d="M3407.261,212.854l5.162,5.065-5.3,5.132-4.985-5.186Z" transform="translate(-3242.586 -65.173)" fill="#1d272b"/>
      <path id="Trazado_166560" data-name="Trazado 166560" d="M3502.236,318.288l4.95-4.8,5.244,5.219-5.009,4.967Z" transform="translate(-3304.068 -126.985)" fill="#1d272b"/>
      <path id="Trazado_166561" data-name="Trazado 166561" d="M3526.357,266.473h7.629v7.748c-2.3,0-4.568.037-6.828-.047-.279-.01-.753-.661-.765-1.028C3526.32,270.988,3526.357,268.827,3526.357,266.473Z" transform="translate(-3318.878 -98.107)" fill="#1d272b"/>
    </g>
  </g>
</svg>
