<svg xmlns="http://www.w3.org/2000/svg" xmlns:xlink="http://www.w3.org/1999/xlink" width="183.688" height="164.312" viewBox="0 0 183.688 164.312">
  <defs>
    <linearGradient id="linear-gradient" x1="0.5" x2="0.5" y2="1" gradientUnits="objectBoundingBox">
      <stop offset="0" stop-color="#fff"/>
      <stop offset="1" stop-color="#f8f8f8"/>
    </linearGradient>
    <filter id="Rectángulo_29523" x="0" y="0" width="183.688" height="164.312" filterUnits="userSpaceOnUse">
      <feOffset dy="3" input="SourceAlpha"/>
      <feGaussianBlur stdDeviation="3" result="blur"/>
      <feFlood flood-opacity="0.161"/>
      <feComposite operator="in" in2="blur"/>
      <feComposite in="SourceGraphic"/>
    </filter>
    <radialGradient id="radial-gradient" cx="0.076" cy="0.019" r="1.465" gradientTransform="translate(0.001)" gradientUnits="objectBoundingBox">
      <stop offset="0" stop-color="#f6f6f7"/>
      <stop offset="0.477" stop-color="#f9f9fa"/>
      <stop offset="0.715" stop-color="#fff"/>
    </radialGradient>
  </defs>
  <g id="img33" transform="translate(-270.076 -2914.593)">
    <g id="Grupo_61744" data-name="Grupo 61744" transform="translate(279.076 2920.593)">
      <g id="Grupo_57070" data-name="Grupo 57070" transform="translate(0 0)">
        <g transform="matrix(1, 0, 0, 1, -9, -6)" filter="url(#Rectángulo_29523)">
          <rect id="Rectángulo_29523-2" data-name="Rectángulo 29523" width="165.688" height="146.312" rx="10" transform="translate(9 6)" fill="url(#linear-gradient)"/>
        </g>
        <path id="Trazado_123976" data-name="Trazado 123976" d="M185.015,982.253H350.7v8.985H277.179l-9.65,8.61-10.381-8.8-72.133.187Z" transform="translate(-185.015 -982.253)" fill="#008f85"/>
        <path id="Trazado_123977" data-name="Trazado 123977" d="M271.948,988.712l-7.319,6.865a1.845,1.845,0,0,1-2.586.019l-7.739-7.079" transform="translate(-180.869 -984.14)" fill="none" stroke="#12263f" stroke-linecap="round" stroke-miterlimit="10" stroke-width="0.806"/>
        <path id="Trazado_167117" data-name="Trazado 167117" d="M40.09,14.023H35.324L34.254,17H32.707L37.051,5.625h1.313L42.715,17H41.176ZM35.777,12.8h3.867l-1.937-5.32Zm11.633,3.18a2.082,2.082,0,0,0,1.352-.469,1.649,1.649,0,0,0,.641-1.172H50.77a2.621,2.621,0,0,1-.5,1.383,3.293,3.293,0,0,1-1.23,1.047,3.55,3.55,0,0,1-1.629.391A3.482,3.482,0,0,1,44.664,16a4.59,4.59,0,0,1-1.02-3.152v-.242a5.089,5.089,0,0,1,.453-2.2,3.451,3.451,0,0,1,1.3-1.492,3.7,3.7,0,0,1,2-.531,3.39,3.39,0,0,1,2.363.852,3.043,3.043,0,0,1,1,2.211H49.4a1.992,1.992,0,0,0-.621-1.348A1.932,1.932,0,0,0,47.4,9.578a2.023,2.023,0,0,0-1.707.793,3.724,3.724,0,0,0-.605,2.293v.273a3.65,3.65,0,0,0,.6,2.25A2.033,2.033,0,0,0,47.41,15.977Zm8.375,0a2.082,2.082,0,0,0,1.352-.469,1.649,1.649,0,0,0,.641-1.172h1.367a2.621,2.621,0,0,1-.5,1.383,3.293,3.293,0,0,1-1.23,1.047,3.55,3.55,0,0,1-1.629.391A3.482,3.482,0,0,1,53.039,16a4.59,4.59,0,0,1-1.02-3.152v-.242a5.089,5.089,0,0,1,.453-2.2,3.451,3.451,0,0,1,1.3-1.492,3.7,3.7,0,0,1,2-.531,3.39,3.39,0,0,1,2.363.852,3.043,3.043,0,0,1,1,2.211H57.777a1.992,1.992,0,0,0-.621-1.348,1.932,1.932,0,0,0-1.379-.527,2.023,2.023,0,0,0-1.707.793,3.724,3.724,0,0,0-.605,2.293v.273a3.65,3.65,0,0,0,.6,2.25A2.033,2.033,0,0,0,55.785,15.977ZM62.34,17H60.895V8.547H62.34ZM60.777,6.3a.863.863,0,0,1,.215-.594.807.807,0,0,1,.637-.242.819.819,0,0,1,.641.242.854.854,0,0,1,.219.594.826.826,0,0,1-.219.586.834.834,0,0,1-.641.234.821.821,0,0,1-.637-.234A.834.834,0,0,1,60.777,6.3ZM64.27,12.7a4.993,4.993,0,0,1,.488-2.234A3.643,3.643,0,0,1,66.117,8.93a3.7,3.7,0,0,1,1.988-.539,3.565,3.565,0,0,1,2.793,1.2,4.6,4.6,0,0,1,1.066,3.18v.1a5.036,5.036,0,0,1-.473,2.215,3.589,3.589,0,0,1-1.352,1.527,3.743,3.743,0,0,1-2.02.547,3.556,3.556,0,0,1-2.785-1.2A4.575,4.575,0,0,1,64.27,12.8Zm1.453.172a3.616,3.616,0,0,0,.652,2.258,2.211,2.211,0,0,0,3.5-.012A3.955,3.955,0,0,0,70.52,12.7a3.61,3.61,0,0,0-.66-2.254,2.1,2.1,0,0,0-1.754-.863,2.075,2.075,0,0,0-1.727.852A3.925,3.925,0,0,0,65.723,12.867ZM68.762,5h1.75L68.418,7.3l-1.164,0Zm6.383,3.547.047,1.063a3.08,3.08,0,0,1,2.531-1.219q2.68,0,2.7,3.023V17H78.98V11.406a1.946,1.946,0,0,0-.418-1.352,1.675,1.675,0,0,0-1.277-.437,2.086,2.086,0,0,0-1.234.375,2.546,2.546,0,0,0-.828.984V17H73.777V8.547Z" transform="translate(25.83 100)" fill="#12263f"/>
      </g>
      <line id="Línea_1692" data-name="Línea 1692" x2="37.16" transform="translate(65.561 135.217)" fill="none" stroke="#12263f" stroke-linecap="round" stroke-miterlimit="10" stroke-width="1"/>
      <g id="Grupo_90998" data-name="Grupo 90998" transform="translate(52.167 28.406)">
        <g id="Grupo_42274" data-name="Grupo 42274">
          <g id="Grupo_18423" data-name="Grupo 18423">
            <g id="Grupo_18421" data-name="Grupo 18421">
              <g id="Grupo_18420" data-name="Grupo 18420">
                <g id="Grupo_18419" data-name="Grupo 18419">
                  <path id="Trazado_40936" data-name="Trazado 40936" d="M257.25,2177.034a31.314,31.314,0,1,1-31.313-31.313A31.313,31.313,0,0,1,257.25,2177.034Z" transform="translate(-194.623 -2145.721)" fill="#fff"/>
                </g>
              </g>
            </g>
            <path id="Trazado_40937" data-name="Trazado 40937" d="M257.3,2177.093a31.313,31.313,0,1,0-31.313,31.314A31.189,31.189,0,0,0,257.3,2177.093Z" transform="translate(-194.677 -2145.78)" fill="url(#radial-gradient)"/>
            <path id="Trazado_40938" data-name="Trazado 40938" d="M250.481,2177.69a23.9,23.9,0,1,0-23.9,23.9A23.813,23.813,0,0,0,250.481,2177.69Z" transform="translate(-195.171 -2146.273)" fill="none" stroke="#1d272b" stroke-miterlimit="10" stroke-width="2"/>
            <g id="Grupo_18422" data-name="Grupo 18422" transform="translate(5.548 17.58)">
              <path id="Trazado_40939" data-name="Trazado 40939" d="M254.459,2164.488a31.317,31.317,0,0,1-53.913,31.184,31.218,31.218,0,0,0,53.913-31.184Z" transform="translate(-200.545 -2164.488)" fill="#eceef0"/>
            </g>
          </g>
        </g>
        <path id="Trazado_167116" data-name="Trazado 167116" d="M14.341,22.665h2.168v3.809H14.341V31H9.4V26.474H1.157L.864,23.456,9.4,9.716V9.672h4.937Zm-8.774,0H9.4V16.1l-.308.5Z" transform="translate(21.814 14.313)" fill="#1d272b"/>
      </g>
    </g>
  </g>
</svg>
