<svg id="icon2" xmlns="http://www.w3.org/2000/svg" xmlns:xlink="http://www.w3.org/1999/xlink" width="114.636" height="114.636" viewBox="0 0 114.636 114.636">
  <defs>
    <radialGradient id="radial-gradient" cx="0.076" cy="0.019" r="1.465" gradientTransform="translate(0.001)" gradientUnits="objectBoundingBox">
      <stop offset="0" stop-color="#f6f6f7"/>
      <stop offset="0.477" stop-color="#f9f9fa"/>
      <stop offset="0.715" stop-color="#fff"/>
    </radialGradient>
  </defs>
  <g id="Grupo_18423" data-name="Grupo 18423" transform="translate(0 0)">
    <g id="Grupo_18421" data-name="Grupo 18421">
      <g id="Grupo_18420" data-name="Grupo 18420">
        <g id="Grupo_18419" data-name="Grupo 18419">
          <path id="Trazado_40936" data-name="Trazado 40936" d="M309.259,2203.037a57.318,57.318,0,1,1-57.317-57.316A57.317,57.317,0,0,1,309.259,2203.037Z" transform="translate(-194.623 -2145.721)" fill="#fff"/>
        </g>
      </g>
    </g>
    <path id="Trazado_40937" data-name="Trazado 40937" d="M308.648,2202.372a57.316,57.316,0,1,0-57.317,57.319A57.091,57.091,0,0,0,308.648,2202.372Z" transform="translate(-194.013 -2145.056)" fill="url(#radial-gradient)"/>
    <path id="Trazado_40938" data-name="Trazado 40938" d="M289.672,2196.986a43.75,43.75,0,1,0-43.75,43.75A43.587,43.587,0,0,0,289.672,2196.986Z" transform="translate(-188.43 -2139.479)" fill="none" stroke="#1d272d" stroke-miterlimit="10" stroke-width="4"/>
    <g id="Grupo_18422" data-name="Grupo 18422" transform="translate(10.154 32.18)">
      <path id="Trazado_40939" data-name="Trazado 40939" d="M299.231,2164.488a57.325,57.325,0,0,1-98.686,57.081,57.143,57.143,0,0,0,98.686-57.081Z" transform="translate(-200.545 -2164.488)" fill="#eceef0"/>
    </g>
  </g>
  <g id="eSTgCH.tif" transform="translate(-1074.565 215.467)">
    <g id="Grupo_130116" data-name="Grupo 130116" transform="translate(1108.687 -185.099)">
      <path id="Trazado_167016" data-name="Trazado 167016" d="M1248.1,25.9a23.923,23.923,0,0,1,.3-3.253A6.527,6.527,0,0,1,1252,18.3c.914-.485,1.87-.893,2.8-1.346.44-.214.876-.439,1.3-.679a1.733,1.733,0,0,0,1.055-1.877.691.691,0,0,1,0-.17,2.431,2.431,0,0,0-.743-2.344,1.646,1.646,0,0,1-.394-.615,11.091,11.091,0,0,0-1.69-2.986,2.718,2.718,0,0,1-.129-3.1,1.191,1.191,0,0,0,.079-.77,8.351,8.351,0,0,1-.115-4.635,7.373,7.373,0,0,1,5.725-5.223,24.281,24.281,0,0,1,3.19-.379.518.518,0,0,1,.641.4c.01.036.034.068.046.1a1.815,1.815,0,0,0,1.571,1.359,3.467,3.467,0,0,1,2.2,1.427c1.238-.335,2.393-.649,3.55-.959a1.856,1.856,0,0,1,.337-.042c1.257-.1,1.242-.089,1.825,1.017a1.006,1.006,0,0,0,.587.5,4.714,4.714,0,0,1,3.817,4.466,7.811,7.811,0,0,1-.328,3.241.977.977,0,0,0,.034.628,3.815,3.815,0,0,1-.665,4.168,3.023,3.023,0,0,0-.411.877,15.407,15.407,0,0,1-.738,2.122,4.027,4.027,0,0,0-.206,2.422c.029.319.474.678.813.876.7.406,1.453.71,2.181,1.065.913.446,1.86.84,2.725,1.366a6.584,6.584,0,0,1,3.279,5.672c.014.337,0,.675,0,1.013Zm2.471-2.29h22.25c-.037-.19-.064-.354-.1-.516a3.823,3.823,0,0,0-1.964-2.513c-1.049-.589-2.179-1.033-3.229-1.62a17.678,17.678,0,0,1-2.626-1.727,2.665,2.665,0,0,1-.957-2.315c.055-.883,0-1.773.021-2.66a.864.864,0,0,1,.2-.546,4,4,0,0,0,1.164-2.746,1.6,1.6,0,0,1,.686-1.321,1.449,1.449,0,0,0,.29-2.19,2.108,2.108,0,0,1-.289-.416.667.667,0,0,1-.02-.49,5.463,5.463,0,0,0,.545-4,2.9,2.9,0,0,0-3.2-2.624.648.648,0,0,1-.694-.411c-.5-1.026-.511-1.019-1.643-.8-.148.028-.3.054-.444.089-2.22.531-3.854,1.7-4.359,4.063a6.129,6.129,0,0,0,.532,3.965.675.675,0,0,1-.153.918,1.122,1.122,0,0,0,.337,2.011.77.77,0,0,1,.508.705,4.387,4.387,0,0,0,1.77,3.16.727.727,0,0,1,.224.514c.022.924-.034,1.852.023,2.773a2.833,2.833,0,0,1-.948,2.325,8.913,8.913,0,0,1-1.772,1.289c-.871.483-1.823.818-2.7,1.292a16.685,16.685,0,0,0-2.276,1.454A3.312,3.312,0,0,0,1250.568,23.61Zm31.2,0a3.709,3.709,0,0,0-1.98-2.515c-1.059-.572-2.191-1.005-3.255-1.568A16.706,16.706,0,0,1,1274,17.962a2.564,2.564,0,0,1-1-2.291c.049-.657,0-1.321.014-1.981a.813.813,0,0,1,.1-.476,5.2,5.2,0,0,0,1.018-3.056.9.9,0,0,1,.45-.77,1.661,1.661,0,0,0,.329-2.675.478.478,0,0,1-.111-.677,5.555,5.555,0,0,0,.586-3.4A2.469,2.469,0,0,0,1272.881.1a1.174,1.174,0,0,1-1.332-.874c-.054-.152-.328-.357-.458-.33-.677.143-1.342.343-2.006.542-.351.1-.416.335-.331.7a7.312,7.312,0,0,1-.231,4.123,1.11,1.11,0,0,0,.056.728,2.922,2.922,0,0,1-.017,2.885,14.747,14.747,0,0,0-1.672,3.69.438.438,0,0,1-.081.149c-.651.7-.525,1.579-.619,2.435a2.162,2.162,0,0,0,1.4,2.326c.267.14.542.264.812.4,1.2.6,2.43,1.129,3.581,1.8A6.315,6.315,0,0,1,1275,22.682c.078.305.14.615.212.931Z" transform="translate(-1232.274 26.175)" fill="#1d272b"/>
      <path id="Trazado_167017" data-name="Trazado 167017" d="M1110.96-137.542h11.257v2.212h-13.53v-44.126h5.612V-185.1h27.17v5.616h5.661v14.7h-2.221v-12.4h-26.019v-2.274H1139.2v-3.367H1116.59v5.607h-5.63Z" transform="translate(-1108.687 185.099)" fill="#1d272b"/>
      <path id="Trazado_167018" data-name="Trazado 167018" d="M1172.971-83.023h-4.466v-2.2h4.466Z" transform="translate(-1161.716 96.555)" fill="#1d272b"/>
      <path id="Trazado_167019" data-name="Trazado 167019" d="M1262.795-83h-4.462v-2.2h4.462Z" transform="translate(-1241.348 96.539)" fill="#1d272b"/>
      <path id="Trazado_167020" data-name="Trazado 167020" d="M1348.173-85.346h4.455v2.2h-4.455Z" transform="translate(-1320.991 96.668)" fill="#1d272b"/>
      <path id="Trazado_167021" data-name="Trazado 167021" d="M1173.077-33.174h-4.461v-2.207h4.461Z" transform="translate(-1161.814 52.374)" fill="#1d272b"/>
      <path id="Trazado_167022" data-name="Trazado 167022" d="M1258.484-35.5h4.448v2.214h-4.448Z" transform="translate(-1241.482 52.479)" fill="#1d272b"/>
      <path id="Trazado_167023" data-name="Trazado 167023" d="M1348-33.132v-2.176h4.479v2.176Z" transform="translate(-1320.837 52.309)" fill="#1d272b"/>
      <path id="Trazado_167024" data-name="Trazado 167024" d="M1173.087,16.739h-4.458v-2.2h4.458Z" transform="translate(-1161.826 8.124)" fill="#1d272b"/>
      <path id="Trazado_167025" data-name="Trazado 167025" d="M1168.491,66.581v-2.2h4.459v2.2Z" transform="translate(-1161.703 -36.069)" fill="#1d272b"/>
      <path id="Trazado_167026" data-name="Trazado 167026" d="M1173.034,116.51h-4.448V114.3h4.448Z" transform="translate(-1161.787 -80.315)" fill="#1d272b"/>
      <path id="Trazado_167027" data-name="Trazado 167027" d="M1172.978,166.5h-4.464v-2.2h4.464Z" transform="translate(-1161.724 -124.644)" fill="#1d272b"/>
      <path id="Trazado_167028" data-name="Trazado 167028" d="M1262.805,164.3v2.19h-4.479V164.3Z" transform="translate(-1241.342 -124.647)" fill="#1d272b"/>
      <path id="Trazado_167029" data-name="Trazado 167029" d="M1258.272,16.744V14.512h4.217c-.466.728-.9,1.419-1.352,2.1a.466.466,0,0,1-.339.13C1259.974,16.749,1259.149,16.744,1258.272,16.744Z" transform="translate(-1241.294 8.144)" fill="#1d272b"/>
      <path id="Trazado_167030" data-name="Trazado 167030" d="M1262.182,116.277h-3.858v-2.236c.912,0,1.828,0,2.744.008a.345.345,0,0,1,.256.169C1261.614,114.885,1261.887,115.561,1262.182,116.277Z" transform="translate(-1241.34 -80.088)" fill="#1d272b"/>
      <path id="Trazado_167031" data-name="Trazado 167031" d="M1261.521,66.674h-3.066v-2.2h2.67Z" transform="translate(-1241.456 -36.15)" fill="#1d272b"/>
    </g>
  </g>
</svg>
