<svg xmlns="http://www.w3.org/2000/svg" xmlns:xlink="http://www.w3.org/1999/xlink" width="126.927" height="126.927" viewBox="0 0 126.927 126.927">
  <defs>
    <radialGradient id="radial-gradient" cx="0.076" cy="0.019" r="1.465" gradientTransform="translate(0.001)" gradientUnits="objectBoundingBox">
      <stop offset="0" stop-color="#f6f6f7"/>
      <stop offset="0.477" stop-color="#f9f9fa"/>
      <stop offset="0.715" stop-color="#fff"/>
    </radialGradient>
  </defs>
  <g id="icon3" transform="translate(0)">
    <g id="Grupo_42274" data-name="Grupo 42274" transform="translate(0)">
      <g id="Grupo_18423" data-name="Grupo 18423" transform="translate(0 0)">
        <g id="Grupo_18421" data-name="Grupo 18421">
          <g id="Grupo_18420" data-name="Grupo 18420">
            <g id="Grupo_18419" data-name="Grupo 18419">
              <path id="Trazado_40936" data-name="Trazado 40936" d="M321.55,2209.183a63.464,63.464,0,1,1-63.463-63.462A63.463,63.463,0,0,1,321.55,2209.183Z" transform="translate(-194.623 -2145.721)" fill="#fff"/>
            </g>
          </g>
        </g>
        <path id="Trazado_40937" data-name="Trazado 40937" d="M320.783,2208.346a63.462,63.462,0,1,0-63.463,63.465A63.213,63.213,0,0,0,320.783,2208.346Z" transform="translate(-193.856 -2144.885)" fill="url(#radial-gradient)"/>
        <path id="Trazado_40938" data-name="Trazado 40938" d="M298.935,2201.548a48.442,48.442,0,1,0-48.441,48.441A48.262,48.262,0,0,0,298.935,2201.548Z" transform="translate(-186.837 -2137.874)" fill="none" stroke="#008f85" stroke-miterlimit="10" stroke-width="4"/>
        <g id="Grupo_18422" data-name="Grupo 18422" transform="translate(11.243 35.63)">
          <path id="Trazado_40939" data-name="Trazado 40939" d="M309.812,2164.488a63.471,63.471,0,0,1-109.267,63.2,63.27,63.27,0,0,0,109.267-63.2Z" transform="translate(-200.545 -2164.488)" fill="#eceef0"/>
        </g>
      </g>
    </g>
    <g id="zgSdKU" transform="translate(38.814 36.171)">
      <g id="Grupo_129411" data-name="Grupo 129411">
        <path id="Trazado_166487" data-name="Trazado 166487" d="M713.587-173.18a6.489,6.489,0,0,1,1.294-3.853,15.43,15.43,0,0,1,3.346-3.384c1.027-.809,2.038-1.646,3.124-2.368a12.576,12.576,0,0,1,4.544-2.093,4.142,4.142,0,0,1,3.878,1.172,11.585,11.585,0,0,1,2.107,2.971,15.682,15.682,0,0,1,1.488,3.787,7.479,7.479,0,0,1-.41,5.078,7.71,7.71,0,0,1-3.042,3.221c-.783.479-1.586.929-2.4,1.347a2.536,2.536,0,0,0-1.39,2.223,8.956,8.956,0,0,0,.308,2.844,23.21,23.21,0,0,0,1.738,4.637,56.2,56.2,0,0,0,4.99,8.651,17.022,17.022,0,0,0,3.218,3.574,5.283,5.283,0,0,0,1.6.912,2.334,2.334,0,0,0,1.946-.175c.938-.511,1.873-1.034,2.845-1.475a7.906,7.906,0,0,1,3.626-.712,7.1,7.1,0,0,1,4.309,1.723,13.378,13.378,0,0,1,3.1,3.906,11.866,11.866,0,0,1,1.3,3.224,4.18,4.18,0,0,1-1.326,4.178,11.919,11.919,0,0,1-3.456,2.28,34.634,34.634,0,0,1-7.206,2.507,8.37,8.37,0,0,1-4.658-.3,8.2,8.2,0,0,1-2.417-1.618,42.689,42.689,0,0,1-4.878-5.222,116.725,116.725,0,0,1-8.878-12.338,41,41,0,0,1-2.661-5.435q-.992-2.3-1.909-4.63c-.474-1.2-.892-2.419-1.341-3.627a64.2,64.2,0,0,1-2.114-6.745A19.341,19.341,0,0,1,713.587-173.18ZM741.02-130.3a8.821,8.821,0,0,0,2.934-.409c1.554-.516,3.092-1.08,4.628-1.647a13.389,13.389,0,0,0,3.487-1.913,9.029,9.029,0,0,0,.886-.79,2.708,2.708,0,0,0,.624-2.946A13.269,13.269,0,0,0,750-143.755a5.776,5.776,0,0,0-2.589-1.441,6.045,6.045,0,0,0-3.947.4,30.016,30.016,0,0,0-2.723,1.4,3.874,3.874,0,0,1-3.559.213,8.8,8.8,0,0,1-2.841-2.034,27.052,27.052,0,0,1-3.586-4.634,57.836,57.836,0,0,1-3.753-6.768c-.456-.982-.873-1.982-1.282-2.984-.191-.467-.322-.959-.478-1.441a10.69,10.69,0,0,1-.592-4.157,4.385,4.385,0,0,1,.735-2.181,4.484,4.484,0,0,1,1.62-1.324,19.255,19.255,0,0,0,3.022-1.834,5.611,5.611,0,0,0,1.915-6.041,13.587,13.587,0,0,0-1.538-3.792,11.786,11.786,0,0,0-1.478-2.091,2.835,2.835,0,0,0-2.916-.933,12.4,12.4,0,0,0-3.857,1.85c-.748.488-1.437,1.067-2.148,1.612a22.323,22.323,0,0,0-3.261,2.9,5.873,5.873,0,0,0-1.582,5.246c.288,1.486.615,2.96,1.043,4.411.7,2.377,1.509,4.716,2.4,7.027.379.981.74,1.969,1.136,2.942.429,1.056.88,2.1,1.338,3.146a40.8,40.8,0,0,0,2.856,5.656q3.156,4.942,6.787,9.544,1.232,1.569,2.519,3.095a38.57,38.57,0,0,0,3.935,4.089A5.42,5.42,0,0,0,741.02-130.3Z" transform="translate(-713.586 184.97)" fill="#1d272b"/>
        <path id="Trazado_166488" data-name="Trazado 166488" d="M1425.581-94.9a23.889,23.889,0,0,1-.357,3.972,2.549,2.549,0,0,1-.488,1.173c-.4.5-.883.431-1.131-.158a1.863,1.863,0,0,1-.075-1.075,21.306,21.306,0,0,0-1.938-13.558,21.414,21.414,0,0,0-9.665-9.752c-.6-.309-1.239-.561-1.865-.829a2.075,2.075,0,0,1-.936-.664.673.673,0,0,1-.133-.69.655.655,0,0,1,.61-.343,2.8,2.8,0,0,1,1.344.237,23.178,23.178,0,0,1,12.142,11.244,22.966,22.966,0,0,1,2.409,8.686C1425.546-96.076,1425.555-95.489,1425.581-94.9Z" transform="translate(-1375.875 120.077)" fill="#1d272b"/>
        <path id="Trazado_166489" data-name="Trazado 166489" d="M1357.175,36.946c-.073.771-.111,1.484-.219,2.187a3.621,3.621,0,0,1-.364.995.635.635,0,0,1-.621.405.654.654,0,0,1-.6-.506,2.992,2.992,0,0,1-.092-.929c.044-.726.188-1.449.19-2.174a15.706,15.706,0,0,0-3.513-10.139,15.442,15.442,0,0,0-6.165-4.635,1.533,1.533,0,0,1-.822-.684.607.607,0,0,1,.49-.971,2.345,2.345,0,0,1,1.271.229,17.47,17.47,0,0,1,10.3,14.077C1357.118,35.531,1357.133,36.269,1357.175,36.946Z" transform="translate(-1314.838 -10.706)" fill="#1d272b"/>
        <path id="Trazado_166490" data-name="Trazado 166490" d="M1298.175,185.334c-.085.648-.151,1.277-.255,1.9a1.448,1.448,0,0,1-.557.911.866.866,0,0,1-.644.177.28.28,0,0,1-.209-.154,2.152,2.152,0,0,1-.064-.737,7.744,7.744,0,0,0-.462-4.656,7.43,7.43,0,0,0-4.314-3.953,2.112,2.112,0,0,1-.462-.237.435.435,0,0,1-.042-.753,1.2,1.2,0,0,1,1-.276,4.379,4.379,0,0,1,1.59.6,8.4,8.4,0,0,1,4.1,5.272A16.312,16.312,0,0,1,1298.175,185.334Z" transform="translate(-1263.509 -160.301)" fill="#1d272b"/>
      </g>
    </g>
  </g>
</svg>
