<svg xmlns="http://www.w3.org/2000/svg" xmlns:xlink="http://www.w3.org/1999/xlink" width="79.155" height="79.154" viewBox="0 0 79.155 79.154">
  <defs>
    <radialGradient id="radial-gradient" cx="0.077" cy="0.019" r="1.465" gradientTransform="matrix(1, 0, 0, -1, 0, 9.666)" gradientUnits="objectBoundingBox">
      <stop offset="0" stop-color="#f4f4f5"/>
      <stop offset="0.477" stop-color="#f7f8fa"/>
      <stop offset="0.715" stop-color="#fff"/>
    </radialGradient>
  </defs>
  <g id="icon7" transform="translate(0)">
    <g id="Group_18531" data-name="Group 18531">
      <g id="Group_18423" data-name="Group 18423">
        <g id="Group_18421" data-name="Group 18421">
          <g id="Group_18420" data-name="Group 18420">
            <g id="Group_18419" data-name="Group 18419">
              <path id="Path_40936" data-name="Path 40936" d="M201.954,554.407a39.577,39.577,0,1,1-39.578-39.575h0A39.576,39.576,0,0,1,201.954,554.407Z" transform="translate(-122.8 -514.832)" fill="#fff"/>
            </g>
          </g>
        </g>
        <path id="Path_40937" data-name="Path 40937" d="M201.953,554.407a39.42,39.42,0,1,0,0,.312Z" transform="translate(-122.799 -514.832)" fill="url(#radial-gradient)"/>
        <path id="Path_40938" data-name="Path 40938" d="M190.028,551.858a30.209,30.209,0,1,0-30.209,30.209h0a30.1,30.1,0,0,0,30.209-29.984Z" transform="translate(-120.122 -512.151)" fill="none" stroke="#1d272b" stroke-miterlimit="10" stroke-width="2"/>
        <g id="Group_18422" data-name="Group 18422" transform="translate(7.012 22.22)">
          <path id="Path_40939" data-name="Path 40939" d="M195.973,530.78a39.581,39.581,0,0,1-68.14,39.411,39.456,39.456,0,0,0,68.14-39.411Z" transform="translate(-127.833 -530.78)" fill="#e7e9eb"/>
        </g>
      </g>
    </g>
    <g id="VZRk62" transform="translate(146.044 -60.874)">
      <g id="Grupo_130124" data-name="Grupo 130124" transform="translate(-128.521 82.933)">
        <path id="Trazado_167055" data-name="Trazado 167055" d="M-83.646,113.382a8.994,8.994,0,0,1-.146.9,1.418,1.418,0,0,1-1.193,1.155,9.75,9.75,0,0,1-1.362.127c-2.384.029-4.769.05-7.154.05-.6,0-1.208-.081-1.811-.139a1.915,1.915,0,0,1-.478-.134,1.274,1.274,0,0,1-.926-1.249c-.018-1.1-.055-2.193-.058-3.289,0-.964.037-1.927.047-2.891.008-.8.473-1.19,1.245-1.352a10.472,10.472,0,0,1,1.758-.148c.888-.033,1.778-.035,2.667-.051.065,0,.129-.011.213-.019,0-.09.012-.171.012-.251-.015-1.72-.028-3.44-.049-5.16-.012-.955-.252-1.279-1.206-1.414a24.4,24.4,0,0,0-3.047-.278c-3.431-.05-6.863-.05-10.295-.068-.056,0-.112.01-.2.018v.279c0,2.2,0,4.4-.005,6.607,0,.233.068.289.292.293,1.288.019,2.576.029,3.862.093a1.718,1.718,0,0,1,1.586.906,1.991,1.991,0,0,1,.181.838c.012,1.878,0,3.756,0,5.634a1.621,1.621,0,0,1-1.3,1.623,5.157,5.157,0,0,1-.989.1c-2.509.025-5.018.052-7.528.048a11.392,11.392,0,0,1-1.93-.184,1.377,1.377,0,0,1-1.259-1.388c-.065-.986-.075-1.976-.081-2.964-.006-.939.013-1.878.041-2.816a1.728,1.728,0,0,1,.5-1.31,1.716,1.716,0,0,1,1.133-.448c1.32-.053,2.64-.091,3.96-.134.1,0,.2,0,.315,0V99.177c-.079,0-.159-.014-.238-.013-3.083.022-6.166.031-9.248.076-1.253.018-2.505.1-3.756.182a5.222,5.222,0,0,0-1.046.218.868.868,0,0,0-.7.888c-.029.813-.043,1.627-.05,2.441-.008,1.039,0,2.078,0,3.116,0,.081.007.163.011.265.1.006.189.013.278.015,1.379.031,2.758.058,4.137.1a3.491,3.491,0,0,1,.715.086,1.469,1.469,0,0,1,1.332,1.5c.027.622.056,1.245.054,1.868,0,1.2-.026,2.41-.044,3.614,0,.182-.025.364-.039.547-.057.714-.216,1.082-1.2,1.345a7.14,7.14,0,0,1-1.776.195c-2.044.016-4.088,0-6.132-.016-.772-.007-1.543-.064-2.314-.1a1.652,1.652,0,0,1-1.608-1.748c-.008-.123-.033-.245-.049-.367v-4.039c.029-.48.042-.961.091-1.438a1.336,1.336,0,0,1,.94-1.206,6.032,6.032,0,0,1,1.483-.276c.828-.05,1.661-.029,2.492-.038.123,0,.246,0,.419,0,0-.608-.006-1.187,0-1.766.016-1.354.046-2.708.057-4.062a2.012,2.012,0,0,1,1.406-1.993,7.508,7.508,0,0,1,2.364-.439c4.026-.234,8.056-.14,12.085-.161h.335V94.8c-.1,0-.194-.011-.29-.013-1.719-.035-3.439-.053-5.157-.114a3.867,3.867,0,0,1-1.253-.275,1.708,1.708,0,0,1-1.145-1.655c-.025-1.146-.043-2.293-.042-3.439q0-2.094.04-4.187a1.812,1.812,0,0,1,1.632-1.994,13.279,13.279,0,0,1,2.4-.188q5.134-.011,10.269.039a4.887,4.887,0,0,1,1.2.195,1.727,1.727,0,0,1,1.428,1.8q.033,3.913,0,7.826a1.824,1.824,0,0,1-1.627,1.779,11.815,11.815,0,0,1-1.858.154c-1.37.037-2.741.047-4.112.058-.2,0-.272.051-.269.264.011.881,0,1.762.005,2.642,0,.073.008.145.015.262.576,0,1.138,0,1.7,0,2.642.025,5.284.037,7.926.086,1.161.021,2.323.088,3.479.2a6.41,6.41,0,0,1,1.535.393,2.425,2.425,0,0,1,1.282,1.513.659.659,0,0,1,.016.247q.031,2.842.062,5.683c0,.09.008.18.013.3.106.006.2.013.3.015,1.187.023,2.375.041,3.562.073a3.555,3.555,0,0,1,.688.105A1.6,1.6,0,0,1-83.7,108.2c.016.364.034.728.051,1.092Zm-22.715-29.225v0c-1.653,0-3.306-.009-4.96.005-.521,0-1.043.069-1.563.113a.581.581,0,0,0-.563.563,3.834,3.834,0,0,0-.057.519q-.01,3.589-.008,7.178c0,.551.159.754.709.845a12.687,12.687,0,0,0,1.8.191q3.065.059,6.131.056c1.395,0,2.79-.05,4.184-.1a6.5,6.5,0,0,0,1.25-.2.574.574,0,0,0,.486-.634c.019-.423.042-.847.041-1.27q-.006-3.178-.024-6.356c0-.49-.081-.633-.569-.742a6.4,6.4,0,0,0-1.329-.162C-102.672,84.147-104.517,84.157-106.361,84.157ZM-90.49,107.6q0-.035,0-.07-2.255.057-4.509.116c-.385.011-.519.134-.555.518-.028.3-.045.6-.047.9-.006,1.562.006,3.125-.017,4.687a.47.47,0,0,0,.358.508,1.2,1.2,0,0,0,.341.068c.34.023.68.048,1.02.049q4.013.01,8.026.009c.809,0,.972-.157.983-.958q.031-2.156.03-4.312a9.605,9.605,0,0,0-.076-1.017.416.416,0,0,0-.4-.405,8.164,8.164,0,0,0-.816-.083C-87.6,107.6-89.044,107.6-90.49,107.6Zm-31.448,6.736v.026c1.3,0,2.609,0,3.913,0a7.19,7.19,0,0,0,1.017-.076c.311-.047.452-.2.45-.429q-.022-2.816-.048-5.633c0-.367-.079-.453-.447-.53a1.7,1.7,0,0,0-.32-.04c-2.342-.034-4.684-.079-7.027-.091-.779,0-1.56.054-2.336.125-.415.038-.534.2-.538.609q-.031,2.8-.039,5.608a.292.292,0,0,0,.135.229,2.445,2.445,0,0,0,.754.2C-124.928,114.349-123.433,114.34-121.938,114.34Zm15.47-6.817c-1.362.04-2.881.085-4.4.128-.548.016-.661.121-.7.672,0,.066-.007.133-.007.2q-.016,2.591-.031,5.182c0,.393.1.521.5.6a2.513,2.513,0,0,0,.421.04c.971.016,1.943.039,2.914.04q2.728,0,5.456-.017a5.673,5.673,0,0,0,1.016-.079c.2-.038.457-.087.454-.4-.017-1.877-.029-3.753-.049-5.63,0-.417-.069-.483-.489-.569a1.567,1.567,0,0,0-.271-.034C-103.206,107.609-104.758,107.568-106.468,107.523Z" transform="translate(128.521 -82.933)" fill="#1d272b"/>
      </g>
    </g>
  </g>
</svg>
