<svg xmlns="http://www.w3.org/2000/svg" xmlns:xlink="http://www.w3.org/1999/xlink" width="126.927" height="126.927" viewBox="0 0 126.927 126.927">
  <defs>
    <radialGradient id="radial-gradient" cx="0.076" cy="0.019" r="1.465" gradientTransform="translate(0.001)" gradientUnits="objectBoundingBox">
      <stop offset="0" stop-color="#f6f6f7"/>
      <stop offset="0.477" stop-color="#f9f9fa"/>
      <stop offset="0.715" stop-color="#fff"/>
    </radialGradient>
  </defs>
  <g id="icon5" transform="translate(0)">
    <g id="Grupo_42274" data-name="Grupo 42274" transform="translate(0)">
      <g id="Grupo_18423" data-name="Grupo 18423" transform="translate(0 0)">
        <g id="Grupo_18421" data-name="Grupo 18421">
          <g id="Grupo_18420" data-name="Grupo 18420">
            <g id="Grupo_18419" data-name="Grupo 18419">
              <path id="Trazado_40936" data-name="Trazado 40936" d="M321.55,2209.183a63.464,63.464,0,1,1-63.463-63.462A63.463,63.463,0,0,1,321.55,2209.183Z" transform="translate(-194.623 -2145.721)" fill="#fff"/>
            </g>
          </g>
        </g>
        <path id="Trazado_40937" data-name="Trazado 40937" d="M320.783,2208.346a63.462,63.462,0,1,0-63.463,63.465A63.213,63.213,0,0,0,320.783,2208.346Z" transform="translate(-193.856 -2144.885)" fill="url(#radial-gradient)"/>
        <path id="Trazado_40938" data-name="Trazado 40938" d="M298.935,2201.548a48.442,48.442,0,1,0-48.441,48.441A48.262,48.262,0,0,0,298.935,2201.548Z" transform="translate(-186.837 -2137.874)" fill="none" stroke="#008f85" stroke-miterlimit="10" stroke-width="4"/>
        <g id="Grupo_18422" data-name="Grupo 18422" transform="translate(11.243 35.63)">
          <path id="Trazado_40939" data-name="Trazado 40939" d="M309.812,2164.488a63.471,63.471,0,0,1-109.267,63.2,63.27,63.27,0,0,0,109.267-63.2Z" transform="translate(-200.545 -2164.488)" fill="#eceef0"/>
        </g>
      </g>
    </g>
    <g id="Grupo_129413" data-name="Grupo 129413" transform="translate(32.288 32.512)">
      <path id="Trazado_166501" data-name="Trazado 166501" d="M1734.538,203.57h1.049c3.6,0,7.2-.015,10.8.017a9.67,9.67,0,0,1,9.878,9.97q.006,6.555,0,13.11a9.31,9.31,0,0,1-6.893,9.088c-.558.156-.745.375-.721.935.04.952-.007,1.908.016,2.861a2.823,2.823,0,0,1-4.794,2.3c-2.044-1.728-4.09-3.455-6.185-5.12a2.939,2.939,0,0,0-1.644-.6c-2.983-.072-5.978.085-8.951-.1a9.532,9.532,0,0,1-8.954-8.862c-.028-.3-.061-.6-.09-.878a4.114,4.114,0,0,0-3.856,1.031c-1.742,1.644-3.668,3.091-5.506,4.635a2.789,2.789,0,0,1-3.16.564,2.737,2.737,0,0,1-1.625-2.763c.012-.985-.015-1.97.02-2.954a.784.784,0,0,0-.638-.926,9.335,9.335,0,0,1-7.016-9.554q-.016-6.278,0-12.557a9.713,9.713,0,0,1,10.069-10.073q8.956-.006,17.911,0c5.787,0,9.78,3.707,10.208,9.466C1734.467,203.245,1734.494,203.334,1734.538,203.57ZM1720.493,226.2c0,.315-.014.523,0,.729a7.357,7.357,0,0,0,7.416,6.8c3.015.032,6.031-.02,9.045.034a2.77,2.77,0,0,1,1.568.571c2.256,1.806,4.458,3.682,6.69,5.518a3.725,3.725,0,0,0,.791.385,3.614,3.614,0,0,0,.258-.9c.028-1.507.039-3.016,0-4.522-.017-.723.211-1.03.979-1.1a6.944,6.944,0,0,0,6.646-7.319q.016-6.415,0-12.83a7.33,7.33,0,0,0-7.641-7.6q-5.353-.01-10.707,0c-.33,0-.66.029-1.113.05,0,2.436.011,4.8,0,7.155a42.657,42.657,0,0,1-.112,4.788,9.623,9.623,0,0,1-9.252,8.247C1723.563,226.227,1722.063,226.2,1720.493,226.2Zm-2.4-2.447c0-.426,0-.79,0-1.154.036-3.346.024-6.693.124-10.036a9.142,9.142,0,0,1,4.491-7.51,9.5,9.5,0,0,1,5.53-1.482c1.253.009,2.506,0,3.84,0a13.644,13.644,0,0,0-.1-1.393,7.29,7.29,0,0,0-7.363-6.1q-9.228-.038-18.457,0a7.324,7.324,0,0,0-7.5,7.549q-.018,6.552,0,13.1a6.96,6.96,0,0,0,6.619,7.065c.756.053,1.023.355,1.011,1.085-.027,1.568-.017,3.138.006,4.706a.526.526,0,1,0,.946.451c1.738-1.42,3.542-2.774,5.165-4.317,1.494-1.42,3.078-2.277,5.177-1.912A2.477,2.477,0,0,0,1718.09,223.751Zm2.371.062c1.441,0,2.758,0,4.076,0a7.427,7.427,0,0,0,7.562-8.124c-.062-.917,0-1.842.005-2.763,0-2.291,0-4.583,0-6.937-1.754,0-3.348-.062-4.936.013a7.213,7.213,0,0,0-6.515,5.816,34.4,34.4,0,0,0-.185,4.117C1720.442,218.513,1720.461,221.09,1720.461,223.813Z" transform="translate(-1696.261 -180.193)" fill="#1d272b"/>
      <path id="Trazado_166502" data-name="Trazado 166502" d="M1837.639,161.142c0,1-.747,1.564-1.472,1.236-1.7-.768-3.379-1.59-5.042-2.439a1.072,1.072,0,0,1,.955-1.918c1.661.783,3.32,1.573,4.952,2.412C1837.338,160.591,1837.517,160.994,1837.639,161.142Z" transform="translate(-1805.742 -151.016)" fill="#1d272b"/>
      <path id="Trazado_166503" data-name="Trazado 166503" d="M1936.194,171.3c-.2-.193-.685-.448-.763-.794a1.315,1.315,0,0,1,.4-1.165c1.729-.86,3.5-1.651,5.295-2.353a1.028,1.028,0,0,1,.93,1.773c-1.78.891-3.62,1.662-5.442,2.469A3.043,3.043,0,0,1,1936.194,171.3Z" transform="translate(-1891.24 -158.406)" fill="#1d272b"/>
      <path id="Trazado_166504" data-name="Trazado 166504" d="M1937.388,211.421c-.4-.151-.638-.22-.856-.324q-2.245-1.073-4.482-2.159c-.653-.318-1.078-.795-.7-1.541.362-.72.969-.743,1.648-.41,1.516.745,3.041,1.472,4.56,2.212.555.27.929.718.68,1.325C1938.083,210.89,1937.661,211.144,1937.388,211.421Z" transform="translate(-1887.81 -190.869)" fill="#1d272b"/>
      <path id="Trazado_166505" data-name="Trazado 166505" d="M1921.958,126.652c.929.036,1.489.862,1.057,1.522-1.057,1.616-2.194,3.182-3.351,4.729a.863.863,0,0,1-1.376.107,1.521,1.521,0,0,1-.28-1.346c1.024-1.6,2.162-3.128,3.3-4.654C1921.462,126.8,1921.815,126.726,1921.958,126.652Z" transform="translate(-1876.991 -125.541)" fill="#1d272b"/>
      <path id="Trazado_166506" data-name="Trazado 166506" d="M1872.5,120.638c.162.143.582.351.741.683.782,1.633,1.508,3.294,2.227,4.956a1,1,0,0,1-.535,1.39.963.963,0,0,1-1.4-.492c-.786-1.7-1.557-3.407-2.263-5.139C1870.983,121.313,1871.518,120.639,1872.5,120.638Z" transform="translate(-1838.885 -120.638)" fill="#1d272b"/>
    </g>
  </g>
</svg>
