<svg id="icon1" xmlns="http://www.w3.org/2000/svg" xmlns:xlink="http://www.w3.org/1999/xlink" width="114.636" height="114.636" viewBox="0 0 114.636 114.636">
  <defs>
    <radialGradient id="radial-gradient" cx="0.076" cy="0.019" r="1.465" gradientTransform="translate(0.001)" gradientUnits="objectBoundingBox">
      <stop offset="0" stop-color="#f6f6f7"/>
      <stop offset="0.477" stop-color="#f9f9fa"/>
      <stop offset="0.715" stop-color="#fff"/>
    </radialGradient>
  </defs>
  <g id="Grupo_18423" data-name="Grupo 18423" transform="translate(0 0)">
    <g id="Grupo_18421" data-name="Grupo 18421">
      <g id="Grupo_18420" data-name="Grupo 18420">
        <g id="Grupo_18419" data-name="Grupo 18419">
          <path id="Trazado_40936" data-name="Trazado 40936" d="M309.259,2203.037a57.318,57.318,0,1,1-57.317-57.316A57.317,57.317,0,0,1,309.259,2203.037Z" transform="translate(-194.623 -2145.721)" fill="#fff"/>
        </g>
      </g>
    </g>
    <path id="Trazado_40937" data-name="Trazado 40937" d="M308.648,2202.372a57.316,57.316,0,1,0-57.317,57.319A57.091,57.091,0,0,0,308.648,2202.372Z" transform="translate(-194.013 -2145.056)" fill="url(#radial-gradient)"/>
    <path id="Trazado_40938" data-name="Trazado 40938" d="M289.672,2196.986a43.75,43.75,0,1,0-43.75,43.75A43.587,43.587,0,0,0,289.672,2196.986Z" transform="translate(-188.43 -2139.479)" fill="none" stroke="#1d272d" stroke-miterlimit="10" stroke-width="4"/>
    <g id="Grupo_18422" data-name="Grupo 18422" transform="translate(10.154 32.18)">
      <path id="Trazado_40939" data-name="Trazado 40939" d="M299.231,2164.488a57.325,57.325,0,0,1-98.686,57.081,57.143,57.143,0,0,0,98.686-57.081Z" transform="translate(-200.545 -2164.488)" fill="#eceef0"/>
    </g>
  </g>
  <g id="DWBEdX.tif" transform="translate(-506.317 -65.994)">
    <g id="Grupo_130115" data-name="Grupo 130115" transform="translate(538.252 95.231)">
      <path id="Trazado_167013" data-name="Trazado 167013" d="M541.6,149.858a4.714,4.714,0,0,1-2.376-1.37,3.965,3.965,0,0,1,.059-5.271,3.923,3.923,0,0,1,5.184-.585c.119.081.234.168.4.291l10.274-6.849-.027-.122h-.584c-2.048,0-4.1.005-6.145,0a5.957,5.957,0,0,1-6.166-6.132q-.013-3.351,0-6.7a8.3,8.3,0,0,1,7.385-8.285c1.724-.208,3.449-.413,5.177-.579.4-.039.545-.2.575-.554a.256.256,0,0,1,.009-.061,2.311,2.311,0,0,0-.9-2.953,9.384,9.384,0,0,1-1.561-2.128c-.133-.179-.38-.4-.566-.4a4.008,4.008,0,0,1-3.553-6.135,3.91,3.91,0,0,1,3.274-1.894c.057-.241.118-.5.178-.752a4.471,4.471,0,0,1,2.566-3.15.881.881,0,0,1,.679.013,19.091,19.091,0,0,0,9.058,1.937c1.152-.022,2.306,0,3.516,0v1.918c.349.068.65.112.944.187A4.044,4.044,0,0,1,572,104.565a3.962,3.962,0,0,1-3.887,3.562.86.86,0,0,0-.932.571,6.985,6.985,0,0,1-2.257,2.754.72.72,0,0,0-.329.835c.128.583.215,1.175.323,1.785h11.035c.012-.191.033-.37.033-.549,0-2.069-.005-4.138.008-6.207a.869.869,0,0,0-.391-.821,3.841,3.841,0,0,1-.585-5.73,5.82,5.82,0,0,0,.6-.629,1.82,1.82,0,0,0,.359-.85,4.009,4.009,0,0,1,3.992-4.056,3.968,3.968,0,0,1,3.966,4.066q.03,8.347.033,16.694a5.953,5.953,0,0,1-5.028,6.018,3.07,3.07,0,0,1-.553.038c-1.758,0-3.516,0-5.358,0,.024.748-.145,1.41.491,2.1a5.818,5.818,0,0,1,0,7.76c-.121.138-.244.274-.392.44l1.483,2.228A4.935,4.935,0,0,1,579,134.4l3.6-6.281c1.068.466,2.109.9,3.123,1.389.139.067.2.414.2.632q.016,8.472.008,16.944v.76h1.97V129.978h2v19.88Zm8.567-21.851c2.326,0,4.577.008,6.828-.012a.908.908,0,0,0,.656-.289c.086-.12-.025-.453-.139-.634a28.122,28.122,0,0,1-3.332-7.509c-.283-1.029-.49-2.08-.741-3.159-1.11.118-2.2.206-3.285.353-3.805.515-5.946,2.983-5.947,6.825,0,2.069,0,4.138,0,6.208a3.972,3.972,0,0,0,4.169,4.176c2.711.006,5.421,0,8.132,0h.575v-3.972c-2.451,0-4.868-.006-7.284.013a.9.9,0,0,0-.507.29c-.473.447-.925.915-1.339,1.328l-1.506-1.407c.436-.4.834-.792,1.257-1.152a1.3,1.3,0,0,0,.487-1.124c-.034-1.386-.016-2.773-.011-4.159a3.026,3.026,0,0,0-.912-2.233c-.255-.257-.508-.516-.72-.731l1.328-1.419a5.473,5.473,0,0,1,2.3,4.548C550.145,125.271,550.169,126.594,550.169,128.007Zm20.884-5.631v-2.315c2.275,0,4.487,0,6.7,0a3.981,3.981,0,0,0,4.2-4.208q.008-4.035,0-8.07c0-.2-.018-.4-.027-.584H577.98c0,2.428-.007,4.806.012,7.185a.952.952,0,0,0,.277.574c.453.473.939.915,1.416,1.373l-1.513,1.525c-.392-.449-.784-.873-1.147-1.321a1.228,1.228,0,0,0-1.074-.458c-2.835.021-5.67.011-8.5.011h-.7a30.788,30.788,0,0,1-2.419,8.152A6.212,6.212,0,0,1,571.052,122.376Zm-5.1-22.18c-.762,0-1.545,0-2.328,0a20.079,20.079,0,0,1-7.613-1.5c-.941-.384-1.22-.289-1.622.657a2.764,2.764,0,0,0-.235,1.015c-.022,1.7-.048,3.393,0,5.087a5.957,5.957,0,0,0,5.56,5.653,5.792,5.792,0,0,0,6.191-4.9A53.275,53.275,0,0,0,565.953,100.2Zm3.144,31.765a3.965,3.965,0,1,0-.385-7.916,3.862,3.862,0,0,0-3.576,3.92C567.592,128.356,568.649,129.413,569.1,131.961Zm12.847-26.8c0-2.1.033-4.117-.014-6.136a1.94,1.94,0,0,0-2-1.808,1.989,1.989,0,0,0-1.945,1.875,10.03,10.03,0,0,1-.02,1.05,1.738,1.738,0,0,1-.336.8c-.368.443-.825.812-1.2,1.252a1.737,1.737,0,0,0-.285,1.913,1.466,1.466,0,0,0,1.266,1.045C578.9,105.186,580.382,105.161,581.944,105.161Zm-22.836,28.794c2.1,0,4.144.039,6.181-.016a1.928,1.928,0,0,0,1.761-1.978,1.994,1.994,0,0,0-1.859-1.96c-.349-.023-.708.035-1.05-.02a1.727,1.727,0,0,1-.8-.326c-.459-.381-.84-.856-1.3-1.235a1.723,1.723,0,0,0-1.919-.24,1.469,1.469,0,0,0-1.007,1.295C559.094,130.938,559.108,132.4,559.108,133.955Zm24.82-3.927-.111-.047c-1.023,1.786-2.052,3.569-3.054,5.367a.638.638,0,0,0,.125.529,5.315,5.315,0,0,1,1.07,3.359c-.018,2.648-.006,5.3-.006,7.944v.643h1.975Zm-13.85,3.875v13.939h1.942v-.695c0-2.586.018-5.172-.008-7.758a5.583,5.583,0,0,1,.875-3.238.553.553,0,0,0,.048-.481c-.467-.751-.968-1.48-1.447-2.2Zm6.91,8.007a2.978,2.978,0,1,0-2.98-3.007A2.992,2.992,0,0,0,576.988,141.91Zm-8.971,5.931V134.747a10.317,10.317,0,0,1-1.429.857.725.725,0,0,0-.538.808c.018,3.6.01,7.2.01,10.8v.633Zm-3.986.03V136h-1.912v11.845c.128.009.226.022.325.022C562.959,147.872,563.473,147.871,564.031,147.871Zm-3.96-11.918c-.251,0-.473,0-.694,0-.89.005-1.262.374-1.262,1.25q0,4.991,0,9.981v.637h1.956Zm-3.99,11.894v-10c-.563.374-1.046.723-1.557,1.024a.748.748,0,0,0-.389.752c.013,2.58.006,5.159.009,7.739,0,.158.025.315.039.485Zm6.575-35.171a8.011,8.011,0,0,1-5.108.016c-.1.547-.169,1.015-.271,1.476a.921.921,0,0,0,.3.986c.582.526,1.114,1.107,1.674,1.658a1.359,1.359,0,0,0,1.673.016c.606-.593,1.209-1.189,1.792-1.8a.775.775,0,0,0,.228-.523C562.887,113.914,562.766,113.331,562.656,112.677Zm-10.532,27.807c-.587.391-1.106.693-1.569,1.064a1.029,1.029,0,0,0-.369.681c-.032,1.611-.017,3.223-.017,4.835v.779h1.956ZM542.2,143.9a1.985,1.985,0,1,0,2.01,1.943A1.993,1.993,0,0,0,542.2,143.9Zm18.047-24.843h-.2c-.052.077-.135.149-.15.233-.353,1.927-.718,3.852-1.036,5.785a.91.91,0,0,0,1.157,1.054c.121-.027.241-.06.363-.079.893-.137,1.088-.421.921-1.323-.244-1.318-.477-2.638-.72-3.956C560.476,120.2,560.357,119.629,560.244,119.057ZM578,147.835h1.916V143l-1.916.853ZM574.046,143v4.826h1.924V143.87Zm-25.914,4.85v-4.707c-.684.455-1.306.86-1.915,1.283-.1.067-.213.244-.187.33a4.123,4.123,0,0,1-.349,3.094ZM562.859,122.2a19.714,19.714,0,0,0,1.876-6.154c-.179.071-.268.081-.318.13-.692.68-1.392,1.353-2.054,2.061a.826.826,0,0,0-.115.618C562.434,119.973,562.652,121.086,562.859,122.2Zm-5.521.011c.1-.515.2-1.029.284-1.545.126-.75.5-1.588.291-2.229-.222-.669-1.012-1.151-1.562-1.707-.219-.222-.46-.423-.691-.634l-.171.115A19.933,19.933,0,0,0,557.339,122.211ZM552.147,102.2a1.987,1.987,0,0,0-1.974,2.1,1.922,1.922,0,0,0,1.974,1.8Zm15.909.025V106.1a1.905,1.905,0,0,0,1.974-1.848A1.943,1.943,0,0,0,568.056,102.223Z" transform="translate(-538.252 -95.231)" fill="#1d272b"/>
      <path id="Trazado_167014" data-name="Trazado 167014" d="M925.253,245.015H923.2c0-.53-.017-1.057.006-1.584a.659.659,0,0,0-.418-.713,2.757,2.757,0,0,1-1.571-2.66h2c.112.6.445,1.051,1.12.908a1.167,1.167,0,0,0,.771-.642,1.019,1.019,0,0,0-.415-.841,15.736,15.736,0,0,0-1.756-.914,2.823,2.823,0,0,1-1.72-2.589,2.872,2.872,0,0,1,1.615-2.66.878.878,0,0,0,.349-.6c.05-.511.016-1.031.016-1.6h2.055c0,.5.024,1.014-.008,1.521a.694.694,0,0,0,.448.758,2.735,2.735,0,0,1,1.538,2.657h-1.986c-.123-.528-.369-.977-1.044-.952-.44.017-.842.2-.861.63a1.207,1.207,0,0,0,.445.9,12.84,12.84,0,0,0,1.7.887,2.9,2.9,0,0,1,.1,5.273.8.8,0,0,0-.321.556C925.224,243.878,925.253,244.414,925.253,245.015Z" transform="translate(-873.572 -214.215)" fill="#1d272b"/>
      <path id="Trazado_167015" data-name="Trazado 167015" d="M690.042,175.1a3.943,3.943,0,0,1-7.886,0h1.895c.367,1.32,1.021,1.942,2.044,1.945s1.713-.64,2.058-1.984c.524,0,1.059,0,1.595,0A2.222,2.222,0,0,1,690.042,175.1Z" transform="translate(-664.254 -165.129)" fill="#1d272b"/>
    </g>
  </g>
</svg>
