<svg xmlns="http://www.w3.org/2000/svg" xmlns:xlink="http://www.w3.org/1999/xlink" width="126.927" height="126.927" viewBox="0 0 126.927 126.927">
  <defs>
    <radialGradient id="radial-gradient" cx="0.076" cy="0.019" r="1.465" gradientTransform="translate(0.001)" gradientUnits="objectBoundingBox">
      <stop offset="0" stop-color="#f6f6f7"/>
      <stop offset="0.477" stop-color="#f9f9fa"/>
      <stop offset="0.715" stop-color="#fff"/>
    </radialGradient>
  </defs>
  <g id="icon2" transform="translate(0)">
    <g id="Grupo_42274" data-name="Grupo 42274" transform="translate(0)">
      <g id="Grupo_18423" data-name="Grupo 18423" transform="translate(0 0)">
        <g id="Grupo_18421" data-name="Grupo 18421">
          <g id="Grupo_18420" data-name="Grupo 18420">
            <g id="Grupo_18419" data-name="Grupo 18419">
              <path id="Trazado_40936" data-name="Trazado 40936" d="M321.55,2209.183a63.464,63.464,0,1,1-63.463-63.462A63.463,63.463,0,0,1,321.55,2209.183Z" transform="translate(-194.623 -2145.721)" fill="#fff"/>
            </g>
          </g>
        </g>
        <path id="Trazado_40937" data-name="Trazado 40937" d="M320.783,2208.346a63.462,63.462,0,1,0-63.463,63.465A63.213,63.213,0,0,0,320.783,2208.346Z" transform="translate(-193.856 -2144.885)" fill="url(#radial-gradient)"/>
        <path id="Trazado_40938" data-name="Trazado 40938" d="M298.935,2201.548a48.442,48.442,0,1,0-48.441,48.441A48.262,48.262,0,0,0,298.935,2201.548Z" transform="translate(-186.837 -2137.874)" fill="none" stroke="#008f85" stroke-miterlimit="10" stroke-width="4"/>
        <g id="Grupo_18422" data-name="Grupo 18422" transform="translate(11.243 35.63)">
          <path id="Trazado_40939" data-name="Trazado 40939" d="M309.812,2164.488a63.471,63.471,0,0,1-109.267,63.2,63.27,63.27,0,0,0,109.267-63.2Z" transform="translate(-200.545 -2164.488)" fill="#eceef0"/>
        </g>
      </g>
    </g>
    <g id="_08IKPM" data-name="08IKPM" transform="translate(36.054 34.628)">
      <g id="Grupo_129410" data-name="Grupo 129410">
        <path id="Trazado_166484" data-name="Trazado 166484" d="M182-264.835H158a3.306,3.306,0,0,1-3.432-3.434q0-15.978,0-31.955a3.32,3.32,0,0,1,1.519-2.9q4.216-2.89,8.436-5.773a.608.608,0,0,0,.3-.591c-.018-.861-.016-1.724-.008-2.585a1.162,1.162,0,0,1,1.225-1.214c1.574,0,3.148-.006,4.722,0a.969.969,0,0,0,.593-.192q3.789-2.642,7.587-5.273a5.382,5.382,0,0,1,6.122,0q3.833,2.653,7.663,5.31a.82.82,0,0,0,.434.139c1.583.01,3.166.005,4.75.007a1.178,1.178,0,0,1,1.279,1.275c0,.9,0,1.8-.01,2.7a.379.379,0,0,0,.214.353q2.308,1.576,4.612,3.157c1.366.938,2.742,1.862,4.092,2.822a3.062,3.062,0,0,1,1.332,2.6q.013,16.146,0,32.292a3.3,3.3,0,0,1-3.316,3.262Q194.06-264.832,182-264.835Zm-14.837-46.1v.344q0,1.882,0,3.765,0,6.857,0,13.714a.485.485,0,0,0,.179.409c.712.622,1.417,1.253,2.122,1.884q5.237,4.679,10.474,9.357a3.052,3.052,0,0,0,4.144-.014q1.407-1.25,2.809-2.507,4.881-4.36,9.764-8.717a.515.515,0,0,0,.188-.432c-.006-1.676,0-3.353,0-5.029v-12.774ZM159.028-267.2h45.931c-.119-.105-.187-.168-.257-.228l-5.745-4.817q-5.485-4.6-10.966-9.206c-.162-.136-.255-.144-.415,0q-.982.9-1.988,1.779a5.369,5.369,0,0,1-6.788.293c-.836-.627-1.588-1.367-2.369-2.067-.155-.139-.251-.152-.417-.012q-3.382,2.85-6.775,5.688l-8.153,6.841Zm30.523-16,17.508,14.683v-30.318Zm-32.63,14.7,17.531-14.7-17.531-15.655Zm7.887-37.75-7.15,4.9,7.15,6.386Zm34.393.006v11.275l7.143-6.379Zm-23.9-7.113.018.054h13.424c-.078-.071-.109-.106-.147-.132-1.627-1.131-3.25-2.268-4.884-3.389a3.086,3.086,0,0,0-3.462.028q-1.477,1.021-2.95,2.048Z" transform="translate(-154.568 319.707)" fill="#1d272b"/>
        <path id="Trazado_166485" data-name="Trazado 166485" d="M482.473-78.073a5.59,5.59,0,0,1-2.267,1.239,5.453,5.453,0,0,1-6.75-4.216,5.463,5.463,0,0,1,4.277-6.386,5.435,5.435,0,0,1,6.474,4.815c.076.883.029,1.777.042,2.666a.94.94,0,0,0,.691.916.936.936,0,0,0,1.084-.441.9.9,0,0,0,.13-.423,25.769,25.769,0,0,0-.113-3.363,6.957,6.957,0,0,0-4.025-5.437,7.349,7.349,0,0,0-10.455,5.217,7.407,7.407,0,0,0,4.04,8.028,7.8,7.8,0,0,0,3.2.736,1.163,1.163,0,0,1,1.171,1.1,1.147,1.147,0,0,1-.919,1.207,5.222,5.222,0,0,1-1.2-.007,9.43,9.43,0,0,1-7.255-4.5,9.276,9.276,0,0,1-.582-9.276,9.214,9.214,0,0,1,6.72-5.37,9.342,9.342,0,0,1,9.118,2.818A9.421,9.421,0,0,1,488.516-82a19.094,19.094,0,0,1-.048,2.469,3.088,3.088,0,0,1-2.382,2.751,3.181,3.181,0,0,1-3.508-1.16Zm-3.64-7.109a3.093,3.093,0,0,0-3.126,2.963A3.1,3.1,0,0,0,478.75-79a3.109,3.109,0,0,0,3.141-2.985A3.085,3.085,0,0,0,478.833-85.182Z" transform="translate(-451.366 104.622)" fill="#1d272b"/>
        <path id="Trazado_166486" data-name="Trazado 166486" d="M479.5,541.019q-4.256,0-8.512,0a1.148,1.148,0,0,1-1.154-.883,1.117,1.117,0,0,1,.542-1.293,1.554,1.554,0,0,1,.7-.167c2.875-.01,5.749,0,8.624,0q4.143,0,8.287,0a1.169,1.169,0,0,1,1.139,1.637,1.1,1.1,0,0,1-1.053.71c-2.032.009-4.065,0-6.1,0Z" transform="translate(-452.072 -490.419)" fill="#1d272b"/>
      </g>
    </g>
  </g>
</svg>
