<svg xmlns="http://www.w3.org/2000/svg" xmlns:xlink="http://www.w3.org/1999/xlink" width="222.94" height="222.945" viewBox="0 0 222.94 222.945">
  <defs>
    <radialGradient id="radial-gradient" cx="0.076" cy="0.019" r="1.465" gradientTransform="translate(0)" gradientUnits="objectBoundingBox">
      <stop offset="0" stop-color="#f6f6f7"/>
      <stop offset="0.477" stop-color="#f9f9fa"/>
      <stop offset="0.715" stop-color="#fff"/>
    </radialGradient>
  </defs>
  <g id="icon1" transform="translate(-380.109 -1574.742)">
    <g id="icon1-2" data-name="icon1" transform="translate(-321.64 812.947)">
      <g id="Grupo_91009" data-name="Grupo 91009" transform="translate(701.749 761.795)">
        <g id="Grupo_42274" data-name="Grupo 42274" transform="translate(0 0)">
          <g id="Grupo_18423" data-name="Grupo 18423" transform="translate(0 0)">
            <g id="Grupo_18421" data-name="Grupo 18421">
              <g id="Grupo_18420" data-name="Grupo 18420">
                <g id="Grupo_18419" data-name="Grupo 18419">
                  <path id="Trazado_40936" data-name="Trazado 40936" d="M417.562,2257.189a111.47,111.47,0,1,1-111.468-111.468A111.468,111.468,0,0,1,417.562,2257.189Z" transform="translate(-194.623 -2145.721)" fill="#fff"/>
                </g>
              </g>
            </g>
            <path id="Trazado_40937" data-name="Trazado 40937" d="M415.569,2255.017A111.467,111.467,0,1,0,304.1,2366.492,111.031,111.031,0,0,0,415.569,2255.017Z" transform="translate(-192.629 -2143.547)" fill="url(#radial-gradient)"/>
            <path id="Trazado_40938" data-name="Trazado 40938" d="M389.579,2246.181a94.349,94.349,0,1,0-94.349,94.35A94.011,94.011,0,0,0,389.579,2246.181Z" transform="translate(-183.54 -2134.468)" fill="none" stroke="#008f85" stroke-miterlimit="10" stroke-width="5"/>
            <g id="Grupo_18422" data-name="Grupo 18422" transform="translate(19.748 62.583)">
              <path id="Trazado_40939" data-name="Trazado 40939" d="M392.465,2164.488A111.483,111.483,0,0,1,200.545,2275.5a111.8,111.8,0,0,0,11.094,14.849,111.485,111.485,0,0,0,180.826-125.859Z" transform="translate(-200.545 -2164.488)" fill="#eceef0"/>
            </g>
          </g>
        </g>
      </g>
    </g>
    <g id="xMushM.tif" transform="translate(33.531 1568.512)">
      <g id="Grupo_129662" data-name="Grupo 129662" transform="translate(418.114 68.8)">
        <path id="Trazado_166740" data-name="Trazado 166740" d="M418.114,162.639v-86.1a18.874,18.874,0,0,1,.888-2.7,8.67,8.67,0,0,1,8.315-5.034c6.609-.019,13.218-.005,19.826-.005q11.152,0,22.3,0c5.734,0,9.425,3.663,9.456,9.4.021,3.933,0,7.866,0,11.8v1.134a2.431,2.431,0,0,0,.412.1c6.179.005,12.358.015,18.537-.019a1.062,1.062,0,0,0,.743-.649c.443-1.554.789-3.135,1.2-4.7a3.046,3.046,0,0,1,3.264-2.578q2.23-.03,4.461,0a2.979,2.979,0,1,1-.024,5.944c-.813.013-1.626,0-2.448,0-.529,2.254-.969,4.388-1.533,6.489q-4.289,15.962-8.632,31.91c-.585,2.16-1.5,2.863-3.753,2.864q-5.551,0-11.1,0h-1.127v1.411q0,14.476.007,28.952c.006,3.165-.943,5.918-3.621,7.724a23.081,23.081,0,0,1-4.222,1.789H425.85a1.566,1.566,0,0,0-.351-.15,8.709,8.709,0,0,1-5.417-3.141A10.783,10.783,0,0,1,418.114,162.639Zm54.827-71.4c-.108-.492-.151-.818-.251-1.126-.726-2.241-2.548-3.457-5.2-3.458q-18.936,0-37.872,0c-3.572,0-5.557,2.009-5.558,5.607q0,21.319,0,42.639c0,3.778,1.947,5.712,5.751,5.712h37.376c.4,0,.794.006,1.189-.028a4.7,4.7,0,0,0,4.389-3.806,55.727,55.727,0,0,0,.051-6.283h-1.066q-8.229,0-16.457,0c-2.265,0-3.2-.686-3.791-2.831q-4.443-16.076-8.866-32.157a4.639,4.639,0,0,1-.2-1.554c.135-1.7,1.418-2.711,3.409-2.712q12.888-.01,25.777,0Zm-48.876,54.1c0,5.344,0,10.466,0,15.587,0,2.465,1.024,3.494,3.481,3.494q20.968,0,41.937,0c2.456,0,3.468-1.019,3.471-3.508q.008-7.189,0-14.378v-1.145c-3.479,1.714-7.056,1.139-10.556,1.158-10.211.054-20.423.014-30.635.023C429.189,146.576,426.6,146.711,424.064,145.343Zm.019-63.789a34.948,34.948,0,0,1,5.242-.809q19.182-.1,38.365,0a25.312,25.312,0,0,1,4.626.876c.179.036.356.078.639.139,0-1.2,0-2.322,0-3.44-.007-2.6-.988-3.567-3.611-3.567H427.608a9.289,9.289,0,0,0-.99.021A2.748,2.748,0,0,0,424.1,77.3C424.021,78.774,424.083,80.258,424.083,81.554ZM461.355,97.24H449.282l1.445,5.238h11.064Zm35.576.011H485.069l-.465,5.292c3.573,0,7.038.005,10.5-.015a.646.646,0,0,0,.493-.347C496.059,100.57,496.479,98.948,496.931,97.251Zm-29.164,5.23h10.862l.437-5.233H467.339ZM452.4,108.521l1.625,5.855h8.759c-.166-1.984-.326-3.9-.489-5.855Zm25.677.023h-9.807c.171,1.992.337,3.915.5,5.815h8.8Zm14.239,5.846,1.582-5.856H484.06l-.513,5.856Zm-15.282,6.042h-7.769c.115,1.385.225,2.713.338,4.076h7.057Zm13.648,0h-7.672l-.353,4.115c2.212,0,4.322.017,6.43-.025a.912.912,0,0,0,.619-.557C490.055,122.836,490.34,121.684,490.677,120.433ZM463.6,124.5l-.323-4.07H455.7l1.116,4.07Z" transform="translate(-418.114 -68.8)" fill="#1d272b"/>
        <path id="Trazado_166741" data-name="Trazado 166741" d="M756.536,394.156a2.954,2.954,0,0,1-2.908,3.012,2.969,2.969,0,1,1-.083-5.938A2.952,2.952,0,0,1,756.536,394.156Z" transform="translate(-684.52 -327.141)" fill="#00978e"/>
        <path id="Trazado_166742" data-name="Trazado 166742" d="M615.583,394.214a2.95,2.95,0,0,1,2.929-2.988,2.969,2.969,0,1,1,.038,5.938A2.949,2.949,0,0,1,615.583,394.214Z" transform="translate(-576.332 -327.137)" fill="#00978e"/>
        <path id="Trazado_166743" data-name="Trazado 166743" d="M527,495.939c-2.511,0-5.023.008-7.534,0a2.992,2.992,0,1,1,0-5.946q7.584-.013,15.168,0c2.012,0,3.32,1.218,3.3,3.022-.022,1.748-1.327,2.916-3.3,2.924C532.094,495.947,529.549,495.939,527,495.939Z" transform="translate(-496.658 -406.266)" fill="#00978e"/>
      </g>
    </g>
  </g>
</svg>
