<svg xmlns="http://www.w3.org/2000/svg" width="182.294" height="165.159" viewBox="0 0 182.294 165.159">
  <g id="img12" transform="translate(-1947.319 50.271)">
    <g id="Grupo_129415" data-name="Grupo 129415" transform="translate(1947.319 -50.271)">
      <path id="Trazado_166517" data-name="Trazado 166517" d="M2091.847,119.714c4.713,5.5,4.7,9.77.168,14.878,2.228,2.157,3.793,4.779,3.3,7.967a12.062,12.062,0,0,1-2.08,5.154c-2.492,3.375-6.18,3.836-11.517,1.813-1.014,3.685-3.17,6.277-7.061,7.132-3.859.847-6.646-1.476-9.585-3.388-1.978,7.177-8.9,9.581-14.869,5.151-.716.977-1.509,1.913-2.142,2.946-4.277,6.982-12.788,6.673-17.761-.745-.195-.29-.342-.613-.578-1.043-2.958,1.1-5.892,1.337-8.741-.247a10.074,10.074,0,0,1-4.9-6.982c-6.254-.218-10.08-3.5-12.289-9.028-5.642.188-9.713-2.337-11.743-7.606-2.132-5.535,1.541-9.44,4.57-13.6-1.8-1.253-3.593-2.3-5.148-3.627-7.693-6.575-17.114-9.464-26.426-12.641-5.214-1.779-10.366-3.745-15.513-5.714-2.124-.813-2.813-2.791-1.664-4.4,1.041-1.454,2.415-1.434,3.963-.84,4.148,1.592,8.331,3.094,12.475,4.7.989.382,1.453.177,1.928-.761q10.541-20.773,21.14-41.517c.13-.256.215-.535.368-.921-.471-.3-.887-.613-1.336-.858q-18.569-10.135-37.146-20.253c-1.7-.928-2.34-2.412-1.6-3.952a2.781,2.781,0,0,1,4.089-1.177c7.165,3.689,14.332,7.377,21.412,11.226,12.494,6.793,24.851,13.841,37.426,20.478,3.732,1.97,8,2.927,12.031,4.32a1.5,1.5,0,0,0,1.005-.071c5.936-2.649,12.036-2.615,18.3-1.438,7.864,1.477,15.767,2.739,23.667,4.01a3.939,3.939,0,0,0,2.459-.554q27.75-17,55.45-34.087c.606-.373,1.2-.771,1.833-1.091a2.832,2.832,0,0,1,2.969,4.82c-1.615,1.1-3.315,2.076-4.981,3.1q-17.8,10.952-35.594,21.9c-.348.214-.678.457-1.193.806l21.151,37.026c2.427-1.661,4.763-3.248,7.087-4.852,3.073-2.122,6.134-4.263,9.207-6.388,2.388-1.651,4-1.651,5.1-.02,1.088,1.612.521,3.08-1.905,4.761-10.38,7.193-20.791,14.341-31.129,21.593A37.558,37.558,0,0,0,2091.847,119.714Zm-70.905-1.68c6.239-.033,10.488,2.953,12.555,8.643a1.808,1.808,0,0,0,1.343.9,9.208,9.208,0,0,1,8.664,6.012,1.573,1.573,0,0,0,1.964,1.157,8.642,8.642,0,0,1,6.61,2.07c1.133.947,2.067,2.159,3.274,2.983q8.076,5.519,16.277,10.854a2.786,2.786,0,0,0,4.193-1.582,3.888,3.888,0,0,0-1.553-4.946q-10.464-7.229-20.931-14.452c-2.293-1.583-4.609-3.134-6.869-4.763a2.861,2.861,0,0,1-.887-3.916,2.83,2.83,0,0,1,3.749-.984,11.528,11.528,0,0,1,1.343.866q16.828,11.626,33.654,23.254c2.026,1.4,3.714,1.269,4.8-.345,1.1-1.633.646-3.645-1.18-4.944-1.642-1.168-3.328-2.274-4.986-3.421q-14.113-9.765-28.215-19.548a2.766,2.766,0,0,1-.893-3.9,2.863,2.863,0,0,1,4.049-.829c.511.3.987.656,1.475.993q12.657,8.747,25.314,17.494c1.8,1.241,3.291,1.107,4.353-.335a3.413,3.413,0,0,0-.727-4.756c-.833-.652-1.814-1.111-2.7-1.694q-21.42-14.042-42.835-28.09a36.884,36.884,0,0,0-3.929-2.4c-2.575-1.257-3.75-.9-5.486,1.317a97.7,97.7,0,0,1-6.586,8.162,32.686,32.686,0,0,1-7.3,5.821c-5.027,2.8-10.232,1.4-13.732-3.138a5.95,5.95,0,0,1-.573-6.963c.929-1.777,1.681-3.65,2.443-5.509,2.979-7.269,3.529-15.6,9.72-21.658l-8.584-2.977c-.357.642-.626,1.1-.87,1.567q-9.221,17.752-18.437,35.507c-2.151,4.143-2.154,4.148,1.672,6.816,2.9,2.022,5.808,4.03,8.841,6.133,2.678-4.118,5.183-8.412,10.8-7.941C2015.987,109.928,2019.166,113.146,2020.941,118.034Zm65.966-1.181c2.414-2.317,2.407-2.346.916-4.925q-10.5-18.159-21.033-36.3a3.058,3.058,0,0,0-1.9-1.273c-9.227-1.594-18.441-3.3-27.712-4.585s-17.605,3.023-20.473,12.737c-1.756,5.945-4.21,11.683-6.3,17.531a1.738,1.738,0,0,0,.283,1.381c1.353,1.8,3.521,2.609,5.506,1.451a29.532,29.532,0,0,0,6.5-5.073c2.641-2.786,4.883-5.951,7.3-8.95A7.58,7.58,0,0,1,2036.223,86a14.3,14.3,0,0,1,7.948,2.738q12.921,8.5,25.825,17.022Q2078.456,111.328,2086.907,116.854Zm-115.831-14.992,11.214,4.041,21.3-41.052-10.727-5.668Zm131.908,2.024-21.362-37.372-9.964,6.148,21.9,37.757Zm-93.5,36.689a6.58,6.58,0,0,0,4.365,5.8c1.748.525,3.078-.125,4.555-2.217q3.991-5.655,7.987-11.305c2.552-3.6,2.281-5.424-1.211-8.041-2.2-1.647-4.062-1.453-5.643.743q-4.667,6.48-9.2,13.053A8.774,8.774,0,0,0,2009.481,140.575Zm-12.511-8.13a6.335,6.335,0,0,0,4.115,4.961c1.646.567,3.065-.068,4.47-2.016.762-1.057,1.509-2.126,2.26-3.191,2.253-3.2,4.562-6.356,6.738-9.6,1.6-2.392.788-4.788-2.1-6.722-1.991-1.335-3.787-.885-5.422,1.408-2.924,4.1-5.852,8.2-8.717,12.343A18.926,18.926,0,0,0,1996.97,132.446Zm54.306,13.6a5.848,5.848,0,0,0-3.909-5.425,3.231,3.231,0,0,0-3.941,1.206c-2.77,3.831-5.541,7.667-8.157,11.6-1.469,2.21-.473,4.668,2.342,6.521,1.943,1.279,3.787.864,5.318-1.275,2.444-3.412,4.88-6.831,7.25-10.294A12.892,12.892,0,0,0,2051.276,146.05Zm-29.753,4.569a4.473,4.473,0,0,0,2.83,3.956,3.549,3.549,0,0,0,4.156-1.593l5.508-7.841c1.326-1.888,2.735-3.724,3.956-5.677a4.119,4.119,0,0,0-1.3-5.621c-1.749-1.052-3.609-.518-5.025,1.478-2.942,4.15-5.894,8.293-8.782,12.48A18.919,18.919,0,0,0,2021.523,150.62Zm32.139,3.031c1.149,1.039,2.449,1.938,3.809.958a4.769,4.769,0,0,0,1.75-2.97,3.117,3.117,0,0,0-2.378-3.307Z" transform="translate(-1947.319 -1.242)" fill="#1d272b"/>
      <path id="Trazado_166518" data-name="Trazado 166518" d="M2192.365-21.8a28.482,28.482,0,0,1-28.523,28.471,28.479,28.479,0,0,1-28.43-28.563,28.472,28.472,0,0,1,28.611-28.379A28.481,28.481,0,0,1,2192.365-21.8Zm-51.251-.114A22.817,22.817,0,0,0,2163.732.963a22.81,22.81,0,0,0,22.93-22.564,22.818,22.818,0,0,0-22.529-22.965A22.806,22.806,0,0,0,2141.114-21.914Z" transform="translate(-2068.469 50.271)" fill="#008f85"/>
      <path id="Trazado_166519" data-name="Trazado 166519" d="M2361.118,228.592a2.839,2.839,0,1,0-2.808,2.823A2.846,2.846,0,0,0,2361.118,228.592Z" transform="translate(-2210.186 -127.505)" fill="#1d272b"/>
      <path id="Trazado_166520" data-name="Trazado 166520" d="M2034.7,216.6a2.909,2.909,0,1,1-2.8-2.852A2.89,2.89,0,0,1,2034.7,216.6Z" transform="translate(-1999.854 -119.781)" fill="#1d272b"/>
      <path id="Trazado_166521" data-name="Trazado 166521" d="M2361.118,228.592a2.839,2.839,0,1,1-2.778-2.853A2.845,2.845,0,0,1,2361.118,228.592Z" transform="translate(-2210.186 -127.505)" fill="#1d272b"/>
      <path id="Trazado_166522" data-name="Trazado 166522" d="M2184.37,16.1c4.735-3.118,9.286-6.117,13.841-9.109a11.312,11.312,0,0,1,1.672-1,2.645,2.645,0,0,1,3.557,1.069,2.641,2.641,0,0,1-.45,3.552,5.643,5.643,0,0,1-.992.744q-8.019,5.276-16.047,10.538c-2.15,1.405-3.278,1.233-4.875-.74s-3.185-3.978-4.737-6c-1.278-1.665-1.174-3.316.206-4.4,1.34-1.05,3.015-.715,4.317.9C2182.01,13.079,2183.128,14.527,2184.37,16.1Z" transform="translate(-2094.25 14.223)" fill="#008f85"/>
    </g>
  </g>
</svg>
