<svg xmlns="http://www.w3.org/2000/svg" width="118.45" height="118.461" viewBox="0 0 118.45 118.461">
  <g id="img14" transform="translate(-2988.542 169.967)">
    <g id="Grupo_129418" data-name="Grupo 129418" transform="translate(2988.542 -169.967)">
      <path id="Trazado_166551" data-name="Trazado 166551" d="M3024.852-169.967c0,1.379.046,2.76,0,4.138-.022.658.138,1.045.817,1.212a8.841,8.841,0,0,1,1.4.548c1.473.646,1.48.658,2.636-.526.764-.783,1.5-1.592,2.352-2.5,1.924,1.953,3.72,3.781,5.522,5.6.992,1,1.963,2.031,3.012,2.971a1.838,1.838,0,0,0,1.291.424,46.412,46.412,0,0,1,28.7,5.421,47.476,47.476,0,0,1,20.384,21.566,47.079,47.079,0,0,1,4.422,24.581c-.1,1.278-.382,2.542-.5,3.82a1.828,1.828,0,0,0,.313,1.263,22.819,22.819,0,0,1,5.915,12.847c.029.245.1.485.172.8h5.7v3.869c-1.657,0-3.28.029-4.9-.014-.663-.018-.942.176-1.025.862a22.2,22.2,0,0,1-8.551,15.23,1.7,1.7,0,0,0-.739,1.578c.052,1.061.014,2.127.014,3.354.981,0,1.91.037,2.833-.012.709-.037,1.038.144.98.932-.066.9-.016,1.812-.016,2.849h-3.764v7.647h-26.807v-7.584h-3.774v-3.833c.969,0,1.926-.031,2.88.011.633.028.922-.149.874-.834-.051-.738-.012-1.483-.012-2.314-1.774.544-3.4,1.113-5.053,1.538a47.065,47.065,0,0,1-27.76-1.044,47.151,47.151,0,0,1-18.921-12.221,47.4,47.4,0,0,1-12.333-23.68,45.412,45.412,0,0,1-.464-15.154,1.459,1.459,0,0,0-.5-1.391c-2.587-2.556-5.144-5.141-7.725-7.7a5.189,5.189,0,0,0-.938-.568c1.266-1.227,2.26-2.224,3.295-3.177a.869.869,0,0,0,.212-1.219,14.155,14.155,0,0,1-.932-2.253c-.186-.6-.514-.738-1.094-.724-1.41.034-2.821,0-4.232,0V-148.9c1.439-.009,2.878-.04,4.317-.014a.833.833,0,0,0,.969-.628,20.235,20.235,0,0,1,1-2.426.817.817,0,0,0-.213-1.135c-1.055-.964-2.082-1.959-2.98-2.811l10.9-10.978c.954.985,1.935,2.039,2.974,3.031a1.115,1.115,0,0,0,.941.17c.859-.281,1.672-.7,2.527-.994a.837.837,0,0,0,.628-.97c-.026-1.438.006-2.878.014-4.317Zm66.421,65.154c.071-.3.12-.441.139-.59a42.822,42.822,0,0,0-1.776-18.748,42.876,42.876,0,0,0-9.628-16.4,43.445,43.445,0,0,0-20.146-12.4,43.207,43.207,0,0,0-18.425-1.229,1.9,1.9,0,0,0-1.594,2.7,11.144,11.144,0,0,1,.694,1.743c.176.692.56.846,1.218.824,1.363-.047,2.728-.014,4.1-.014v15.28h-3.126c-1.834,0-1.832,0-2.5,1.654a6.93,6.93,0,0,1-.5,1.111,1.092,1.092,0,0,0,.292,1.608c.986.892,1.9,1.867,2.776,2.744L3031.882-115.6c-.632-.7-1.273-1.467-1.969-2.177-1.349-1.376-1.36-1.361-3.094-.627a6.086,6.086,0,0,1-1.143.426c-.708.142-.845.559-.823,1.214.045,1.363.013,2.728.013,4.108H3009.73c-.055-.1-.108-.155-.109-.209-.015-.971-.031-1.942-.033-2.912,0-1.841,0-1.84-1.656-2.5-.291-.116-.572-.256-.866-.362-.54-.194-1.081-.823-1.639-.039-.37.519-.954,1.012-1.047,1.582a41.428,41.428,0,0,0-.07,12.544,42.793,42.793,0,0,0,4.93,14.9,43.971,43.971,0,0,0,16.292,16.8,43.621,43.621,0,0,0,17.883,5.878,43.121,43.121,0,0,0,15.385-1.18c1.222-.314,2.418-.731,3.717-1.128-.207-.241-.282-.34-.368-.428a22.44,22.44,0,0,1-6.471-13.557c-.058-.536-.311-.674-.8-.669-1.473.016-2.948.031-4.419-.021-.259-.009-.71-.33-.724-.532-.073-1.052-.034-2.112-.034-3.279,1.755,0,3.408-.018,5.06.01.561.009.848-.116.914-.745a21.453,21.453,0,0,1,5.371-12.282,22.461,22.461,0,0,1,20.924-7.708A22,22,0,0,1,3091.273-104.813Zm-56.49-24.2c1.078-2.833,2.028-5.371,3.029-7.889a1.068,1.068,0,0,1,.77-.547c1.117-.062,2.24-.026,3.376-.026v-7.649c-1.083,0-2.086-.052-3.079.018-.733.052-1-.225-1.223-.905-.53-1.631-1.148-3.237-1.8-4.825-.339-.828-.823-1.6-1.37-2.635l2.8-2.482-5.506-5.572-2.631,2.889a27.689,27.689,0,0,0-7.579-3.261,1.062,1.062,0,0,1-.511-.806,26.634,26.634,0,0,1-.019-2.726c.015-.524-.173-.733-.707-.715-.877.029-1.756.007-2.634.007h-4.314c0,1.249.03,2.37-.022,3.488-.012.264-.25.692-.461.747a28.405,28.405,0,0,0-7.747,3.34l-2.6-3.022-5.635,5.611,2.767,2.4c-1.073,2.765-2.075,5.216-2.958,7.71-.22.621-.482.764-1.052.749-1.056-.028-2.114-.008-3.29-.008,0,2.483-.012,4.857.03,7.229,0,.143.429.386.668.4.907.048,1.82-.013,2.726.041.278.017.733.22.785.422a28.574,28.574,0,0,0,3.374,7.846l-2.945,2.589,5.6,5.573,2.6-2.961a27.834,27.834,0,0,0,7.606,3.3,1.016,1.016,0,0,1,.529.766c.06,1.116.025,2.236.025,3.375h7.649c0-.582-.007-1.079,0-1.576.015-.781-.223-1.737.142-2.292.323-.49,1.34-.5,2.024-.779,2.014-.831,4.014-1.694,6.29-2.659l2.429,2.708,5.458-5.447Zm41.707,66.037v-1.11c0-4.2-.038-8.4.025-12.6.017-1.161-.025-2.089-1.42-2.322a2.426,2.426,0,0,1-.738-.4,7.569,7.569,0,0,1-3.422-8.028,7.762,7.762,0,0,1,6.013-5.912,7.666,7.666,0,0,1,8.017,3.662,7.577,7.577,0,0,1-3.979,10.994,1.174,1.174,0,0,0-.662.813c-.041,4.764-.023,9.53-.037,14.294,0,.565.265.679.751.676,2.069-.014,4.138-.019,6.207,0,.544.005.709-.211.7-.726a24.239,24.239,0,0,0-.031-2.911c-.3-1.968.519-3.109,2.123-4.266a18.933,18.933,0,0,0,5.748-22.935,18.986,18.986,0,0,0-29.236-7.022c-5.621,4.4-7.927,10.405-7.061,17.463a18.587,18.587,0,0,0,8.669,13.574,1.4,1.4,0,0,1,.71,1.372c-.034,1.777-.012,3.554-.012,5.387Zm-7.559,3.943v3.765h12.95c1.755,0,3.511.021,5.265-.024.265-.007.735-.312.748-.5.074-1.055.035-2.117.035-3.236Zm9.487-23a3.864,3.864,0,0,0,3.79-3.869,3.816,3.816,0,0,0-3.888-3.745,3.768,3.768,0,0,0-3.722,3.8A3.811,3.811,0,0,0,3078.417-82.035Z" transform="translate(-2988.542 169.967)" fill="#1d272b"/>
      <path id="Trazado_166552" data-name="Trazado 166552" d="M3119.606,161.5l-7.593-3.786a28.6,28.6,0,0,0,25.743,21.1c-.065,1.27-.127,2.476-.195,3.8a31.813,31.813,0,0,1-18.307-7.118,32.56,32.56,0,0,1-10.913-16.6l-3.453,5.7-3.261-1.96,6.637-11.07,13.051,6.521Z" transform="translate(-3080.319 -90.982)" fill="#1d272b"/>
      <path id="Trazado_166553" data-name="Trazado 166553" d="M3342.25-4.257l3.34-5.535,3.265,1.956c-1.383,2.31-2.729,4.559-4.076,6.808-.692,1.156-1.361,2.326-2.1,3.452a1.028,1.028,0,0,1-.85.414c-4.048-1.318-8.08-2.684-12.115-4.041a1.761,1.761,0,0,1-.252-.164l1.155-3.518,7.963,2.629c-1.359-7.818-9.924-20.635-25.85-21.809.064-1.22.129-2.444.2-3.87C3327.731-26.15,3337.383-18.288,3342.25-4.257Z" transform="translate(-3251.644 54.698)" fill="#1d272b"/>
      <path id="Trazado_166554" data-name="Trazado 166554" d="M3059.622-83.592a15.3,15.3,0,0,1,15.223-15.293,15.345,15.345,0,0,1,15.364,15.27A15.4,15.4,0,0,1,3074.869-68.3,15.344,15.344,0,0,1,3059.622-83.592Zm26.685,2.129-.287-.279h-3.41v-3.792h3.791l-1.942-4.63-.426-.095-2.149,2.657-3.05-3.057,2.7-2.182-.084-.35-4.666-1.91v3.808h-3.795v-3.572a10.547,10.547,0,0,0-4.895,2.123l2.608,2.183-2.855,2.927-2.42-2.764-2.015,4.89h3.8v3.816h-3.8l1.949,4.67.437.086,2.16-2.614,2.978,2.94-2.761,2.257a10.215,10.215,0,0,0,4.844,1.956v-3.494h3.835v3.78l4.626-1.95.046-.37-2.516-2.206,2.923-2.921,2.17,2.585.369-.076Z" transform="translate(-3046.228 112.279)" fill="#1d272b"/>
      <path id="Trazado_166555" data-name="Trazado 166555" d="M3507.761,216.044l-2.538,2.505-2.344-2.559,2.481-2.379Z" transform="translate(-3405.962 -141.334)" fill="#1d272b"/>
      <path id="Trazado_166556" data-name="Trazado 166556" d="M3384.109,266.443h3.843c0,1.14.023,2.251-.026,3.359-.007.154-.359.409-.562.419a26.233,26.233,0,0,1-2.711,0c-.189-.01-.513-.285-.52-.449C3384.087,268.689,3384.109,267.6,3384.109,266.443Z" transform="translate(-3309.568 -184.21)" fill="#1d272b"/>
      <path id="Trazado_166557" data-name="Trazado 166557" d="M3404.128,318.23l-2.61-2.571,2.525-2.494,2.538,2.621Z" transform="translate(-3323.7 -222.128)" fill="#1d272b"/>
      <path id="Trazado_166558" data-name="Trazado 166558" d="M3455.569,199.275v-3.706h3.683v3.706Z" transform="translate(-3367.567 -126.691)" fill="#1d272b"/>
      <path id="Trazado_166559" data-name="Trazado 166559" d="M3404.641,212.854l2.521,2.474-2.588,2.507-2.435-2.533Z" transform="translate(-3324.205 -140.719)" fill="#1d272b"/>
      <path id="Trazado_166560" data-name="Trazado 166560" d="M3502.236,315.832l2.418-2.345,2.562,2.549-2.447,2.426Z" transform="translate(-3405.44 -222.389)" fill="#1d272b"/>
      <path id="Trazado_166561" data-name="Trazado 166561" d="M3526.353,266.473h3.727v3.785c-1.125,0-2.231.018-3.335-.023-.136-.005-.368-.323-.374-.5C3526.334,268.678,3526.353,267.623,3526.353,266.473Z" transform="translate(-3425.009 -184.234)" fill="#1d272b"/>
    </g>
  </g>
</svg>
