<svg xmlns="http://www.w3.org/2000/svg" width="111.713" height="105.409" viewBox="0 0 111.713 105.409">
  <g id="img17" transform="translate(807.693 473.197)">
    <g id="Grupo_129393" data-name="Grupo 129393" transform="translate(-807.693 -473.197)">
      <path id="Trazado_166471" data-name="Trazado 166471" d="M-435.116-440.711c-.509-.714-1.031-1.4-1.5-2.118a23.9,23.9,0,0,1-3.853-10.308,19.369,19.369,0,0,1,1.453-10.608,15.217,15.217,0,0,1,11.44-9.042,18.644,18.644,0,0,1,10.382.735,15.382,15.382,0,0,1,9.661,10.627,20.9,20.9,0,0,1-.3,12.441,24.8,24.8,0,0,1-4.43,8.181c-.047.058-.088.119-.164.222l2.549.647c2.125.537,4.281.975,6.368,1.632a11.6,11.6,0,0,1,8.417,9.53,11.417,11.417,0,0,1,.153,1.969c.02,1.7-.02,3.405.013,5.107a5.964,5.964,0,0,1-1.893,4.494,13.992,13.992,0,0,1-4.614,2.894,34.424,34.424,0,0,1-7.856,2.189c-2.277.366-4.567.685-6.863.9a77.615,77.615,0,0,1-10.884.25c-2.129-.1-4.259-.236-6.379-.453a48.291,48.291,0,0,1-12.16-2.592,15.392,15.392,0,0,1-4.819-2.707,6.065,6.065,0,0,1-2.193-3.473,14.527,14.527,0,0,1-.142-2.387c-.019-1.575-.058-3.152.008-4.724a11.672,11.672,0,0,1,5.46-9.639,14.388,14.388,0,0,1,4.722-1.837c2.41-.594,4.813-1.223,7.218-1.838A1.511,1.511,0,0,0-435.116-440.711Zm-3.386,4.741c-1.458.377-2.931.746-4.4,1.14a8.1,8.1,0,0,0-6.109,7.722c-.052,1.749-.039,3.5-.056,5.251a2.773,2.773,0,0,0,.892,2.1,9.3,9.3,0,0,0,2.736,1.768,35.713,35.713,0,0,0,10.048,2.6c2.262.3,4.543.471,6.821.625a80.745,80.745,0,0,0,9.4.015,72.536,72.536,0,0,0,8.4-.864,36.332,36.332,0,0,0,7.774-2.054,10.637,10.637,0,0,0,3.389-2,2.546,2.546,0,0,0,.94-1.921c-.016-1.8.005-3.608-.009-5.412a8.179,8.179,0,0,0-6.105-7.809c-.959-.242-1.919-.478-2.878-.717l-1.637-.409c-.082.163-.141.274-.195.388a36.17,36.17,0,0,1-5.893,8.971,21.639,21.639,0,0,1-7.027,5.251,3.079,3.079,0,0,1-2.394.1,13.069,13.069,0,0,1-4.123-2.543,39.269,39.269,0,0,1-7.582-8.944C-437.186-433.775-437.826-434.868-438.5-435.97Zm14.96-33.509a14.508,14.508,0,0,0-5.245.926,12.045,12.045,0,0,0-6.66,5.833,14.7,14.7,0,0,0-1.323,8.93,21.968,21.968,0,0,0,3.679,9.571,14.493,14.493,0,0,0,5.435,5,8.523,8.523,0,0,0,4.6.945,9.782,9.782,0,0,0,5.237-2.162,17.406,17.406,0,0,0,4.758-5.872,20.2,20.2,0,0,0,2.411-12.263,12.037,12.037,0,0,0-3.01-6.619A13.254,13.254,0,0,0-423.541-469.479Zm-11.159,32.54a44.28,44.28,0,0,0,5.671,7.966A17.693,17.693,0,0,0-424-425.014a.674.674,0,0,0,.675.005,16.86,16.86,0,0,0,3.536-2.427,27.607,27.607,0,0,0,5.595-7.125c.424-.745.813-1.509,1.238-2.3l-2.043-.522a1.679,1.679,0,0,0-.406-.091.673.673,0,0,0-.341.114c-.415.27-.81.57-1.231.828a12.1,12.1,0,0,1-10.534,1.373,14.227,14.227,0,0,1-4.17-2.234.691.691,0,0,0-.454-.184C-432.989-437.39-433.832-437.161-434.7-436.939Z" transform="translate(479.819 473.197)" fill="#1d272b"/>
      <path id="Trazado_166472" data-name="Trazado 166472" d="M-784.723,69.776c-1.359-1.736-2.687-3.42-4-5.114-3.084-3.97-6.183-7.928-9.233-11.924a20.773,20.773,0,0,1-3.4-5.912c-.561-1.677-.948-3.416-1.339-5.144-1.052-4.647-2.063-9.3-3.093-13.955-.591-2.672-1.2-5.339-1.774-8.016a4.27,4.27,0,0,1,3-5.264,9.2,9.2,0,0,1,8.619,1.454,9.471,9.471,0,0,1,3.686,6.059c.739,3.481,1.53,6.951,2.3,10.43.617-.125,1.215-.282,1.823-.362a9.917,9.917,0,0,1,8.873,3.012c2.443,2.546,4.757,5.217,7.132,7.83a2.018,2.018,0,0,0,.467.378,35.516,35.516,0,0,1,5.022,3.3,16.839,16.839,0,0,1,5.749,9.067,16.925,16.925,0,0,1,.285,4.208c-.022,2.147-.064,4.293-.1,6.44,0,.1.012.2.019.3,1.041-.138,2.059-.265,3.075-.411a1.831,1.831,0,0,1,2.09,1.548c.167,1.5.286,3.006.432,4.509.228,2.362.466,4.723.687,7.086a11.307,11.307,0,0,1,.024,1.295,1.509,1.509,0,0,1-1.405,1.522c-.8.063-1.6.1-2.4.1q-8.214,0-16.428-.022c-2.846-.005-5.692-.038-8.537-.012a2.045,2.045,0,0,1-2.213-1.949c-.289-2.507-.673-5-1.014-7.5-.039-.289-.056-.581-.08-.872a1.76,1.76,0,0,1,1.493-2.012C-784.9,69.833-784.843,69.812-784.723,69.776Zm20.356-2.711c-.028-.369-.079-.7-.073-1.022.026-1.422.055-2.845.108-4.266a22.214,22.214,0,0,0-.3-5.577,12.1,12.1,0,0,0-3.225-5.693,19.6,19.6,0,0,0-5.243-3.75,7.045,7.045,0,0,1-1.955-1.54c-2.188-2.439-4.4-4.861-6.588-7.3a6.406,6.406,0,0,0-6.684-2.047A5.96,5.96,0,0,0-791,37.185a.41.41,0,0,0-.039.689c2.359,2.626,4.7,5.269,7.054,7.9,1.609,1.8,3.238,3.578,4.844,5.378a1.729,1.729,0,0,1-.219,2.538,1.741,1.741,0,0,1-2.49-.054c-.25-.252-.5-.5-.739-.767q-5.6-6.187-11.193-12.376a3.992,3.992,0,0,1,.13-5.847.738.738,0,0,0,.214-.794c-.836-3.734-1.68-7.467-2.485-11.208a5.945,5.945,0,0,0-4.653-4.828,4.065,4.065,0,0,0-2.8.118.853.853,0,0,0-.542,1.049q.913,4.236,1.832,8.47c.446,2.043.888,4.086,1.357,6.123.8,3.48,1.594,6.963,2.451,10.429a15.24,15.24,0,0,0,2.75,5.843q4.546,5.8,9.061,11.627,2.911,3.743,5.819,7.488a.536.536,0,0,0,.372.221c1.875-.232,3.748-.483,5.621-.734q3.281-.439,6.562-.883Zm5.347,3.045-23.48,3.14c0,.123-.006.174,0,.223.205,1.546.421,3.091.612,4.638.042.342.224.35.491.35q11.334,0,22.668.017h.5C-758.5,75.669-758.756,72.91-759.019,70.111Z" transform="translate(807.693 23.189)" fill="#1d272b"/>
      <path id="Trazado_166473" data-name="Trazado 166473" d="M-11.043,70.046a2.051,2.051,0,0,1,1.609,1.1,2.829,2.829,0,0,1,.059,1.684c-.264,2-.539,4-.809,6-.087.641-.156,1.284-.257,1.923a1.878,1.878,0,0,1-2.053,1.677q-2.534.013-5.069.015-7.6.017-15.207.032c-2.045,0-4.09-.01-6.135-.025a10.272,10.272,0,0,1-1.1-.075,1.5,1.5,0,0,1-1.359-1.522c.058-1.369.15-2.737.269-4.1.17-1.96.377-3.917.569-5.875.1-.972.164-1.948.3-2.915a1.809,1.809,0,0,1,2.122-1.538c1,.141,2.01.265,3.041.4,0-.642,0-1.272,0-1.9-.018-2.286-.1-4.573-.043-6.857A13.849,13.849,0,0,1-32.66,50.8,18.5,18.5,0,0,1-26.081,44.7c.354-.2.685-.444,1.052-.612a9.9,9.9,0,0,0,2.994-2.71c1.842-2.016,3.634-4.077,5.514-6.057a10.005,10.005,0,0,1,7.508-3.148,9.546,9.546,0,0,1,3,.468c.058.019.119.027.216.047.245-1.115.484-2.212.729-3.309.6-2.707,1.152-5.428,1.834-8.116a9.524,9.524,0,0,1,8.26-6.973,9.1,9.1,0,0,1,3.726.327,4.571,4.571,0,0,1,3.065,5.361Q9.677,29.645,7.528,39.313q-.634,2.858-1.268,5.717a18.862,18.862,0,0,1-3.583,7.287C-.235,56.163-3.2,59.972-6.148,63.788-7.756,65.867-9.385,67.928-11.043,70.046ZM-31.4,67.317c1.236.17,2.44.339,3.645.5q3.016.405,6.033.8c2.074.277,4.148.559,6.224.825a.442.442,0,0,0,.33-.163Q-10.925,63.846-6.7,58.4q3.042-3.9,6.1-7.8a15.808,15.808,0,0,0,1.927-3.047,27.083,27.083,0,0,0,1.748-5.379c.879-3.8,1.727-7.61,2.569-11.42s1.665-7.651,2.5-11.477a.894.894,0,0,0-.714-1.17A5.9,5.9,0,0,0,.435,21.986C0,23.412-.277,24.888-.6,26.347c-.587,2.634-1.15,5.274-1.74,7.907a.5.5,0,0,0,.181.579A4.026,4.026,0,0,1-.807,38.567a3.312,3.312,0,0,1-.878,1.746C-3.174,42.046-4.674,43.771-6.2,45.47c-2.507,2.784-5.037,5.547-7.562,8.314a1.8,1.8,0,0,1-2.67.135,1.8,1.8,0,0,1-.087-2.647q.407-.454.818-.9,5.036-5.54,10.07-11.082c.358-.394.684-.818,1.026-1.226a.292.292,0,0,0-.067-.5,11.6,11.6,0,0,0-1.286-.876,6.251,6.251,0,0,0-6.611.243,12.138,12.138,0,0,0-2.1,1.864c-1.992,2.153-3.935,4.351-5.9,6.527a6.714,6.714,0,0,1-1.041,1.046c-.652.457-1.361.834-2.053,1.233a17.906,17.906,0,0,0-3.954,2.885,13.13,13.13,0,0,0-3.569,6.181,16.9,16.9,0,0,0-.2,4.056C-31.391,62.9-31.4,65.083-31.4,67.317Zm18.164,6.2-23.5-3.155-.782,8.339h23.589Z" transform="translate(99.791 22.932)" fill="#1d272b"/>
    </g>
  </g>
</svg>
