<svg xmlns="http://www.w3.org/2000/svg" width="114.249" height="100.832" viewBox="0 0 114.249 100.832">
  <g id="img16" transform="translate(-2505.577 -175.962)">
    <g id="Grupo_129417" data-name="Grupo 129417" transform="translate(2505.577 175.962)">
      <path id="Trazado_166540" data-name="Trazado 166540" d="M2784.26,552.936c-1.843-.8-2.253-1.466-1.81-3.465.624-2.817.979-5.779,2.132-8.376a14.9,14.9,0,0,1,13.5-9.278c5.672-.308,4.134-.646,7.875,3,.824.8,1.625,1.632,2.515,2.528,1.5-1.5,2.986-2.943,4.418-4.434a3.76,3.76,0,0,1,2.87-1.2,19.611,19.611,0,0,1,8.3,1.282A16.109,16.109,0,0,1,2833.8,545.3c.277,1.383.492,2.779.738,4.169.356,2.018.016,2.665-1.827,3.469Zm45.514-4.689a35.4,35.4,0,0,0-1.166-4.586c-2.106-5.266-6.688-7.647-12.147-7.379a1.8,1.8,0,0,0-1.015.556c-1.7,1.663-3.364,3.369-5.063,5.035a2.371,2.371,0,0,1-3.791.01,44.5,44.5,0,0,1-3.684-3.727c-1.341-1.654-2.872-2.027-4.954-1.816-5.508.559-10.322,5.057-10.539,11.906Z" transform="translate(-2720.41 -452.104)" fill="#1d272b"/>
      <path id="Trazado_166541" data-name="Trazado 166541" d="M2505.577,550.016c.444-2.059.828-4.134,1.344-6.176a15.962,15.962,0,0,1,14.965-11.879c5.027-.072,3.77-.521,7.18,2.843.9.886,1.752,1.818,2.7,2.8,1.555-1.558,3.04-3.005,4.474-4.5a3.76,3.76,0,0,1,2.873-1.191,19.58,19.58,0,0,1,8.294,1.288,16.1,16.1,0,0,1,9.721,12.308c.276,1.383.492,2.778.737,4.167.356,2.019.027,2.644-1.828,3.466h-48.446l-2.009-1.785Zm47.542-1.548a38.552,38.552,0,0,0-1.21-4.666c-1.864-4.7-5.962-7.288-11.3-7.358a2.619,2.619,0,0,0-2.148.861c-1.505,1.6-3.083,3.123-4.644,4.665-1.43,1.413-2.6,1.41-4.03-.008-1.639-1.622-3.251-3.271-4.905-4.878a1.931,1.931,0,0,0-1.108-.594,12.489,12.489,0,0,0-7.938,2.055c-3.413,2.415-4.824,5.838-5.152,9.923Z" transform="translate(-2505.577 -452.309)" fill="#1d272b"/>
      <path id="Trazado_166542" data-name="Trazado 166542" d="M2505.577,618.894l2.009,1.785h-2.009Z" transform="translate(-2505.577 -519.847)" fill="#1d272b"/>
      <path id="Trazado_166543" data-name="Trazado 166543" d="M2578.7,211.494a2.642,2.642,0,0,0-2.892.808q-3.905,4.062-7.98,7.958a3.786,3.786,0,0,1-2.2,1.03c-1.326.069-2.091-1.011-2.1-2.618-.02-2.377,0-4.753,0-7.308h-30.367c-2.573,0-3.309-.739-3.31-3.323q0-14.393,0-28.786c0-2.581.723-3.293,3.334-3.293h50.675c2.605,0,3.3.7,3.3,3.314,0,3.493,0,6.986,0,10.641h1.366q15.516,0,31.031.01a5.12,5.12,0,0,1,1.857.239c1.242.5,1.358,1.632,1.356,2.8q-.01,9.316,0,18.633c0,1,.01,2.009,0,3.012-.028,2.119-.788,2.886-2.911,2.889q-10.381.013-20.761,0h-1.529c0,1.4,0,2.719,0,4.037s.083,2.683-1.454,3.3c-1.477.593-2.366-.382-3.273-1.293-1.731-1.741-3.5-3.446-5.192-5.223a2.465,2.465,0,0,0-2.058-.826c-1.412.054-2.828.039-4.241.006a2.372,2.372,0,0,1-2.632-2.623c-.022-.557,0-1.115,0-1.673S2578.7,212.1,2578.7,211.494Zm3.839-4.722V180.619h-48.018v26.152h1.426q14.455,0,28.909,0c2.486,0,3.244.769,3.249,3.275,0,1.086,0,2.171,0,3.559,2.034-2.035,3.84-3.8,5.588-5.612a3.78,3.78,0,0,1,2.973-1.233C2578.59,206.8,2580.521,206.772,2582.534,206.772Zm35.608-12.237h-31v1.3c0,4.236.007,8.473,0,12.709-.005,1.916-.856,2.757-2.789,2.822-.323.011-.645.04-.993.062v1.542c1.176,0,2.29.062,3.393-.015a3.864,3.864,0,0,1,3.345,1.4c.849.946,1.79,1.809,2.831,2.848.024-.457.039-.641.042-.825.042-2.806.65-3.412,3.422-3.412h21.75Z" transform="translate(-2524.408 -175.962)" fill="#1d272b"/>
      <path id="Trazado_166544" data-name="Trazado 166544" d="M2583.03,378.967a38.014,38.014,0,0,1,4.448.232,8.506,8.506,0,0,1,7.028,9.188q-.339,6.568-.874,13.126a10.619,10.619,0,0,1-21.182-.272c-.27-4.153-.537-8.307-.835-12.459-.4-5.619,3.326-9.7,8.958-9.753.818-.008,1.636,0,2.454,0ZM2576.5,394.09c.213,2.6.306,5.095.645,7.553a5.974,5.974,0,0,0,11.8.033c.368-2.866.488-5.766.658-8.654a1.155,1.155,0,0,0-.616-.811,32.253,32.253,0,0,0-3.171-1.323,1.58,1.58,0,0,0-1.072.1c-1.512.688-2.964,1.517-4.506,2.123A31.824,31.824,0,0,1,2576.5,394.09Zm-.429-4.765c4.351-.175,7.927-2.748,8.222-5.763-1.445,0-2.891-.066-4.327.017a3.65,3.65,0,0,0-3.482,2.5A16.241,16.241,0,0,0,2576.075,389.325Zm13.589-1.7.4-.175-.9-2.5-.338.057-.729,1.96Z" transform="translate(-2556.824 -333.572)" fill="#1d272b"/>
      <path id="Trazado_166545" data-name="Trazado 166545" d="M2859.642,378.944a36.446,36.446,0,0,1,4.446.251c4.366.764,7.225,4.577,6.969,9.238q-.357,6.512-.867,13.015a10.62,10.62,0,0,1-21.185-.176c-.281-4.19-.554-8.38-.842-12.57-.384-5.57,3.337-9.623,8.91-9.689.855-.01,1.71,0,2.566,0Zm-6.53,15.138c.136,2.273.261,4.457.4,6.641a8.8,8.8,0,0,0,.169.986,6.067,6.067,0,0,0,5.985,4.98,5.914,5.914,0,0,0,5.831-5c.356-2.868.49-5.766.654-8.655.016-.282-.38-.713-.688-.865a26.284,26.284,0,0,0-3.067-1.283,1.737,1.737,0,0,0-1.162.129c-1.343.614-2.618,1.391-3.991,1.918A42.9,42.9,0,0,1,2853.113,394.082Zm-.271-4.779c4.19-.2,7.765-2.787,7.993-5.766-1.408,0-2.814-.038-4.217.011a3.96,3.96,0,0,0-3.2,1.731C2852.54,386.5,2852.646,387.851,2852.841,389.3Zm13.491-1.7.29-.2-.938-2.49-.312.076-.742,2Z" transform="translate(-2771.534 -333.554)" fill="#1d272b"/>
      <path id="Trazado_166546" data-name="Trazado 166546" d="M2591.986,269.341h-15.515c-.26,0-.521.005-.781,0-1.772-.043-2.843-.933-2.812-2.335.03-1.375,1.068-2.246,2.785-2.248q16.24-.015,32.48,0a4.541,4.541,0,0,1,1.207.168,2.209,2.209,0,0,1,1.6,2.162,2.178,2.178,0,0,1-1.684,2.1,7.116,7.116,0,0,1-1.546.15Q2599.855,269.35,2591.986,269.341Z" transform="translate(-2557.827 -244.896)" fill="#1d272b"/>
      <path id="Trazado_166547" data-name="Trazado 166547" d="M2587.244,223.884c3.716,0,7.431-.007,11.146.007a5.663,5.663,0,0,1,1.539.174,2.092,2.092,0,0,1,1.578,2.057,2.2,2.2,0,0,1-1.57,2.184,1.138,1.138,0,0,1-.327.067c-8.315,0-16.631.064-24.944-.067a2.088,2.088,0,0,1-1.223-3.606,3.84,3.84,0,0,1,2.321-.782C2579.589,223.842,2583.417,223.884,2587.244,223.884Z" transform="translate(-2557.756 -213.159)" fill="#1d272b"/>
      <path id="Trazado_166548" data-name="Trazado 166548" d="M2719.9,228.514c-1.809,0-2.864-.8-2.913-2.214-.049-1.441.987-2.338,2.746-2.378,1.929-.044,3.087.8,3.1,2.268C2722.857,227.636,2721.746,228.514,2719.9,228.514Z" transform="translate(-2669.712 -213.196)" fill="#1d272b"/>
      <path id="Trazado_166549" data-name="Trazado 166549" d="M2814.5,309.258c-3.01,0-6.02.016-9.03-.006-1.735-.013-2.743-.858-2.77-2.239s.992-2.312,2.679-2.329c2.75-.027,5.5-.008,8.25-.008,3.344,0,6.689-.021,10.033.008,2.044.018,3.237,1.528,2.533,3.159a2.536,2.536,0,0,1-2.666,1.415Z" transform="translate(-2736.256 -275.887)" fill="#1d272b"/>
      <path id="Trazado_166550" data-name="Trazado 166550" d="M2814.572,274.274c3.009,0,6.018-.027,9.026.02a2.97,2.97,0,0,1,1.857.489,2.691,2.691,0,0,1,.878,1.964c-.1.672-.81,1.3-1.354,1.839-.214.214-.7.208-1.066.209q-9.305.017-18.61,0c-1.783-.006-2.8-1.2-2.476-2.769a2.245,2.245,0,0,1,2.5-1.744C2808.405,274.259,2811.489,274.275,2814.572,274.274Z" transform="translate(-2736.309 -252.284)" fill="#1d272b"/>
    </g>
  </g>
</svg>
