<svg xmlns="http://www.w3.org/2000/svg" width="208.197" height="270.344" viewBox="0 0 208.197 270.344">
  <g id="img26" transform="translate(-3690.908 372.754)">
    <g id="Grupo_129422" data-name="Grupo 129422" transform="translate(3700.908 -372.754)">
      <path id="Trazado_166573" data-name="Trazado 166573" d="M3856.031-372.754c2.294,1.393,4.565,2.827,6.9,4.151a4.9,4.9,0,0,0,2.191.554,11.9,11.9,0,0,1,11.9,11.676,4.61,4.61,0,0,0,.987,2.779,12.31,12.31,0,0,1,3.6,8.8c.015,8.537.248,17.089-.169,25.609-.589,12.076-10.017,22.643-21.761,25.072a27.824,27.824,0,0,1-29.979-13.8,28.565,28.565,0,0,1-3.522-14.163q.006-10.828,0-21.656c-.006-3.843.939-7.282,3.847-10.031a3.354,3.354,0,0,0,.81-2.08c.477-7.546,4.766-11.869,12.144-12.207a4.394,4.394,0,0,0,1.931-.553c2.324-1.342,4.6-2.765,6.9-4.157ZM3834.2-321.346a19.834,19.834,0,0,0,19.676,19.89,19.955,19.955,0,0,0,19.793-19.827,19.852,19.852,0,0,0-19.577-19.74A19.814,19.814,0,0,0,3834.2-321.346Zm39.44-19.749c.016-3.072.822-6.038-2.537-7.645-2.532-1.211-3.293-3.053-2.459-5.826,1.149-3.824-1.311-6.294-5.138-5.215-2.694.759-4.511.128-5.9-2.39-2.018-3.66-5.365-3.6-7.429.1-1.263,2.266-2.949,3.036-5.449,2.4-4.451-1.127-6.734,1.1-5.48,5.432a4.112,4.112,0,0,1-2.109,5.293c-3.069,1.809-3.774,4.054-2.5,7.64C3849.745-351.769,3856.965-351.773,3873.638-341.094Z" transform="translate(-3769.871 372.754)" fill="#1d272b"/>
      <path id="Trazado_166574" data-name="Trazado 166574" d="M3734.2-372.754c5.742,1.713,10.081,4.933,11.635,11.031,1.322,5.188-.013,9.986-2.661,14.4-4.174,6.96-10.2,12.056-17.2,15.979a4.846,4.846,0,0,1-3.948.3c-8.378-4.5-15.454-10.462-19.452-19.347-3.479-7.733-2.18-18.66,10.5-22.369h5.283a8.634,8.634,0,0,0,10.566,0Zm4.835,14.851c-.759-2.979-2.075-4.945-4.405-6.191a6.135,6.135,0,0,0-6.719.544c-4.38,3-4.335,2.992-8.485.082a6.05,6.05,0,0,0-7.145-.39c-2.465,1.528-3.8,3.708-3.294,6.609a18.8,18.8,0,0,0,1.741,5.471c2.731,5.192,7.11,8.854,11.939,11.993a2.2,2.2,0,0,0,2.052-.106c3.485-3.046,7.216-5.916,10.165-9.432C3736.866-351.683,3737.694-355.009,3739.037-357.9Z" transform="translate(-3710.908 372.754)" fill="#008f85"/>
      <path id="Trazado_166575" data-name="Trazado 166575" d="M3784.473-230.5c3.1-7.939,8.986-10.761,16.966-10.5,7.386.24,14.785.044,22.179.068,9.8.032,15.793,5.964,15.819,15.8.044,16.811-.027,33.623.023,50.435a28.839,28.839,0,0,1-6.637,19.007,6.038,6.038,0,0,0-1.248,3.542c-.069,26.67-.036,53.34-.091,80.009,0,1.782.471,2.689,2.244,3.2,3.457,1,6.861,2.194,10.258,3.392,2.744.968,3.838,2.925,3.094,5.255-.7,2.179-2.91,3.086-5.657,2.2-4.764-1.543-9.487-3.213-14.263-4.716a4.6,4.6,0,0,1-3.584-4.865q.012-5.149.01-10.3,0-33.8,0-67.6v-2.8c-7.924,3.171-15.611,3.458-23.739-.1v3.4q-.014,37.892-.028,75.785c0,4.908-.366,5.392-5.049,6.955-4,1.335-7.992,2.7-11.993,4.026-3.344,1.111-5.669.391-6.439-1.961-.847-2.589.465-4.435,4.05-5.641,3.082-1.036,6.146-2.138,9.27-3.023,1.755-.5,2.278-1.379,2.271-3.184-.069-19.452-.05-38.9-.051-58.356,0-7.218.063-14.436-.046-21.652a6.111,6.111,0,0,0-1.23-3.547,29.375,29.375,0,0,1-6.686-19.529c.075-14.963-.007-29.926.059-44.889.009-1.852-.475-2.616-2.418-2.856a51.123,51.123,0,0,1-43.671-39.185,72.276,72.276,0,0,1-1.369-10.964c-.222-2.83,1.407-4.7,3.745-4.789,2.212-.082,3.972,1.508,4.067,4.264a43.543,43.543,0,0,0,5.753,21.148C3757.793-239.489,3769.225-232.247,3784.473-230.5Zm46.825,52.854a14.243,14.243,0,0,0,.177-1.5c.005-15.657.048-31.314-.032-46.971-.022-4.34-2.834-6.872-7.289-6.891-7.828-.033-15.657-.014-23.486-.008-6.418,0-8.757,2.3-8.761,8.69q-.015,22.166.027,44.332c0,.754.114,1.508.181,2.344Zm-38.711,8.124c1.383,9.006,10.2,15.995,19.578,15.707,9.285-.284,17.764-7.406,18.593-15.707Z" transform="translate(-3727.661 328.101)" fill="#1d272b"/>
      <path id="Trazado_166576" data-name="Trazado 166576" d="M3986.142-112.928q-17.761,0-35.523,0c-3.263,0-4.192-1.6-2.56-4.422,2.2-3.8,4.457-7.567,6.592-11.4a3.545,3.545,0,0,1,3.466-2.05q28.077.053,56.155,0a3.445,3.445,0,0,1,3.359,1.963c2.195,3.921,4.5,7.778,6.747,11.672,1.478,2.564.529,4.234-2.4,4.235Q4004.059-112.92,3986.142-112.928Zm32.567-4.73c-1.483-2.555-2.912-4.929-4.242-7.358a1.915,1.915,0,0,0-1.954-1.124c-4.083.046-8.167.025-12.251.024q-20.161,0-40.322.015c-.562,0-1.41.122-1.64.49-1.6,2.561-3.08,5.2-4.675,7.952Z" transform="translate(-3826.868 223.85)" fill="#1d272b"/>
      <path id="Trazado_166577" data-name="Trazado 166577" d="M4015.1-185.3q-11.252,0-22.5,0c-3.3,0-4.221-1.587-2.585-4.41,2.229-3.845,4.5-7.664,6.682-11.538a3.429,3.429,0,0,1,3.375-1.928q15.054.07,30.107,0a3.3,3.3,0,0,1,3.239,1.88c2.2,3.92,4.5,7.784,6.75,11.677,1.58,2.735.641,4.322-2.561,4.325Q4026.35-185.289,4015.1-185.3Zm19.431-4.749c-1.487-2.569-2.852-4.813-4.094-7.123a2.229,2.229,0,0,0-2.288-1.346c-8.019.053-16.042.165-24.054-.057-2.752-.076-4.379.683-5.457,3.2a53.768,53.768,0,0,1-3.018,5.328Z" transform="translate(-3855.768 273.715)" fill="#1d272b"/>
      <path id="Trazado_166578" data-name="Trazado 166578" d="M4044.083-268.487c-3.255,0-6.51.012-9.765,0-2.863-.014-3.856-1.674-2.447-4.116q4.874-8.449,9.79-16.874c1.393-2.386,3.326-2.383,4.718,0q4.912,8.427,9.783,16.878c1.368,2.372.393,4.086-2.315,4.1-3.255.016-6.509,0-9.764,0Zm-.075-15.77-6.39,11.018h12.792Z" transform="translate(-3884.715 334.4)" fill="#1d272b"/>
    </g>
  </g>
</svg>
