<svg xmlns="http://www.w3.org/2000/svg" width="120.693" height="113.882" viewBox="0 0 120.693 113.882">
  <g id="img6" transform="translate(807.693 473.197)">
    <g id="Grupo_129393" data-name="Grupo 129393" transform="translate(-807.693 -473.197)">
      <path id="Trazado_166471" data-name="Trazado 166471" d="M-433.7-438.1c-.55-.772-1.114-1.512-1.624-2.288a25.822,25.822,0,0,1-4.163-11.136,20.926,20.926,0,0,1,1.57-11.46,16.44,16.44,0,0,1,12.36-9.769,20.143,20.143,0,0,1,11.217.794A16.619,16.619,0,0,1-403.9-460.479a22.58,22.58,0,0,1-.323,13.441,26.8,26.8,0,0,1-4.786,8.839c-.05.062-.1.129-.177.24l2.754.7c2.3.581,4.625,1.054,6.88,1.763a12.527,12.527,0,0,1,9.094,10.3,12.337,12.337,0,0,1,.165,2.128c.022,1.839-.022,3.679.014,5.518a6.443,6.443,0,0,1-2.045,4.856,15.117,15.117,0,0,1-4.985,3.126,37.191,37.191,0,0,1-8.487,2.365c-2.46.4-4.934.74-7.415.968a83.853,83.853,0,0,1-11.759.27c-2.3-.112-4.6-.255-6.892-.49a52.172,52.172,0,0,1-13.138-2.8,16.63,16.63,0,0,1-5.206-2.924,6.552,6.552,0,0,1-2.369-3.752,15.7,15.7,0,0,1-.153-2.579c-.02-1.7-.063-3.406.009-5.1a12.611,12.611,0,0,1,5.9-10.414,15.545,15.545,0,0,1,5.1-1.984c2.6-.642,5.2-1.321,7.8-1.986A1.635,1.635,0,0,0-433.7-438.1Zm-3.658,5.122c-1.575.408-3.166.805-4.749,1.232a8.748,8.748,0,0,0-6.6,8.342c-.056,1.89-.042,3.782-.061,5.673a3,3,0,0,0,.963,2.273,10.05,10.05,0,0,0,2.956,1.91,38.583,38.583,0,0,0,10.855,2.808c2.444.321,4.909.509,7.37.675a87.232,87.232,0,0,0,10.16.016,78.364,78.364,0,0,0,9.078-.934,39.251,39.251,0,0,0,8.4-2.22,11.492,11.492,0,0,0,3.662-2.162,2.75,2.75,0,0,0,1.016-2.075c-.017-1.949.006-3.9-.009-5.847a8.836,8.836,0,0,0-6.6-8.437c-1.036-.262-2.073-.517-3.11-.775l-1.769-.442c-.089.176-.152.3-.211.419a39.077,39.077,0,0,1-6.367,9.693,23.378,23.378,0,0,1-7.592,5.673,3.326,3.326,0,0,1-2.586.107A14.121,14.121,0,0,1-427-419.795a42.426,42.426,0,0,1-8.191-9.662C-435.934-430.606-436.626-431.787-437.356-432.978Zm16.163-36.2a15.674,15.674,0,0,0-5.667,1,13.013,13.013,0,0,0-7.195,6.3,15.885,15.885,0,0,0-1.429,9.648,23.733,23.733,0,0,0,3.975,10.34,15.658,15.658,0,0,0,5.872,5.4,9.209,9.209,0,0,0,4.967,1.021,10.568,10.568,0,0,0,5.658-2.336,18.805,18.805,0,0,0,5.14-6.344,21.826,21.826,0,0,0,2.6-13.249,13.005,13.005,0,0,0-3.251-7.151A14.319,14.319,0,0,0-421.193-469.18Zm-12.055,35.156a47.84,47.84,0,0,0,6.127,8.607,19.115,19.115,0,0,0,5.429,4.277.729.729,0,0,0,.729.006,18.214,18.214,0,0,0,3.821-2.622,29.825,29.825,0,0,0,6.044-7.7c.458-.8.878-1.631,1.338-2.489l-2.207-.564a1.813,1.813,0,0,0-.439-.1.727.727,0,0,0-.368.123c-.448.291-.875.616-1.33.895a13.076,13.076,0,0,1-11.381,1.484,15.37,15.37,0,0,1-4.506-2.413.746.746,0,0,0-.491-.2C-431.4-434.512-432.31-434.264-433.248-434.024Z" transform="translate(481.994 473.197)" fill="#1d272b"/>
      <path id="Trazado_166472" data-name="Trazado 166472" d="M-782.877,74.263c-1.468-1.875-2.9-3.7-4.324-5.525-3.332-4.289-6.68-8.566-9.975-12.883a22.442,22.442,0,0,1-3.677-6.387c-.606-1.811-1.024-3.69-1.447-5.557-1.136-5.02-2.229-10.05-3.341-15.076-.639-2.887-1.3-5.768-1.917-8.66a4.613,4.613,0,0,1,3.246-5.687A9.936,9.936,0,0,1-795,16.059a10.233,10.233,0,0,1,3.983,6.546c.8,3.761,1.653,7.51,2.484,11.269.666-.135,1.312-.3,1.969-.391a10.714,10.714,0,0,1,9.587,3.255c2.64,2.751,5.139,5.637,7.7,8.459a2.18,2.18,0,0,0,.5.409,38.37,38.37,0,0,1,5.425,3.565,18.192,18.192,0,0,1,6.211,9.8,18.283,18.283,0,0,1,.308,4.546c-.024,2.319-.069,4.638-.1,6.958,0,.106.013.212.021.329,1.124-.149,2.225-.286,3.322-.444a1.979,1.979,0,0,1,2.258,1.672c.181,1.621.31,3.247.466,4.871.246,2.552.5,5.1.742,7.655a12.217,12.217,0,0,1,.026,1.4,1.631,1.631,0,0,1-1.518,1.645c-.861.068-1.726.108-2.59.108q-8.874,0-17.748-.024c-3.075-.006-6.149-.042-9.224-.012a2.209,2.209,0,0,1-2.391-2.106c-.312-2.708-.727-5.4-1.1-8.106-.043-.312-.061-.628-.086-.942a1.9,1.9,0,0,1,1.613-2.174C-783.068,74.325-783.007,74.3-782.877,74.263Zm21.992-2.929c-.03-.4-.086-.752-.079-1.1.028-1.537.059-3.074.117-4.609a24,24,0,0,0-.324-6.025,13.067,13.067,0,0,0-3.484-6.15,21.179,21.179,0,0,0-5.664-4.051,7.612,7.612,0,0,1-2.112-1.664c-2.364-2.635-4.749-5.251-7.117-7.882a6.921,6.921,0,0,0-7.221-2.212,6.439,6.439,0,0,0-2.889,1.415.443.443,0,0,0-.042.745c2.549,2.838,5.078,5.693,7.621,8.535,1.738,1.942,3.5,3.865,5.233,5.81a1.869,1.869,0,0,1-.236,2.742,1.881,1.881,0,0,1-2.69-.058c-.27-.273-.541-.544-.8-.828q-6.048-6.684-12.093-13.371a4.312,4.312,0,0,1,.14-6.317.8.8,0,0,0,.232-.858c-.9-4.034-1.815-8.067-2.684-12.109A6.423,6.423,0,0,0-800,18.127a4.392,4.392,0,0,0-3.023.128.921.921,0,0,0-.585,1.133q.986,4.576,1.979,9.151c.481,2.207.959,4.414,1.466,6.615.867,3.76,1.722,7.522,2.648,11.268a16.465,16.465,0,0,0,2.971,6.312q4.912,6.267,9.789,12.561,3.145,4.043,6.286,8.09a.579.579,0,0,0,.4.239c2.026-.25,4.05-.522,6.073-.793q3.545-.474,7.089-.954Zm5.777,3.29-25.367,3.393c0,.133-.006.188,0,.241.222,1.67.455,3.339.661,5.011.046.37.242.378.53.378q12.245,0,24.49.018h.536Z" transform="translate(807.693 26.175)" fill="#1d272b"/>
      <path id="Trazado_166473" data-name="Trazado 166473" d="M-8.605,74.533a2.216,2.216,0,0,1,1.738,1.194A3.057,3.057,0,0,1-6.8,77.546c-.285,2.16-.582,4.318-.874,6.477-.093.692-.168,1.388-.278,2.077a2.029,2.029,0,0,1-2.218,1.812q-2.738.014-5.476.016-8.215.018-16.43.034c-2.209,0-4.419-.011-6.628-.027a11.1,11.1,0,0,1-1.19-.081,1.62,1.62,0,0,1-1.469-1.644c.063-1.479.163-2.957.291-4.432.184-2.117.407-4.231.615-6.347.1-1.05.177-2.1.323-3.15a1.954,1.954,0,0,1,2.293-1.662c1.085.153,2.172.286,3.285.432,0-.694,0-1.374,0-2.054-.019-2.47-.105-4.941-.047-7.409a14.962,14.962,0,0,1,2.647-7.847,19.985,19.985,0,0,1,7.108-6.6c.382-.215.74-.48,1.136-.662a10.7,10.7,0,0,0,3.235-2.928c1.99-2.178,3.926-4.405,5.957-6.544a10.809,10.809,0,0,1,8.111-3.4,10.313,10.313,0,0,1,3.236.506c.062.02.129.029.233.051.265-1.2.522-2.39.787-3.575.653-2.924,1.245-5.865,1.981-8.768a10.29,10.29,0,0,1,8.924-7.533,9.829,9.829,0,0,1,4.026.353,4.938,4.938,0,0,1,3.312,5.792Q13.78,30.885,11.458,41.329q-.684,3.088-1.37,6.176a20.378,20.378,0,0,1-3.871,7.873C3.071,59.534-.129,63.649-3.317,67.772-5.054,70.017-6.814,72.245-8.605,74.533Zm-21.989-2.948c1.336.184,2.636.366,3.937.541q3.259.438,6.518.868c2.241.3,4.482.6,6.724.891a.477.477,0,0,0,.356-.176q4.579-5.875,9.146-11.76,3.287-4.219,6.594-8.422a17.079,17.079,0,0,0,2.082-3.292,29.259,29.259,0,0,0,1.888-5.812C7.6,40.316,8.518,36.2,9.427,32.085s1.8-8.266,2.7-12.4a.965.965,0,0,0-.772-1.264A6.369,6.369,0,0,0,3.8,22.61c-.472,1.54-.77,3.135-1.121,4.711-.634,2.846-1.243,5.7-1.88,8.543a.545.545,0,0,0,.2.626,4.349,4.349,0,0,1,1.463,4.034A3.578,3.578,0,0,1,1.5,42.409C-.1,44.282-1.724,46.146-3.376,47.981c-2.708,3.008-5.442,5.993-8.17,8.983a1.939,1.939,0,0,1-2.885.146,1.949,1.949,0,0,1-.094-2.859q.439-.491.883-.977Q-8.2,47.287-2.763,41.3c.387-.426.739-.883,1.109-1.325a.316.316,0,0,0-.072-.541,12.532,12.532,0,0,0-1.389-.947,6.753,6.753,0,0,0-7.142.263,13.114,13.114,0,0,0-2.271,2.014c-2.152,2.327-4.251,4.7-6.377,7.052a7.254,7.254,0,0,1-1.125,1.13c-.7.494-1.47.9-2.218,1.332A19.345,19.345,0,0,0-26.52,53.4a14.186,14.186,0,0,0-3.856,6.678,18.263,18.263,0,0,0-.22,4.382C-30.589,66.813-30.594,69.17-30.594,71.585Zm19.625,6.7-25.393-3.409-.844,9.01h25.485Z" transform="translate(104.488 25.92)" fill="#1d272b"/>
    </g>
  </g>
</svg>
