<svg xmlns="http://www.w3.org/2000/svg" width="323.227" height="217.641" viewBox="0 0 323.227 217.641">
  <g id="img7" transform="translate(-346.059 -3013.758)">
    <g id="freepik--background-complete--inject-3" transform="translate(368.127 3017.978)">
      <path id="Trazado_105054" data-name="Trazado 105054" d="M395.279,3362.9v22.049H391.6v2.395h3.68V3402.1h68.828V3388.67h-5.115v-2.92h5.1v-4.38h2.263v-2h-2.692V3362.9Z" transform="translate(-391.502 -3197.183)" fill="#f5f5f5"/>
      <path id="Trazado_105055" data-name="Trazado 105055" d="M503.019,3362.962v38.894H521.3v-13.429h-5.1v-2.682l5.1.092v-4.39l2.307,0-.044-2.268-2.692-.063V3362.9Z" transform="translate(-448.691 -3197.183)" fill="#ebebeb"/>
      <path id="Trazado_105056" data-name="Trazado 105056" d="M447.027,3412.212c0,.136-12.455.243-27.811.243s-27.816-.107-27.816-.243,12.45-.244,27.816-.244S447.027,3412.075,447.027,3412.212Z" transform="translate(-391.399 -3222.369)" fill="#e0e0e0"/>
      <path id="Trazado_105057" data-name="Trazado 105057" d="M447.027,3407.611c0,.136-12.455.244-27.811.244s-27.816-.107-27.816-.244,12.45-.243,27.816-.243S447.027,3407.476,447.027,3407.611Z" transform="translate(-391.399 -3220.008)" fill="#e0e0e0"/>
      <path id="Trazado_105058" data-name="Trazado 105058" d="M454.4,3395.221c0,.136-12.455.248-27.811.248s-27.816-.112-27.816-.248,12.45-.243,27.816-.243S454.4,3395.09,454.4,3395.221Z" transform="translate(-395.182 -3213.649)" fill="#e0e0e0"/>
      <path id="Trazado_105059" data-name="Trazado 105059" d="M455.077,3428.976c0,.132-12.455.243-27.816.243s-27.811-.112-27.811-.243,12.45-.248,27.811-.248S455.077,3428.84,455.077,3428.976Z" transform="translate(-395.531 -3230.972)" fill="#e0e0e0"/>
      <path id="Trazado_105060" data-name="Trazado 105060" d="M682.156,3043.57a20.429,20.429,0,0,1,4.979-2.166l1.027-4.931,8.328-.146,1.2,4.867a20.279,20.279,0,0,1,5.052,1.986l4.2-2.735,5.992,5.787-2.584,4.3a20.325,20.325,0,0,1,2.166,4.984l4.931,1.022.146,8.328-4.892,1.2a20.345,20.345,0,0,1-1.985,5.052l2.755,4.21-5.8,5.991-4.3-2.609a20.475,20.475,0,0,1-4.984,2.161l-1.022,4.931-8.328.146-1.2-4.891a20.335,20.335,0,0,1-5.052-1.986l-4.21,2.76-5.992-5.787,2.609-4.3a20.378,20.378,0,0,1-2.161-4.979l-4.931-1.027-.146-8.328,4.892-1.2a20.3,20.3,0,0,1,1.976-5.052l-2.76-4.21,5.787-5.992,4.3,2.609Zm4.439,11.093a9.024,9.024,0,1,0,.019-.019Z" transform="translate(-533.345 -3029.563)" fill="#ebebeb"/>
      <path id="Trazado_105061" data-name="Trazado 105061" d="M783.394,3026.653a12.028,12.028,0,0,1,2.92-1.265l.6-2.876,4.867-.083.677,2.857a12.138,12.138,0,0,1,2.95,1.158l2.434-1.606,3.534,3.368-1.519,2.511a11.982,11.982,0,0,1,1.261,2.92l2.876.6.083,4.867-2.852.7a11.78,11.78,0,0,1-1.158,2.92l1.611,2.434-3.378,3.495-2.512-1.523a11.812,11.812,0,0,1-2.92,1.265l-.6,2.872-4.867.087-.7-2.852a12.023,12.023,0,0,1-2.95-1.158l-2.434,1.606-3.5-3.373,1.523-2.512a11.8,11.8,0,0,1-1.261-2.92l-2.877-.6-.087-4.867,2.837-.633a11.835,11.835,0,0,1,1.164-2.92l-1.611-2.434,3.372-3.495,2.512,1.523Zm2.589,6.469a5.213,5.213,0,1,0,7.374-.127,5.213,5.213,0,0,0-7.374.127Z" transform="translate(-588.353 -3022.428)" fill="#ebebeb"/>
      <path id="Trazado_105062" data-name="Trazado 105062" d="M929.878,3178.415a15.953,15.953,0,0,1,3.869-1.684l.793-3.826,6.469-.117.935,3.8a15.791,15.791,0,0,1,3.923,1.543l3.266-2.142,4.658,4.493-2.03,3.339a15.991,15.991,0,0,1,1.684,3.894l3.826.8.122,6.425-3.8.929a15.6,15.6,0,0,1-1.557,3.938l2.142,3.271-4.492,4.653-3.344-2.025a15.677,15.677,0,0,1-3.865,1.679l-.8,3.831-6.469.112-.93-3.8a15.981,15.981,0,0,1-3.923-1.543l-3.271,2.142-4.653-4.492,2.025-3.344a15.708,15.708,0,0,1-1.679-3.87l-3.841-.788-.112-6.469,3.8-.934a16.185,16.185,0,0,1,1.543-3.923l-2.142-3.266,4.493-4.658,3.344,2.03Zm3.446,8.615a6.941,6.941,0,1,0,9.817-.17,6.941,6.941,0,0,0-9.817.17Z" transform="translate(-662.116 -3099.604)" fill="#ebebeb"/>
    </g>
    <g id="freepik--Table--inject-3" transform="translate(346.059 3223.152)">
      <path id="Trazado_105063" data-name="Trazado 105063" d="M663.4,3444.095c0,.068-71.062.127-158.672.127s-158.672-.058-158.672-.127,71.062-.126,158.672-.126S663.4,3444.022,663.4,3444.095Z" transform="translate(-346.059 -3443.969)" fill="#5e6178"/>
    </g>
    <g id="freepik--Artboard--inject-3" transform="translate(373.404 3013.758)">
      <rect id="Rectángulo_8020" data-name="Rectángulo 8020" width="173.965" height="136.127" fill="#fff"/>
      <rect id="Rectángulo_8021" data-name="Rectángulo 8021" width="174.617" height="11.321" transform="translate(0.034)" fill="#868695"/>
      <rect id="Rectángulo_8022" data-name="Rectángulo 8022" width="9.715" height="124.806" transform="translate(0.034 11.321)" fill="#1d272b"/>
      <rect id="Rectángulo_8023" data-name="Rectángulo 8023" width="174.617" height="7.5" transform="translate(0.034 11.321)" fill="#1d272b"/>
      <path id="Trazado_105064" data-name="Trazado 105064" d="M409.374,3024.913a.234.234,0,0,1-.17-.068.243.243,0,0,1,0-.344h0l5.544-5.637a.239.239,0,0,1,.337,0l0,0a.244.244,0,0,1,0,.344h0l-5.539,5.631A.247.247,0,0,1,409.374,3024.913Z" transform="translate(-405.777 -3016.342)" fill="#fff"/>
      <path id="Trazado_105065" data-name="Trazado 105065" d="M414.919,3024.927a.228.228,0,0,1-.17-.073l-5.636-5.549a.244.244,0,1,1,.341-.35l5.636,5.544a.243.243,0,0,1,0,.344h0A.228.228,0,0,1,414.919,3024.927Z" transform="translate(-405.729 -3016.391)" fill="#fff"/>
      <path id="Trazado_105066" data-name="Trazado 105066" d="M578.6,3052.295c0,.068-38.339.126-85.625.126s-85.634-.058-85.634-.126,38.334-.127,85.634-.127S578.6,3052.231,578.6,3052.295Z" transform="translate(-404.858 -3033.473)" fill="#5e6178"/>
      <path id="Trazado_105067" data-name="Trazado 105067" d="M422.137,3162.834c-.068,0-.127-27.534-.127-61.493s.058-61.493.127-61.493.127,27.524.127,61.493S422.2,3162.834,422.137,3162.834Z" transform="translate(-412.387 -3027.15)" fill="#5e6178"/>
      <path id="Trazado_105068" data-name="Trazado 105068" d="M442.619,3045.845a35.586,35.586,0,0,1,0-6,35.577,35.577,0,0,1,0,6Z" transform="translate(-422.892 -3027.15)" fill="#5e6178"/>
      <path id="Trazado_105069" data-name="Trazado 105069" d="M463.1,3045.845a35.577,35.577,0,0,1,0-6,35.577,35.577,0,0,1,0,6Z" transform="translate(-433.406 -3027.15)" fill="#5e6178"/>
      <path id="Trazado_105070" data-name="Trazado 105070" d="M483.589,3045.845a35.577,35.577,0,0,1,0-6,35.577,35.577,0,0,1,0,6Z" transform="translate(-443.921 -3027.15)" fill="#5e6178"/>
      <path id="Trazado_105071" data-name="Trazado 105071" d="M504.071,3045.845a35.586,35.586,0,0,1,0-6,35.577,35.577,0,0,1,0,6Z" transform="translate(-454.434 -3027.15)" fill="#5e6178"/>
      <path id="Trazado_105072" data-name="Trazado 105072" d="M524.559,3045.845a35.586,35.586,0,0,1,0-6,35.569,35.569,0,0,1,0,6Z" transform="translate(-464.95 -3027.15)" fill="#5e6178"/>
      <path id="Trazado_105073" data-name="Trazado 105073" d="M545.041,3045.845a35.569,35.569,0,0,1,0-6,35.569,35.569,0,0,1,0,6Z" transform="translate(-475.463 -3027.15)" fill="#5e6178"/>
      <path id="Trazado_105074" data-name="Trazado 105074" d="M565.529,3045.845a35.569,35.569,0,0,1,0-6,35.569,35.569,0,0,1,0,6Z" transform="translate(-485.979 -3027.15)" fill="#5e6178"/>
      <path id="Trazado_105075" data-name="Trazado 105075" d="M586.011,3045.845a35.586,35.586,0,0,1,0-6,35.586,35.586,0,0,1,0,6Z" transform="translate(-496.492 -3027.15)" fill="#5e6178"/>
      <path id="Trazado_105076" data-name="Trazado 105076" d="M606.5,3045.845a35.569,35.569,0,0,1,0-6,35.586,35.586,0,0,1,0,6Z" transform="translate(-507.007 -3027.15)" fill="#5e6178"/>
      <path id="Trazado_105077" data-name="Trazado 105077" d="M626.981,3045.845a35.569,35.569,0,0,1,0-6,35.586,35.586,0,0,1,0,6Z" transform="translate(-517.521 -3027.15)" fill="#5e6178"/>
      <path id="Trazado_105078" data-name="Trazado 105078" d="M647.469,3045.845a35.586,35.586,0,0,1,0-6,35.569,35.569,0,0,1,0,6Z" transform="translate(-528.036 -3027.15)" fill="#5e6178"/>
      <path id="Trazado_105079" data-name="Trazado 105079" d="M667.951,3045.845a35.586,35.586,0,0,1,0-6,35.586,35.586,0,0,1,0,6Z" transform="translate(-538.55 -3027.15)" fill="#5e6178"/>
      <path id="Trazado_105080" data-name="Trazado 105080" d="M688.434,3045.845a34.252,34.252,0,0,1,0-6,35.6,35.6,0,0,1,0,6Z" transform="translate(-549.06 -3027.15)" fill="#5e6178"/>
      <path id="Trazado_105081" data-name="Trazado 105081" d="M708.921,3045.845a35.6,35.6,0,0,1,0-6,35.569,35.569,0,0,1,0,6Z" transform="translate(-559.579 -3027.15)" fill="#5e6178"/>
      <path id="Trazado_105082" data-name="Trazado 105082" d="M729.4,3045.845a35.569,35.569,0,0,1,0-6,34.268,34.268,0,0,1,0,6Z" transform="translate(-570.091 -3027.15)" fill="#5e6178"/>
      <path id="Trazado_105083" data-name="Trazado 105083" d="M749.891,3045.845a35.586,35.586,0,0,1,0-6,35.569,35.569,0,0,1,0,6Z" transform="translate(-580.608 -3027.15)" fill="#5e6178"/>
      <path id="Trazado_105084" data-name="Trazado 105084" d="M414.607,3069.708a52.258,52.258,0,0,1-7.267,0,52.258,52.258,0,0,1,7.267,0Z" transform="translate(-404.858 -3042.404)" fill="#5e6178"/>
      <path id="Trazado_105085" data-name="Trazado 105085" d="M414.607,3088.589a52.157,52.157,0,0,1-7.267,0,52.359,52.359,0,0,1,7.267,0Z" transform="translate(-404.858 -3052.094)" fill="#5e6178"/>
      <path id="Trazado_105086" data-name="Trazado 105086" d="M414.607,3107.469a52.258,52.258,0,0,1-7.267,0,52.258,52.258,0,0,1,7.267,0Z" transform="translate(-404.858 -3061.785)" fill="#5e6178"/>
      <path id="Trazado_105087" data-name="Trazado 105087" d="M414.607,3126.347a52.258,52.258,0,0,1-7.267,0,52.258,52.258,0,0,1,7.267,0Z" transform="translate(-404.858 -3071.474)" fill="#5e6178"/>
      <path id="Trazado_105088" data-name="Trazado 105088" d="M414.607,3145.219a52.258,52.258,0,0,1-7.267,0,52.258,52.258,0,0,1,7.267,0Z" transform="translate(-404.858 -3081.161)" fill="#5e6178"/>
      <path id="Trazado_105089" data-name="Trazado 105089" d="M414.607,3164.149a52.157,52.157,0,0,1-7.267,0,52.157,52.157,0,0,1,7.267,0Z" transform="translate(-404.858 -3090.877)" fill="#5e6178"/>
      <path id="Trazado_105090" data-name="Trazado 105090" d="M414.607,3182.977a52.258,52.258,0,0,1-7.267,0,52.157,52.157,0,0,1,7.267,0Z" transform="translate(-404.858 -3100.541)" fill="#5e6178"/>
      <path id="Trazado_105091" data-name="Trazado 105091" d="M414.607,3201.857a52.258,52.258,0,0,1-7.267,0,52.157,52.157,0,0,1,7.267,0Z" transform="translate(-404.858 -3110.231)" fill="#5e6178"/>
      <path id="Trazado_105092" data-name="Trazado 105092" d="M414.607,3220.729a52.359,52.359,0,0,1-7.267,0,52.157,52.157,0,0,1,7.267,0Z" transform="translate(-404.858 -3119.918)" fill="#5e6178"/>
      <path id="Trazado_105093" data-name="Trazado 105093" d="M414.607,3239.609a52.258,52.258,0,0,1-7.267,0,52.258,52.258,0,0,1,7.267,0Z" transform="translate(-404.858 -3129.609)" fill="#5e6178"/>
      <path id="Trazado_105094" data-name="Trazado 105094" d="M414.607,3258.487a52.157,52.157,0,0,1-7.267,0,52.157,52.157,0,0,1,7.267,0Z" transform="translate(-404.858 -3139.298)" fill="#5e6178"/>
      <path id="Trazado_105095" data-name="Trazado 105095" d="M414.607,3277.377a50.227,50.227,0,0,1-7.267,0,64.732,64.732,0,0,1,7.267,0Z" transform="translate(-404.858 -3149.004)" fill="#5e6178"/>
      <path id="Trazado_105096" data-name="Trazado 105096" d="M589.013,3273.295c0,.068-33.18.126-74.1.126s-74.1-.058-74.1-.126,33.17-.127,74.1-.127S589.013,3273.231,589.013,3273.295Z" transform="translate(-422.037 -3146.907)" fill="#5e6178"/>
      <g id="Grupo_56867" data-name="Grupo 56867" transform="translate(9.604 19.452)">
        <g id="Grupo_56712" data-name="Grupo 56712">
          <g id="Grupo_56708" data-name="Grupo 56708" transform="translate(0.154 0.154)">
            <g id="Grupo_56707" data-name="Grupo 56707">
              <rect id="Rectángulo_8024" data-name="Rectángulo 8024" width="157.782" height="103.492" fill="#fafafa"/>
            </g>
          </g>
          <g id="Grupo_56711" data-name="Grupo 56711">
            <g id="Grupo_56710" data-name="Grupo 56710">
              <g id="Grupo_56709" data-name="Grupo 56709">
                <path id="Trazado_105097" data-name="Trazado 105097" d="M579.907,3157.369c0-1-.048-40.372-.122-103.492l.122.122-157.77.031h-.013l.154-.153c0,36.8-.009,71.829-.013,103.491l-.141-.141,157.782.141-157.782.141h-.141v-.142c0-31.662-.008-66.687-.013-103.491v-.154h.166l157.77.031h.123v.123C579.955,3117,579.908,3156.373,579.907,3157.369Z" transform="translate(-421.971 -3053.723)" fill="#344154"/>
              </g>
            </g>
          </g>
        </g>
        <g id="Grupo_56737" data-name="Grupo 56737" transform="translate(11.874 39.832)">
          <g id="Grupo_56724" data-name="Grupo 56724" transform="translate(36.409 17.473)">
            <g id="Grupo_56714" data-name="Grupo 56714">
              <g id="Grupo_56713" data-name="Grupo 56713">
                <path id="Trazado_105098" data-name="Trazado 105098" d="M521.262,3171.458l15.519.214a15.451,15.451,0,0,1-15.519,15.011h-.091Z" transform="translate(-521.171 -3171.458)" fill="#5e6178"/>
              </g>
            </g>
            <g id="Grupo_56717" data-name="Grupo 56717" transform="translate(5.469 9.191)">
              <g id="Grupo_56716" data-name="Grupo 56716">
                <g id="Grupo_56715" data-name="Grupo 56715">
                  <path id="Trazado_105099" data-name="Trazado 105099" d="M552.69,3202.164a1.567,1.567,0,0,1-.332.027l-.949.025-3.467.04H547.9l-.028-.035-5.12-6.451-4.127-5.262.08.039-4.567-.043-1.277-.028a2.555,2.555,0,0,1-.452-.031,2.415,2.415,0,0,1,.452-.032l1.277-.028,4.567-.043h.049l.031.04,4.154,5.241,5.077,6.484-.072-.035,3.467.04.949.025A1.567,1.567,0,0,1,552.69,3202.164Z" transform="translate(-532.407 -3190.342)" fill="#344154"/>
                </g>
              </g>
            </g>
            <g id="Grupo_56720" data-name="Grupo 56720" transform="translate(21.277 22.683)">
              <g id="Grupo_56719" data-name="Grupo 56719">
                <g id="Grupo_56718" data-name="Grupo 56718">
                  <path id="Trazado_105100" data-name="Trazado 105100" d="M574.927,3218.181c0,.066-2.248.119-5.021.119s-5.022-.053-5.022-.119,2.248-.119,5.022-.119S574.927,3218.115,574.927,3218.181Z" transform="translate(-564.885 -3218.062)" fill="#344154"/>
                </g>
              </g>
            </g>
            <g id="Grupo_56723" data-name="Grupo 56723" transform="translate(21.277 24.543)">
              <g id="Grupo_56722" data-name="Grupo 56722">
                <g id="Grupo_56721" data-name="Grupo 56721">
                  <path id="Trazado_105101" data-name="Trazado 105101" d="M574.927,3222c0,.066-2.248.119-5.021.119s-5.022-.053-5.022-.119,2.248-.119,5.022-.119S574.927,3221.936,574.927,3222Z" transform="translate(-564.885 -3221.882)" fill="#344154"/>
                </g>
              </g>
            </g>
          </g>
          <g id="Grupo_56736" data-name="Grupo 56736">
            <g id="Grupo_56726" data-name="Grupo 56726" transform="translate(18.525 0.039)">
              <g id="Grupo_56725" data-name="Grupo 56725">
                <path id="Trazado_105102" data-name="Trazado 105102" d="M499.948,3150.865l-.218,15.223a15.23,15.23,0,1,1,15.739-15.223Z" transform="translate(-484.427 -3135.64)" fill="#008f85"/>
              </g>
            </g>
            <g id="Grupo_56729" data-name="Grupo 56729" transform="translate(13.973 0.788)">
              <g id="Grupo_56728" data-name="Grupo 56728">
                <g id="Grupo_56727" data-name="Grupo 56727">
                  <path id="Trazado_105103" data-name="Trazado 105103" d="M489.087,3146.676a1.014,1.014,0,0,1-.269.063l-.772.124-2.788.391-.046.007-.035-.033-3.719-3.618c-1.786-1.752-3.394-3.348-4.549-4.511l-1.359-1.387a4.176,4.176,0,0,1-.476-.531,4.057,4.057,0,0,1,.541.465l1.413,1.333c1.186,1.133,2.812,2.709,4.6,4.462l3.688,3.648-.08-.027,2.8-.308.779-.071A1.01,1.01,0,0,1,489.087,3146.676Z" transform="translate(-475.074 -3137.179)" fill="#344154"/>
                </g>
              </g>
            </g>
            <g id="Grupo_56732" data-name="Grupo 56732">
              <g id="Grupo_56731" data-name="Grupo 56731">
                <g id="Grupo_56730" data-name="Grupo 56730">
                  <path id="Trazado_105104" data-name="Trazado 105104" d="M456.409,3135.678c0,.066-2.248.119-5.021.119s-5.022-.053-5.022-.119,2.248-.119,5.022-.119S456.409,3135.612,456.409,3135.678Z" transform="translate(-446.366 -3135.559)" fill="#344154"/>
                </g>
              </g>
            </g>
            <g id="Grupo_56735" data-name="Grupo 56735" transform="translate(0 1.859)">
              <g id="Grupo_56734" data-name="Grupo 56734">
                <g id="Grupo_56733" data-name="Grupo 56733">
                  <path id="Trazado_105105" data-name="Trazado 105105" d="M456.409,3139.5c0,.065-2.248.119-5.021.119s-5.022-.054-5.022-.119,2.248-.119,5.022-.119S456.409,3139.432,456.409,3139.5Z" transform="translate(-446.366 -3139.379)" fill="#344154"/>
                </g>
              </g>
            </g>
          </g>
        </g>
        <g id="Grupo_56765" data-name="Grupo 56765" transform="translate(88.514 15.558)">
          <g id="Grupo_56749" data-name="Grupo 56749">
            <g id="Grupo_56746" data-name="Grupo 56746">
              <g id="Grupo_56739" data-name="Grupo 56739">
                <g id="Grupo_56738" data-name="Grupo 56738">
                  <path id="Trazado_105106" data-name="Trazado 105106" d="M615.528,3095.148l-.062-9.46a12.074,12.074,0,0,0-7.8,3.043,11.19,11.19,0,0,0-3.761,9.8,13.356,13.356,0,0,0,.221,1.375c0,.011,0,.022.006.033h0l11.4-2.565Z" transform="translate(-603.827 -3085.688)" fill="#a4a4b4"/>
                </g>
              </g>
              <g id="Grupo_56743" data-name="Grupo 56743" transform="translate(12.91 0.036)">
                <g id="Grupo_56742" data-name="Grupo 56742">
                  <path id="Trazado_105108" data-name="Trazado 105108" d="M640.891,3092.274a11.223,11.223,0,0,0-9.2-6.441c-.12-.011-.24-.023-.361-.031-.077-.005-.152-.013-.23-.018-.226-.012-.455-.018-.687-.02h-.062v0h0l.062,9.46.015,2.223,11.4,2.488.014,0h0a11.268,11.268,0,0,0,.253-2.453A12.273,12.273,0,0,0,640.891,3092.274Z" transform="translate(-630.351 -3085.763)" fill="#1d272b"/>
                </g>
              </g>
            </g>
            <g id="Grupo_56748" data-name="Grupo 56748" transform="translate(0.913 12.865)">
              <g id="Grupo_56747" data-name="Grupo 56747">
                <path id="Trazado_105110" data-name="Trazado 105110" d="M617.1,3112.119l-11.4,2.565a11.684,11.684,0,0,0,22.816-.077l-11.4-2.488" transform="translate(-605.702 -3112.119)" fill="#868695"/>
              </g>
            </g>
          </g>
          <g id="Grupo_56752" data-name="Grupo 56752" transform="translate(30.358 11.008)">
            <g id="Grupo_56751" data-name="Grupo 56751">
              <g id="Grupo_56750" data-name="Grupo 56750">
                <path id="Trazado_105111" data-name="Trazado 105111" d="M692.525,3108.458c0,.085-5.894.154-13.162.154s-13.164-.069-13.164-.154,5.893-.154,13.164-.154S692.525,3108.373,692.525,3108.458Z" transform="translate(-666.199 -3108.304)" fill="#344154"/>
              </g>
            </g>
          </g>
          <g id="Grupo_56755" data-name="Grupo 56755" transform="translate(30.358 8.007)">
            <g id="Grupo_56754" data-name="Grupo 56754">
              <g id="Grupo_56753" data-name="Grupo 56753">
                <path id="Trazado_105112" data-name="Trazado 105112" d="M692.525,3102.293c0,.084-5.894.154-13.162.154s-13.164-.069-13.164-.154,5.893-.154,13.164-.154S692.525,3102.208,692.525,3102.293Z" transform="translate(-666.199 -3102.139)" fill="#344154"/>
              </g>
            </g>
          </g>
          <g id="Grupo_56758" data-name="Grupo 56758" transform="translate(30.358 5.007)">
            <g id="Grupo_56757" data-name="Grupo 56757">
              <g id="Grupo_56756" data-name="Grupo 56756">
                <path id="Trazado_105113" data-name="Trazado 105113" d="M692.525,3096.128c0,.085-5.894.154-13.162.154s-13.164-.069-13.164-.154,5.893-.154,13.164-.154S692.525,3096.043,692.525,3096.128Z" transform="translate(-666.199 -3095.974)" fill="#344154"/>
              </g>
            </g>
          </g>
          <g id="Grupo_56761" data-name="Grupo 56761" transform="translate(30.358 13.8)">
            <g id="Grupo_56760" data-name="Grupo 56760">
              <g id="Grupo_56759" data-name="Grupo 56759">
                <path id="Trazado_105114" data-name="Trazado 105114" d="M692.525,3114.194c0,.084-5.894.153-13.162.153s-13.164-.069-13.164-.153,5.893-.154,13.164-.154S692.525,3114.109,692.525,3114.194Z" transform="translate(-666.199 -3114.04)" fill="#344154"/>
              </g>
            </g>
          </g>
          <g id="Grupo_56764" data-name="Grupo 56764" transform="translate(30.451 16.838)">
            <g id="Grupo_56763" data-name="Grupo 56763">
              <g id="Grupo_56762" data-name="Grupo 56762">
                <path id="Trazado_105115" data-name="Trazado 105115" d="M684.471,3120.437c0,.085-4.048.154-9.041.154s-9.041-.069-9.041-.154,4.047-.153,9.041-.153S684.471,3120.352,684.471,3120.437Z" transform="translate(-666.39 -3120.283)" fill="#344154"/>
              </g>
            </g>
          </g>
        </g>
        <g id="Grupo_56858" data-name="Grupo 56858" transform="translate(89.98 54.271)">
          <g id="Grupo_56768" data-name="Grupo 56768" transform="translate(1.284)">
            <g id="Grupo_56767" data-name="Grupo 56767">
              <g id="Grupo_56766" data-name="Grupo 56766">
                <rect id="Rectángulo_8025" data-name="Rectángulo 8025" width="2.712" height="30.283" fill="#1d272b"/>
              </g>
            </g>
          </g>
          <g id="Grupo_56771" data-name="Grupo 56771" transform="translate(6.519 10.285)">
            <g id="Grupo_56770" data-name="Grupo 56770">
              <g id="Grupo_56769" data-name="Grupo 56769">
                <rect id="Rectángulo_8026" data-name="Rectángulo 8026" width="2.712" height="19.998" fill="#d9a171"/>
              </g>
            </g>
          </g>
          <g id="Grupo_56774" data-name="Grupo 56774" transform="translate(11.754 3.764)">
            <g id="Grupo_56773" data-name="Grupo 56773">
              <g id="Grupo_56772" data-name="Grupo 56772">
                <rect id="Rectángulo_8027" data-name="Rectángulo 8027" width="2.712" height="26.673" fill="#1d272b"/>
              </g>
            </g>
          </g>
          <g id="Grupo_56777" data-name="Grupo 56777" transform="translate(16.989 1.169)">
            <g id="Grupo_56776" data-name="Grupo 56776">
              <g id="Grupo_56775" data-name="Grupo 56775">
                <rect id="Rectángulo_8028" data-name="Rectángulo 8028" width="2.712" height="29.114" fill="#d9a171"/>
              </g>
            </g>
          </g>
          <g id="Grupo_56780" data-name="Grupo 56780" transform="translate(22.224 10.901)">
            <g id="Grupo_56779" data-name="Grupo 56779">
              <g id="Grupo_56778" data-name="Grupo 56778">
                <rect id="Rectángulo_8029" data-name="Rectángulo 8029" width="2.712" height="19.382" fill="#1d272b"/>
              </g>
            </g>
          </g>
          <g id="Grupo_56783" data-name="Grupo 56783" transform="translate(27.459 14.702)">
            <g id="Grupo_56782" data-name="Grupo 56782">
              <g id="Grupo_56781" data-name="Grupo 56781">
                <rect id="Rectángulo_8030" data-name="Rectángulo 8030" width="2.712" height="15.581" fill="#d9a171"/>
              </g>
            </g>
          </g>
          <g id="Grupo_56786" data-name="Grupo 56786" transform="translate(32.694 3.108)">
            <g id="Grupo_56785" data-name="Grupo 56785">
              <g id="Grupo_56784" data-name="Grupo 56784">
                <rect id="Rectángulo_8031" data-name="Rectángulo 8031" width="2.712" height="27.175" fill="#1d272b"/>
              </g>
            </g>
          </g>
          <g id="Grupo_56789" data-name="Grupo 56789" transform="translate(37.929 8.008)">
            <g id="Grupo_56788" data-name="Grupo 56788">
              <g id="Grupo_56787" data-name="Grupo 56787">
                <rect id="Rectángulo_8032" data-name="Rectángulo 8032" width="2.712" height="22.276" fill="#d9a171"/>
              </g>
            </g>
          </g>
          <g id="Grupo_56792" data-name="Grupo 56792" transform="translate(43.164 4.092)">
            <g id="Grupo_56791" data-name="Grupo 56791">
              <g id="Grupo_56790" data-name="Grupo 56790">
                <rect id="Rectángulo_8033" data-name="Rectángulo 8033" width="2.712" height="26.191" fill="#1d272b"/>
              </g>
            </g>
          </g>
          <g id="Grupo_56795" data-name="Grupo 56795" transform="translate(48.399 12.44)">
            <g id="Grupo_56794" data-name="Grupo 56794">
              <g id="Grupo_56793" data-name="Grupo 56793">
                <rect id="Rectángulo_8034" data-name="Rectángulo 8034" width="2.712" height="17.843" fill="#d9a171"/>
              </g>
            </g>
          </g>
          <g id="Grupo_56798" data-name="Grupo 56798" transform="translate(53.634 9.045)">
            <g id="Grupo_56797" data-name="Grupo 56797">
              <g id="Grupo_56796" data-name="Grupo 56796">
                <rect id="Rectángulo_8035" data-name="Rectángulo 8035" width="2.712" height="21.239" fill="#1d272b"/>
              </g>
            </g>
          </g>
          <g id="Grupo_56802" data-name="Grupo 56802" transform="translate(0 32.281)">
            <g id="Grupo_56801" data-name="Grupo 56801">
              <g id="Grupo_56800" data-name="Grupo 56800">
                <g id="Grupo_56799" data-name="Grupo 56799">
                  <path id="Trazado_105116" data-name="Trazado 105116" d="M664.292,3231.66c0,.062-12.862.112-28.725.112s-28.728-.049-28.728-.112,12.86-.111,28.728-.111S664.292,3231.6,664.292,3231.66Z" transform="translate(-606.839 -3231.549)" fill="#344154"/>
                </g>
              </g>
            </g>
          </g>
          <g id="Grupo_56806" data-name="Grupo 56806" transform="translate(1.127 34.665)">
            <g id="Grupo_56805" data-name="Grupo 56805">
              <g id="Grupo_56804" data-name="Grupo 56804">
                <g id="Grupo_56803" data-name="Grupo 56803">
                  <path id="Trazado_105117" data-name="Trazado 105117" d="M613.18,3236.558a18.2,18.2,0,1,1-2.012-.112A9.205,9.205,0,0,1,613.18,3236.558Z" transform="translate(-609.155 -3236.446)" fill="#344154"/>
                </g>
              </g>
            </g>
          </g>
          <g id="Grupo_56810" data-name="Grupo 56810" transform="translate(7.017 34.786)">
            <g id="Grupo_56809" data-name="Grupo 56809">
              <g id="Grupo_56808" data-name="Grupo 56808">
                <g id="Grupo_56807" data-name="Grupo 56807">
                  <path id="Trazado_105118" data-name="Trazado 105118" d="M626.066,3236.807a26.032,26.032,0,1,1-2.4-.111A13.085,13.085,0,0,1,626.066,3236.807Z" transform="translate(-621.256 -3236.695)" fill="#344154"/>
                </g>
              </g>
            </g>
          </g>
          <g id="Grupo_56814" data-name="Grupo 56814" transform="translate(12.71 34.786)">
            <g id="Grupo_56813" data-name="Grupo 56813">
              <g id="Grupo_56812" data-name="Grupo 56812">
                <g id="Grupo_56811" data-name="Grupo 56811">
                  <path id="Trazado_105119" data-name="Trazado 105119" d="M637.763,3236.807a26.031,26.031,0,1,1-2.4-.111A13.08,13.08,0,0,1,637.763,3236.807Z" transform="translate(-632.953 -3236.695)" fill="#344154"/>
                </g>
              </g>
            </g>
          </g>
          <g id="Grupo_56818" data-name="Grupo 56818" transform="translate(18.404 34.786)">
            <g id="Grupo_56817" data-name="Grupo 56817">
              <g id="Grupo_56816" data-name="Grupo 56816">
                <g id="Grupo_56815" data-name="Grupo 56815">
                  <path id="Trazado_105120" data-name="Trazado 105120" d="M649.46,3236.807a26.03,26.03,0,1,1-2.4-.111A13.079,13.079,0,0,1,649.46,3236.807Z" transform="translate(-644.65 -3236.695)" fill="#344154"/>
                </g>
              </g>
            </g>
          </g>
          <g id="Grupo_56822" data-name="Grupo 56822" transform="translate(24.097 34.786)">
            <g id="Grupo_56821" data-name="Grupo 56821">
              <g id="Grupo_56820" data-name="Grupo 56820">
                <g id="Grupo_56819" data-name="Grupo 56819">
                  <path id="Trazado_105121" data-name="Trazado 105121" d="M661.157,3236.807a26.032,26.032,0,1,1-2.4-.111A13.077,13.077,0,0,1,661.157,3236.807Z" transform="translate(-656.347 -3236.695)" fill="#344154"/>
                </g>
              </g>
            </g>
          </g>
          <g id="Grupo_56826" data-name="Grupo 56826" transform="translate(29.79 34.786)">
            <g id="Grupo_56825" data-name="Grupo 56825">
              <g id="Grupo_56824" data-name="Grupo 56824">
                <g id="Grupo_56823" data-name="Grupo 56823">
                  <path id="Trazado_105122" data-name="Trazado 105122" d="M672.854,3236.807a26.031,26.031,0,1,1-2.4-.111A13.076,13.076,0,0,1,672.854,3236.807Z" transform="translate(-668.044 -3236.695)" fill="#344154"/>
                </g>
              </g>
            </g>
          </g>
          <g id="Grupo_56830" data-name="Grupo 56830" transform="translate(35.484 34.786)">
            <g id="Grupo_56829" data-name="Grupo 56829">
              <g id="Grupo_56828" data-name="Grupo 56828">
                <g id="Grupo_56827" data-name="Grupo 56827">
                  <path id="Trazado_105123" data-name="Trazado 105123" d="M684.552,3236.807a26.031,26.031,0,1,1-2.4-.111A13.085,13.085,0,0,1,684.552,3236.807Z" transform="translate(-679.742 -3236.695)" fill="#344154"/>
                </g>
              </g>
            </g>
          </g>
          <g id="Grupo_56834" data-name="Grupo 56834" transform="translate(41.177 34.786)">
            <g id="Grupo_56833" data-name="Grupo 56833">
              <g id="Grupo_56832" data-name="Grupo 56832">
                <g id="Grupo_56831" data-name="Grupo 56831">
                  <path id="Trazado_105124" data-name="Trazado 105124" d="M696.249,3236.807a26.031,26.031,0,1,1-2.4-.111A13.08,13.08,0,0,1,696.249,3236.807Z" transform="translate(-691.439 -3236.695)" fill="#344154"/>
                </g>
              </g>
            </g>
          </g>
          <g id="Grupo_56838" data-name="Grupo 56838" transform="translate(46.87 34.786)">
            <g id="Grupo_56837" data-name="Grupo 56837">
              <g id="Grupo_56836" data-name="Grupo 56836">
                <g id="Grupo_56835" data-name="Grupo 56835">
                  <path id="Trazado_105125" data-name="Trazado 105125" d="M707.946,3236.807a26.031,26.031,0,1,1-2.4-.111A13.079,13.079,0,0,1,707.946,3236.807Z" transform="translate(-703.136 -3236.695)" fill="#344154"/>
                </g>
              </g>
            </g>
          </g>
          <g id="Grupo_56842" data-name="Grupo 56842" transform="translate(52.563 34.786)">
            <g id="Grupo_56841" data-name="Grupo 56841">
              <g id="Grupo_56840" data-name="Grupo 56840">
                <g id="Grupo_56839" data-name="Grupo 56839">
                  <path id="Trazado_105126" data-name="Trazado 105126" d="M719.643,3236.807a26.03,26.03,0,1,1-2.4-.111A13.076,13.076,0,0,1,719.643,3236.807Z" transform="translate(-714.833 -3236.695)" fill="#344154"/>
                </g>
              </g>
            </g>
          </g>
          <g id="Grupo_56845" data-name="Grupo 56845" transform="translate(6.519 10.285)" opacity="0.3">
            <g id="Grupo_56844" data-name="Grupo 56844">
              <g id="Grupo_56843" data-name="Grupo 56843">
                <rect id="Rectángulo_8036" data-name="Rectángulo 8036" width="2.712" height="19.998" fill="#f7b242"/>
              </g>
            </g>
          </g>
          <g id="Grupo_56848" data-name="Grupo 56848" transform="translate(16.989 1.169)" opacity="0.3">
            <g id="Grupo_56847" data-name="Grupo 56847">
              <g id="Grupo_56846" data-name="Grupo 56846">
                <rect id="Rectángulo_8037" data-name="Rectángulo 8037" width="2.712" height="29.114" fill="#f7b242"/>
              </g>
            </g>
          </g>
          <g id="Grupo_56851" data-name="Grupo 56851" transform="translate(27.459 14.702)" opacity="0.3">
            <g id="Grupo_56850" data-name="Grupo 56850">
              <g id="Grupo_56849" data-name="Grupo 56849">
                <rect id="Rectángulo_8038" data-name="Rectángulo 8038" width="2.712" height="15.581" fill="#f7b242"/>
              </g>
            </g>
          </g>
          <g id="Grupo_56854" data-name="Grupo 56854" transform="translate(37.929 8.008)" opacity="0.3">
            <g id="Grupo_56853" data-name="Grupo 56853">
              <g id="Grupo_56852" data-name="Grupo 56852">
                <rect id="Rectángulo_8039" data-name="Rectángulo 8039" width="2.712" height="22.276" fill="#f7b242"/>
              </g>
            </g>
          </g>
          <g id="Grupo_56857" data-name="Grupo 56857" transform="translate(48.399 12.44)" opacity="0.3">
            <g id="Grupo_56856" data-name="Grupo 56856">
              <g id="Grupo_56855" data-name="Grupo 56855">
                <rect id="Rectángulo_8040" data-name="Rectángulo 8040" width="2.712" height="17.843" fill="#f7b242"/>
              </g>
            </g>
          </g>
        </g>
        <g id="Grupo_56860" data-name="Grupo 56860" transform="translate(14.104 16.996)">
          <g id="Grupo_56859" data-name="Grupo 56859">
            <path id="Trazado_105127" data-name="Trazado 105127" d="M456.168,3091.251a2.61,2.61,0,1,1-2.61-2.61A2.61,2.61,0,0,1,456.168,3091.251Z" transform="translate(-450.948 -3088.641)" fill="#d93328"/>
          </g>
        </g>
        <g id="Grupo_56863" data-name="Grupo 56863" transform="translate(24.887 17.393)">
          <g id="Grupo_56862" data-name="Grupo 56862">
            <g id="Grupo_56861" data-name="Grupo 56861">
              <path id="Trazado_105128" data-name="Trazado 105128" d="M512.413,3089.612c0,.085-8.8.154-19.654.154s-19.656-.069-19.656-.154,8.8-.154,19.656-.154S512.413,3089.527,512.413,3089.612Z" transform="translate(-473.103 -3089.458)" fill="#d9a171"/>
            </g>
          </g>
        </g>
        <g id="Grupo_56866" data-name="Grupo 56866" transform="translate(25.174 20.55)">
          <g id="Grupo_56865" data-name="Grupo 56865">
            <g id="Grupo_56864" data-name="Grupo 56864">
              <path id="Trazado_105129" data-name="Trazado 105129" d="M489.187,3096.1a2.381,2.381,0,0,1-.609.06c-.392.018-.959.035-1.66.048-1.4.028-3.339.045-5.478.045s-4.077-.017-5.479-.045c-.7-.013-1.268-.03-1.66-.048a2.377,2.377,0,0,1-.609-.06,2.345,2.345,0,0,1,.609-.06c.392-.019.959-.035,1.66-.049,1.4-.028,3.338-.045,5.479-.045s4.075.017,5.478.045c.7.013,1.268.03,1.66.049A2.348,2.348,0,0,1,489.187,3096.1Z" transform="translate(-473.693 -3095.944)" fill="#d9a171"/>
            </g>
          </g>
        </g>
      </g>
      <path id="Trazado_105130" data-name="Trazado 105130" d="M631.1,3225.848l5.062,11.482,1.767-5.052,4.332-1.587Z" transform="translate(-519.708 -3122.619)" fill="#5e6178"/>
      <rect id="Rectángulo_8041" data-name="Rectángulo 8041" width="6.361" height="6.361" transform="translate(121.058 111.981)" fill="#fff"/>
      <path id="Trazado_105131" data-name="Trazado 105131" d="M657.229,3250s0-.18-.024-.487,0-.769-.029-1.3c0-1.144-.034-2.711-.054-4.575l.107.107h-6.357c-.029,0,.238-.238.126-.126h0v6.352l-.107-.112,4.575.054,1.3.029a3.383,3.383,0,0,1,.487.029,3.663,3.663,0,0,1-.433,0l-1.28.03-4.643.053h-.112v-6.459h0l.127-.126h6.469v.112c0,1.894-.044,3.485-.058,4.643,0,.526,0,.974-.029,1.28A2.258,2.258,0,0,1,657.229,3250Z" transform="translate(-529.814 -3131.662)" fill="#5e6178"/>
      <path id="Trazado_105132" data-name="Trazado 105132" d="M657.357,3250.217a26.53,26.53,0,0,1,0-5.179A26.616,26.616,0,0,1,657.357,3250.217Z" transform="translate(-533.12 -3132.469)" fill="#5e6178"/>
      <path id="Trazado_105133" data-name="Trazado 105133" d="M657.349,3250.225a26.483,26.483,0,0,1-5.179,0A26.6,26.6,0,0,1,657.349,3250.225Z" transform="translate(-530.523 -3135.066)" fill="#5e6178"/>
      <rect id="Rectángulo_8042" data-name="Rectángulo 8042" width="6.989" height="117.306" transform="translate(167.662 18.822)" fill="#1d272b"/>
      <path id="Trazado_105134" data-name="Trazado 105134" d="M750.2,3080.768h0a3.5,3.5,0,0,1,3.495,3.495v17.04a3.5,3.5,0,0,1-3.495,3.495h0a3.494,3.494,0,0,1-3.495-3.495v-17.04A3.5,3.5,0,0,1,750.2,3080.768Z" transform="translate(-579.048 -3048.153)" fill="#868695"/>
      <path id="Trazado_105135" data-name="Trazado 105135" d="M479.193,3106.766v-1.791c0-1.169,0-2.862-.029-5.014,0-4.307-.034-10.445-.054-17.8l.107.107h-24.6c-.034,0,.238-.239.122-.122h0v24.594l-.112-.112,17.8.058,5.008.03h.044l-4.984.029-17.873.053h-.107v-24.643h0c-.112.107.156-.161.131-.132h24.711v.132c-.024,7.384-.044,13.545-.058,17.868,0,2.142,0,3.826-.029,4.989v1.635A.453.453,0,0,1,479.193,3106.766Z" transform="translate(-429.06 -3048.797)" fill="#5e6178"/>
      <path id="Trazado_105136" data-name="Trazado 105136" d="M460.378,3087.991h1.343l3.84-.029,13.8-.053h.107V3107c.024-.029-.243.239-.131.126H460.29v-.112c0-5.7.044-10.45.058-13.794,0-1.645,0-2.92.029-3.845v-1.343a.815.815,0,0,1,0,.1v1.29c0,.91,0,2.215.029,3.894,0,3.329.034,8.055.054,13.726l-.107-.112h18.977l-.122.126v-18.982l.112.112-13.726-.058-3.894-.029h-1.295A.371.371,0,0,1,460.378,3087.991Z" transform="translate(-432.036 -3051.818)" fill="#5e6178"/>
      <path id="Trazado_105137" data-name="Trazado 105137" d="M454.63,3082.3a16.355,16.355,0,0,1,2.872,2.813,7.587,7.587,0,0,1-1.528-1.314A8.258,8.258,0,0,1,454.63,3082.3Z" transform="translate(-429.13 -3048.938)" fill="#5e6178"/>
      <path id="Trazado_105138" data-name="Trazado 105138" d="M502.3,3082.478a7.461,7.461,0,0,1-1.212,1.5,7.775,7.775,0,0,1-1.4,1.339,7.307,7.307,0,0,1,1.212-1.509A7.45,7.45,0,0,1,502.3,3082.478Z" transform="translate(-452.259 -3049.031)" fill="#5e6178"/>
      <path id="Trazado_105139" data-name="Trazado 105139" d="M502.295,3130.053a12.325,12.325,0,0,1-1.193-1.382,11.882,11.882,0,0,1-1.192-1.373,7,7,0,0,1,2.365,2.775Z" transform="translate(-452.371 -3072.035)" fill="#5e6178"/>
      <path id="Trazado_105140" data-name="Trazado 105140" d="M457.205,3127.018a7.739,7.739,0,0,1-1.275,1.489,7.6,7.6,0,0,1-1.46,1.314,15.127,15.127,0,0,1,2.735-2.8Z" transform="translate(-429.048 -3071.892)" fill="#5e6178"/>
      <path id="Trazado_105141" data-name="Trazado 105141" d="M468.867,3095.775a.986.986,0,0,1,.19,0h.579l2.219-.029,8-.059h.107v11.1l-.131.126H468.76v-.112c.024-3.3.044-6.045.054-8,0-.934.024-1.684.029-2.219v-.764a1.31,1.31,0,0,1,0,.214v.6c0,.54,0,1.295.024,2.244,0,1.947.034,4.663.058,7.929l-.112-.107H479.8c.117-.112-.151.156-.122.126v-10.985l.112.107-7.929-.053-2.249-.029h-.6Z" transform="translate(-436.383 -3055.811)" fill="#5e6178"/>
      <path id="Trazado_105142" data-name="Trazado 105142" d="M577.477,3293.514c0,.068-38.977.127-87.046.127s-87.051-.059-87.051-.127,38.967-.126,87.051-.126S577.477,3293.442,577.477,3293.514Z" transform="translate(-402.825 -3157.286)" fill="#5e6178"/>
    </g>
    <g id="freepik--Character--inject-3" transform="translate(451.266 3058.877)">
      <path id="Trazado_105143" data-name="Trazado 105143" d="M678.892,3395.647h-5.923s-13.37-4.828-16.12-4.38c-2.473.418-11.54,6.44-13.317,7.632a1.116,1.116,0,0,0-.428.55h0a1.947,1.947,0,0,0,1.08,2.467l.19.078-.083.268a3.224,3.224,0,0,0-.136,1.085,1.309,1.309,0,0,0,2.434.565l-.341.6a1.487,1.487,0,0,0-.19.813l.029.554a1.5,1.5,0,0,0,1.022,1.329h0a1.459,1.459,0,0,0,1.557-.409,12.7,12.7,0,0,1,5.451-3.407,40.024,40.024,0,0,1,5.354-.974,1.869,1.869,0,0,1,1.728,1.188h0c-1,.073-6.143,2.434-8.6,3.709a2.643,2.643,0,0,0-1.431,1.981c-.088.769.3,1.577,1.825,1.217,3.266-.759,7.34-2.181,7.34-2.181s3.032-.866,4.994.516c2.765,1.946,4.03,2.667,6.405,1.879a20.359,20.359,0,0,0,4.123-1.913l4.673-.487S684.937,3397.351,678.892,3395.647Z" transform="translate(-603.671 -3252.628)" fill="#ffbe9d"/>
      <path id="Trazado_105144" data-name="Trazado 105144" d="M691.285,3412.1a1.739,1.739,0,0,1-.316.229,2.136,2.136,0,0,1-.409.243,3.724,3.724,0,0,1-.589.267,6.446,6.446,0,0,1-4.074.136,6.32,6.32,0,0,1-2.5-1.358l-.292-.268-.263-.3a5.507,5.507,0,0,1-.487-.657c-.3-.487-.516-.973-.842-1.436a2.055,2.055,0,0,0-1.334-.925,6.728,6.728,0,0,0-1.791,0,10.6,10.6,0,0,1-3.86-.38,11.127,11.127,0,0,1-3.319-1.587,11.294,11.294,0,0,1-1.353-1.124.848.848,0,0,1-.224-.9.858.858,0,0,1,.711-.569h0l8.688-.365,2.492-.083h.662a.876.876,0,0,1,.229,0l-.229.029-.657.049-2.487.151-8.683.453h0a.614.614,0,0,0-.341,1.061,11.287,11.287,0,0,0,1.324,1.09,10.929,10.929,0,0,0,3.247,1.548,10.455,10.455,0,0,0,3.772.375,6.607,6.607,0,0,1,1.859,0,2.2,2.2,0,0,1,.857.365,2.735,2.735,0,0,1,.623.657c.336.487.555,1.008.837,1.46a5.542,5.542,0,0,0,.487.633l.253.292.277.253a6.156,6.156,0,0,0,2.434,1.348,6.463,6.463,0,0,0,3.986-.058A9.768,9.768,0,0,0,691.285,3412.1Z" transform="translate(-617.324 -3258.677)" fill="#eb996e"/>
      <path id="Trazado_105145" data-name="Trazado 105145" d="M818.852,3109.831a5.291,5.291,0,0,0-5.695-2.249,7.248,7.248,0,0,0-8.878.876,6.445,6.445,0,0,0-9.248,6.026,5.378,5.378,0,0,0-3.981,9.418,5.169,5.169,0,0,0,2.969,9.852l24.336-17.814A5.3,5.3,0,0,0,818.852,3109.831Z" transform="translate(-678.025 -3106.457)" fill="#344154"/>
      <path id="Trazado_105146" data-name="Trazado 105146" d="M799.106,3140.989a21.952,21.952,0,0,1,20.2-21.859l1.134-.087c12.271-.263,19.347,10.012,19.27,22.287l1.46,40.822-1.27,5.247-16.519,13.628-8.3-7.35-2.376-12.012s-11.891-.891-12.971-12.621C799.223,3163.379,799.082,3151.629,799.106,3140.989Z" transform="translate(-683.803 -3112.915)" fill="#ffbe9d"/>
      <path id="Trazado_105147" data-name="Trazado 105147" d="M826.869,3241.647a28.563,28.563,0,0,0,15.025-5.729s-2.92,8.737-14.743,8.615Z" transform="translate(-698.054 -3172.906)" fill="#eb996e"/>
      <path id="Trazado_105148" data-name="Trazado 105148" d="M807.889,3184.177a1.679,1.679,0,0,0,1.747,1.563,1.606,1.606,0,0,0,1.612-1.6c0-.017,0-.033,0-.05a1.684,1.684,0,0,0-1.752-1.562,1.607,1.607,0,0,0-1.607,1.605C807.888,3184.147,807.889,3184.162,807.889,3184.177Z" transform="translate(-688.312 -3145.501)" fill="#5e6178"/>
      <path id="Trazado_105149" data-name="Trazado 105149" d="M805.025,3174.635c.224.2,1.421-.842,3.222-.974s3.2.662,3.378.424c.088-.107-.156-.487-.764-.857a4.613,4.613,0,0,0-2.726-.608,4.445,4.445,0,0,0-2.546,1.052C805.074,3174.133,804.918,3174.542,805.025,3174.635Z" transform="translate(-686.826 -3140.407)" fill="#5e6178"/>
      <path id="Trazado_105150" data-name="Trazado 105150" d="M839.779,3183.227a1.68,1.68,0,0,0,1.752,1.562,1.606,1.606,0,0,0,1.612-1.6c0-.015,0-.029,0-.044a1.689,1.689,0,0,0-1.752-1.568,1.611,1.611,0,0,0-1.612,1.61C839.778,3183.2,839.779,3183.213,839.779,3183.227Z" transform="translate(-704.68 -3145.013)" fill="#5e6178"/>
      <path id="Trazado_105151" data-name="Trazado 105151" d="M840.455,3171.284c.224.2,1.421-.837,3.227-.973s3.2.657,3.378.424c.088-.107-.156-.487-.769-.862a4.6,4.6,0,0,0-2.721-.6,4.384,4.384,0,0,0-2.545,1.051C840.5,3170.783,840.348,3171.221,840.455,3171.284Z" transform="translate(-705.011 -3138.688)" fill="#5e6178"/>
      <path id="Trazado_105152" data-name="Trazado 105152" d="M825.507,3185.956a11.935,11.935,0,0,0-2.969-.3c-.487,0-.91-.068-1.012-.375a2.361,2.361,0,0,1,.2-1.392c.341-1.149.7-2.351,1.081-3.616,1.494-5.145,2.536-9.36,2.326-9.418s-1.587,4.064-3.076,9.209l-1.027,3.66a2.669,2.669,0,0,0-.093,1.825,1.144,1.144,0,0,0,.808.613,3.067,3.067,0,0,0,.793.049A11.288,11.288,0,0,0,825.507,3185.956Z" transform="translate(-694.94 -3139.512)" fill="#5e6178"/>
      <path id="Trazado_105153" data-name="Trazado 105153" d="M835.928,3203.567c-.3,0-.141,1.947-1.709,3.49s-3.669,1.46-3.66,1.747c0,.126.487.345,1.378.3a4.865,4.865,0,0,0,3.066-1.348,4.272,4.272,0,0,0,1.3-2.921C836.317,3204.015,836.059,3203.548,835.928,3203.567Z" transform="translate(-699.948 -3156.301)" fill="#5e6178"/>
      <path id="Trazado_105154" data-name="Trazado 105154" d="M839.573,3160.7c.253.448,1.772-.1,3.66-.214s3.495.146,3.655-.336c.063-.229-.282-.628-.974-.973a5.644,5.644,0,0,0-2.862-.487,5.42,5.42,0,0,0-2.711.929C839.723,3160.037,839.461,3160.484,839.573,3160.7Z" transform="translate(-704.562 -3133.256)" fill="#5e6178"/>
      <path id="Trazado_105155" data-name="Trazado 105155" d="M805.02,3164.571c.316.414,1.562,0,3.062-.029s2.769.287,3.062-.146c.132-.2-.068-.618-.623-1.007a4.439,4.439,0,0,0-4.935.136C805.073,3163.967,804.9,3164.371,805.02,3164.571Z" transform="translate(-686.821 -3135.328)" fill="#5e6178"/>
      <path id="Trazado_105156" data-name="Trazado 105156" d="M800.441,3134.048s2.511-7.6,5.919-9.6c4.127-2.434,6.352,2.146,10.348.677s7.939-3.792,12.373-.974c4.867,3.1,2.92,5.695,3.6,10.883,2.828,21.031,7.165,26.7,7.466,16.661.034-1.1,2.989-2.21,3.071-6.848.1-6.021-.243-13.287-1.918-17.42-1.407-3.48-3.641-5.787-7.51-8.216-6.108-3.835-14.032-3.3-19.366-2.327S799.229,3124.883,800.441,3134.048Z" transform="translate(-684.437 -3111.448)" fill="#344154"/>
      <path id="Trazado_105157" data-name="Trazado 105157" d="M880.535,3185.1a3.193,3.193,0,0,1,3.039-3.34c.053,0,.106,0,.159,0,2.2.034,4.741,1.08,4.955,5.617.384,8.05-7.788,6.775-7.788,6.546S880.667,3188.47,880.535,3185.1Z" transform="translate(-725.598 -3145.107)" fill="#ffbe9d"/>
      <path id="Trazado_105158" data-name="Trazado 105158" d="M884.562,3193.533c.034-.024.146.093.389.19a1.37,1.37,0,0,0,1.047-.029c.837-.351,1.489-1.738,1.46-3.188a4.609,4.609,0,0,0-.487-1.986,1.616,1.616,0,0,0-1.1-1.027.711.711,0,0,0-.808.424c-.1.229-.039.389-.083.4s-.18-.126-.131-.486a.936.936,0,0,1,.292-.521,1.071,1.071,0,0,1,.769-.239,1.948,1.948,0,0,1,1.523,1.178,4.766,4.766,0,0,1,.594,2.22c0,1.621-.735,3.178-1.879,3.572a1.516,1.516,0,0,1-1.294-.151C884.586,3193.728,884.532,3193.552,884.562,3193.533Z" transform="translate(-727.663 -3147.833)" fill="#eb996e"/>
      <path id="Trazado_105159" data-name="Trazado 105159" d="M842.907,3133.193a7.588,7.588,0,0,1-3.276,1.84,2.629,2.629,0,0,1-3.052-1.611c-.141-.55-.054-1.211-.458-1.611-.487-.487-1.275-.258-1.947-.132a5.144,5.144,0,0,1-5.612-3.251,2.135,2.135,0,0,1-2.862.487,12.059,12.059,0,0,1-2.37-2.166,3.322,3.322,0,0,0-2.867-1.159,8.039,8.039,0,0,1-1.713.526c-1.061,0-1.674-1.2-1.918-2.239s-.487-2.244-1.4-2.74-1.918-.073-2.877.151-2.234.093-2.555-.837a1.9,1.9,0,0,1,.243-1.484,5.214,5.214,0,0,1,5.977-2.458,7.068,7.068,0,0,1,12.84-2.4A7.175,7.175,0,0,1,840.7,3115.8a5.2,5.2,0,0,1,6.444,7.077,4.933,4.933,0,0,1,3.023,3.7c.161,1.655-1.324,3.446-2.964,3.135a2.881,2.881,0,0,1-4.736,3.261" transform="translate(-689.367 -3108.735)" fill="#344154"/>
      <path id="Trazado_105160" data-name="Trazado 105160" d="M875.37,3149.468a1.924,1.924,0,0,1-.375,1.582,2.611,2.611,0,0,1-1.533,1.09,2.779,2.779,0,0,1-2.341-.487l.336-.078A8.2,8.2,0,0,1,870,3153.7a4.588,4.588,0,0,1-1.387,1.027,3.1,3.1,0,0,1-1.606.278,3.149,3.149,0,0,1-2.434-1.144,4.56,4.56,0,0,1-.783-1.616,1.631,1.631,0,0,1-.117-.643,2.277,2.277,0,0,1,.287.579,5.33,5.33,0,0,0,.862,1.46,3.3,3.3,0,0,0,4.833-.272,8.082,8.082,0,0,0,1.378-2l.122-.248.214.17a2.474,2.474,0,0,0,1.986.463,2.369,2.369,0,0,0,1.392-.886A3.891,3.891,0,0,0,875.37,3149.468Z" transform="translate(-716.943 -3128.533)" fill="#344154"/>
      <path id="Trazado_105161" data-name="Trazado 105161" d="M831.551,3111.88c0,.029-.2.073-.55.253a2.776,2.776,0,0,0-1.163,1.158l-.083.161-.122-.137a9.988,9.988,0,0,0-4.132-2.832,7.829,7.829,0,0,0-3.217-.443,6.568,6.568,0,0,0-3.32,1.241,6.687,6.687,0,0,0-1.874,2.083,5.451,5.451,0,0,0-.686,2.487v.258l-.248-.049a4.532,4.532,0,0,0-3.3.672,4.41,4.41,0,0,0-1.67,2.1,6.013,6.013,0,0,0-.312,2.433,1.646,1.646,0,0,1-.151-.652,4.514,4.514,0,0,1,.219-1.854,4.591,4.591,0,0,1,1.708-2.312,4.866,4.866,0,0,1,3.587-.793l-.253.209a5.8,5.8,0,0,1,.72-2.711,7.028,7.028,0,0,1,2-2.234,6.937,6.937,0,0,1,3.558-1.314,8.148,8.148,0,0,1,3.407.487,9.786,9.786,0,0,1,4.186,3.057h-.2a2.753,2.753,0,0,1,1.329-1.163A1.3,1.3,0,0,1,831.551,3111.88Z" transform="translate(-689.756 -3108.063)" fill="#344154"/>
      <path id="Trazado_105162" data-name="Trazado 105162" d="M825.274,3297.854c-.443,0-1.368-37.7-1.368-37.7l-25.743-9.189-19.751,17.79-10.08-15.867-8.873,4.079c-1.119.516-6.031,2.482-7.009,3.227-2.813,2.146-8.688,7.3-10.348,13.551-2.531,9.564-6.5,41.372-6.5,41.372l-24.18,8.532.526,15.575,23.665,3.7c5.709-.2,12.621-2.619,14.845-6.581v8.313h72.7S825.712,3297.854,825.274,3297.854Z" transform="translate(-638.797 -3180.631)" fill="#1d272b"/>
      <path id="Trazado_105163" data-name="Trazado 105163" d="M792.331,3317.838a.938.938,0,0,1,0,.156v2.224c-.029,1.528-.092,3.738-.214,6.474s-.292,5.987-.423,9.6-.18,7.583-.2,11.754c-.039,8.347,0,15.906,0,21.377v8.693a.553.553,0,0,1,0,.161.692.692,0,0,1,0-.156v-.462c0-.418-.024-1.008-.039-1.757,0-1.548-.044-3.758-.078-6.479-.049-5.47-.1-13.03-.058-21.377.024-4.171.078-8.148.224-11.764s.336-6.868.487-9.6.239-4.94.3-6.469c.029-.75.049-1.343.068-1.762a2.445,2.445,0,0,1,.024-.458A.659.659,0,0,1,792.331,3317.838Z" transform="translate(-679.798 -3214.954)" fill="#5e6178"/>
      <g id="Grupo_56868" data-name="Grupo 56868" transform="translate(108.844 106.462)" opacity="0.3">
        <path id="Trazado_105164" data-name="Trazado 105164" d="M789.528,3325.188c-4.123,15.546-5.218,32.392-1.076,47.933C788.53,3355.818,788.433,3339.615,789.528,3325.188Z" transform="translate(-785.838 -3325.188)"/>
      </g>
      <g id="Grupo_56869" data-name="Grupo 56869" transform="translate(173.078 106.841)" opacity="0.3">
        <path id="Trazado_105165" data-name="Trazado 105165" d="M917.809,3327.2q2.264,14.558,4.5,29.1a1.948,1.948,0,0,0,.316.944c.487.613,1.431.453,2.181.239,1.82-.531,4.687-.725,5.671-2.351l.238-4.142c-.262-1.256-1.46-2.463-2.049-3.612q-5.3-10.707-10.591-21.416" transform="translate(-917.809 -3325.968)"/>
      </g>
      <path id="Trazado_105166" data-name="Trazado 105166" d="M929.718,3269.7s8.406,4.731,11.521,11.389c3.8,8.124,20.622,37.39,21.245,44.691s.37,15.648-12.085,18.135a139.98,139.98,0,0,1-25.461,2.322l-5.076-15.127,14.276-7.374-3.558-3.125a8.342,8.342,0,0,1-1.9-2.434l-10.742-20.686" transform="translate(-744.798 -3190.245)" fill="#1d272b"/>
      <path id="Trazado_105167" data-name="Trazado 105167" d="M917.939,3297.526s.1.161.268.487l.759,1.431,2.886,5.5,4.536,8.688,1.373,2.628.715,1.373a12.583,12.583,0,0,0,.784,1.382,8.408,8.408,0,0,0,1.047,1.241c.394.38.832.74,1.256,1.119l2.638,2.312.107.093-.126.063-14.271,7.388.054-.131,5.091,15.123-.112-.083c4.127,0,8.44-.19,12.864-.579,2.215-.19,4.454-.438,6.712-.759s4.541-.677,6.814-1.212l1.119-.273c.37-.1.73-.243,1.09-.365s.73-.233,1.081-.384l1.032-.487c.175-.083.346-.156.516-.243l.487-.3c.321-.2.647-.39.973-.6a12.834,12.834,0,0,0,1.684-1.46,10.39,10.39,0,0,0,2.312-3.752,16.161,16.161,0,0,0,.886-4.278,33.707,33.707,0,0,0,0-4.322,18.631,18.631,0,0,0-.219-2.112,19.1,19.1,0,0,0-.54-2.03c-.424-1.339-.93-2.628-1.46-3.894s-1.081-2.507-1.63-3.729c-2.244-4.867-4.565-9.418-6.761-13.662s-4.288-8.162-6.181-11.75l-2.687-5.135c-.419-.813-.823-1.606-1.2-2.38-.185-.389-.37-.769-.555-1.149s-.375-.73-.56-1.085a21.926,21.926,0,0,0-2.609-3.636,33.157,33.157,0,0,0-2.677-2.653,40.405,40.405,0,0,0-4.137-3.183c-.487-.336-.881-.579-1.139-.74l-.389-.248s.141.073.4.224.652.394,1.154.72a38.391,38.391,0,0,1,4.171,3.154,32.439,32.439,0,0,1,2.706,2.648,21.971,21.971,0,0,1,2.638,3.646c.19.355.389.72.574,1.1s.365.754.555,1.139c.384.773.788,1.562,1.207,2.375q1.285,2.434,2.7,5.12c1.908,3.587,4.006,7.506,6.216,11.745s4.531,8.761,6.78,13.658c.56,1.221,1.115,2.463,1.64,3.733s1.037,2.57,1.46,3.894a18.128,18.128,0,0,1,.55,2.064,18.592,18.592,0,0,1,.224,2.141,34.084,34.084,0,0,1,0,4.381,16.4,16.4,0,0,1-.9,4.346,10.554,10.554,0,0,1-2.37,3.835,12.468,12.468,0,0,1-1.718,1.519c-.316.209-.647.4-.973.609l-.487.3-.526.248-1.046.487c-.355.156-.73.258-1.1.39s-.73.263-1.1.37l-1.134.273c-2.278.54-4.561.9-6.814,1.217s-4.507.569-6.722.764c-4.434.385-8.761.58-12.893.57h-.088l-.024-.083c-1.786-5.32-3.49-10.416-5.072-15.132l-.029-.088.083-.044,14.285-7.364v.156l-2.633-2.317c-.423-.38-.857-.735-1.261-1.129a8.649,8.649,0,0,1-1.061-1.27,13.51,13.51,0,0,1-.793-1.4c-.239-.487-.487-.925-.711-1.377q-.7-1.358-1.363-2.629c-1.747-3.407-3.261-6.327-4.5-8.712l-2.838-5.524c-.321-.633-.57-1.115-.735-1.46A2.922,2.922,0,0,0,917.939,3297.526Z" transform="translate(-744.798 -3190.27)" fill="#5e6178"/>
      <path id="Trazado_105168" data-name="Trazado 105168" d="M923.638,3268.646a8.175,8.175,0,0,1-.778.487,20.832,20.832,0,0,0-2.044,1.46,19.15,19.15,0,0,0-7.082,14.432,21.078,21.078,0,0,0,.088,2.516c.054.594.1.92.078.925a.988.988,0,0,1-.063-.234c-.024-.155-.078-.384-.112-.681a16.361,16.361,0,0,1-.165-2.531,18.6,18.6,0,0,1,7.145-14.558,17.537,17.537,0,0,1,2.1-1.416c.258-.156.487-.253.608-.321A.44.44,0,0,1,923.638,3268.646Z" transform="translate(-742.549 -3189.703)" fill="#5e6178"/>
      <path id="Trazado_105169" data-name="Trazado 105169" d="M966.386,3368.148a2.749,2.749,0,0,1-.623.18l-1.708.428a48.275,48.275,0,0,0-5.524,1.781,41.113,41.113,0,0,0-5.227,2.512c-.647.37-1.163.677-1.519.9a3.247,3.247,0,0,1-.564.316,3.386,3.386,0,0,1,.511-.4c.341-.248.842-.579,1.46-.974a34.652,34.652,0,0,1,5.252-2.589,39.273,39.273,0,0,1,5.573-1.723c.725-.165,1.32-.282,1.733-.35A3.537,3.537,0,0,1,966.386,3368.148Z" transform="translate(-761.881 -3240.777)" fill="#5e6178"/>
      <g id="Grupo_56870" data-name="Grupo 56870" transform="translate(139.678 71.203)" opacity="0.3">
        <path id="Trazado_105170" data-name="Trazado 105170" d="M868.157,3252.767a4.6,4.6,0,0,0-2.049,1.017,99.259,99.259,0,0,0-16.1,14.84l-.818,1.514c1.815-1.2,3.894-2.434,6.016-2.01,1.82.385,3.139,1.908,4.322,3.344a151.759,151.759,0,0,0,11.905-17.333A4.717,4.717,0,0,0,868.157,3252.767Z" transform="translate(-849.189 -3252.747)"/>
      </g>
      <path id="Trazado_105171" data-name="Trazado 105171" d="M849.03,3264.083l7.262-9.185,10.922-13.04,5.8,5.447-10.173,15.75-7.223-4.346Z" transform="translate(-709.429 -3175.955)" fill="#fff"/>
      <g id="Grupo_56871" data-name="Grupo 56871" transform="translate(126.41 74.625)" opacity="0.3">
        <path id="Trazado_105172" data-name="Trazado 105172" d="M822.017,3261.4c.974,5.169,3.363,9.481,4.332,14.65,1.154-1.509.876-2.151,2.03-3.66a4.158,4.158,0,0,1,1.689-1.5c1.241-.487,2.609.239,3.738.93A42.226,42.226,0,0,0,828,3266.5l-.088.418q-2.92-3.625-5.982-7.14" transform="translate(-821.929 -3259.778)"/>
      </g>
      <path id="Trazado_105173" data-name="Trazado 105173" d="M834.2,3269.074,824,3251.688h0l-3.646,3.358L823.8,3270.6l4.9-6.3Z" transform="translate(-694.708 -3181)" fill="#fff"/>
      <path id="Trazado_105174" data-name="Trazado 105174" d="M833.639,3263.184l-.185-.287-.516-.857-1.947-3.305-7.2-12.192h.136l-3.67,3.222.029-.1c1.051,4.711,2.229,9.992,3.5,15.7l-.209-.049,4.867-6.328.078-.1.1.083,5.5,4.774-.107-.029.594-.112-.063.029c1.767-1.572,3.723-3.125,5.627-4.78l.487-.428.068-.058.078.044c2.536,1.353,4.814,3.032,7.223,4.346l-.166.043,10.177-15.746v.146q-3.023-2.855-5.792-5.451h.151l-12.825,15.575-3.587,4.327-.925,1.2c-.219.253-.336.379-.336.379s.1-.136.312-.4l.92-1.153,3.539-4.38,12.762-15.648.073-.083.083.073,5.8,5.441.073.064-.053.077-10.158,15.76-.063.1-.1-.058c-2.434-1.324-4.707-3-7.224-4.341h.146l-.487.428c-1.913,1.665-3.894,3.213-5.627,4.78h-.063l-.589.112h-.058l-.049-.039-5.5-4.775h.18l-4.9,6.293-.151.2-.053-.248-3.48-15.722v-.059l.044-.039,3.684-3.208.082-.073.054.1,7.135,12.231,1.923,3.329.487.872C833.59,3263.077,833.639,3263.184,833.639,3263.184Z" transform="translate(-694.559 -3175.806)" fill="#5e6178"/>
      <path id="Trazado_105175" data-name="Trazado 105175" d="M791.5,3278.3c.068,0,0,3.164-.1,7.067a69.556,69.556,0,0,1-.385,7.048c-.088,0-.024-3.163.1-7.067S791.425,3278.3,791.5,3278.3Z" transform="translate(-679.631 -3194.658)" fill="#5e6178"/>
      <path id="Trazado_105176" data-name="Trazado 105176" d="M876.988,3398.643a5.128,5.128,0,0,0-1.777.648c-1.3.881-1.6,2.643-1.772,4.21-.054.487-.068,1.076.336,1.363a1.389,1.389,0,0,0,1.2,0,37.146,37.146,0,0,0,7.656-3.407,6.114,6.114,0,0,0,3.057-3.129l.083-.614A36.6,36.6,0,0,0,876.988,3398.643Z" transform="translate(-721.944 -3255.949)" fill="#ffbe9d"/>
      <path id="Trazado_105177" data-name="Trazado 105177" d="M900.909,3376.783l2.891,2.424.8-.934-2.9-2.443Z" transform="translate(-736.057 -3244.719)" fill="#344154"/>
      <path id="Trazado_105178" data-name="Trazado 105178" d="M897.236,3387.631c-.049.049-.4-.2-.788-.56s-.657-.691-.613-.74.4.2.789.555S897.28,3387.578,897.236,3387.631Z" transform="translate(-733.45 -3250.107)" fill="#344154"/>
      <path id="Trazado_105179" data-name="Trazado 105179" d="M893.607,3397.7l-4.473,1.562s-4.1-1.032-5.841-1.431a4.478,4.478,0,0,0-3.461.608c-2.1,1.363-5.719,3.708-7.013,4.57s-4.6,3.6-4.6,3.6-2.4,2.75-1.616,4.327,2.955,1.353,2.955,1.353a3.275,3.275,0,0,0,2.6,2.434s-.545.857,1.5,1.4,6.814,0,6.814,0,8.761.36,9.593-.063a49.23,49.23,0,0,0,4.522-4.176l3.125-1.869Z" transform="translate(-718.368 -3255.944)" fill="#ffbe9d"/>
      <path id="Trazado_105180" data-name="Trazado 105180" d="M877.332,3403.938a10.549,10.549,0,0,1-1.334.973c-.841.579-2.02,1.353-3.275,2.263a32.32,32.32,0,0,0-3.071,2.517c-.74.691-1.169,1.158-1.2,1.129s.078-.136.258-.36.458-.535.813-.9a24.7,24.7,0,0,1,3.052-2.589c1.261-.915,2.434-1.669,3.324-2.21A10.691,10.691,0,0,1,877.332,3403.938Z" transform="translate(-719.396 -3259.147)" fill="#eb996e"/>
      <path id="Trazado_105181" data-name="Trazado 105181" d="M883.685,3412.3a2.222,2.222,0,0,1-.442.272l-1.227.7c-1.051.57-2.5,1.363-4.016,2.36a29.776,29.776,0,0,0-3.684,2.838c-.881.8-1.387,1.343-1.416,1.319a1.918,1.918,0,0,1,.316-.414c.214-.258.55-.613.973-1.037a24.589,24.589,0,0,1,3.665-2.92,39.594,39.594,0,0,1,4.074-2.307c.535-.263.973-.487,1.285-.6A1.761,1.761,0,0,1,883.685,3412.3Z" transform="translate(-721.681 -3263.438)" fill="#eb996e"/>
      <path id="Trazado_105182" data-name="Trazado 105182" d="M891,3418.918a2.224,2.224,0,0,1-.4.394c-.273.234-.686.565-1.207.939-1.047.769-2.575,1.694-4.269,2.7a22.91,22.91,0,0,1-4.634,2.015c-.618.2-1.12.346-1.46.443a2.7,2.7,0,0,1-.55.121,2.388,2.388,0,0,1,.516-.219c.394-.136.871-.312,1.46-.516a26.384,26.384,0,0,0,4.561-2.064c1.7-1,3.232-1.9,4.3-2.623.531-.355.973-.662,1.246-.871A2.651,2.651,0,0,1,891,3418.918Z" transform="translate(-724.544 -3266.835)" fill="#eb996e"/>
      <path id="Trazado_105183" data-name="Trazado 105183" d="M901.657,3426.946a3.787,3.787,0,0,1-.75.769,16.079,16.079,0,0,1-2.069,1.553,16.578,16.578,0,0,1-2.283,1.212,3.734,3.734,0,0,1-1.017.351c-.029-.073,1.46-.7,3.164-1.777S901.6,3426.887,901.657,3426.946Z" transform="translate(-733.3 -3270.955)" fill="#eb996e"/>
      <path id="Trazado_105184" data-name="Trazado 105184" d="M889.289,3439.457h-66.01a4.25,4.25,0,0,1,4.249-4.249H885.04a4.249,4.249,0,0,1,4.249,4.249Z" transform="translate(-696.212 -3275.197)" fill="#5e6178"/>
      <path id="Trazado_105185" data-name="Trazado 105185" d="M675.506,3380.992l-30.527-.146-10.348-49a4.382,4.382,0,0,0-4.269-3.476h-63.8a4.381,4.381,0,0,0-4.259,5.291l10.508,48.186a3.514,3.514,0,0,0,3.436,2.765H679.925C679.925,3382.142,677.979,3380.992,675.506,3380.992Z" transform="translate(-562.213 -3220.358)" fill="#e0e0e0"/>
      <path id="Trazado_105186" data-name="Trazado 105186" d="M714.834,3384.619c-.068,0-2.945-12.563-6.425-28.094s-6.25-28.138-6.181-28.157,2.945,12.563,6.43,28.1S714.9,3384.6,714.834,3384.619Z" transform="translate(-634.078 -3220.358)" fill="#5e6178"/>
      <path id="Trazado_105187" data-name="Trazado 105187" d="M642.7,3382.586a4.1,4.1,0,1,1-6.006-1.256A4.352,4.352,0,0,1,642.7,3382.586Z" transform="translate(-599.656 -3247.169)" fill="#fff"/>
      <rect id="Rectángulo_8043" data-name="Rectángulo 8043" width="4.419" height="2.025" rx="1.012" transform="translate(94.705 161.292)" fill="#5e6178"/>
      <path id="Trazado_105188" data-name="Trazado 105188" d="M806.041,3439.508a1.633,1.633,0,0,1,.132.141,1.3,1.3,0,0,1,.219.516,2.088,2.088,0,0,1-.8,1.947,2.885,2.885,0,0,1-1.46.55,7.96,7.96,0,0,1-1.854-.049,10.6,10.6,0,0,0-2.1-.121,3.272,3.272,0,0,0-1.1.253,1.621,1.621,0,0,0-.866.725,1.033,1.033,0,0,0,.238,1.091,2.576,2.576,0,0,0,1.051.73,10.491,10.491,0,0,1,1.29.555,1.747,1.747,0,0,1,.891,1.188,2.394,2.394,0,0,1-1.611,2.478,9.364,9.364,0,0,1-3.222.4,53.445,53.445,0,0,1-6.916-.448c-2.385-.282-4.867-.633-7.379-.862a38.768,38.768,0,0,0-7.4,0c-2.385.219-4.687.551-6.9.589a11.689,11.689,0,0,1-3.232-.287,4.539,4.539,0,0,1-2.58-1.636,3.238,3.238,0,0,1-.6-2.764,1.977,1.977,0,0,1,2.069-1.46,1.124,1.124,0,0,1,.944.808,1.419,1.419,0,0,1-.234,1.168,1.456,1.456,0,0,1-.944.613,1.844,1.844,0,0,1-1.046-.141,2.485,2.485,0,0,1-1.28-1.338,4.636,4.636,0,0,1-.321-1.528c-.039-.939.049-1.665.049-2.152v-.56a.936.936,0,0,1,0-.189,1.377,1.377,0,0,1,.024.189c0,.126.024.312.029.56,0,.487-.049,1.217,0,2.142a4.5,4.5,0,0,0,.336,1.49,2.349,2.349,0,0,0,1.222,1.256,1.711,1.711,0,0,0,.973.126,1.278,1.278,0,0,0,.837-.56,1.263,1.263,0,0,0,.209-1.027.974.974,0,0,0-.808-.677,1.792,1.792,0,0,0-1.859,1.334,3.062,3.062,0,0,0,.584,2.589,4.3,4.3,0,0,0,2.468,1.538,11.325,11.325,0,0,0,3.169.272c2.2-.044,4.492-.379,6.887-.6a38.867,38.867,0,0,1,7.442,0c2.541.229,5,.584,7.384.867a54.1,54.1,0,0,0,6.887.462,9.089,9.089,0,0,0,3.139-.38,2.429,2.429,0,0,0,1.149-.891,1.885,1.885,0,0,0,.336-1.338,1.521,1.521,0,0,0-.784-1.052,9.5,9.5,0,0,0-1.265-.55,2.809,2.809,0,0,1-1.119-.789,1.548,1.548,0,0,1-.317-.608,1.043,1.043,0,0,1,.063-.677,1.747,1.747,0,0,1,.973-.808,3.665,3.665,0,0,1,1.154-.263,10.964,10.964,0,0,1,2.127.146,7.877,7.877,0,0,0,1.83.068,2.758,2.758,0,0,0,1.412-.487,2.044,2.044,0,0,0,.817-1.84A1.4,1.4,0,0,0,806.041,3439.508Z" transform="translate(-664.255 -3277.404)" fill="#5e6178"/>
      <path id="Trazado_105189" data-name="Trazado 105189" d="M889.049,3439.42c0,.068-14.485.126-32.348.126s-32.353-.058-32.353-.126,14.461-.122,32.353-.122S889.049,3439.347,889.049,3439.42Z" transform="translate(-696.761 -3277.296)" fill="#344154"/>
    </g>
    <g id="freepik--speech-bubble--inject-3" transform="translate(615.952 3026.98)">
      <path id="Trazado_105190" data-name="Trazado 105190" d="M903.955,3090.025l8.483-1.3a25.987,25.987,0,1,0-6.731-6.43h0Z" transform="translate(-900.658 -3040.98)" fill="#d93328"/>
      <path id="Trazado_105191" data-name="Trazado 105191" d="M903.863,3089.968l.1-.486.321-1.46c.288-1.314.715-3.256,1.266-5.777a.053.053,0,0,1,.062-.044h0l-.078.073a26.3,26.3,0,0,1-2.847-4.959,26.516,26.516,0,0,1-2.118-10.888,29.325,29.325,0,0,1,.487-4.312,25.96,25.96,0,0,1,32.932-20.1,26.935,26.935,0,0,1,5.758,2.434l1.329.866.672.438c.219.151.419.326.628.487l1.261,1.022c.414.341.779.735,1.173,1.1a24.225,24.225,0,0,1,2.137,2.342l.258.3.229.322.448.647c.3.433.623.847.886,1.295s.511.905.769,1.358c.126.224.258.448.38.677l.312.71.628,1.407c.2.487.331.974.487,1.46a26.03,26.03,0,0,1-16.638,32.838q-1.007.33-2.037.576l-1.08.243-.535.117-.54.063c-.716.083-1.416.18-2.108.248a35.738,35.738,0,0,1-4.03-.039,25.886,25.886,0,0,1-12.066-4.206h.039l-6.327.93-1.616.238-.54.073.56-.1,1.626-.258,6.293-.973h.034a26.141,26.141,0,0,0,5.125,2.6,25.747,25.747,0,0,0,6.9,1.538,34.074,34.074,0,0,0,4,.029c.686-.073,1.387-.166,2.1-.253l.535-.063.526-.122,1.076-.243a25.8,25.8,0,0,0,19.077-31.1q-.248-1.037-.582-2.05c-.165-.487-.307-.973-.487-1.46l-.623-1.4-.312-.7c-.117-.224-.248-.443-.375-.672q-.38-.661-.759-1.343c-.263-.443-.584-.852-.876-1.28l-.448-.638-.224-.321-.258-.3a24.357,24.357,0,0,0-2.156-2.322c-.389-.365-.754-.754-1.163-1.095l-1.241-.974c-.209-.16-.409-.336-.623-.487l-.667-.433-1.319-.857a26.854,26.854,0,0,0-5.695-2.434,25.559,25.559,0,0,0-22.161,3.626,25.92,25.92,0,0,0-7.116,7.52,25.64,25.64,0,0,0-3.407,8.761,28.86,28.86,0,0,0-.487,4.283,25.654,25.654,0,0,0,.214,4.01,25.977,25.977,0,0,0,4.726,11.735.058.058,0,0,1,0,.078.053.053,0,0,1-.063,0h0l.083-.03c-.574,2.5-1.017,4.425-1.319,5.734-.151.647-.268,1.144-.345,1.485A2.047,2.047,0,0,1,903.863,3089.968Z" transform="translate(-900.566 -3040.924)" fill="#5e6178"/>
      <g id="Grupo_56872" data-name="Grupo 56872" transform="translate(11.969 6.936)">
        <path id="Trazado_105192" data-name="Trazado 105192" d="M925.157,3061.964a6.494,6.494,0,0,1,1.963-4.907,7.118,7.118,0,0,1,5.144-1.884,7.228,7.228,0,0,1,5.189,1.861,6.616,6.616,0,0,1,1.963,5.042v1.625a6.41,6.41,0,0,1-1.963,4.9,8.1,8.1,0,0,1-10.321-.011,6.567,6.567,0,0,1-1.974-5.02Zm4.332,1.737a3.039,3.039,0,0,0,.778,2.177,2.679,2.679,0,0,0,2.042.823,2.557,2.557,0,0,0,2.008-.834,3.232,3.232,0,0,0,.745-2.234v-1.67a3.166,3.166,0,0,0-.745-2.189,2.9,2.9,0,0,0-4.061-.011,3.231,3.231,0,0,0-.767,2.29Zm4.106,22.335-3.181-1.714,16.041-25.674,3.181,1.715Zm7.264-5.595a6.411,6.411,0,0,1,1.985-4.907,7.217,7.217,0,0,1,5.144-1.862,7.294,7.294,0,0,1,5.177,1.839,6.583,6.583,0,0,1,1.974,5.065v1.625a6.461,6.461,0,0,1-1.94,4.884,7.151,7.151,0,0,1-5.167,1.861,7.235,7.235,0,0,1-5.211-1.873,6.543,6.543,0,0,1-1.963-4.964Zm4.332,1.76a3.014,3.014,0,0,0,.812,2.121,2.648,2.648,0,0,0,2.03.879q2.752,0,2.752-3.045v-1.715a3.068,3.068,0,0,0-.767-2.177,2.915,2.915,0,0,0-4.061,0,3.163,3.163,0,0,0-.767,2.245Z" transform="translate(-925.157 -3055.173)" fill="#f2e9e4"/>
      </g>
    </g>
  </g>
</svg>
